<?xml version="1.0" encoding="utf-8"?>
<!-- Generator: Adobe Illustrator 19.2.1, SVG Export Plug-In . SVG Version: 6.00 Build 0)  -->
<svg version="1.1" id="Layer_1" xmlns="http://www.w3.org/2000/svg" xmlns:xlink="http://www.w3.org/1999/xlink" x="0px" y="0px"
	 viewBox="0 0 317.5 268.4" style="enable-background:new 0 0 317.5 268.4;" xml:space="preserve">
<style type="text/css">
	.st0{fill:#EFCA2E;}
	.st1{fill:#E85725;}
	.st2{fill:#ED1C24;}
	.st3{fill:#E0962B;}
</style>
<path class="st0" d="M0,167.8c0-19.8,5.5-39.5,17.4-55.3L95.6,3.4c4-5.5,5.5-3.2,8.7,0.8c26.1,36.4,53.8,72.7,79,110.6
	c22.9,34.8,20.6,81.4-5.5,114.6c-33.2,43.5-95.6,52.1-139.1,18.1C13.7,228.7-0.7,199,0,167.8z M51.4,166.2
	c-0.8,26.1,20.5,48.2,46.6,48.2c26.1,0.8,48.2-20.6,48.2-46.6c0-24.5-24.5-51.4-48.2-50.6C73.5,120.3,53.8,140.9,51.4,166.2
	L51.4,166.2z"/>
<path class="st1" d="M39.2,167.9c-0.3-19.8,5.7-39.2,17.2-55.3C82.3,76.1,109,40,135,3.7c4.1-5.8,5.8-3.2,8.5,0.6
	c26.3,36.7,53.5,73,79,110.7c23.3,35.2,21.4,81.3-4.8,114.4c-33.4,43.6-95.8,51.9-139.4,18.5C53.4,228.9,38.9,199.2,39.2,167.9z
	 M91.2,166.5c-0.6,26.2,20.2,47.9,46.4,48.5s47.9-20.2,48.5-46.4c0-24.6-24.8-51.6-47.9-50.8C113,120.7,93.2,141.1,91.2,166.5
	L91.2,166.5z"/>
<title>cover</title>
<path class="st2" d="M278,100.7c0,19.8-5.5,39.5-17.4,55.3l-78.3,109.1c-4,5.5-5.5,3.2-8.7-0.8c-26.1-36.4-53.8-72.7-79.1-110.7
	C71.7,118.9,74,72.2,100.1,39c33.2-43.5,95.7-52.2,139.1-18.2C264.3,39.6,278.8,69.4,278,100.7z M226.7,102.3
	C227.4,76.2,206.1,54,180,54c-26.1-0.8-48.2,20.6-48.2,46.7c0,24.5,24.5,51.4,48.2,50.6C204.5,148.1,224.2,127.6,226.7,102.3z"/>
<path class="st3" d="M317.5,100.7c0,19.8-5.5,39.5-17.4,55.3l-78.3,109.1c-4,5.5-5.5,3.2-8.7-0.8C187,228,159.3,191.6,134,153.7
	c-22.9-34.8-20.5-81.4,5.5-114.7c33.2-43.5,95.7-52.2,139.1-18.2C303.8,39.6,318.2,69.4,317.5,100.7z M266.1,102.3
	c0.8-26.1-20.6-48.3-46.7-48.3c-26.1-0.8-48.2,20.6-48.2,46.7c0,24.5,24.5,51.4,48.2,50.6C243.9,148.1,263.7,127.6,266.1,102.3
	L266.1,102.3z"/>
</svg>
