<?xml version="1.0" encoding="utf-8"?>
<!-- Generator: Adobe Illustrator 21.1.0, SVG Export Plug-In . SVG Version: 6.00 Build 0)  -->
<svg version="1.1" id="Layer_1" xmlns="http://www.w3.org/2000/svg" xmlns:xlink="http://www.w3.org/1999/xlink" x="0px" y="0px"
	 viewBox="0 0 1820 1820" style="enable-background:new 0 0 1820 1820;" xml:space="preserve">
<style type="text/css">
	.st0{fill:#3A2EFF;}
	.st1{clip-path:url(#SVGID_2_);}
	.st2{clip-path:url(#SVGID_4_);enable-background:new    ;}
</style>
<path class="st0" d="M1537.5,1214.8H860.3c-24.6,0-44.5-19.9-44.5-44.5V428.2c0-24.6,19.9-44.5,44.5-44.5h677.3
	c24.6,0,44.5,19.9,44.5,44.5v742.1C1582,1194.9,1562.1,1214.8,1537.5,1214.8z"/>
<g id="JSlXeP.tif">
	
		<image style="overflow:visible;" width="1241" height="855" xlink:href="235049C19AEFC34B.png"  transform="matrix(1 0 0 1 297 453)">
	</image>
</g>
<g>
	<g>
		<defs>
			<polygon id="SVGID_1_" points="366,1357.6 390,1176 478,1104 532,1018 486,910 494,772 532,720 628,654 724,626 824,626 960,666 
				1000,766 1038,842 1192,836 1274,860 1316,882 1468,860 1520,900 1566,991.8 1510,1190 1482,1286 1484,1357.6 			"/>
		</defs>
		<clipPath id="SVGID_2_">
			<use xlink:href="#SVGID_1_"  style="overflow:visible;"/>
		</clipPath>
		<g id="CataFK.tif" class="st1">
			
				<image style="overflow:visible;enable-background:new    ;" width="2592" height="2944" id="Layer_0_1_" xlink:href="235049C19AEFC349.png"  transform="matrix(2.667893e-17 -0.4357 0.4357 2.667893e-17 268.6923 1633.7015)">
			</image>
		</g>
	</g>
</g>
<g>
	<g>
		<defs>
			<polygon id="SVGID_3_" points="400,1357.6 400,1232 452,1174 512,1106 584,1032 526,942 514,792 584,692 750,654 892,666 
				952,742 974,874 1050,870 1142,864 1256,886 1294,910 1368,900 1466,920 1520,958 1520,1066 1494,1158 1468,1214 1458,1316 
				1464,1357.6 			"/>
		</defs>
		<clipPath id="SVGID_4_">
			<use xlink:href="#SVGID_3_"  style="overflow:visible;"/>
		</clipPath>
		<g transform="matrix(1 0 0 1 0 0)" class="st2">
			
				<image style="overflow:visible;enable-background:new    ;" width="1008" height="672" xlink:href="235049C19AEFC348.png"  transform="matrix(1.3333 0 0 1.332 238 462.448)">
			</image>
		</g>
	</g>
</g>
</svg>
