<?xml version="1.0" encoding="utf-8"?>
<!-- Generator: Adobe Illustrator 21.1.0, SVG Export Plug-In . SVG Version: 6.00 Build 0)  -->
<svg version="1.1" id="Layer_1" xmlns="http://www.w3.org/2000/svg" xmlns:xlink="http://www.w3.org/1999/xlink" x="0px" y="0px"
	 viewBox="0 0 624 388" style="enable-background:new 0 0 624 388;" xml:space="preserve">
<style type="text/css">
	.st0{fill:#FFFFFF;}
	.st1{fill:none;stroke:#000000;stroke-width:3;stroke-miterlimit:10;}
	.st2{font-family:'VT323-Regular';}
	.st3{font-size:12.9336px;}
</style>
<g>
	<g>
		<path d="M341.5,101.5c-0.5,0-1,0-1.6,0c0-1.1,0-2.1,0-3.2c-0.5,0-1,0-1.6,0c0-1.1,0-2.1,0-3.2c-0.6,0-1,0-1.6,0c0-0.5,0-1,0-1.6
			c-0.6,0-1.1,0-1.6,0c0-0.6,0-1,0-1.6c-0.5,0-1,0-1.6,0c0-0.6,0-1.1,0-1.6c-0.6,0-1,0-1.6,0c0-0.5,0-1,0-1.6c-0.6,0-1.1,0-1.6,0
			c0-0.6,0-1,0-1.6c-0.5,0-1,0-1.6,0c0-0.6,0-1.1,0-1.6c-1.1,0-2.1,0-3.2,0c0-0.5,0-1,0-1.6c-1.6,0-3.2,0-4.8,0c0-0.6,0-1,0-1.5
			c-6.4,0-12.7,0-19.1,0c0,0.5,0,1,0,1.6c-1.6,0-3.2,0-4.8,0c0,0.5,0,1,0,1.6c-0.6,0-1,0-1.6,0c0,0.5,0,1,0,1.6c-1.1,0-2.1,0-3.2,0
			c0,0.6,0,1,0,1.6c-0.5,0-1,0-1.6,0c0,0.6,0,1.1,0,1.6c-0.6,0-1,0-1.6,0c0,0.5,0,1,0,1.6c-0.6,0-1.1,0-1.6,0c0,0.6,0,1,0,1.6
			c-0.5,0-1,0-1.6,0c0,0.6,0,1.1,0,1.6c-0.5,0-1,0-1.6,0c0,1.1,0,2.1,0,3.2c-0.6,0-1.1,0-1.6,0c0,1.1,0,2.1,0,3.2c-0.5,0-1,0-1.6,0
			c0,2.2,0,4.2,0,6.4c-0.6,0-1,0-1.5,0c0,3.2,0,6.4,0,9.6c0.5,0,1,0,1.6,0c0,2.1,0,4.2,0,6.4c0.5,0,1,0,1.6,0c0,1.6,0,3.2,0,4.8
			c0.5,0,1,0,1.6,0c0,0.6,0,1.1,0,1.6c0.6,0,1,0,1.6,0c0,1.1,0,2.1,0,3.2c0.6,0,1.1,0,1.6,0c0,0.6,0,1,0,1.6c0.5,0,1,0,1.6,0
			c0,0.6,0,1.1,0,1.6c0.6,0,1,0,1.6,0c0,0.5,0,1,0,1.6c0.6,0,1.1,0,1.6,0c0,0.6,0,1,0,1.6c1.1,0,2.1,0,3.2,0c0,0.6,0,1.1,0,1.6
			c1.1,0,2.1,0,3.2,0c0,0.5,0,1,0,1.6c1.1,0,2.1,0,3.2,0c0,0.6,0,1,0,1.5c6.4,0,12.7,0,19.1,0c0-0.5,0-1,0-1.6c1.6,0,3.2,0,4.8,0
			c0-0.5,0-1,0-1.6c0.6,0,1,0,1.6,0c0-0.5,0-1,0-1.6c1.1,0,2.1,0,3.2,0c0-0.6,0-1,0-1.6c0.5,0,1,0,1.6,0c0-0.6,0-1.1,0-1.6
			c0.6,0,1,0,1.6,0c0-0.5,0-1,0-1.6c0.6,0,1.1,0,1.6,0c0-0.6,0-1,0-1.6c0.5,0,1,0,1.6,0c0-0.6,0-1.1,0-1.6c0.6,0,1,0,1.6,0
			c0-1.1,0-2.1,0-3.2c0.6,0,1.1,0,1.6,0c0-1.1,0-2.1,0-3.2c0.5,0,1,0,1.6,0c0-1.6,0-3.2,0-4.8c0.6,0,1,0,1.5,0c0-4.8,0-9.5,0-14.4
			c-0.5,0-1,0-1.6,0C341.5,104.7,341.5,103.1,341.5,101.5z M329.1,123.6c-12,0-23.9,0-35.9,0c0-0.8,0-1.9,0-2.7c0.8,0,1.3,0,2.4,0
			c0.3-0.8,0.3-1.6,0.3-2.4c0.8-0.3,1.6-0.3,2.4-0.3c0-1.6,0-3.5,0-5.1c1.1,0,1.6,0,2.7,0c0-0.8,0-1.9,0-2.7
			c0.8-0.3,1.6-0.3,2.4-0.3c0-1.6,0-3.2,0-5.1c0.8,0,1.9,0,2.7,0c0.3-0.8,0.3-1.9,0.3-2.7c0.8,0,1.6,0,2.7,0c0-1.6,0-3.5,0-5.1
			c1.6,0,3.2,0,5.1,0c0,1.9,0,3.5,0,5.1c0.8,0.3,1.6,0.3,2.4,0.3c0,0.8,0,1.9,0,2.7c0.8,0,1.6,0,2.7,0c0,1.6,0,3.5,0,5.1
			c0.8,0.3,1.6,0.3,2.4,0.3c0,1.1,0,1.6,0,2.7c0.8,0,1.6,0,2.7,0c0,1.6,0,3.5,0,5.1c1.1,0,1.6,0,2.7,0c0,0.8,0,1.6,0,2.4
			c0.8,0.3,1.6,0.3,2.4,0.3C329.1,122,329.1,122.8,329.1,123.6z"/>
		<path d="M341.5,177.4c-0.5,0-1,0-1.6,0c0-1.6,0-3.2,0-4.8c-0.5,0-1,0-1.6,0c0-0.6,0-1.1,0-1.6c-0.6,0-1,0-1.6,0c0-1.1,0-2.1,0-3.2
			c-0.6,0-1.1,0-1.6,0c0-0.6,0-1,0-1.6c-0.5,0-1,0-1.6,0c0-0.6,0-1.1,0-1.6c-0.6,0-1,0-1.6,0c0-0.5,0-1,0-1.6c-0.6,0-1.1,0-1.6,0
			c0-0.6,0-1,0-1.6c-1.1,0-2.1,0-3.2,0c0-0.6,0-1.1,0-1.6c-1.1,0-2.1,0-3.2,0c0-0.5,0-1,0-1.6c-1.1,0-2.1,0-3.2,0c0-0.6,0-1,0-1.5
			c-6.4,0-12.7,0-19.1,0c0,0.5,0,1,0,1.6c-1.6,0-3.2,0-4.8,0c0,0.5,0,1,0,1.6c-0.6,0-1,0-1.6,0c0,0.5,0,1,0,1.6c-1.1,0-2.1,0-3.2,0
			c0,0.6,0,1,0,1.6c-0.5,0-1,0-1.6,0c0,0.6,0,1.1,0,1.6c-0.6,0-1,0-1.6,0c0,0.5,0,1,0,1.6c-0.6,0-1.1,0-1.6,0c0,0.6,0,1,0,1.6
			c-0.5,0-1,0-1.6,0c0,0.6,0,1.1,0,1.6c-0.6,0-1,0-1.6,0c0,1.1,0,2.1,0,3.2c-0.6,0-1.1,0-1.6,0c0,1.1,0,2.1,0,3.2c-0.5,0-1,0-1.6,0
			c0,1.6,0,3.2,0,4.8c-0.6,0-1,0-1.5,0c0,4.8,0,9.5,0,14.4c0.5,0,1,0,1.6,0c0,1.6,0,3.2,0,4.8c0.5,0,1,0,1.6,0c0,1.1,0,2.1,0,3.2
			c0.5,0,1,0,1.6,0c0,1.1,0,2.1,0,3.2c0.6,0,1,0,1.6,0c0,0.5,0,1,0,1.6c0.6,0,1.1,0,1.6,0c0,0.6,0,1,0,1.6c0.5,0,1,0,1.6,0
			c0,0.6,0,1.1,0,1.6c0.6,0,1,0,1.6,0c0,0.5,0,1,0,1.6c0.6,0,1.1,0,1.6,0c0,0.6,0,1,0,1.6c0.5,0,1,0,1.6,0c0,0.6,0,1.1,0,1.6
			c1.1,0,2.1,0,3.2,0c0,0.5,0,1,0,1.6c1.6,0,3.2,0,4.8,0c0,0.6,0,1,0,1.5c6.4,0,12.7,0,19.1,0c0-0.5,0-1,0-1.6c1.6,0,3.2,0,4.8,0
			c0-0.5,0-1,0-1.6c0.6,0,1,0,1.6,0c0-0.5,0-1,0-1.6c1.1,0,2.1,0,3.2,0c0-0.6,0-1,0-1.6c0.5,0,1,0,1.6,0c0-0.6,0-1.1,0-1.6
			c0.6,0,1,0,1.6,0c0-0.5,0-1,0-1.6c0.6,0,1.1,0,1.6,0c0-0.6,0-1,0-1.6c0.5,0,1,0,1.6,0c0-0.6,0-1.1,0-1.6c0.5,0,1,0,1.6,0
			c0-1.1,0-2.1,0-3.2c0.6,0,1.1,0,1.6,0c0-1.1,0-2.1,0-3.2c0.5,0,1,0,1.6,0c0-2.2,0-4.2,0-6.4c0.6,0,1,0,1.5,0c0-3.2,0-6.4,0-9.6
			c-0.5,0-1,0-1.6,0C341.5,181.6,341.5,179.5,341.5,177.4z M329.1,180.3c-0.8,0-1.3,0-2.4,0c-0.3,0.8-0.3,1.6-0.3,2.4
			c-0.8,0.3-1.6,0.3-2.4,0.3c0,1.6,0,3.5,0,5.1c-1.1,0-1.6,0-2.7,0c0,0.8,0,1.9,0,2.7c-0.8,0.3-1.6,0.3-2.4,0.3c0,1.6,0,3.2,0,5.1
			c-0.8,0-1.9,0-2.7,0c-0.3,0.8-0.3,1.9-0.3,2.7c-0.8,0-1.6,0-2.7,0c0,1.6,0,3.5,0,5.1c-1.6,0-3.2,0-5.1,0c0-1.9,0-3.5,0-5.1
			c-0.8-0.3-1.6-0.3-2.4-0.3c0-0.8,0-1.9,0-2.7c-0.8,0-1.6,0-2.7,0c0-1.6,0-3.5,0-5.1c-0.8-0.3-1.6-0.3-2.4-0.3c0-1.1,0-1.6,0-2.7
			c-0.8,0-1.6,0-2.7,0c0-1.6,0-3.5,0-5.1c-1.1,0-1.6,0-2.7,0c0-0.8,0-1.6,0-2.4c-0.8-0.3-1.6-0.3-2.4-0.3c0-0.8,0-1.6,0-2.4
			c12,0,23.9,0,35.9,0C329.1,178.5,329.1,179.5,329.1,180.3z"/>
		<path d="M264.3,173.4c-0.5,0-1,0-1.6,0c0-0.6,0-1,0-1.6c-0.5,0-1,0-1.6,0c0-1.1,0-2.1,0-3.2c-0.6,0-1,0-1.6,0c0-0.5,0-1,0-1.6
			c-0.6,0-1.1,0-1.6,0c0-0.6,0-1,0-1.6c-0.5,0-1,0-1.6,0c0-0.6,0-1.1,0-1.6c-0.6,0-1,0-1.6,0c0-0.5,0-1,0-1.6c-0.6,0-1.1,0-1.6,0
			c0-0.6,0-1,0-1.6c-1.1,0-2.1,0-3.2,0c0-0.6,0-1.1,0-1.6c-1.1,0-2.1,0-3.2,0c0-0.5,0-1,0-1.6c-1.6,0-3.2,0-4.8,0c0-0.6,0-1,0-1.5
			c-4.8,0-9.5,0-14.4,0c0,0.5,0,1,0,1.6c-1.6,0-3.2,0-4.8,0c0,0.5,0,1,0,1.6c-1.1,0-2.1,0-3.2,0c0,0.5,0,1,0,1.6c-1.1,0-2.1,0-3.2,0
			c0,0.6,0,1,0,1.6c-0.5,0-1,0-1.6,0c0,0.6,0,1.1,0,1.6c-0.6,0-1,0-1.6,0c0,0.5,0,1,0,1.6c-0.6,0-1.1,0-1.6,0c0,0.6,0,1,0,1.6
			c-0.5,0-1,0-1.6,0c0,0.6,0,1.1,0,1.6c-0.6,0-1,0-1.6,0c0,0.5,0,1,0,1.6c-0.6,0-1.1,0-1.6,0c0,1.1,0,2.1,0,3.2c-0.5,0-1,0-1.6,0
			c0,1.6,0,3.2,0,4.8c-0.6,0-1,0-1.5,0c0,6.4,0,12.7,0,19.1c0.5,0,1,0,1.6,0c0,1.6,0,3.2,0,4.8c0.5,0,1,0,1.6,0c0,0.6,0,1,0,1.6
			c0.5,0,1,0,1.6,0c0,1.1,0,2.1,0,3.2c0.6,0,1,0,1.6,0c0,0.5,0,1,0,1.6c0.6,0,1.1,0,1.6,0c0,0.6,0,1,0,1.6c0.5,0,1,0,1.6,0
			c0,0.6,0,1.1,0,1.6c0.6,0,1,0,1.6,0c0,0.5,0,1,0,1.6c0.6,0,1.1,0,1.6,0c0,0.5,0,1,0,1.6c1.1,0,2.1,0,3.2,0c0,0.6,0,1.1,0,1.6
			c1.1,0,2.1,0,3.2,0c0,0.5,0,1,0,1.6c2.2,0,4.2,0,6.4,0c0,0.6,0,1,0,1.5c3.2,0,6.4,0,9.6,0c0-0.5,0-1,0-1.6c2.1,0,4.2,0,6.4,0
			c0-0.5,0-1,0-1.6c1.6,0,3.2,0,4.8,0c0-0.5,0-1,0-1.6c0.6,0,1.1,0,1.6,0c0-0.6,0-1,0-1.6c1.1,0,2.1,0,3.2,0c0-0.6,0-1.1,0-1.6
			c0.6,0,1,0,1.6,0c0-0.5,0-1,0-1.6c0.6,0,1.1,0,1.6,0c0-0.6,0-1,0-1.6c0.5,0,1,0,1.6,0c0-0.6,0-1.1,0-1.6c0.6,0,1,0,1.6,0
			c0-1.1,0-2.1,0-3.2c0.6,0,1.1,0,1.6,0c0-1.1,0-2.1,0-3.2c0.5,0,1,0,1.6,0c0-1.1,0-2.1,0-3.2c0.6,0,1,0,1.5,0c0-6.4,0-12.7,0-19.1
			c-0.5,0-1,0-1.6,0C264.3,176.5,264.3,175,264.3,173.4z M244.9,205.7c-0.8,0-1.9,0-2.7,0c0-0.8,0-1.3,0-2.4
			c-0.8-0.3-1.6-0.3-2.4-0.3c-0.3-0.8-0.3-1.6-0.3-2.4c-1.6,0-3.5,0-5.1,0c0-1.1,0-1.6,0-2.7c-0.8,0-1.9,0-2.7,0
			c-0.3-0.8-0.3-1.6-0.3-2.4c-1.6,0-3.2,0-5.1,0c0-0.8,0-1.9,0-2.7c-0.8-0.3-1.9-0.3-2.7-0.3c0-0.8,0-1.6,0-2.7c-1.6,0-3.5,0-5.1,0
			c0-1.6,0-3.2,0-5.1c1.9,0,3.5,0,5.1,0c0.3-0.8,0.3-1.6,0.3-2.4c0.8,0,1.9,0,2.7,0c0-0.8,0-1.6,0-2.7c1.6,0,3.5,0,5.1,0
			c0.3-0.8,0.3-1.6,0.3-2.4c1.1,0,1.6,0,2.7,0c0-0.8,0-1.6,0-2.7c1.6,0,3.5,0,5.1,0c0-1.1,0-1.6,0-2.7c0.8,0,1.6,0,2.4,0
			c0.3-0.8,0.3-1.6,0.3-2.4c0.8,0,1.6,0,2.4,0C244.9,181.8,244.9,193.7,244.9,205.7z"/>
		<path d="M417,178.1c0-1.6,0-3.2,0-4.8c-0.5,0-1,0-1.6,0c0-0.6,0-1,0-1.6c-0.5,0-1,0-1.6,0c0-1.1,0-2.1,0-3.2c-0.6,0-1,0-1.6,0
			c0-0.5,0-1,0-1.6c-0.6,0-1.1,0-1.6,0c0-0.6,0-1,0-1.6c-0.5,0-1,0-1.6,0c0-0.6,0-1.1,0-1.6c-0.6,0-1,0-1.6,0c0-0.5,0-1,0-1.6
			c-0.6,0-1.1,0-1.6,0c0-0.5,0-1,0-1.6c-1.1,0-2.1,0-3.2,0c0-0.6,0-1.1,0-1.6c-1.1,0-2.1,0-3.2,0c0-0.5,0-1,0-1.6
			c-2.2,0-4.2,0-6.4,0c0-0.6,0-1,0-1.5c-3.2,0-6.4,0-9.6,0c0,0.5,0,1,0,1.6c-2.1,0-4.2,0-6.4,0c0,0.5,0,1,0,1.6c-1.6,0-3.2,0-4.8,0
			c0,0.5,0,1,0,1.6c-0.6,0-1.1,0-1.6,0c0,0.6,0,1,0,1.6c-1.1,0-2.1,0-3.2,0c0,0.6,0,1.1,0,1.6c-0.6,0-1,0-1.6,0c0,0.5,0,1,0,1.6
			c-0.6,0-1.1,0-1.6,0c0,0.6,0,1,0,1.6c-0.5,0-1,0-1.6,0c0,0.6,0,1.1,0,1.6c-0.6,0-1,0-1.6,0c0,1.1,0,2.1,0,3.2c-0.6,0-1.1,0-1.6,0
			c0,1.1,0,2.1,0,3.2c-0.5,0-1,0-1.6,0c0,1.1,0,2.1,0,3.2c-0.6,0-1,0-1.5,0c0,6.4,0,12.7,0,19.1c0.5,0,1,0,1.6,0c0,1.6,0,3.2,0,4.8
			c0.5,0,1,0,1.6,0c0,0.6,0,1,0,1.6c0.5,0,1,0,1.6,0c0,1.1,0,2.1,0,3.2c0.6,0,1,0,1.6,0c0,0.5,0,1,0,1.6c0.6,0,1.1,0,1.6,0
			c0,0.6,0,1,0,1.6c0.5,0,1,0,1.6,0c0,0.6,0,1.1,0,1.6c0.6,0,1,0,1.6,0c0,0.5,0,1,0,1.6c0.6,0,1.1,0,1.6,0c0,0.6,0,1,0,1.6
			c1.1,0,2.1,0,3.2,0c0,0.6,0,1.1,0,1.6c1.1,0,2.1,0,3.2,0c0,0.5,0,1,0,1.6c1.6,0,3.2,0,4.8,0c0,0.6,0,1,0,1.5c4.8,0,9.5,0,14.4,0
			c0-0.5,0-1,0-1.6c1.6,0,3.2,0,4.8,0c0-0.5,0-1,0-1.6c1.1,0,2.1,0,3.2,0c0-0.5,0-1,0-1.6c1.1,0,2.1,0,3.2,0c0-0.6,0-1,0-1.6
			c0.5,0,1,0,1.6,0c0-0.6,0-1.1,0-1.6c0.6,0,1,0,1.6,0c0-0.5,0-1,0-1.6c0.6,0,1.1,0,1.6,0c0-0.6,0-1,0-1.6c0.5,0,1,0,1.6,0
			c0-0.6,0-1.1,0-1.6c0.6,0,1,0,1.6,0c0-0.5,0-1,0-1.6c0.6,0,1.1,0,1.6,0c0-1.1,0-2.1,0-3.2c0.5,0,1,0,1.6,0c0-1.6,0-3.2,0-4.8
			c0.6,0,1,0,1.5,0c0-6.4,0-12.7,0-19.1C418.1,178.1,417.6,178.1,417,178.1z M403.5,190.5c-1.9,0-3.5,0-5.1,0
			c-0.3,0.8-0.3,1.6-0.3,2.4c-0.8,0-1.9,0-2.7,0c0,0.8,0,1.6,0,2.7c-1.6,0-3.5,0-5.1,0c-0.3,0.8-0.3,1.6-0.3,2.4c-1.1,0-1.6,0-2.7,0
			c0,0.8,0,1.6,0,2.7c-1.6,0-3.5,0-5.1,0c0,1.1,0,1.6,0,2.7c-0.8,0-1.6,0-2.4,0c-0.3,0.8-0.3,1.6-0.3,2.4c-0.8,0-1.6,0-2.4,0
			c0-12,0-23.9,0-35.9c0.8,0,1.9,0,2.7,0c0,0.8,0,1.3,0,2.4c0.8,0.3,1.6,0.3,2.4,0.3c0.3,0.8,0.3,1.6,0.3,2.4c1.6,0,3.5,0,5.1,0
			c0,1.1,0,1.6,0,2.7c0.8,0,1.9,0,2.7,0c0.3,0.8,0.3,1.6,0.3,2.4c1.6,0,3.2,0,5.1,0c0,0.8,0,1.9,0,2.7c0.8,0.3,1.9,0.3,2.7,0.3
			c0,0.8,0,1.6,0,2.7c1.6,0,3.5,0,5.1,0C403.5,187.1,403.5,188.7,403.5,190.5z"/>
	</g>
	<g>
		<path class="st0" d="M345.5,97.5c-0.5,0-1,0-1.6,0c0-1.1,0-2.1,0-3.2c-0.5,0-1,0-1.6,0c0-1.1,0-2.1,0-3.2c-0.6,0-1,0-1.6,0
			c0-0.5,0-1,0-1.6c-0.6,0-1.1,0-1.6,0c0-0.6,0-1,0-1.6c-0.5,0-1,0-1.6,0c0-0.6,0-1.1,0-1.6c-0.6,0-1,0-1.6,0c0-0.5,0-1,0-1.6
			c-0.6,0-1.1,0-1.6,0c0-0.6,0-1,0-1.6c-0.5,0-1,0-1.6,0c0-0.6,0-1.1,0-1.6c-1.1,0-2.1,0-3.2,0c0-0.5,0-1,0-1.6c-1.6,0-3.2,0-4.8,0
			c0-0.6,0-1,0-1.5c-6.4,0-12.7,0-19.1,0c0,0.5,0,1,0,1.6c-1.6,0-3.2,0-4.8,0c0,0.5,0,1,0,1.6c-0.6,0-1,0-1.6,0c0,0.5,0,1,0,1.6
			c-1.1,0-2.1,0-3.2,0c0,0.6,0,1,0,1.6c-0.5,0-1,0-1.6,0c0,0.6,0,1.1,0,1.6c-0.6,0-1,0-1.6,0c0,0.5,0,1,0,1.6c-0.6,0-1.1,0-1.6,0
			c0,0.6,0,1,0,1.6c-0.5,0-1,0-1.6,0c0,0.6,0,1.1,0,1.6c-0.5,0-1,0-1.6,0c0,1.1,0,2.1,0,3.2c-0.6,0-1.1,0-1.6,0c0,1.1,0,2.1,0,3.2
			c-0.5,0-1,0-1.6,0c0,2.2,0,4.2,0,6.4c-0.6,0-1,0-1.5,0c0,3.2,0,6.4,0,9.6c0.5,0,1,0,1.6,0c0,2.1,0,4.2,0,6.4c0.5,0,1,0,1.6,0
			c0,1.6,0,3.2,0,4.8c0.5,0,1,0,1.6,0c0,0.6,0,1.1,0,1.6c0.6,0,1,0,1.6,0c0,1.1,0,2.1,0,3.2c0.6,0,1.1,0,1.6,0c0,0.6,0,1,0,1.6
			c0.5,0,1,0,1.6,0c0,0.6,0,1.1,0,1.6c0.6,0,1,0,1.6,0c0,0.5,0,1,0,1.6c0.6,0,1.1,0,1.6,0c0,0.6,0,1,0,1.6c1.1,0,2.1,0,3.2,0
			c0,0.6,0,1.1,0,1.6c1.1,0,2.1,0,3.2,0c0,0.5,0,1,0,1.6c1.1,0,2.1,0,3.2,0c0,0.6,0,1,0,1.5c6.4,0,12.7,0,19.1,0c0-0.5,0-1,0-1.6
			c1.6,0,3.2,0,4.8,0c0-0.5,0-1,0-1.6c0.6,0,1,0,1.6,0c0-0.5,0-1,0-1.6c1.1,0,2.1,0,3.2,0c0-0.6,0-1,0-1.6c0.5,0,1,0,1.6,0
			c0-0.6,0-1.1,0-1.6c0.6,0,1,0,1.6,0c0-0.5,0-1,0-1.6c0.6,0,1.1,0,1.6,0c0-0.6,0-1,0-1.6c0.5,0,1,0,1.6,0c0-0.6,0-1.1,0-1.6
			c0.6,0,1,0,1.6,0c0-1.1,0-2.1,0-3.2c0.6,0,1.1,0,1.6,0c0-1.1,0-2.1,0-3.2c0.5,0,1,0,1.6,0c0-1.6,0-3.2,0-4.8c0.6,0,1,0,1.5,0
			c0-4.8,0-9.5,0-14.4c-0.5,0-1,0-1.6,0C345.5,100.7,345.5,99.1,345.5,97.5z M333.1,119.6c-12,0-23.9,0-35.9,0c0-0.8,0-1.9,0-2.7
			c0.8,0,1.3,0,2.4,0c0.3-0.8,0.3-1.6,0.3-2.4c0.8-0.3,1.6-0.3,2.4-0.3c0-1.6,0-3.5,0-5.1c1.1,0,1.6,0,2.7,0c0-0.8,0-1.9,0-2.7
			c0.8-0.3,1.6-0.3,2.4-0.3c0-1.6,0-3.2,0-5.1c0.8,0,1.9,0,2.7,0c0.3-0.8,0.3-1.9,0.3-2.7c0.8,0,1.6,0,2.7,0c0-1.6,0-3.5,0-5.1
			c1.6,0,3.2,0,5.1,0c0,1.9,0,3.5,0,5.1c0.8,0.3,1.6,0.3,2.4,0.3c0,0.8,0,1.9,0,2.7c0.8,0,1.6,0,2.7,0c0,1.6,0,3.5,0,5.1
			c0.8,0.3,1.6,0.3,2.4,0.3c0,1.1,0,1.6,0,2.7c0.8,0,1.6,0,2.7,0c0,1.6,0,3.5,0,5.1c1.1,0,1.6,0,2.7,0c0,0.8,0,1.6,0,2.4
			c0.8,0.3,1.6,0.3,2.4,0.3C333.1,118,333.1,118.8,333.1,119.6z"/>
		<path class="st0" d="M345.5,173.4c-0.5,0-1,0-1.6,0c0-1.6,0-3.2,0-4.8c-0.5,0-1,0-1.6,0c0-0.6,0-1.1,0-1.6c-0.6,0-1,0-1.6,0
			c0-1.1,0-2.1,0-3.2c-0.6,0-1.1,0-1.6,0c0-0.6,0-1,0-1.6c-0.5,0-1,0-1.6,0c0-0.6,0-1.1,0-1.6c-0.6,0-1,0-1.6,0c0-0.5,0-1,0-1.6
			c-0.6,0-1.1,0-1.6,0c0-0.6,0-1,0-1.6c-1.1,0-2.1,0-3.2,0c0-0.6,0-1.1,0-1.6c-1.1,0-2.1,0-3.2,0c0-0.5,0-1,0-1.6
			c-1.1,0-2.1,0-3.2,0c0-0.6,0-1,0-1.5c-6.4,0-12.7,0-19.1,0c0,0.5,0,1,0,1.6c-1.6,0-3.2,0-4.8,0c0,0.5,0,1,0,1.6c-0.6,0-1,0-1.6,0
			c0,0.5,0,1,0,1.6c-1.1,0-2.1,0-3.2,0c0,0.6,0,1,0,1.6c-0.5,0-1,0-1.6,0c0,0.6,0,1.1,0,1.6c-0.6,0-1,0-1.6,0c0,0.5,0,1,0,1.6
			c-0.6,0-1.1,0-1.6,0c0,0.6,0,1,0,1.6c-0.5,0-1,0-1.6,0c0,0.6,0,1.1,0,1.6c-0.6,0-1,0-1.6,0c0,1.1,0,2.1,0,3.2c-0.6,0-1.1,0-1.6,0
			c0,1.1,0,2.1,0,3.2c-0.5,0-1,0-1.6,0c0,1.6,0,3.2,0,4.8c-0.6,0-1,0-1.5,0c0,4.8,0,9.5,0,14.4c0.5,0,1,0,1.6,0c0,1.6,0,3.2,0,4.8
			c0.5,0,1,0,1.6,0c0,1.1,0,2.1,0,3.2c0.5,0,1,0,1.6,0c0,1.1,0,2.1,0,3.2c0.6,0,1,0,1.6,0c0,0.5,0,1,0,1.6c0.6,0,1.1,0,1.6,0
			c0,0.6,0,1,0,1.6c0.5,0,1,0,1.6,0c0,0.6,0,1.1,0,1.6c0.6,0,1,0,1.6,0c0,0.5,0,1,0,1.6c0.6,0,1.1,0,1.6,0c0,0.6,0,1,0,1.6
			c0.5,0,1,0,1.6,0c0,0.6,0,1.1,0,1.6c1.1,0,2.1,0,3.2,0c0,0.5,0,1,0,1.6c1.6,0,3.2,0,4.8,0c0,0.6,0,1,0,1.5c6.4,0,12.7,0,19.1,0
			c0-0.5,0-1,0-1.6c1.6,0,3.2,0,4.8,0c0-0.5,0-1,0-1.6c0.6,0,1,0,1.6,0c0-0.5,0-1,0-1.6c1.1,0,2.1,0,3.2,0c0-0.6,0-1,0-1.6
			c0.5,0,1,0,1.6,0c0-0.6,0-1.1,0-1.6c0.6,0,1,0,1.6,0c0-0.5,0-1,0-1.6c0.6,0,1.1,0,1.6,0c0-0.6,0-1,0-1.6c0.5,0,1,0,1.6,0
			c0-0.6,0-1.1,0-1.6c0.5,0,1,0,1.6,0c0-1.1,0-2.1,0-3.2c0.6,0,1.1,0,1.6,0c0-1.1,0-2.1,0-3.2c0.5,0,1,0,1.6,0c0-2.2,0-4.2,0-6.4
			c0.6,0,1,0,1.5,0c0-3.2,0-6.4,0-9.6c-0.5,0-1,0-1.6,0C345.5,177.6,345.5,175.5,345.5,173.4z M333.1,176.3c-0.8,0-1.3,0-2.4,0
			c-0.3,0.8-0.3,1.6-0.3,2.4c-0.8,0.3-1.6,0.3-2.4,0.3c0,1.6,0,3.5,0,5.1c-1.1,0-1.6,0-2.7,0c0,0.8,0,1.9,0,2.7
			c-0.8,0.3-1.6,0.3-2.4,0.3c0,1.6,0,3.2,0,5.1c-0.8,0-1.9,0-2.7,0c-0.3,0.8-0.3,1.9-0.3,2.7c-0.8,0-1.6,0-2.7,0c0,1.6,0,3.5,0,5.1
			c-1.6,0-3.2,0-5.1,0c0-1.9,0-3.5,0-5.1c-0.8-0.3-1.6-0.3-2.4-0.3c0-0.8,0-1.9,0-2.7c-0.8,0-1.6,0-2.7,0c0-1.6,0-3.5,0-5.1
			c-0.8-0.3-1.6-0.3-2.4-0.3c0-1.1,0-1.6,0-2.7c-0.8,0-1.6,0-2.7,0c0-1.6,0-3.5,0-5.1c-1.1,0-1.6,0-2.7,0c0-0.8,0-1.6,0-2.4
			c-0.8-0.3-1.6-0.3-2.4-0.3c0-0.8,0-1.6,0-2.4c12,0,23.9,0,35.9,0C333.1,174.5,333.1,175.5,333.1,176.3z"/>
		<path class="st0" d="M268.3,169.4c-0.5,0-1,0-1.6,0c0-0.6,0-1,0-1.6c-0.5,0-1,0-1.6,0c0-1.1,0-2.1,0-3.2c-0.6,0-1,0-1.6,0
			c0-0.5,0-1,0-1.6c-0.6,0-1.1,0-1.6,0c0-0.6,0-1,0-1.6c-0.5,0-1,0-1.6,0c0-0.6,0-1.1,0-1.6c-0.6,0-1,0-1.6,0c0-0.5,0-1,0-1.6
			c-0.6,0-1.1,0-1.6,0c0-0.6,0-1,0-1.6c-1.1,0-2.1,0-3.2,0c0-0.6,0-1.1,0-1.6c-1.1,0-2.1,0-3.2,0c0-0.5,0-1,0-1.6
			c-1.6,0-3.2,0-4.8,0c0-0.6,0-1,0-1.5c-4.8,0-9.5,0-14.4,0c0,0.5,0,1,0,1.6c-1.6,0-3.2,0-4.8,0c0,0.5,0,1,0,1.6c-1.1,0-2.1,0-3.2,0
			c0,0.5,0,1,0,1.6c-1.1,0-2.1,0-3.2,0c0,0.6,0,1,0,1.6c-0.5,0-1,0-1.6,0c0,0.6,0,1.1,0,1.6c-0.6,0-1,0-1.6,0c0,0.5,0,1,0,1.6
			c-0.6,0-1.1,0-1.6,0c0,0.6,0,1,0,1.6c-0.5,0-1,0-1.6,0c0,0.6,0,1.1,0,1.6c-0.6,0-1,0-1.6,0c0,0.5,0,1,0,1.6c-0.6,0-1.1,0-1.6,0
			c0,1.1,0,2.1,0,3.2c-0.5,0-1,0-1.6,0c0,1.6,0,3.2,0,4.8c-0.6,0-1,0-1.5,0c0,6.4,0,12.7,0,19.1c0.5,0,1,0,1.6,0c0,1.6,0,3.2,0,4.8
			c0.5,0,1,0,1.6,0c0,0.6,0,1,0,1.6c0.5,0,1,0,1.6,0c0,1.1,0,2.1,0,3.2c0.6,0,1,0,1.6,0c0,0.5,0,1,0,1.6c0.6,0,1.1,0,1.6,0
			c0,0.6,0,1,0,1.6c0.5,0,1,0,1.6,0c0,0.6,0,1.1,0,1.6c0.6,0,1,0,1.6,0c0,0.5,0,1,0,1.6c0.6,0,1.1,0,1.6,0c0,0.5,0,1,0,1.6
			c1.1,0,2.1,0,3.2,0c0,0.6,0,1.1,0,1.6c1.1,0,2.1,0,3.2,0c0,0.5,0,1,0,1.6c2.2,0,4.2,0,6.4,0c0,0.6,0,1,0,1.5c3.2,0,6.4,0,9.6,0
			c0-0.5,0-1,0-1.6c2.1,0,4.2,0,6.4,0c0-0.5,0-1,0-1.6c1.6,0,3.2,0,4.8,0c0-0.5,0-1,0-1.6c0.6,0,1.1,0,1.6,0c0-0.6,0-1,0-1.6
			c1.1,0,2.1,0,3.2,0c0-0.6,0-1.1,0-1.6c0.6,0,1,0,1.6,0c0-0.5,0-1,0-1.6c0.6,0,1.1,0,1.6,0c0-0.6,0-1,0-1.6c0.5,0,1,0,1.6,0
			c0-0.6,0-1.1,0-1.6c0.6,0,1,0,1.6,0c0-1.1,0-2.1,0-3.2c0.6,0,1.1,0,1.6,0c0-1.1,0-2.1,0-3.2c0.5,0,1,0,1.6,0c0-1.1,0-2.1,0-3.2
			c0.6,0,1,0,1.5,0c0-6.4,0-12.7,0-19.1c-0.5,0-1,0-1.6,0C268.3,172.5,268.3,171,268.3,169.4z M248.9,201.7c-0.8,0-1.9,0-2.7,0
			c0-0.8,0-1.3,0-2.4c-0.8-0.3-1.6-0.3-2.4-0.3c-0.3-0.8-0.3-1.6-0.3-2.4c-1.6,0-3.5,0-5.1,0c0-1.1,0-1.6,0-2.7c-0.8,0-1.9,0-2.7,0
			c-0.3-0.8-0.3-1.6-0.3-2.4c-1.6,0-3.2,0-5.1,0c0-0.8,0-1.9,0-2.7c-0.8-0.3-1.9-0.3-2.7-0.3c0-0.8,0-1.6,0-2.7c-1.6,0-3.5,0-5.1,0
			c0-1.6,0-3.2,0-5.1c1.9,0,3.5,0,5.1,0c0.3-0.8,0.3-1.6,0.3-2.4c0.8,0,1.9,0,2.7,0c0-0.8,0-1.6,0-2.7c1.6,0,3.5,0,5.1,0
			c0.3-0.8,0.3-1.6,0.3-2.4c1.1,0,1.6,0,2.7,0c0-0.8,0-1.6,0-2.7c1.6,0,3.5,0,5.1,0c0-1.1,0-1.6,0-2.7c0.8,0,1.6,0,2.4,0
			c0.3-0.8,0.3-1.6,0.3-2.4c0.8,0,1.6,0,2.4,0C248.9,177.8,248.9,189.7,248.9,201.7z"/>
		<path class="st0" d="M421,174.1c0-1.6,0-3.2,0-4.8c-0.5,0-1,0-1.6,0c0-0.6,0-1,0-1.6c-0.5,0-1,0-1.6,0c0-1.1,0-2.1,0-3.2
			c-0.6,0-1,0-1.6,0c0-0.5,0-1,0-1.6c-0.6,0-1.1,0-1.6,0c0-0.6,0-1,0-1.6c-0.5,0-1,0-1.6,0c0-0.6,0-1.1,0-1.6c-0.6,0-1,0-1.6,0
			c0-0.5,0-1,0-1.6c-0.6,0-1.1,0-1.6,0c0-0.5,0-1,0-1.6c-1.1,0-2.1,0-3.2,0c0-0.6,0-1.1,0-1.6c-1.1,0-2.1,0-3.2,0c0-0.5,0-1,0-1.6
			c-2.2,0-4.2,0-6.4,0c0-0.6,0-1,0-1.5c-3.2,0-6.4,0-9.6,0c0,0.5,0,1,0,1.6c-2.1,0-4.2,0-6.4,0c0,0.5,0,1,0,1.6c-1.6,0-3.2,0-4.8,0
			c0,0.5,0,1,0,1.6c-0.6,0-1.1,0-1.6,0c0,0.6,0,1,0,1.6c-1.1,0-2.1,0-3.2,0c0,0.6,0,1.1,0,1.6c-0.6,0-1,0-1.6,0c0,0.5,0,1,0,1.6
			c-0.6,0-1.1,0-1.6,0c0,0.6,0,1,0,1.6c-0.5,0-1,0-1.6,0c0,0.6,0,1.1,0,1.6c-0.6,0-1,0-1.6,0c0,1.1,0,2.1,0,3.2c-0.6,0-1.1,0-1.6,0
			c0,1.1,0,2.1,0,3.2c-0.5,0-1,0-1.6,0c0,1.1,0,2.1,0,3.2c-0.6,0-1,0-1.5,0c0,6.4,0,12.7,0,19.1c0.5,0,1,0,1.6,0c0,1.6,0,3.2,0,4.8
			c0.5,0,1,0,1.6,0c0,0.6,0,1,0,1.6c0.5,0,1,0,1.6,0c0,1.1,0,2.1,0,3.2c0.6,0,1,0,1.6,0c0,0.5,0,1,0,1.6c0.6,0,1.1,0,1.6,0
			c0,0.6,0,1,0,1.6c0.5,0,1,0,1.6,0c0,0.6,0,1.1,0,1.6c0.6,0,1,0,1.6,0c0,0.5,0,1,0,1.6c0.6,0,1.1,0,1.6,0c0,0.6,0,1,0,1.6
			c1.1,0,2.1,0,3.2,0c0,0.6,0,1.1,0,1.6c1.1,0,2.1,0,3.2,0c0,0.5,0,1,0,1.6c1.6,0,3.2,0,4.8,0c0,0.6,0,1,0,1.5c4.8,0,9.5,0,14.4,0
			c0-0.5,0-1,0-1.6c1.6,0,3.2,0,4.8,0c0-0.5,0-1,0-1.6c1.1,0,2.1,0,3.2,0c0-0.5,0-1,0-1.6c1.1,0,2.1,0,3.2,0c0-0.6,0-1,0-1.6
			c0.5,0,1,0,1.6,0c0-0.6,0-1.1,0-1.6c0.6,0,1,0,1.6,0c0-0.5,0-1,0-1.6c0.6,0,1.1,0,1.6,0c0-0.6,0-1,0-1.6c0.5,0,1,0,1.6,0
			c0-0.6,0-1.1,0-1.6c0.6,0,1,0,1.6,0c0-0.5,0-1,0-1.6c0.6,0,1.1,0,1.6,0c0-1.1,0-2.1,0-3.2c0.5,0,1,0,1.6,0c0-1.6,0-3.2,0-4.8
			c0.6,0,1,0,1.5,0c0-6.4,0-12.7,0-19.1C422.1,174.1,421.6,174.1,421,174.1z M407.5,186.5c-1.9,0-3.5,0-5.1,0
			c-0.3,0.8-0.3,1.6-0.3,2.4c-0.8,0-1.9,0-2.7,0c0,0.8,0,1.6,0,2.7c-1.6,0-3.5,0-5.1,0c-0.3,0.8-0.3,1.6-0.3,2.4c-1.1,0-1.6,0-2.7,0
			c0,0.8,0,1.6,0,2.7c-1.6,0-3.5,0-5.1,0c0,1.1,0,1.6,0,2.7c-0.8,0-1.6,0-2.4,0c-0.3,0.8-0.3,1.6-0.3,2.4c-0.8,0-1.6,0-2.4,0
			c0-12,0-23.9,0-35.9c0.8,0,1.9,0,2.7,0c0,0.8,0,1.3,0,2.4c0.8,0.3,1.6,0.3,2.4,0.3c0.3,0.8,0.3,1.6,0.3,2.4c1.6,0,3.5,0,5.1,0
			c0,1.1,0,1.6,0,2.7c0.8,0,1.9,0,2.7,0c0.3,0.8,0.3,1.6,0.3,2.4c1.6,0,3.2,0,5.1,0c0,0.8,0,1.9,0,2.7c0.8,0.3,1.9,0.3,2.7,0.3
			c0,0.8,0,1.6,0,2.7c1.6,0,3.5,0,5.1,0C407.5,183.1,407.5,184.7,407.5,186.5z"/>
	</g>
	<g>
		<path class="st1" d="M345.5,97.5c-0.5,0-1,0-1.6,0c0-1.1,0-2.1,0-3.2c-0.5,0-1,0-1.6,0c0-1.1,0-2.1,0-3.2c-0.6,0-1,0-1.6,0
			c0-0.5,0-1,0-1.6c-0.6,0-1.1,0-1.6,0c0-0.6,0-1,0-1.6c-0.5,0-1,0-1.6,0c0-0.6,0-1.1,0-1.6c-0.6,0-1,0-1.6,0c0-0.5,0-1,0-1.6
			c-0.6,0-1.1,0-1.6,0c0-0.6,0-1,0-1.6c-0.5,0-1,0-1.6,0c0-0.6,0-1.1,0-1.6c-1.1,0-2.1,0-3.2,0c0-0.5,0-1,0-1.6c-1.6,0-3.2,0-4.8,0
			c0-0.6,0-1,0-1.5c-6.4,0-12.7,0-19.1,0c0,0.5,0,1,0,1.6c-1.6,0-3.2,0-4.8,0c0,0.5,0,1,0,1.6c-0.6,0-1,0-1.6,0c0,0.5,0,1,0,1.6
			c-1.1,0-2.1,0-3.2,0c0,0.6,0,1,0,1.6c-0.5,0-1,0-1.6,0c0,0.6,0,1.1,0,1.6c-0.6,0-1,0-1.6,0c0,0.5,0,1,0,1.6c-0.6,0-1.1,0-1.6,0
			c0,0.6,0,1,0,1.6c-0.5,0-1,0-1.6,0c0,0.6,0,1.1,0,1.6c-0.5,0-1,0-1.6,0c0,1.1,0,2.1,0,3.2c-0.6,0-1.1,0-1.6,0c0,1.1,0,2.1,0,3.2
			c-0.5,0-1,0-1.6,0c0,2.2,0,4.2,0,6.4c-0.6,0-1,0-1.5,0c0,3.2,0,6.4,0,9.6c0.5,0,1,0,1.6,0c0,2.1,0,4.2,0,6.4c0.5,0,1,0,1.6,0
			c0,1.6,0,3.2,0,4.8c0.5,0,1,0,1.6,0c0,0.6,0,1.1,0,1.6c0.6,0,1,0,1.6,0c0,1.1,0,2.1,0,3.2c0.6,0,1.1,0,1.6,0c0,0.6,0,1,0,1.6
			c0.5,0,1,0,1.6,0c0,0.6,0,1.1,0,1.6c0.6,0,1,0,1.6,0c0,0.5,0,1,0,1.6c0.6,0,1.1,0,1.6,0c0,0.6,0,1,0,1.6c1.1,0,2.1,0,3.2,0
			c0,0.6,0,1.1,0,1.6c1.1,0,2.1,0,3.2,0c0,0.5,0,1,0,1.6c1.1,0,2.1,0,3.2,0c0,0.6,0,1,0,1.5c6.4,0,12.7,0,19.1,0c0-0.5,0-1,0-1.6
			c1.6,0,3.2,0,4.8,0c0-0.5,0-1,0-1.6c0.6,0,1,0,1.6,0c0-0.5,0-1,0-1.6c1.1,0,2.1,0,3.2,0c0-0.6,0-1,0-1.6c0.5,0,1,0,1.6,0
			c0-0.6,0-1.1,0-1.6c0.6,0,1,0,1.6,0c0-0.5,0-1,0-1.6c0.6,0,1.1,0,1.6,0c0-0.6,0-1,0-1.6c0.5,0,1,0,1.6,0c0-0.6,0-1.1,0-1.6
			c0.6,0,1,0,1.6,0c0-1.1,0-2.1,0-3.2c0.6,0,1.1,0,1.6,0c0-1.1,0-2.1,0-3.2c0.5,0,1,0,1.6,0c0-1.6,0-3.2,0-4.8c0.6,0,1,0,1.5,0
			c0-4.8,0-9.5,0-14.4c-0.5,0-1,0-1.6,0C345.5,100.7,345.5,99.1,345.5,97.5z M333.1,119.6c-12,0-23.9,0-35.9,0c0-0.8,0-1.9,0-2.7
			c0.8,0,1.3,0,2.4,0c0.3-0.8,0.3-1.6,0.3-2.4c0.8-0.3,1.6-0.3,2.4-0.3c0-1.6,0-3.5,0-5.1c1.1,0,1.6,0,2.7,0c0-0.8,0-1.9,0-2.7
			c0.8-0.3,1.6-0.3,2.4-0.3c0-1.6,0-3.2,0-5.1c0.8,0,1.9,0,2.7,0c0.3-0.8,0.3-1.9,0.3-2.7c0.8,0,1.6,0,2.7,0c0-1.6,0-3.5,0-5.1
			c1.6,0,3.2,0,5.1,0c0,1.9,0,3.5,0,5.1c0.8,0.3,1.6,0.3,2.4,0.3c0,0.8,0,1.9,0,2.7c0.8,0,1.6,0,2.7,0c0,1.6,0,3.5,0,5.1
			c0.8,0.3,1.6,0.3,2.4,0.3c0,1.1,0,1.6,0,2.7c0.8,0,1.6,0,2.7,0c0,1.6,0,3.5,0,5.1c1.1,0,1.6,0,2.7,0c0,0.8,0,1.6,0,2.4
			c0.8,0.3,1.6,0.3,2.4,0.3C333.1,118,333.1,118.8,333.1,119.6z"/>
		<path class="st1" d="M345.5,173.4c-0.5,0-1,0-1.6,0c0-1.6,0-3.2,0-4.8c-0.5,0-1,0-1.6,0c0-0.6,0-1.1,0-1.6c-0.6,0-1,0-1.6,0
			c0-1.1,0-2.1,0-3.2c-0.6,0-1.1,0-1.6,0c0-0.6,0-1,0-1.6c-0.5,0-1,0-1.6,0c0-0.6,0-1.1,0-1.6c-0.6,0-1,0-1.6,0c0-0.5,0-1,0-1.6
			c-0.6,0-1.1,0-1.6,0c0-0.6,0-1,0-1.6c-1.1,0-2.1,0-3.2,0c0-0.6,0-1.1,0-1.6c-1.1,0-2.1,0-3.2,0c0-0.5,0-1,0-1.6
			c-1.1,0-2.1,0-3.2,0c0-0.6,0-1,0-1.5c-6.4,0-12.7,0-19.1,0c0,0.5,0,1,0,1.6c-1.6,0-3.2,0-4.8,0c0,0.5,0,1,0,1.6c-0.6,0-1,0-1.6,0
			c0,0.5,0,1,0,1.6c-1.1,0-2.1,0-3.2,0c0,0.6,0,1,0,1.6c-0.5,0-1,0-1.6,0c0,0.6,0,1.1,0,1.6c-0.6,0-1,0-1.6,0c0,0.5,0,1,0,1.6
			c-0.6,0-1.1,0-1.6,0c0,0.6,0,1,0,1.6c-0.5,0-1,0-1.6,0c0,0.6,0,1.1,0,1.6c-0.6,0-1,0-1.6,0c0,1.1,0,2.1,0,3.2c-0.6,0-1.1,0-1.6,0
			c0,1.1,0,2.1,0,3.2c-0.5,0-1,0-1.6,0c0,1.6,0,3.2,0,4.8c-0.6,0-1,0-1.5,0c0,4.8,0,9.5,0,14.4c0.5,0,1,0,1.6,0c0,1.6,0,3.2,0,4.8
			c0.5,0,1,0,1.6,0c0,1.1,0,2.1,0,3.2c0.5,0,1,0,1.6,0c0,1.1,0,2.1,0,3.2c0.6,0,1,0,1.6,0c0,0.5,0,1,0,1.6c0.6,0,1.1,0,1.6,0
			c0,0.6,0,1,0,1.6c0.5,0,1,0,1.6,0c0,0.6,0,1.1,0,1.6c0.6,0,1,0,1.6,0c0,0.5,0,1,0,1.6c0.6,0,1.1,0,1.6,0c0,0.6,0,1,0,1.6
			c0.5,0,1,0,1.6,0c0,0.6,0,1.1,0,1.6c1.1,0,2.1,0,3.2,0c0,0.5,0,1,0,1.6c1.6,0,3.2,0,4.8,0c0,0.6,0,1,0,1.5c6.4,0,12.7,0,19.1,0
			c0-0.5,0-1,0-1.6c1.6,0,3.2,0,4.8,0c0-0.5,0-1,0-1.6c0.6,0,1,0,1.6,0c0-0.5,0-1,0-1.6c1.1,0,2.1,0,3.2,0c0-0.6,0-1,0-1.6
			c0.5,0,1,0,1.6,0c0-0.6,0-1.1,0-1.6c0.6,0,1,0,1.6,0c0-0.5,0-1,0-1.6c0.6,0,1.1,0,1.6,0c0-0.6,0-1,0-1.6c0.5,0,1,0,1.6,0
			c0-0.6,0-1.1,0-1.6c0.5,0,1,0,1.6,0c0-1.1,0-2.1,0-3.2c0.6,0,1.1,0,1.6,0c0-1.1,0-2.1,0-3.2c0.5,0,1,0,1.6,0c0-2.2,0-4.2,0-6.4
			c0.6,0,1,0,1.5,0c0-3.2,0-6.4,0-9.6c-0.5,0-1,0-1.6,0C345.5,177.6,345.5,175.5,345.5,173.4z M333.1,176.3c-0.8,0-1.3,0-2.4,0
			c-0.3,0.8-0.3,1.6-0.3,2.4c-0.8,0.3-1.6,0.3-2.4,0.3c0,1.6,0,3.5,0,5.1c-1.1,0-1.6,0-2.7,0c0,0.8,0,1.9,0,2.7
			c-0.8,0.3-1.6,0.3-2.4,0.3c0,1.6,0,3.2,0,5.1c-0.8,0-1.9,0-2.7,0c-0.3,0.8-0.3,1.9-0.3,2.7c-0.8,0-1.6,0-2.7,0c0,1.6,0,3.5,0,5.1
			c-1.6,0-3.2,0-5.1,0c0-1.9,0-3.5,0-5.1c-0.8-0.3-1.6-0.3-2.4-0.3c0-0.8,0-1.9,0-2.7c-0.8,0-1.6,0-2.7,0c0-1.6,0-3.5,0-5.1
			c-0.8-0.3-1.6-0.3-2.4-0.3c0-1.1,0-1.6,0-2.7c-0.8,0-1.6,0-2.7,0c0-1.6,0-3.5,0-5.1c-1.1,0-1.6,0-2.7,0c0-0.8,0-1.6,0-2.4
			c-0.8-0.3-1.6-0.3-2.4-0.3c0-0.8,0-1.6,0-2.4c12,0,23.9,0,35.9,0C333.1,174.5,333.1,175.5,333.1,176.3z"/>
		<path class="st1" d="M268.3,169.4c-0.5,0-1,0-1.6,0c0-0.6,0-1,0-1.6c-0.5,0-1,0-1.6,0c0-1.1,0-2.1,0-3.2c-0.6,0-1,0-1.6,0
			c0-0.5,0-1,0-1.6c-0.6,0-1.1,0-1.6,0c0-0.6,0-1,0-1.6c-0.5,0-1,0-1.6,0c0-0.6,0-1.1,0-1.6c-0.6,0-1,0-1.6,0c0-0.5,0-1,0-1.6
			c-0.6,0-1.1,0-1.6,0c0-0.6,0-1,0-1.6c-1.1,0-2.1,0-3.2,0c0-0.6,0-1.1,0-1.6c-1.1,0-2.1,0-3.2,0c0-0.5,0-1,0-1.6
			c-1.6,0-3.2,0-4.8,0c0-0.6,0-1,0-1.5c-4.8,0-9.5,0-14.4,0c0,0.5,0,1,0,1.6c-1.6,0-3.2,0-4.8,0c0,0.5,0,1,0,1.6c-1.1,0-2.1,0-3.2,0
			c0,0.5,0,1,0,1.6c-1.1,0-2.1,0-3.2,0c0,0.6,0,1,0,1.6c-0.5,0-1,0-1.6,0c0,0.6,0,1.1,0,1.6c-0.6,0-1,0-1.6,0c0,0.5,0,1,0,1.6
			c-0.6,0-1.1,0-1.6,0c0,0.6,0,1,0,1.6c-0.5,0-1,0-1.6,0c0,0.6,0,1.1,0,1.6c-0.6,0-1,0-1.6,0c0,0.5,0,1,0,1.6c-0.6,0-1.1,0-1.6,0
			c0,1.1,0,2.1,0,3.2c-0.5,0-1,0-1.6,0c0,1.6,0,3.2,0,4.8c-0.6,0-1,0-1.5,0c0,6.4,0,12.7,0,19.1c0.5,0,1,0,1.6,0c0,1.6,0,3.2,0,4.8
			c0.5,0,1,0,1.6,0c0,0.6,0,1,0,1.6c0.5,0,1,0,1.6,0c0,1.1,0,2.1,0,3.2c0.6,0,1,0,1.6,0c0,0.5,0,1,0,1.6c0.6,0,1.1,0,1.6,0
			c0,0.6,0,1,0,1.6c0.5,0,1,0,1.6,0c0,0.6,0,1.1,0,1.6c0.6,0,1,0,1.6,0c0,0.5,0,1,0,1.6c0.6,0,1.1,0,1.6,0c0,0.5,0,1,0,1.6
			c1.1,0,2.1,0,3.2,0c0,0.6,0,1.1,0,1.6c1.1,0,2.1,0,3.2,0c0,0.5,0,1,0,1.6c2.2,0,4.2,0,6.4,0c0,0.6,0,1,0,1.5c3.2,0,6.4,0,9.6,0
			c0-0.5,0-1,0-1.6c2.1,0,4.2,0,6.4,0c0-0.5,0-1,0-1.6c1.6,0,3.2,0,4.8,0c0-0.5,0-1,0-1.6c0.6,0,1.1,0,1.6,0c0-0.6,0-1,0-1.6
			c1.1,0,2.1,0,3.2,0c0-0.6,0-1.1,0-1.6c0.6,0,1,0,1.6,0c0-0.5,0-1,0-1.6c0.6,0,1.1,0,1.6,0c0-0.6,0-1,0-1.6c0.5,0,1,0,1.6,0
			c0-0.6,0-1.1,0-1.6c0.6,0,1,0,1.6,0c0-1.1,0-2.1,0-3.2c0.6,0,1.1,0,1.6,0c0-1.1,0-2.1,0-3.2c0.5,0,1,0,1.6,0c0-1.1,0-2.1,0-3.2
			c0.6,0,1,0,1.5,0c0-6.4,0-12.7,0-19.1c-0.5,0-1,0-1.6,0C268.3,172.5,268.3,171,268.3,169.4z M248.9,201.7c-0.8,0-1.9,0-2.7,0
			c0-0.8,0-1.3,0-2.4c-0.8-0.3-1.6-0.3-2.4-0.3c-0.3-0.8-0.3-1.6-0.3-2.4c-1.6,0-3.5,0-5.1,0c0-1.1,0-1.6,0-2.7c-0.8,0-1.9,0-2.7,0
			c-0.3-0.8-0.3-1.6-0.3-2.4c-1.6,0-3.2,0-5.1,0c0-0.8,0-1.9,0-2.7c-0.8-0.3-1.9-0.3-2.7-0.3c0-0.8,0-1.6,0-2.7c-1.6,0-3.5,0-5.1,0
			c0-1.6,0-3.2,0-5.1c1.9,0,3.5,0,5.1,0c0.3-0.8,0.3-1.6,0.3-2.4c0.8,0,1.9,0,2.7,0c0-0.8,0-1.6,0-2.7c1.6,0,3.5,0,5.1,0
			c0.3-0.8,0.3-1.6,0.3-2.4c1.1,0,1.6,0,2.7,0c0-0.8,0-1.6,0-2.7c1.6,0,3.5,0,5.1,0c0-1.1,0-1.6,0-2.7c0.8,0,1.6,0,2.4,0
			c0.3-0.8,0.3-1.6,0.3-2.4c0.8,0,1.6,0,2.4,0C248.9,177.8,248.9,189.7,248.9,201.7z"/>
		<path class="st1" d="M421,174.1c0-1.6,0-3.2,0-4.8c-0.5,0-1,0-1.6,0c0-0.6,0-1,0-1.6c-0.5,0-1,0-1.6,0c0-1.1,0-2.1,0-3.2
			c-0.6,0-1,0-1.6,0c0-0.5,0-1,0-1.6c-0.6,0-1.1,0-1.6,0c0-0.6,0-1,0-1.6c-0.5,0-1,0-1.6,0c0-0.6,0-1.1,0-1.6c-0.6,0-1,0-1.6,0
			c0-0.5,0-1,0-1.6c-0.6,0-1.1,0-1.6,0c0-0.5,0-1,0-1.6c-1.1,0-2.1,0-3.2,0c0-0.6,0-1.1,0-1.6c-1.1,0-2.1,0-3.2,0c0-0.5,0-1,0-1.6
			c-2.2,0-4.2,0-6.4,0c0-0.6,0-1,0-1.5c-3.2,0-6.4,0-9.6,0c0,0.5,0,1,0,1.6c-2.1,0-4.2,0-6.4,0c0,0.5,0,1,0,1.6c-1.6,0-3.2,0-4.8,0
			c0,0.5,0,1,0,1.6c-0.6,0-1.1,0-1.6,0c0,0.6,0,1,0,1.6c-1.1,0-2.1,0-3.2,0c0,0.6,0,1.1,0,1.6c-0.6,0-1,0-1.6,0c0,0.5,0,1,0,1.6
			c-0.6,0-1.1,0-1.6,0c0,0.6,0,1,0,1.6c-0.5,0-1,0-1.6,0c0,0.6,0,1.1,0,1.6c-0.6,0-1,0-1.6,0c0,1.1,0,2.1,0,3.2c-0.6,0-1.1,0-1.6,0
			c0,1.1,0,2.1,0,3.2c-0.5,0-1,0-1.6,0c0,1.1,0,2.1,0,3.2c-0.6,0-1,0-1.5,0c0,6.4,0,12.7,0,19.1c0.5,0,1,0,1.6,0c0,1.6,0,3.2,0,4.8
			c0.5,0,1,0,1.6,0c0,0.6,0,1,0,1.6c0.5,0,1,0,1.6,0c0,1.1,0,2.1,0,3.2c0.6,0,1,0,1.6,0c0,0.5,0,1,0,1.6c0.6,0,1.1,0,1.6,0
			c0,0.6,0,1,0,1.6c0.5,0,1,0,1.6,0c0,0.6,0,1.1,0,1.6c0.6,0,1,0,1.6,0c0,0.5,0,1,0,1.6c0.6,0,1.1,0,1.6,0c0,0.6,0,1,0,1.6
			c1.1,0,2.1,0,3.2,0c0,0.6,0,1.1,0,1.6c1.1,0,2.1,0,3.2,0c0,0.5,0,1,0,1.6c1.6,0,3.2,0,4.8,0c0,0.6,0,1,0,1.5c4.8,0,9.5,0,14.4,0
			c0-0.5,0-1,0-1.6c1.6,0,3.2,0,4.8,0c0-0.5,0-1,0-1.6c1.1,0,2.1,0,3.2,0c0-0.5,0-1,0-1.6c1.1,0,2.1,0,3.2,0c0-0.6,0-1,0-1.6
			c0.5,0,1,0,1.6,0c0-0.6,0-1.1,0-1.6c0.6,0,1,0,1.6,0c0-0.5,0-1,0-1.6c0.6,0,1.1,0,1.6,0c0-0.6,0-1,0-1.6c0.5,0,1,0,1.6,0
			c0-0.6,0-1.1,0-1.6c0.6,0,1,0,1.6,0c0-0.5,0-1,0-1.6c0.6,0,1.1,0,1.6,0c0-1.1,0-2.1,0-3.2c0.5,0,1,0,1.6,0c0-1.6,0-3.2,0-4.8
			c0.6,0,1,0,1.5,0c0-6.4,0-12.7,0-19.1C422.1,174.1,421.6,174.1,421,174.1z M407.5,186.5c-1.9,0-3.5,0-5.1,0
			c-0.3,0.8-0.3,1.6-0.3,2.4c-0.8,0-1.9,0-2.7,0c0,0.8,0,1.6,0,2.7c-1.6,0-3.5,0-5.1,0c-0.3,0.8-0.3,1.6-0.3,2.4c-1.1,0-1.6,0-2.7,0
			c0,0.8,0,1.6,0,2.7c-1.6,0-3.5,0-5.1,0c0,1.1,0,1.6,0,2.7c-0.8,0-1.6,0-2.4,0c-0.3,0.8-0.3,1.6-0.3,2.4c-0.8,0-1.6,0-2.4,0
			c0-12,0-23.9,0-35.9c0.8,0,1.9,0,2.7,0c0,0.8,0,1.3,0,2.4c0.8,0.3,1.6,0.3,2.4,0.3c0.3,0.8,0.3,1.6,0.3,2.4c1.6,0,3.5,0,5.1,0
			c0,1.1,0,1.6,0,2.7c0.8,0,1.9,0,2.7,0c0.3,0.8,0.3,1.6,0.3,2.4c1.6,0,3.2,0,5.1,0c0,0.8,0,1.9,0,2.7c0.8,0.3,1.9,0.3,2.7,0.3
			c0,0.8,0,1.6,0,2.7c1.6,0,3.5,0,5.1,0C407.5,183.1,407.5,184.7,407.5,186.5z"/>
	</g>
</g>
<text transform="matrix(1 0 0 1 258.2926 53.1318)" class="st2 st3">arrow keys to navigate</text>
<text transform="matrix(1 0 0 1 237.0664 247.0435)" class="st2 st3">project preview will appear here</text>
</svg>
