<?xml version="1.0" encoding="utf-8"?>
<!-- Generator: Adobe Illustrator 21.1.0, SVG Export Plug-In . SVG Version: 6.00 Build 0)  -->
<svg version="1.1" id="Layer_1" xmlns="http://www.w3.org/2000/svg" xmlns:xlink="http://www.w3.org/1999/xlink" x="0px" y="0px"
	 viewBox="0 0 1820 1820" style="enable-background:new 0 0 1820 1820;" xml:space="preserve">
<style type="text/css">
	.st0{fill:#F89B55;enable-background:new    ;}
	.st1{clip-path:url(#SVGID_2_);}
</style>
<path class="st0" d="M242.7,1356.8h-19.4c-36.5,0-66.1-29.6-66.1-66.1V707.9c0-36.5,29.6-66.1,66.1-66.1h19.4
	c36.5,0,66.1,29.6,66.1,66.1v582.9C308.8,1327.2,279.2,1356.8,242.7,1356.8z"/>
<g id="IFmT6J_1_">
	
		<image style="overflow:visible;" width="1464" height="560" id="IFmT6J" xlink:href="79939052C2927174.jpg"  transform="matrix(1 0 0 1 178 762)">
	</image>
</g>
<g>
	<defs>
		<polygon id="SVGID_1_" points="157.2,470.8 1668.8,470.8 1649.9,962.8 1559.9,946.5 1529.9,1007.8 1553.9,1133.8 1514.9,1169.8 
			1406.9,1190.8 1214.8,1127.8 1055.8,1016.8 1004.8,995.8 909.9,1042 833.8,1088.8 797.8,1178.8 743.8,1259.9 677.8,1259.9 
			596.8,1244.9 527.8,1280.9 440.8,1280.9 374.8,1190.8 302.8,1042 284.8,839.8 290.8,767.8 215.7,713.8 157.2,641.8 		"/>
	</defs>
	<clipPath id="SVGID_2_">
		<use xlink:href="#SVGID_1_"  style="overflow:visible;"/>
	</clipPath>
	<g id="cRr2jT.tif" class="st1">
		
			<image style="overflow:visible;" width="3000" height="2071" id="Layer_0_1_" xlink:href="79939052C2927174.png"  transform="matrix(0.5038 0 0 0.5038 157.2301 424.7669)">
		</image>
	</g>
</g>
<title>preview_proj4</title>
<g>
	<defs>
		<path id="SVGID_3_" d="M178,650.8l106.8,48v141l27,111l39,102l69,132l69,60l117-36c0,0,111,24,123,21c12-3,27-102,27-102l87-84
			l147-96l99,39l81,63l231,96l126-21l-63-123l42-91.9c0,0,96,4.1,105,0c9-4.1,30.9-31.1,30.9-31.1V498.3H178V650.8z"/>
	</defs>
	<clipPath id="SVGID_4_">
		<use xlink:href="#SVGID_3_"  style="overflow:visible;"/>
	</clipPath>
	<g style="clip-path:url(#SVGID_4_);enable-background:new    ;">
		
			<image style="overflow:visible;" width="1241" height="699" xlink:href="79939052C2927173.png"  transform="matrix(1.1795 0 0 1.1777 178 498.323)">
		</image>
	</g>
</g>
</svg>
