<?xml version="1.0" encoding="utf-8"?>
<!-- Generator: Adobe Illustrator 21.1.0, SVG Export Plug-In . SVG Version: 6.00 Build 0)  -->
<svg version="1.1" id="Layer_1" xmlns="http://www.w3.org/2000/svg" xmlns:xlink="http://www.w3.org/1999/xlink" x="0px" y="0px"
	 viewBox="0 0 1820 1820" style="enable-background:new 0 0 1820 1820;" xml:space="preserve">
<style type="text/css">
	.st0{fill:none;}
	.st1{clip-path:url(#SVGID_2_);}
</style>
<rect x="329" y="333" transform="matrix(0.9998 -2.107809e-02 2.107809e-02 0.9998 -18.9972 19.5099)" width="1174" height="1155.9"/>
<g id="NhOQ9c.tif">
	
		<image style="overflow:visible;" width="1104" height="1104" xlink:href="3B095B878FB7F4D1.png"  transform="matrix(1 0 0 1 358 358)">
	</image>
</g>
<rect x="358.5" y="358.5" class="st0" width="1103" height="1103"/>
<g>
	<defs>
		<polygon id="SVGID_1_" points="358.5,511 430,511 500,537 510,569 578,625 606,675 664,631 714,577 762,527 848,497 994,481 
			1064,529 1082,553 1114,578 1140,619 1148,675 1148,707 1230,769 1296,797 1346,797 1388,797 1432,797 1461.5,823 1461.5,1335 
			1348,1349 1312,1349 1258,1371 1186,1371 1050,1293 1014,1261 986,1219 966,1161 928,1113 892,1113 836,1145 780,1163 700,1157 
			656,1099 602,1057 590,1005 600,951 560,893 520,893 446,941 374,935 358.5,893 		"/>
	</defs>
	<clipPath id="SVGID_2_">
		<use xlink:href="#SVGID_1_"  style="overflow:visible;"/>
	</clipPath>
	<g id="rxgtOk.tif" class="st1">
		
			<image style="overflow:visible;" width="3500" height="1261" xlink:href="3B095B878FB7F4D7.png"  transform="matrix(0.9757 0.2189 -0.2189 0.9757 -1479.559 -267.2319)">
		</image>
	</g>
</g>
<g>
	<defs>
		<polygon id="SVGID_3_" points="358.5,528 430,528 500,554 510,586 578,642 606,692 664,648 714,594 762,544 848,514 994,498 
			1064,546 1082,570 1114,595 1140,636 1148,692 1148,724 1230,786 1296,814 1346,814 1388,814 1432,814 1461.5,840 1461.5,1352 
			1348,1366 1312,1366 1258,1388 1186,1388 1050,1310 1014,1278 986,1236 966,1178 928,1130 892,1130 836,1162 780,1180 700,1174 
			656,1116 602,1074 590,1022 600,968 560,910 520,910 446,958 374,952 358.5,910 		"/>
	</defs>
	<clipPath id="SVGID_4_">
		<use xlink:href="#SVGID_3_"  style="overflow:visible;"/>
	</clipPath>
	<g style="clip-path:url(#SVGID_4_);enable-background:new    ;">
		
			<image style="overflow:visible;" width="966" height="966" xlink:href="3B095B878FB7F4D1.jpg"  transform="matrix(1.1419 0 0 1.1419 358.5 358.5)">
		</image>
	</g>
</g>
<title>preview_proj1</title>
</svg>
