<?xml version="1.0" encoding="utf-8"?>
<!-- Generator: Adobe Illustrator 21.1.0, SVG Export Plug-In . SVG Version: 6.00 Build 0)  -->
<svg version="1.1" id="Layer_1" xmlns="http://www.w3.org/2000/svg" xmlns:xlink="http://www.w3.org/1999/xlink" x="0px" y="0px"
	 viewBox="0 0 1820 1820" style="enable-background:new 0 0 1820 1820;" xml:space="preserve">
<style type="text/css">
	.st0{clip-path:url(#SVGID_2_);}
	.st1{clip-path:url(#SVGID_4_);}
	.st2{clip-path:url(#SVGID_6_);enable-background:new    ;}
</style>
<g>
	<g>
		<defs>
			<rect id="SVGID_1_" x="220.5" y="476" width="1347.3" height="829.8"/>
		</defs>
		<clipPath id="SVGID_2_">
			<use xlink:href="#SVGID_1_"  style="overflow:visible;"/>
		</clipPath>
		<g id="r90XVt.tif" class="st0">
			
				<image style="overflow:visible;enable-background:new    ;" width="2000" height="1293" id="Layer_0_1_" xlink:href="93DF05B9D11648B2.png"  transform="matrix(0.9624 0 0 0.9624 99.2204 122.6193)">
			</image>
		</g>
	</g>
</g>
<title>preview_proj3</title>
<g>
	<defs>
		<polygon id="SVGID_3_" points="1467.7,1310.2 1421.5,1148.5 1421.5,1023.4 1388.8,863.6 1329.1,804 1205.9,786.7 1115.5,786.7 
			961.5,717.4 924.9,673.1 859.5,640.4 694,601.9 601.6,601.9 482.2,584.6 364.8,605.7 364.8,661.5 272.4,680.8 218.6,748.2 
			176.2,875.2 218.6,1038.8 197.4,1160 176.2,1285.2 220.5,1335.2 		"/>
	</defs>
	<clipPath id="SVGID_4_">
		<use xlink:href="#SVGID_3_"  style="overflow:visible;"/>
	</clipPath>
	<g id="BIw3eR.tif" class="st1">
		
			<image style="overflow:visible;" width="2527" height="2529" id="Layer_0_3_" xlink:href="93DF05B9D11648B7.png"  transform="matrix(0.9624 0 0 0.9624 -292.4624 -306.5957)">
		</image>
	</g>
</g>
<g>
	<g>
		<defs>
			<polygon id="SVGID_5_" points="1436.7,1305.8 1400.3,1149.1 1378.2,941.3 1317.7,826.3 1220.9,808.2 1128.1,840.4 1013.2,775.9 
				920.3,753.7 906.3,693.2 819.6,667 724.8,642.8 625.9,642.8 551.2,620.6 430.3,634.7 412.1,699.3 327.4,693.2 262.8,749.7 
				240.7,824.3 240.7,947.4 264.8,1100.7 220.5,1203.5 220.5,1305.8 			"/>
		</defs>
		<clipPath id="SVGID_6_">
			<use xlink:href="#SVGID_5_"  style="overflow:visible;"/>
		</clipPath>
		<g class="st2">
			
				<image style="overflow:visible;enable-background:new    ;" width="997" height="561" xlink:href="93DF05B9D11648B6.png"  transform="matrix(1.4808 0 0 1.4791 220.4785 476.0019)">
			</image>
		</g>
	</g>
</g>
</svg>
