<?xml version="1.0" encoding="utf-8"?>
<!-- Generator: Adobe Illustrator 21.1.0, SVG Export Plug-In . SVG Version: 6.00 Build 0)  -->
<svg version="1.1" id="Layer_1" xmlns="http://www.w3.org/2000/svg" xmlns:xlink="http://www.w3.org/1999/xlink" x="0px" y="0px"
	 viewBox="0 0 624 388" style="enable-background:new 0 0 624 388;" xml:space="preserve">
<style type="text/css">
	.st0{enable-background:new    ;}
	.st1{fill:#FFFFFF;}
</style>
<g class="st0">
	<path d="M182.4,83.4c0,1.2-0.1,2.2-0.3,3.1h-6.3c-0.2-0.9-0.3-1.9-0.3-3.1c0-1.3,0.1-2.3,0.3-3.1h-3.1c-0.2-0.9-0.3-1.9-0.3-3.1
		c0-1.3,0.1-2.3,0.3-3.1h-9.4c0.2,0.8,0.3,1.9,0.3,3.1c0,1.2-0.1,2.2-0.3,3.1h9.4c0.2,0.8,0.3,1.9,0.3,3.1c0,1.2-0.1,2.2-0.3,3.1
		h-12.5c-0.2-0.9-0.3-1.9-0.3-3.1c0-1.3,0.1-2.3,0.3-3.1h-3.1c-0.2-0.9-0.3-1.9-0.3-3.1c0-1.3,0.1-2.3,0.3-3.1h3.1
		c-0.2-0.9-0.3-1.9-0.3-3.1c0-1.3,0.1-2.3,0.3-3.1h12.5c-0.2-0.9-0.3-1.9-0.3-3.1c0-1.3,0.1-2.3,0.3-3.1h-10.9
		c-0.2-0.9-0.3-1.9-0.3-3.1c0-1.3,0.1-2.3,0.3-3.1h14.1c0.2,0.8,0.3,1.9,0.3,3.1c0,1.2-0.1,2.2-0.3,3.1h3.1c0.2,0.8,0.3,1.9,0.3,3.1
		c0,1.2-0.1,2.2-0.3,3.1c0.2,0.8,0.3,1.9,0.3,3.1c0,1.2-0.1,2.2-0.3,3.1c0.2,0.8,0.3,1.9,0.3,3.1c0,1.2-0.1,2.2-0.3,3.1h3.1
		C182.3,81.1,182.4,82.1,182.4,83.4z"/>
	<path d="M213.7,64.6c0,1.2-0.1,2.2-0.3,3.1h-6.3c-0.2-0.9-0.3-1.9-0.3-3.1c0-1.3,0.1-2.3,0.3-3.1h-5.5c0.2,0.8,0.3,1.9,0.3,3.1
		c0,1.2-0.1,2.2-0.3,3.1h-2.3c0.2,0.8,0.3,1.9,0.3,3.1c0,1.2-0.1,2.2-0.3,3.1c0.2,0.8,0.3,1.9,0.3,3.1c0,1.2-0.1,2.2-0.3,3.1h4.7
		c0.2,0.8,0.3,1.9,0.3,3.1c0,1.2-0.1,2.2-0.3,3.1h-15.6c-0.2-0.9-0.3-1.9-0.3-3.1c0-1.3,0.1-2.3,0.3-3.1h4.7
		c-0.2-0.9-0.3-1.9-0.3-3.1c0-1.3,0.1-2.3,0.3-3.1c-0.2-0.9-0.3-1.9-0.3-3.1c0-1.3,0.1-2.3,0.3-3.1c-0.2-0.9-0.3-1.9-0.3-3.1
		c0-1.3,0.1-2.3,0.3-3.1h-4.7c-0.2-0.9-0.3-1.9-0.3-3.1c0-1.3,0.1-2.3,0.3-3.1h7.8c0.2,0.8,0.3,1.9,0.3,3.1c0,1.2-0.1,2.2-0.3,3.1
		h3.1c-0.2-0.9-0.3-1.9-0.3-3.1c0-1.3,0.1-2.3,0.3-3.1h11.7c0.2,0.8,0.3,1.9,0.3,3.1c0,1.2-0.1,2.2-0.3,3.1h2.3
		C213.6,62.3,213.7,63.4,213.7,64.6z"/>
	<path d="M245,64.6c0,1.2-0.1,2.2-0.3,3.1h-6.3c-0.2-0.9-0.3-1.9-0.3-3.1c0-1.3,0.1-2.3,0.3-3.1H233c0.2,0.8,0.3,1.9,0.3,3.1
		c0,1.2-0.1,2.2-0.3,3.1h-2.3c0.2,0.8,0.3,1.9,0.3,3.1c0,1.2-0.1,2.2-0.3,3.1c0.2,0.8,0.3,1.9,0.3,3.1c0,1.2-0.1,2.2-0.3,3.1h4.7
		c0.2,0.8,0.3,1.9,0.3,3.1c0,1.2-0.1,2.2-0.3,3.1h-15.6c-0.2-0.9-0.3-1.9-0.3-3.1c0-1.3,0.1-2.3,0.3-3.1h4.7
		c-0.2-0.9-0.3-1.9-0.3-3.1c0-1.3,0.1-2.3,0.3-3.1c-0.2-0.9-0.3-1.9-0.3-3.1c0-1.3,0.1-2.3,0.3-3.1c-0.2-0.9-0.3-1.9-0.3-3.1
		c0-1.3,0.1-2.3,0.3-3.1h-4.7c-0.2-0.9-0.3-1.9-0.3-3.1c0-1.3,0.1-2.3,0.3-3.1h7.8c0.2,0.8,0.3,1.9,0.3,3.1c0,1.2-0.1,2.2-0.3,3.1
		h3.1c-0.2-0.9-0.3-1.9-0.3-3.1c0-1.3,0.1-2.3,0.3-3.1h11.7c0.2,0.8,0.3,1.9,0.3,3.1c0,1.2-0.1,2.2-0.3,3.1h2.3
		C244.9,62.3,245,63.4,245,64.6z"/>
	<path d="M276,74h-2.3c0.2,0.8,0.3,1.9,0.3,3.1c0,1.2-0.1,2.2-0.3,3.1h-3.9c0.2,0.8,0.3,1.9,0.3,3.1c0,1.2-0.1,2.2-0.3,3.1h-12.5
		c-0.2-0.9-0.3-1.9-0.3-3.1c0-1.3,0.1-2.3,0.3-3.1h-3.9c-0.2-0.9-0.3-1.9-0.3-3.1c0-1.3,0.1-2.3,0.3-3.1h-2.3
		c-0.2-0.9-0.3-1.9-0.3-3.1c0-1.3,0.1-2.3,0.3-3.1h2.3c-0.2-0.9-0.3-1.9-0.3-3.1c0-1.3,0.1-2.3,0.3-3.1h3.9
		c-0.2-0.9-0.3-1.9-0.3-3.1c0-1.3,0.1-2.3,0.3-3.1h12.5c0.2,0.8,0.3,1.9,0.3,3.1c0,1.2-0.1,2.2-0.3,3.1h3.9c0.2,0.8,0.3,1.9,0.3,3.1
		c0,1.2-0.1,2.2-0.3,3.1h2.3c0.2,0.8,0.3,1.9,0.3,3.1C276.3,72.1,276.2,73.1,276,74z M269.7,74c-0.2-0.9-0.3-1.9-0.3-3.1
		c0-1.3,0.1-2.3,0.3-3.1h-2.3c-0.2-0.9-0.3-1.9-0.3-3.1c0-1.3,0.1-2.3,0.3-3.1h-7.8c0.2,0.8,0.3,1.9,0.3,3.1c0,1.2-0.1,2.2-0.3,3.1
		h-2.3c0.2,0.8,0.3,1.9,0.3,3.1c0,1.2-0.1,2.2-0.3,3.1h2.3c0.2,0.8,0.3,1.9,0.3,3.1c0,1.2-0.1,2.2-0.3,3.1h7.8
		c-0.2-0.9-0.3-1.9-0.3-3.1c0-1.3,0.1-2.3,0.3-3.1H269.7z"/>
	<path d="M307.2,61.5c0.2,0.8,0.3,1.9,0.3,3.1c0,1.2-0.1,2.2-0.3,3.1h-2.3c0.2,0.8,0.3,1.9,0.3,3.1c0,1.2-0.1,2.2-0.3,3.1
		c0.2,0.8,0.3,1.9,0.3,3.1c0,1.2-0.1,2.2-0.3,3.1h-1.6c0.2,0.8,0.3,1.9,0.3,3.1c0,1.2-0.1,2.2-0.3,3.1h-4.7
		c-0.2-0.9-0.3-1.9-0.3-3.1c0-1.3,0.1-2.3,0.3-3.1h-1.6c-0.2-0.9-0.3-1.9-0.3-3.1c0-1.3,0.1-2.3,0.3-3.1h-4.7
		c0.2,0.8,0.3,1.9,0.3,3.1c0,1.2-0.1,2.2-0.3,3.1h-1.6c0.2,0.8,0.3,1.9,0.3,3.1c0,1.2-0.1,2.2-0.3,3.1h-4.7
		c-0.2-0.9-0.3-1.9-0.3-3.1c0-1.3,0.1-2.3,0.3-3.1h-1.6c-0.2-0.9-0.3-1.9-0.3-3.1c0-1.3,0.1-2.3,0.3-3.1c-0.2-0.9-0.3-1.9-0.3-3.1
		c0-1.3,0.1-2.3,0.3-3.1h-2.3c-0.2-0.9-0.3-1.9-0.3-3.1c0-1.3,0.1-2.3,0.3-3.1c-0.2-0.9-0.3-1.9-0.3-3.1c0-1.3,0.1-2.3,0.3-3.1h6.3
		c0.2,0.8,0.3,1.9,0.3,3.1c0,1.2-0.1,2.2-0.3,3.1c0.2,0.8,0.3,1.9,0.3,3.1c0,1.2-0.1,2.2-0.3,3.1c0.2,0.8,0.3,1.9,0.3,3.1
		c0,1.2-0.1,2.2-0.3,3.1h2.3c-0.2-0.9-0.3-1.9-0.3-3.1c0-1.3,0.1-2.3,0.3-3.1h1.6c-0.2-0.9-0.3-1.9-0.3-3.1c0-1.3,0.1-2.3,0.3-3.1
		c-0.2-0.9-0.3-1.9-0.3-3.1c0-1.3,0.1-2.3,0.3-3.1h4.7c0.2,0.8,0.3,1.9,0.3,3.1c0,1.2-0.1,2.2-0.3,3.1c0.2,0.8,0.3,1.9,0.3,3.1
		c0,1.2-0.1,2.2-0.3,3.1h1.6c0.2,0.8,0.3,1.9,0.3,3.1c0,1.2-0.1,2.2-0.3,3.1h2.3c-0.2-0.9-0.3-1.9-0.3-3.1c0-1.3,0.1-2.3,0.3-3.1
		c-0.2-0.9-0.3-1.9-0.3-3.1c0-1.3,0.1-2.3,0.3-3.1c-0.2-0.9-0.3-1.9-0.3-3.1c0-1.3,0.1-2.3,0.3-3.1h6.3c0.2,0.8,0.3,1.9,0.3,3.1
		C307.5,59.6,307.4,60.6,307.2,61.5z"/>
	<path d="M370.1,83.4c0,1.2-0.1,2.2-0.3,3.1h-10.9c-0.2-0.9-0.3-1.9-0.3-3.1c0-1.3,0.1-2.3,0.3-3.1h-3.1c-0.2-0.9-0.3-1.9-0.3-3.1
		c0-1.3,0.1-2.3,0.3-3.1H351c0.2,0.8,0.3,1.9,0.3,3.1c0,1.2-0.1,2.2-0.3,3.1c0.2,0.8,0.3,1.9,0.3,3.1c0,1.2-0.1,2.2-0.3,3.1h-6.3
		c-0.2-0.9-0.3-1.9-0.3-3.1c0-1.3,0.1-2.3,0.3-3.1c-0.2-0.9-0.3-1.9-0.3-3.1c0-1.3,0.1-2.3,0.3-3.1c-0.2-0.9-0.3-1.9-0.3-3.1
		c0-1.3,0.1-2.3,0.3-3.1c-0.2-0.9-0.3-1.9-0.3-3.1c0-1.3,0.1-2.3,0.3-3.1c-0.2-0.9-0.3-1.9-0.3-3.1c0-1.3,0.1-2.3,0.3-3.1
		c-0.2-0.9-0.3-1.9-0.3-3.1c0-1.3,0.1-2.3,0.3-3.1c-0.2-0.9-0.3-1.9-0.3-3.1c0-1.3,0.1-2.3,0.3-3.1h6.3c0.2,0.8,0.3,1.9,0.3,3.1
		c0,1.2-0.1,2.2-0.3,3.1c0.2,0.8,0.3,1.9,0.3,3.1c0,1.2-0.1,2.2-0.3,3.1c0.2,0.8,0.3,1.9,0.3,3.1c0,1.2-0.1,2.2-0.3,3.1
		c0.2,0.8,0.3,1.9,0.3,3.1c0,1.2-0.1,2.2-0.3,3.1h4.7c-0.2-0.9-0.3-1.9-0.3-3.1c0-1.3,0.1-2.3,0.3-3.1h3.1c-0.2-0.9-0.3-1.9-0.3-3.1
		c0-1.3,0.1-2.3,0.3-3.1h9.4c0.2,0.8,0.3,1.9,0.3,3.1c0,1.2-0.1,2.2-0.3,3.1H362c0.2,0.8,0.3,1.9,0.3,3.1c0,1.2-0.1,2.2-0.3,3.1
		h-3.1c0.2,0.8,0.3,1.9,0.3,3.1c0,1.2-0.1,2.2-0.3,3.1h3.1c0.2,0.8,0.3,1.9,0.3,3.1c0,1.2-0.1,2.2-0.3,3.1h7.8
		C370,81.1,370.1,82.1,370.1,83.4z"/>
	<path d="M401.1,67.7c0.2,0.8,0.3,1.9,0.3,3.1c0,1.2-0.1,2.2-0.3,3.1h-16.4c0.2,0.8,0.3,1.9,0.3,3.1c0,1.2-0.1,2.2-0.3,3.1h13.3
		c0.2,0.8,0.3,1.9,0.3,3.1c0,1.2-0.1,2.2-0.3,3.1h-15.6c-0.2-0.9-0.3-1.9-0.3-3.1c0-1.3,0.1-2.3,0.3-3.1h-3.9
		c-0.2-0.9-0.3-1.9-0.3-3.1c0-1.3,0.1-2.3,0.3-3.1H376c-0.2-0.9-0.3-1.9-0.3-3.1c0-1.3,0.1-2.3,0.3-3.1h2.3
		c-0.2-0.9-0.3-1.9-0.3-3.1c0-1.3,0.1-2.3,0.3-3.1h3.9c-0.2-0.9-0.3-1.9-0.3-3.1c0-1.3,0.1-2.3,0.3-3.1h15.6
		c0.2,0.8,0.3,1.9,0.3,3.1c0,1.2-0.1,2.2-0.3,3.1h3.1c0.2,0.8,0.3,1.9,0.3,3.1C401.4,65.8,401.3,66.9,401.1,67.7z M394.5,64.6
		c0-1.3,0.1-2.3,0.3-3.1h-10.2c0.2,0.8,0.3,1.9,0.3,3.1c0,1.2-0.1,2.2-0.3,3.1h10.2C394.6,66.9,394.5,65.8,394.5,64.6z"/>
	<path d="M432.3,61.5H430c0.2,0.8,0.3,1.9,0.3,3.1c0,1.2-0.1,2.2-0.3,3.1h-2.3c0.2,0.8,0.3,1.9,0.3,3.1c0,1.2-0.1,2.2-0.3,3.1h-1.6
		c0.2,0.8,0.3,1.9,0.3,3.1c0,1.2-0.1,2.2-0.3,3.1h-2.3c0.2,0.8,0.3,1.9,0.3,3.1c0,1.2-0.1,2.2-0.3,3.1h-1.6c0.2,0.8,0.3,1.9,0.3,3.1
		c0,1.2-0.1,2.2-0.3,3.1H419c0.2,0.8,0.3,1.9,0.3,3.1c0,1.2-0.1,2.2-0.3,3.1h-9.4c-0.2-0.9-0.3-1.9-0.3-3.1c0-1.3,0.1-2.3,0.3-3.1
		h6.3c-0.2-0.9-0.3-1.9-0.3-3.1c0-1.3,0.1-2.3,0.3-3.1c-0.2-0.9-0.3-1.9-0.3-3.1c0-1.3,0.1-2.3,0.3-3.1h-3.1
		c-0.2-0.9-0.3-1.9-0.3-3.1c0-1.3,0.1-2.3,0.3-3.1h-1.6c-0.2-0.9-0.3-1.9-0.3-3.1c0-1.3,0.1-2.3,0.3-3.1h-2.3
		c-0.2-0.9-0.3-1.9-0.3-3.1c0-1.3,0.1-2.3,0.3-3.1h-2.3c-0.2-0.9-0.3-1.9-0.3-3.1c0-1.3,0.1-2.3,0.3-3.1h6.3
		c0.2,0.8,0.3,1.9,0.3,3.1c0,1.2-0.1,2.2-0.3,3.1h2.3c0.2,0.8,0.3,1.9,0.3,3.1c0,1.2-0.1,2.2-0.3,3.1h2.3c0.2,0.8,0.3,1.9,0.3,3.1
		c0,1.2-0.1,2.2-0.3,3.1c0.2,0.8,0.3,1.9,0.3,3.1c0,1.2-0.1,2.2-0.3,3.1h2.3c-0.2-0.9-0.3-1.9-0.3-3.1c0-1.3,0.1-2.3,0.3-3.1h1.6
		c-0.2-0.9-0.3-1.9-0.3-3.1c0-1.3,0.1-2.3,0.3-3.1h2.3c-0.2-0.9-0.3-1.9-0.3-3.1c0-1.3,0.1-2.3,0.3-3.1h2.3
		c-0.2-0.9-0.3-1.9-0.3-3.1c0-1.3,0.1-2.3,0.3-3.1h6.3c0.2,0.8,0.3,1.9,0.3,3.1C432.6,59.6,432.5,60.6,432.3,61.5z"/>
	<path d="M462,80.2h-3.1c0.2,0.8,0.3,1.9,0.3,3.1c0,1.2-0.1,2.2-0.3,3.1h-17.2c-0.2-0.9-0.3-1.9-0.3-3.1c0-1.3,0.1-2.3,0.3-3.1h14.1
		c-0.2-0.9-0.3-1.9-0.3-3.1c0-1.3,0.1-2.3,0.3-3.1h-12.5c-0.2-0.9-0.3-1.9-0.3-3.1c0-1.3,0.1-2.3,0.3-3.1h-3.1
		c-0.2-0.9-0.3-1.9-0.3-3.1c0-1.3,0.1-2.3,0.3-3.1h3.1c-0.2-0.9-0.3-1.9-0.3-3.1c0-1.3,0.1-2.3,0.3-3.1h17.2
		c0.2,0.8,0.3,1.9,0.3,3.1c0,1.2-0.1,2.2-0.3,3.1h-14.1c0.2,0.8,0.3,1.9,0.3,3.1c0,1.2-0.1,2.2-0.3,3.1h12.5
		c0.2,0.8,0.3,1.9,0.3,3.1c0,1.2-0.1,2.2-0.3,3.1h3.1c0.2,0.8,0.3,1.9,0.3,3.1C462.4,78.3,462.2,79.4,462,80.2z"/>
</g>
<g class="st0">
	<path d="M163.4,306.3c0.2,0.8,0.3,1.9,0.3,3.1c0,1.2-0.1,2.2-0.3,3.1h-12.5c-0.2-0.9-0.3-1.9-0.3-3.1c0-1.3,0.1-2.3,0.3-3.1h-3.1
		c-0.2-0.9-0.3-1.9-0.3-3.1c0-1.3,0.1-2.3,0.3-3.1c-0.2-0.9-0.3-1.9-0.3-3.1c0-1.3,0.1-2.3,0.3-3.1c-0.2-0.9-0.3-1.9-0.3-3.1
		c0-1.3,0.1-2.3,0.3-3.1h-6.3c-0.2-0.9-0.3-1.9-0.3-3.1c0-1.3,0.1-2.3,0.3-3.1h6.3c-0.2-0.9-0.3-1.9-0.3-3.1c0-1.3,0.1-2.3,0.3-3.1
		c-0.2-0.9-0.3-1.9-0.3-3.1c0-1.3,0.1-2.3,0.3-3.1h6.3c0.2,0.8,0.3,1.9,0.3,3.1c0,1.2-0.1,2.2-0.3,3.1c0.2,0.8,0.3,1.9,0.3,3.1
		c0,1.2-0.1,2.2-0.3,3.1h9.4c0.2,0.8,0.3,1.9,0.3,3.1c0,1.2-0.1,2.2-0.3,3.1H154c0.2,0.8,0.3,1.9,0.3,3.1c0,1.2-0.1,2.2-0.3,3.1
		c0.2,0.8,0.3,1.9,0.3,3.1c0,1.2-0.1,2.2-0.3,3.1c0.2,0.8,0.3,1.9,0.3,3.1c0,1.2-0.1,2.2-0.3,3.1H163.4z"/>
	<path d="M197.8,300.1h-2.3c0.2,0.8,0.3,1.9,0.3,3.1c0,1.2-0.1,2.2-0.3,3.1h-3.9c0.2,0.8,0.3,1.9,0.3,3.1c0,1.2-0.1,2.2-0.3,3.1H179
		c-0.2-0.9-0.3-1.9-0.3-3.1c0-1.3,0.1-2.3,0.3-3.1h-3.9c-0.2-0.9-0.3-1.9-0.3-3.1c0-1.3,0.1-2.3,0.3-3.1h-2.3
		c-0.2-0.9-0.3-1.9-0.3-3.1c0-1.3,0.1-2.3,0.3-3.1h2.3c-0.2-0.9-0.3-1.9-0.3-3.1c0-1.3,0.1-2.3,0.3-3.1h3.9
		c-0.2-0.9-0.3-1.9-0.3-3.1c0-1.3,0.1-2.3,0.3-3.1h12.5c0.2,0.8,0.3,1.9,0.3,3.1c0,1.2-0.1,2.2-0.3,3.1h3.9c0.2,0.8,0.3,1.9,0.3,3.1
		c0,1.2-0.1,2.2-0.3,3.1h2.3c0.2,0.8,0.3,1.9,0.3,3.1C198.1,298.2,198,299.2,197.8,300.1z M191.5,300.1c-0.2-0.9-0.3-1.9-0.3-3.1
		c0-1.3,0.1-2.3,0.3-3.1h-2.3c-0.2-0.9-0.3-1.9-0.3-3.1c0-1.3,0.1-2.3,0.3-3.1h-7.8c0.2,0.8,0.3,1.9,0.3,3.1c0,1.2-0.1,2.2-0.3,3.1
		H179c0.2,0.8,0.3,1.9,0.3,3.1c0,1.2-0.1,2.2-0.3,3.1h2.3c0.2,0.8,0.3,1.9,0.3,3.1c0,1.2-0.1,2.2-0.3,3.1h7.8
		c-0.2-0.9-0.3-1.9-0.3-3.1c0-1.3,0.1-2.3,0.3-3.1H191.5z"/>
	<path d="M240.8,287.6h3.1c0.2,0.8,0.3,1.9,0.3,3.1c0,1.2-0.1,2.2-0.3,3.1h-2.3c0.2,0.8,0.3,1.9,0.3,3.1c0,1.2-0.1,2.2-0.3,3.1
		c0.2,0.8,0.3,1.9,0.3,3.1c0,1.2-0.1,2.2-0.3,3.1c0.2,0.8,0.3,1.9,0.3,3.1c0,1.2-0.1,2.2-0.3,3.1h-6.3c-0.2-0.9-0.3-1.9-0.3-3.1
		c0-1.3,0.1-2.3,0.3-3.1c-0.2-0.9-0.3-1.9-0.3-3.1c0-1.3,0.1-2.3,0.3-3.1c-0.2-0.9-0.3-1.9-0.3-3.1c0-1.3,0.1-2.3,0.3-3.1
		c-0.2-0.9-0.3-1.9-0.3-3.1c0-1.3,0.1-2.3,0.3-3.1c-0.2-0.9-0.3-1.9-0.3-3.1c0-1.3,0.1-2.3,0.3-3.1h5.5c0.2,0.8,0.3,1.9,0.3,3.1
		C241.1,285.7,241,286.7,240.8,287.6z M260.6,297c0,1.2-0.1,2.2-0.3,3.1c0.2,0.8,0.3,1.9,0.3,3.1c0,1.2-0.1,2.2-0.3,3.1
		c0.2,0.8,0.3,1.9,0.3,3.1c0,1.2-0.1,2.2-0.3,3.1h-6.3c-0.2-0.9-0.3-1.9-0.3-3.1c0-1.3,0.1-2.3,0.3-3.1c-0.2-0.9-0.3-1.9-0.3-3.1
		c0-1.3,0.1-2.3,0.3-3.1c-0.2-0.9-0.3-1.9-0.3-3.1c0-1.3,0.1-2.3,0.3-3.1c-0.2-0.9-0.3-1.9-0.3-3.1c0-1.3,0.1-2.3,0.3-3.1h-10.2
		c-0.2-0.9-0.3-1.9-0.3-3.1c0-1.3,0.1-2.3,0.3-3.1h12.5c0.2,0.8,0.3,1.9,0.3,3.1c0,1.2-0.1,2.2-0.3,3.1h3.9c0.2,0.8,0.3,1.9,0.3,3.1
		c0,1.2-0.1,2.2-0.3,3.1C260.5,294.7,260.6,295.7,260.6,297z"/>
	<path d="M291.9,309.5c0,1.2-0.1,2.2-0.3,3.1h-6.3c-0.2-0.9-0.3-1.9-0.3-3.1c0-1.3,0.1-2.3,0.3-3.1h-3.1c-0.2-0.9-0.3-1.9-0.3-3.1
		c0-1.3,0.1-2.3,0.3-3.1h-9.4c0.2,0.8,0.3,1.9,0.3,3.1c0,1.2-0.1,2.2-0.3,3.1h9.4c0.2,0.8,0.3,1.9,0.3,3.1c0,1.2-0.1,2.2-0.3,3.1
		h-12.5c-0.2-0.9-0.3-1.9-0.3-3.1c0-1.3,0.1-2.3,0.3-3.1h-3.1c-0.2-0.9-0.3-1.9-0.3-3.1c0-1.3,0.1-2.3,0.3-3.1h3.1
		c-0.2-0.9-0.3-1.9-0.3-3.1c0-1.3,0.1-2.3,0.3-3.1h12.5c-0.2-0.9-0.3-1.9-0.3-3.1c0-1.3,0.1-2.3,0.3-3.1h-10.9
		c-0.2-0.9-0.3-1.9-0.3-3.1c0-1.3,0.1-2.3,0.3-3.1h14.1c0.2,0.8,0.3,1.9,0.3,3.1c0,1.2-0.1,2.2-0.3,3.1h3.1c0.2,0.8,0.3,1.9,0.3,3.1
		c0,1.2-0.1,2.2-0.3,3.1c0.2,0.8,0.3,1.9,0.3,3.1c0,1.2-0.1,2.2-0.3,3.1c0.2,0.8,0.3,1.9,0.3,3.1c0,1.2-0.1,2.2-0.3,3.1h3.1
		C291.8,307.2,291.9,308.2,291.9,309.5z"/>
	<path d="M322.9,287.6h-2.3c0.2,0.8,0.3,1.9,0.3,3.1c0,1.2-0.1,2.2-0.3,3.1h-2.3c0.2,0.8,0.3,1.9,0.3,3.1c0,1.2-0.1,2.2-0.3,3.1
		h-1.6c0.2,0.8,0.3,1.9,0.3,3.1c0,1.2-0.1,2.2-0.3,3.1h-3.1c0.2,0.8,0.3,1.9,0.3,3.1c0,1.2-0.1,2.2-0.3,3.1h-6.3
		c-0.2-0.9-0.3-1.9-0.3-3.1c0-1.3,0.1-2.3,0.3-3.1h-3.1c-0.2-0.9-0.3-1.9-0.3-3.1c0-1.3,0.1-2.3,0.3-3.1h-1.6
		c-0.2-0.9-0.3-1.9-0.3-3.1c0-1.3,0.1-2.3,0.3-3.1h-2.3c-0.2-0.9-0.3-1.9-0.3-3.1c0-1.3,0.1-2.3,0.3-3.1h-2.3
		c-0.2-0.9-0.3-1.9-0.3-3.1c0-1.3,0.1-2.3,0.3-3.1h6.3c0.2,0.8,0.3,1.9,0.3,3.1c0,1.2-0.1,2.2-0.3,3.1h2.3c0.2,0.8,0.3,1.9,0.3,3.1
		c0,1.2-0.1,2.2-0.3,3.1h2.3c0.2,0.8,0.3,1.9,0.3,3.1c0,1.2-0.1,2.2-0.3,3.1h3.1c-0.2-0.9-0.3-1.9-0.3-3.1c0-1.3,0.1-2.3,0.3-3.1
		h2.3c-0.2-0.9-0.3-1.9-0.3-3.1c0-1.3,0.1-2.3,0.3-3.1h2.3c-0.2-0.9-0.3-1.9-0.3-3.1c0-1.3,0.1-2.3,0.3-3.1h6.3
		c0.2,0.8,0.3,1.9,0.3,3.1C323.2,285.7,323.1,286.7,322.9,287.6z"/>
	<path d="M351.3,309.5c0,1.2-0.1,2.2-0.3,3.1h-18.8c-0.2-0.9-0.3-1.9-0.3-3.1c0-1.3,0.1-2.3,0.3-3.1h6.3c-0.2-0.9-0.3-1.9-0.3-3.1
		c0-1.3,0.1-2.3,0.3-3.1c-0.2-0.9-0.3-1.9-0.3-3.1c0-1.3,0.1-2.3,0.3-3.1c-0.2-0.9-0.3-1.9-0.3-3.1c0-1.3,0.1-2.3,0.3-3.1h-4.7
		c-0.2-0.9-0.3-1.9-0.3-3.1c0-1.3,0.1-2.3,0.3-3.1h10.9c0.2,0.8,0.3,1.9,0.3,3.1c0,1.2-0.1,2.2-0.3,3.1c0.2,0.8,0.3,1.9,0.3,3.1
		c0,1.2-0.1,2.2-0.3,3.1c0.2,0.8,0.3,1.9,0.3,3.1c0,1.2-0.1,2.2-0.3,3.1c0.2,0.8,0.3,1.9,0.3,3.1c0,1.2-0.1,2.2-0.3,3.1h6.3
		C351.2,307.2,351.3,308.2,351.3,309.5z M338.5,275.1c-0.2-0.9-0.3-1.9-0.3-3.1c0-1.3,0.1-2.3,0.3-3.1h6.3c0.2,0.8,0.3,1.9,0.3,3.1
		c0,1.2-0.1,2.2-0.3,3.1H338.5z"/>
	<path d="M385.7,290.7c0,1.2-0.1,2.2-0.3,3.1c0.2,0.8,0.3,1.9,0.3,3.1c0,1.2-0.1,2.2-0.3,3.1c0.2,0.8,0.3,1.9,0.3,3.1
		c0,1.2-0.1,2.2-0.3,3.1c0.2,0.8,0.3,1.9,0.3,3.1c0,1.2-0.1,2.2-0.3,3.1h-3.1c0.2,0.8,0.3,1.9,0.3,3.1c0,1.2-0.1,2.2-0.3,3.1h-3.1
		c0.2,0.8,0.3,1.9,0.3,3.1c0,1.2-0.1,2.2-0.3,3.1h-12.5c-0.2-0.9-0.3-1.9-0.3-3.1c0-1.3,0.1-2.3,0.3-3.1h9.4
		c-0.2-0.9-0.3-1.9-0.3-3.1c0-1.3,0.1-2.3,0.3-3.1h3.1c-0.2-0.9-0.3-1.9-0.3-3.1c0-1.3,0.1-2.3,0.3-3.1H376
		c-0.2-0.9-0.3-1.9-0.3-3.1c0-1.3,0.1-2.3,0.3-3.1h3.1c-0.2-0.9-0.3-1.9-0.3-3.1c0-1.3,0.1-2.3,0.3-3.1c-0.2-0.9-0.3-1.9-0.3-3.1
		c0-1.3,0.1-2.3,0.3-3.1H369c0.2,0.8,0.3,1.9,0.3,3.1c0,1.2-0.1,2.2-0.3,3.1h-2.3c0.2,0.8,0.3,1.9,0.3,3.1c0,1.2-0.1,2.2-0.3,3.1
		h2.3c0.2,0.8,0.3,1.9,0.3,3.1c0,1.2-0.1,2.2-0.3,3.1h7c0.2,0.8,0.3,1.9,0.3,3.1c0,1.2-0.1,2.2-0.3,3.1h-9.4
		c-0.2-0.9-0.3-1.9-0.3-3.1c0-1.3,0.1-2.3,0.3-3.1h-3.9c-0.2-0.9-0.3-1.9-0.3-3.1c0-1.3,0.1-2.3,0.3-3.1h-2.3
		c-0.2-0.9-0.3-1.9-0.3-3.1c0-1.3,0.1-2.3,0.3-3.1h2.3c-0.2-0.9-0.3-1.9-0.3-3.1c0-1.3,0.1-2.3,0.3-3.1h3.9
		c-0.2-0.9-0.3-1.9-0.3-3.1c0-1.3,0.1-2.3,0.3-3.1h18.8c0.2,0.8,0.3,1.9,0.3,3.1c0,1.2-0.1,2.2-0.3,3.1
		C385.6,288.4,385.7,289.5,385.7,290.7z"/>
	<path d="M417,309.5c0,1.2-0.1,2.2-0.3,3.1h-6.3c-0.2-0.9-0.3-1.9-0.3-3.1c0-1.3,0.1-2.3,0.3-3.1h-3.1c-0.2-0.9-0.3-1.9-0.3-3.1
		c0-1.3,0.1-2.3,0.3-3.1h-9.4c0.2,0.8,0.3,1.9,0.3,3.1c0,1.2-0.1,2.2-0.3,3.1h9.4c0.2,0.8,0.3,1.9,0.3,3.1c0,1.2-0.1,2.2-0.3,3.1
		h-12.5c-0.2-0.9-0.3-1.9-0.3-3.1c0-1.3,0.1-2.3,0.3-3.1h-3.1c-0.2-0.9-0.3-1.9-0.3-3.1c0-1.3,0.1-2.3,0.3-3.1h3.1
		c-0.2-0.9-0.3-1.9-0.3-3.1c0-1.3,0.1-2.3,0.3-3.1h12.5c-0.2-0.9-0.3-1.9-0.3-3.1c0-1.3,0.1-2.3,0.3-3.1h-10.9
		c-0.2-0.9-0.3-1.9-0.3-3.1c0-1.3,0.1-2.3,0.3-3.1h14.1c0.2,0.8,0.3,1.9,0.3,3.1c0,1.2-0.1,2.2-0.3,3.1h3.1c0.2,0.8,0.3,1.9,0.3,3.1
		c0,1.2-0.1,2.2-0.3,3.1c0.2,0.8,0.3,1.9,0.3,3.1c0,1.2-0.1,2.2-0.3,3.1c0.2,0.8,0.3,1.9,0.3,3.1c0,1.2-0.1,2.2-0.3,3.1h3.1
		C416.9,307.2,417,308.2,417,309.5z"/>
	<path d="M444.8,306.3c0.2,0.8,0.3,1.9,0.3,3.1c0,1.2-0.1,2.2-0.3,3.1h-12.5c-0.2-0.9-0.3-1.9-0.3-3.1c0-1.3,0.1-2.3,0.3-3.1h-3.1
		c-0.2-0.9-0.3-1.9-0.3-3.1c0-1.3,0.1-2.3,0.3-3.1c-0.2-0.9-0.3-1.9-0.3-3.1c0-1.3,0.1-2.3,0.3-3.1c-0.2-0.9-0.3-1.9-0.3-3.1
		c0-1.3,0.1-2.3,0.3-3.1h-6.3c-0.2-0.9-0.3-1.9-0.3-3.1c0-1.3,0.1-2.3,0.3-3.1h6.3c-0.2-0.9-0.3-1.9-0.3-3.1c0-1.3,0.1-2.3,0.3-3.1
		c-0.2-0.9-0.3-1.9-0.3-3.1c0-1.3,0.1-2.3,0.3-3.1h6.3c0.2,0.8,0.3,1.9,0.3,3.1c0,1.2-0.1,2.2-0.3,3.1c0.2,0.8,0.3,1.9,0.3,3.1
		c0,1.2-0.1,2.2-0.3,3.1h9.4c0.2,0.8,0.3,1.9,0.3,3.1c0,1.2-0.1,2.2-0.3,3.1h-9.4c0.2,0.8,0.3,1.9,0.3,3.1c0,1.2-0.1,2.2-0.3,3.1
		c0.2,0.8,0.3,1.9,0.3,3.1c0,1.2-0.1,2.2-0.3,3.1c0.2,0.8,0.3,1.9,0.3,3.1c0,1.2-0.1,2.2-0.3,3.1H444.8z"/>
	<path d="M479.2,293.8c0.2,0.8,0.3,1.9,0.3,3.1c0,1.2-0.1,2.2-0.3,3.1h-16.4c0.2,0.8,0.3,1.9,0.3,3.1c0,1.2-0.1,2.2-0.3,3.1h13.3
		c0.2,0.8,0.3,1.9,0.3,3.1c0,1.2-0.1,2.2-0.3,3.1h-15.6c-0.2-0.9-0.3-1.9-0.3-3.1c0-1.3,0.1-2.3,0.3-3.1h-3.9
		c-0.2-0.9-0.3-1.9-0.3-3.1c0-1.3,0.1-2.3,0.3-3.1h-2.3c-0.2-0.9-0.3-1.9-0.3-3.1c0-1.3,0.1-2.3,0.3-3.1h2.3
		c-0.2-0.9-0.3-1.9-0.3-3.1c0-1.3,0.1-2.3,0.3-3.1h3.9c-0.2-0.9-0.3-1.9-0.3-3.1c0-1.3,0.1-2.3,0.3-3.1h15.6
		c0.2,0.8,0.3,1.9,0.3,3.1c0,1.2-0.1,2.2-0.3,3.1h3.1c0.2,0.8,0.3,1.9,0.3,3.1C479.6,291.9,479.5,293,479.2,293.8z M472.7,290.7
		c0-1.3,0.1-2.3,0.3-3.1h-10.2c0.2,0.8,0.3,1.9,0.3,3.1c0,1.2-0.1,2.2-0.3,3.1H473C472.8,293,472.7,291.9,472.7,290.7z"/>
</g>
<g>
	<path d="M280.9,182.7c22,0,43.9,0,65.8,0c0,1.6,0,3.1,0,4.7c1.3,0,2.5,0,3.9,0c0-1.6,0-3.1,0-4.7c22,0,43.9,0,65.9,0
		c0,21.9,0,43.8,0,65.8c-1.6,0-3.2,0-4.8,0c0,1,0,1.9,0,2.9c-21.6,0-43.3,0-64.9,0c0-0.9,0-1.9,0-2.9c-1.6,0-3.2,0-4.9,0
		c0,0.9,0,1.9,0,2.9c-21.7,0-43.3,0-64.9,0c0-1,0-1.9,0-2.9c-1.6,0-3.1,0-4.8,0c0,0.9,0,1.9,0,2.9c-21.7,0-43.2,0-64.9,0
		c0-21.3,0-42.6,0-64c1.2,0,2.5,0,3.8,0c0-1.6,0-3.1,0-4.7c21.9,0,43.9,0,65.8,0c0,1.5,0,3.1,0,4.7c1.3,0,2.6,0,3.9,0
		C280.9,185.8,280.9,184.2,280.9,182.7z M353.6,185.5c0,20,0,40,0,60c20,0,40,0,60,0c0-20,0-40,0-60
		C393.5,185.5,373.6,185.5,353.6,185.5z M214.1,245.5c20,0,40,0,60,0c0-20,0-40,0-60c-20,0-40,0-60,0
		C214.1,205.5,214.1,225.5,214.1,245.5z M343.8,245.5c0-20,0-40,0-60c-20,0-40,0-60,0c0,20,0,40,0,60
		C303.8,245.5,323.7,245.5,343.8,245.5z"/>
	<path d="M277,117.7c1.3,0,2.6,0,3.9,0c0-1.6,0-3.2,0-4.8c21.9,0,43.9,0,65.8,0c0,21.9,0,43.8,0,65.8c-1.6,0-3.2,0-4.8,0
		c0,1,0,1.9,0,2.9c-21.6,0-43.2,0-64.9,0C277,160.3,277,139,277,117.7z M343.8,115.8c-20,0-40,0-60,0c0,20,0,40,0,60c20,0,40,0,60,0
		C343.8,155.8,343.8,135.8,343.8,115.8z"/>
	<path class="st1" d="M353.6,185.5c20,0,40,0,60,0c0,20,0,40,0,60c-20,0-40,0-60,0C353.6,225.5,353.6,205.5,353.6,185.5z M375.8,201
		c0,10,0,20,0,30c0.3,0,0.7,0,1,0c0-0.3,0-0.6,0-1c0.7,0,1.3,0,1.9,0c0-0.3,0-0.6,0.1-0.9c0.3,0,0.6,0,0.9,0c0-0.3,0-0.7,0-1
		c0.7,0,1.3,0,1.9,0c0-0.4,0-0.7,0-1c0.3,0,0.7,0,1,0c0-0.3,0-0.6,0.1-0.9c0.7,0,1.2,0,1.9,0c0-0.3,0-0.7,0-1c0.4,0,0.7,0,1,0
		c0-0.3,0-0.6,0-0.9c0.6,0,1.3,0,1.9,0c0-0.4,0-0.7,0-1c0.3,0,0.6,0,0.9,0c0-0.3,0-0.6,0.1-0.9c0.6,0,1.3,0,1.9,0c0-0.4,0-0.7,0-1
		c0.3,0,0.7,0,1,0c0-0.3,0-0.6,0.1-0.9c0.6,0,1.2,0,1.9,0c0-0.3,0-0.7,0.1-1c0.3,0,0.7,0,1,0c0-0.4,0-0.6,0-1c0.6,0,1.3,0,1.9,0
		c0-0.3,0-0.6,0-0.9c0.3,0,0.6,0,0.9,0c0-0.3,0-0.7,0.1-1c0.3,0,0.7,0,1,0c0-0.7,0-1.3,0-1.9c-0.3,0-0.6,0-1-0.1
		c0-0.3,0-0.6-0.1-0.9c-0.6,0-1.2,0-1.9,0c0-0.3,0-0.7-0.1-1c-0.3,0-0.6,0-0.9-0.1c0-0.3,0-0.6,0-1c-0.6,0-1.3,0-1.9,0
		c0-0.3,0-0.6-0.1-0.9c-0.4,0-0.7,0-1,0c0-0.4,0-0.6,0-1c-0.7,0-1.3,0-1.9,0c0-0.3,0-0.6-0.1-0.9c-0.4,0-0.6,0-1,0c0-0.3,0-0.7,0-1
		c-0.7,0-1.3,0-1.9,0c0-0.3,0-0.6,0-0.9c-0.3,0-0.6,0-0.9-0.1c0-0.3,0-0.7,0-1c-0.7,0-1.3,0-2,0c0-0.3,0-0.7,0-1c-0.3,0-0.6,0-0.9,0
		c0-0.3,0-0.6,0-0.9c-0.6,0-1.3,0-1.9,0c0-0.4,0-0.7,0-1c-0.4,0-0.6,0-1,0c0-0.3,0-0.6-0.1-0.9c-0.6,0-1.3,0-1.9,0c0-0.4,0-0.7,0-1
		C377.1,201,376.5,201,375.8,201z"/>
	<path class="st1" d="M214.1,245.5c0-20,0-40,0-60c20,0,40,0,60,0c0,20,0,40,0,60C254.1,245.5,234.1,245.5,214.1,245.5z
		 M241.2,207.7c-0.7,0-1.4,0-2.1,0c0,0.4,0,0.7,0,1c-0.3,0-0.6,0-0.8,0c0,0.3,0,0.6-0.1,0.9c-0.6,0-1.3,0-1.9,0c0,0.4,0,0.7,0,1
		c-0.3,0-0.7,0-1,0c0,0.3,0,0.6-0.1,0.9c-0.7,0-1.2,0-1.9,0c0,0.3,0,0.7,0,1c-0.4,0-0.7,0-1,0c0,0.4,0,0.6,0,1c-0.7,0-1.3,0-1.9,0
		c0,0.3,0,0.6,0,0.9c-0.3,0-0.6,0-0.8,0c0,0.7,0,1.3,0,1.9c0.3,0,0.6,0,0.9,0c0,0.4,0,0.6,0,1c0.3,0,0.7,0,1,0.1
		c0,0.3,0,0.6,0.1,0.9c0.6,0,1.2,0,1.9,0c0,0.3,0,0.7,0.1,1c0.3,0,0.7,0,1,0c0,0.4,0,0.6,0,1c0.6,0,1.3,0,1.9,0c0,0.3,0,0.6,0.1,0.9
		c0.3,0,0.6,0,0.9,0.1c0,0.4,0,0.6,0,1c0.7,0,1.3,0,1.9,0c0,0.3,0,0.6,0.1,0.9c0.4,0,0.6,0,1,0c0,0.3,0,0.7,0,1c0.7,0,1.3,0,1.9,0
		c0,0.3,0,0.6,0,0.9c0.3,0,0.7,0,1,0c0,0.4,0,0.6,0,1c0.6,0,1.3,0,1.9,0c0,0.3,0,0.6,0.1,0.9c0.3,0,0.6,0,0.9,0c0,0.4,0,0.6,0,1
		c0.7,0,1.3,0,2,0c0,0.4,0,0.7,0,1c0.3,0,0.6,0,0.8,0c0,0.3,0,0.6,0.1,0.9c0.6,0,1.3,0,1.9,0c0,0.4,0,0.7,0,1c0.3,0,0.7,0,1,0
		c0-10,0-20,0-30c-0.6,0-1.3,0-1.9,0c0,0.3,0,0.6,0,1c-0.7,0-1.3,0-1.9,0c0,0.3,0,0.6-0.1,0.9c-0.4,0-0.6,0-1,0c0,0.3,0,0.7,0,1
		c-0.7,0-1.3,0-1.9,0c0,0.3,0,0.6,0,0.9c-0.3,0-0.7,0-1,0c0,0.4,0,0.6,0,1c-0.6,0-1.3,0-1.9,0c0,0.4,0,0.7,0,1c-0.3,0-0.6,0-0.9,0.1
		C241.2,207.2,241.2,207.4,241.2,207.7z"/>
	<path class="st1" d="M343.8,245.5c-20,0-40,0-60,0c0-20,0-40,0-60c20,0,40,0,60,0C343.8,205.5,343.8,225.5,343.8,245.5z
		 M300.3,211.6c0.3,0,0.7,0,1,0.1c0,0.7,0,1.3,0,2c0.3,0,0.6,0,0.9,0c0,0.3,0,0.6,0,0.9c0.3,0,0.7,0,1,0c0,0.7,0,1.3,0,1.9
		c0.3,0,0.6,0,0.9,0c0,0.3,0,0.7,0,1c0.4,0,0.6,0,1,0c0,0.6,0,1.3,0,1.9c0.3,0,0.6,0,0.9,0.1c0,0.4,0,0.7,0,1c0.4,0,0.6,0,1,0
		c0,0.7,0,1.3,0,1.9c0.3,0,0.6,0,0.9,0.1c0,0.3,0,0.6,0,0.9c0.3,0,0.7,0,1,0c0,0.7,0,1.3,0,1.9c0.4,0,0.7,0,1,0c0,0.3,0,0.7,0,1
		c0.3,0,0.6,0,0.9,0c0,0.6,0,1.3,0,1.9c0.4,0,0.7,0,1,0c0,0.4,0,0.7,0,1c0.3,0,0.6,0,0.9,0c0,0.6,0,1.3,0,1.9c0.7,0,1.3,0,1.9,0
		c0-0.6,0-1.2,0-1.9c0.3,0,0.7,0,1,0c0-0.4,0-0.7,0-1c0.4,0,0.6,0,1,0c0-0.7,0-1.3,0-1.9c0.3,0,0.6,0,0.9-0.1c0-0.4,0-0.6,0-1
		c0.3,0,0.7,0,1,0c0-0.7,0-1.3,0-1.9c0.3,0,0.6,0,0.9,0c0-0.3,0-0.6,0.1-0.9c0.3,0,0.7,0,1,0c0-0.7,0-1.3,0-1.9c0.3,0,0.6,0,0.9-0.1
		c0-0.3,0-0.7,0-1c0.4,0,0.6,0,1,0c0-0.7,0-1.3,0-1.9c0.4,0,0.7,0,1,0c0-0.4,0-0.6,0-1c0.3,0,0.6,0,0.9-0.1c0-0.6,0-1.3,0-1.9
		c0.4,0,0.7,0,1,0c0-0.3,0-0.6,0.1-0.9c0.3,0,0.6,0,0.9-0.1c0-0.7,0-1.3,0-2c0.4,0,0.7,0,1,0c0-0.3,0-0.6,0-0.9c0.3,0,0.6,0,0.8,0
		c0-1.6,0-3.2,0-4.8c-0.6,0-1.3,0-1.9,0c0,0.3,0,0.6,0,0.9c-0.3,0-0.6,0-0.9,0.1c0,0.3,0,0.6-0.1,0.9c-8.8,0-17.5,0-26.2,0
		c0,1,0,1.9,0,2.9c0.3,0,0.7,0,1,0C300.3,211,300.3,211.3,300.3,211.6z"/>
	<path class="st1" d="M343.8,115.8c0,20,0,40,0,60c-20,0-40,0-60,0c0-20,0-40,0-60C303.8,115.8,323.7,115.8,343.8,115.8z
		 M321.5,142.8c0-0.7,0-1.3,0-1.9c-0.3,0-0.6,0-0.9,0c0-0.3,0-0.6-0.1-0.9c-0.3,0-0.7,0-1,0c0-0.7,0-1.3,0-1.9c-0.3,0-0.6,0-0.9-0.1
		c0-0.3,0-0.7,0-1c-0.4,0-0.6,0-1,0c0-0.7,0-1.3,0-1.9c-0.3,0-0.6,0-0.9-0.1c0-0.4,0-0.6,0-1c-0.3,0-0.7,0-1,0c0-0.7,0-1.3,0-1.9
		c-0.4,0-0.7,0-1,0c0-0.3,0-0.6-0.1-0.8c-0.7,0-1.3,0-1.9,0c0,0.3,0,0.6,0,0.8c-0.3,0-0.6,0-0.9,0.1c0,0.6,0,1.3,0,1.9
		c-0.4,0-0.7,0-1,0c0,0.3,0,0.7,0,1c-0.3,0-0.6,0-0.9,0.1c0,0.7,0,1.2,0,1.9c-0.3,0-0.7,0-1,0c0,0.4,0,0.7,0,1c-0.4,0-0.6,0-1,0
		c0,0.7,0,1.3,0,1.9c-0.3,0-0.6,0-0.9,0c0,0.3,0,0.6,0,0.9c-0.3,0-0.7,0-1,0.1c0,0.7,0,1.3,0,1.9c-0.3,0-0.6,0-0.9,0
		c0,0.3,0,0.7,0,1c-0.4,0-0.7,0-1,0c0,0.7,0,1.3,0,1.9c-0.3,0-0.6,0-0.9,0.1c0,0.3,0,0.7,0,1c-0.4,0-0.6,0-1,0c0,0.7,0,1.3,0,1.9
		c-0.3,0-0.6,0-0.9,0c0,0.3,0,0.6,0,0.9c-0.3,0-0.7,0-1,0.1c0,0.7,0,1.3,0,1.9c-0.4,0-0.7,0-1,0c0,0.7,0,1.3,0,2c9.7,0,19.3,0,29,0
		c0-0.7,0-1.3,0-2c-0.3,0-0.6,0-0.9-0.1c0-0.6,0-1.3,0-1.9c-0.4,0-0.7,0-1,0c0-0.3,0-0.6-0.1-0.9c-0.3,0-0.6,0-0.9-0.1
		c0-0.7,0-1.2,0-1.9c-0.3,0-0.7,0-1,0c0-0.4,0-0.7,0-1c-0.3,0-0.6,0-0.9,0c0-0.6,0-1.3,0-1.9c-0.4,0-0.7,0-1,0c0-0.4,0-0.6,0-1
		C322.2,142.8,321.9,142.8,321.5,142.8z"/>
	<path d="M375.8,201c0.6,0,1.2,0,1.9,0c0,0.3,0,0.6,0,1c0.6,0,1.3,0,1.9,0c0,0.3,0,0.6,0.1,0.9c0.3,0,0.6,0,1,0c0,0.3,0,0.7,0,1
		c0.7,0,1.3,0,1.9,0c0,0.3,0,0.6,0,0.9c0.3,0,0.6,0,0.9,0c0,0.4,0,0.7,0,1c0.7,0,1.3,0,2,0c0,0.3,0,0.7,0,1c0.3,0,0.6,0,0.9,0.1
		c0,0.3,0,0.5,0,0.9c0.6,0,1.2,0,1.9,0c0,0.4,0,0.7,0,1c0.4,0,0.6,0,1,0c0,0.3,0,0.6,0.1,0.9c0.6,0,1.2,0,1.9,0c0,0.4,0,0.6,0,1
		c0.3,0,0.7,0,1,0c0,0.3,0,0.6,0.1,0.9c0.6,0,1.2,0,1.9,0c0,0.4,0,0.6,0,1c0.3,0,0.6,0,0.9,0.1c0,0.3,0,0.6,0.1,1c0.6,0,1.2,0,1.9,0
		c0,0.3,0,0.6,0.1,0.9c0.3,0,0.6,0,1,0.1c0,0.6,0,1.2,0,1.9c-0.3,0-0.6,0-1,0c0,0.4,0,0.7-0.1,1c-0.3,0-0.5,0-0.9,0
		c0,0.3,0,0.6,0,0.9c-0.6,0-1.2,0-1.9,0c0,0.4,0,0.6,0,1c-0.3,0-0.7,0-1,0c0,0.4,0,0.7-0.1,1c-0.6,0-1.2,0-1.9,0
		c0,0.3,0,0.6-0.1,0.9c-0.3,0-0.6,0-1,0c0,0.3,0,0.6,0,1c-0.6,0-1.3,0-1.9,0c0,0.3,0,0.6-0.1,0.9c-0.3,0-0.5,0-0.9,0
		c0,0.3,0,0.7,0,1c-0.7,0-1.3,0-1.9,0c0,0.3,0,0.6,0,0.9c-0.3,0-0.7,0-1,0c0,0.4,0,0.7,0,1c-0.7,0-1.3,0-1.9,0c0,0.3,0,0.6-0.1,0.9
		c-0.3,0-0.6,0-1,0c0,0.4,0,0.6,0,1c-0.6,0-1.3,0-1.9,0c0,0.4,0,0.7,0,1c-0.3,0-0.6,0-0.9,0c0,0.3,0,0.5-0.1,0.9c-0.6,0-1.2,0-1.9,0
		c0,0.4,0,0.6,0,1c-0.3,0-0.7,0-1,0C375.8,221,375.8,211,375.8,201z M385.5,220.4c0.7,0,1.3,0,1.9,0c0-0.4,0-0.7,0-1
		c0.3,0,0.6,0,0.8-0.1c0-0.7,0-1.3,0-1.9c-0.6,0-1.2,0-1.9,0c0-0.3,0-0.7,0-1c-0.3,0-0.6,0-0.9-0.1c0-0.3,0-0.6,0-0.9
		c-0.7,0-1.3,0-2,0c0-0.4,0-0.7,0-1c-0.3,0-0.6,0-0.8,0c0-0.3,0-0.6-0.1-0.9c-0.6,0-1.3,0-1.9,0c0-0.4,0-0.7,0-1c-0.3,0-0.7,0-1,0
		c0-0.4,0-0.7,0-1c-0.3,0-0.6,0-0.8,0c0,4.5,0,9,0,13.5c0.3,0,0.6,0,0.9,0c0-0.3,0-0.6,0-0.9c0.6,0,1.3,0,1.9,0c0-0.4,0-0.7,0-1
		c0.4,0,0.6,0,1,0c0-0.3,0-0.6,0-0.9c0.7,0,1.3,0,1.9,0c0-0.4,0-0.7,0-1c0.4,0,0.6,0,1,0C385.5,221,385.5,220.7,385.5,220.4z"/>
	<path d="M241.2,207.7c0-0.3,0-0.6,0-0.9c0.3,0,0.6,0,0.9-0.1c0-0.3,0-0.6,0-1c0.7,0,1.3,0,1.9,0c0-0.4,0-0.6,0-1c0.3,0,0.7,0,1,0
		c0-0.3,0-0.6,0-0.9c0.6,0,1.2,0,1.9,0c0-0.4,0-0.7,0-1c0.4,0,0.6,0,1,0c0-0.3,0-0.6,0.1-0.9c0.6,0,1.2,0,1.9,0c0-0.4,0-0.6,0-1
		c0.6,0,1.3,0,1.9,0c0,10,0,20,0,30c-0.3,0-0.6,0-1,0c0-0.3,0-0.6,0-1c-0.6,0-1.3,0-1.9,0c0-0.3,0-0.6-0.1-0.9c-0.3,0-0.5,0-0.8,0
		c0-0.3,0-0.7,0-1c-0.7,0-1.4,0-2,0c0-0.4,0-0.6,0-1c-0.3,0-0.6,0-0.9,0c0-0.3,0-0.6-0.1-0.9c-0.6,0-1.2,0-1.9,0c0-0.4,0-0.6,0-1
		c-0.3,0-0.7,0-1,0c0-0.3,0-0.6,0-0.9c-0.6,0-1.2,0-1.9,0c0-0.4,0-0.7,0-1c-0.4,0-0.6,0-1,0c0-0.3,0-0.6-0.1-0.9c-0.6,0-1.2,0-1.9,0
		c0-0.4,0-0.6,0-1c-0.3,0-0.6,0-0.9-0.1c0-0.3,0-0.5-0.1-0.9c-0.6,0-1.2,0-1.9,0c0-0.4,0-0.6,0-1c-0.3,0-0.7,0-1,0
		c0-0.4,0-0.7-0.1-1c-0.6,0-1.2,0-1.9,0c0-0.3,0-0.6-0.1-0.9c-0.3,0-0.6,0-1-0.1c0-0.3,0-0.6,0-1c-0.3,0-0.6,0-0.9,0
		c0-0.6,0-1.2,0-1.9c0.3,0,0.5,0,0.8,0c0-0.3,0-0.6,0-0.9c0.6,0,1.2,0,1.9,0c0-0.4,0-0.6,0-1c0.3,0,0.7,0,1,0c0-0.4,0-0.7,0-1
		c0.6,0,1.2,0,1.9,0c0-0.3,0-0.6,0.1-0.9c0.3,0,0.6,0,1,0c0-0.4,0-0.6,0-1c0.6,0,1.3,0,1.9,0c0-0.3,0-0.6,0.1-0.9c0.3,0,0.5,0,0.8,0
		c0-0.3,0-0.6,0-1C239.9,207.7,240.5,207.7,241.2,207.7z M240.2,219.4c0,0.4,0,0.7,0,1c0.6,0,1.3,0,1.9,0c0,0.3,0,0.6,0.1,0.9
		c0.4,0,0.6,0,1,0c0,0.3,0,0.7,0,1c0.7,0,1.3,0,1.9,0c0-4.5,0-9,0-13.5c-0.3,0-0.6,0-0.9,0c0,0.3,0,0.6-0.1,0.9c-0.6,0-1.3,0-1.9,0
		c0,0.4,0,0.7,0,1c-0.3,0-0.6,0-0.9,0.1c0,0.3,0,0.6-0.1,0.9c-0.7,0-1.3,0-2,0c0,0.3,0,0.7-0.1,1c-0.3,0-0.6,0-0.9,0.1
		c0,0.3,0,0.6,0,1c-0.6,0-1.3,0-1.9,0c0,0.3,0,0.6-0.1,0.9c-0.4,0-0.7,0-1,0c0,0.4,0,0.6,0,1c-0.3,0-0.6,0-0.8,0.1
		c0,0.3,0,0.6,0,0.9c0.6,0,1.2,0,1.9,0c0,0.3,0,0.7,0,1c0.3,0,0.6,0,0.9,0c0,0.3,0,0.6,0,0.9c0.6,0,1.3,0,1.9,0c0,0.4,0,0.7,0,1
		C239.6,219.4,239.9,219.4,240.2,219.4z"/>
	<path d="M300.3,211.6c0-0.3,0-0.5,0-0.9c-0.3,0-0.7,0-1,0c0-1,0-2,0-2.9c8.7,0,17.4,0,26.2,0c0-0.3,0-0.6,0.1-0.9
		c0.3,0,0.6,0,0.9-0.1c0-0.3,0-0.6,0-0.9c0.6,0,1.3,0,1.9,0c0,1.6,0,3.2,0,4.8c-0.3,0-0.5,0-0.8,0c0,0.3,0,0.6,0,0.9
		c-0.4,0-0.7,0-1,0c0,0.7,0,1.3,0,2c-0.3,0-0.6,0-0.9,0.1c0,0.3,0,0.6-0.1,0.9c-0.3,0-0.6,0-1,0c0,0.6,0,1.3,0,1.9
		c-0.3,0-0.6,0-0.9,0.1c0,0.3,0,0.6,0,1c-0.3,0-0.7,0-1,0c0,0.7,0,1.3,0,1.9c-0.4,0-0.6,0-1,0c0,0.3,0,0.7,0,1c-0.3,0-0.6,0-0.9,0.1
		c0,0.6,0,1.2,0,1.9c-0.3,0-0.7,0-1,0c0,0.3,0,0.6-0.1,0.9c-0.3,0-0.5,0-0.9,0c0,0.6,0,1.2,0,1.9c-0.4,0-0.7,0-1,0c0,0.4,0,0.6,0,1
		c-0.3,0-0.6,0-0.9,0.1c0,0.6,0,1.2,0,1.9c-0.4,0-0.6,0-1,0c0,0.3,0,0.7,0,1c-0.4,0-0.7,0-1,0c0,0.7,0,1.3,0,1.9c-0.6,0-1.3,0-1.9,0
		c0-0.6,0-1.2,0-1.9c-0.3,0-0.6,0-0.9,0c0-0.3,0-0.6,0-1c-0.4,0-0.7,0-1,0c0-0.7,0-1.3,0-1.9c-0.3,0-0.6,0-0.9,0c0-0.3,0-0.7,0-1
		c-0.4,0-0.6,0-1,0c0-0.6,0-1.3,0-1.9c-0.4,0-0.7,0-1,0c0-0.3,0-0.6,0-0.9c-0.3,0-0.5,0-0.9-0.1c0-0.6,0-1.2,0-1.9c-0.4,0-0.6,0-1,0
		c0-0.3,0-0.7,0-1c-0.3,0-0.6,0-0.9-0.1c0-0.6,0-1.2,0-1.9c-0.4,0-0.6,0-1,0c0-0.3,0-0.7,0-1c-0.3,0-0.6,0-0.9,0c0-0.6,0-1.2,0-1.9
		c-0.3,0-0.7,0-1,0c0-0.3,0-0.6,0-0.9c-0.3,0-0.5,0-0.9,0c0-0.7,0-1.3,0-2C300.9,211.6,300.6,211.6,300.3,211.6z M307.1,214.5
		c0,0.7,0,1.3,0,1.9c0.3,0,0.6,0,0.9,0.1c0,0.3,0,0.7,0,1c0.4,0,0.6,0,1,0c0,0.6,0,1.3,0,1.9c0.4,0,0.7,0,1,0c0,0.4,0,0.6,0,1
		c0.3,0,0.6,0,0.9,0c0,0.7,0,1.3,0,1.9c0.4,0,0.7,0,1,0c0,0.3,0,0.6,0,0.8c0.3,0,0.6,0,0.9,0.1c0,0.7,0,1.3,0,1.9c0.4,0,0.7,0,1,0
		c0-0.6,0-1.3,0-1.9c0.3,0,0.6,0,0.9-0.1c0-0.3,0-0.6,0-0.9c0.3,0,0.7,0,1,0c0-0.7,0-1.3,0-1.9c0.4,0,0.7,0,1,0c0-0.3,0-0.7,0-1
		c0.3,0,0.6,0,0.9-0.1c0-0.6,0-1.2,0-1.9c0.3,0,0.7,0,1-0.1c0-0.3,0-0.7,0-1c0.3,0,0.6,0,0.9,0c0-0.6,0-1.3,0-1.9c0.4,0,0.7,0,1,0
		c0-0.3,0-0.6,0-0.9c-4.9,0-9.7,0-14.5,0c0,0.3,0,0.6,0,0.9C306.4,214.5,306.7,214.5,307.1,214.5z"/>
	<path d="M321.5,142.8c0.4,0,0.7,0,1,0c0,0.3,0,0.6,0,1c0.3,0,0.7,0,1,0c0,0.7,0,1.3,0,1.9c0.3,0,0.6,0,0.9,0c0,0.3,0,0.7,0,1
		c0.4,0,0.7,0,1,0c0,0.7,0,1.3,0,1.9c0.3,0,0.6,0,0.9,0.1c0,0.3,0,0.6,0.1,0.9c0.3,0,0.6,0,1,0c0,0.6,0,1.3,0,1.9
		c0.3,0,0.6,0,0.9,0.1c0,0.7,0,1.3,0,2c-9.6,0-19.3,0-29,0c0-0.6,0-1.3,0-2c0.3,0,0.6,0,1,0c0-0.6,0-1.3,0-1.9c0.4,0,0.7,0,1-0.1
		c0-0.3,0-0.5,0-0.9c0.3,0,0.6,0,0.9,0c0-0.7,0-1.3,0-1.9c0.4,0,0.6,0,1,0c0-0.3,0-0.7,0-1c0.3,0,0.6,0,0.9-0.1c0-0.6,0-1.2,0-1.9
		c0.3,0,0.7,0,1,0c0-0.4,0-0.7,0-1c0.3,0,0.5,0,0.9,0c0-0.6,0-1.3,0-1.9c0.4,0,0.7,0,1-0.1c0-0.3,0-0.5,0-0.9c0.3,0,0.6,0,0.9,0
		c0-0.7,0-1.3,0-1.9c0.4,0,0.6,0,1,0c0-0.3,0-0.7,0-1c0.4,0,0.7,0,1,0c0-0.7,0-1.3,0-1.9c0.3,0,0.6,0,0.9-0.1c0-0.3,0-0.6,0-1
		c0.4,0,0.6,0,1,0c0-0.6,0-1.3,0-1.9c0.3,0,0.6,0,0.9-0.1c0-0.3,0-0.5,0-0.8c0.6,0,1.3,0,1.9,0c0,0.3,0,0.5,0.1,0.8c0.3,0,0.6,0,1,0
		c0,0.6,0,1.3,0,1.9c0.4,0,0.7,0,1,0c0,0.3,0,0.6,0,1c0.3,0,0.6,0,0.9,0.1c0,0.6,0,1.2,0,1.9c0.4,0,0.6,0,1,0c0,0.3,0,0.7,0,1
		c0.3,0,0.6,0,0.9,0.1c0,0.6,0,1.2,0,1.9c0.3,0,0.7,0,1,0c0,0.3,0,0.6,0.1,0.9c0.3,0,0.5,0,0.9,0
		C321.5,141.5,321.5,142.1,321.5,142.8z M309,142.8c0,0.3,0,0.7-0.1,1c-0.3,0-0.7,0-1,0c0,0.7,0,1.3,0,1.9c-0.3,0-0.6,0-0.9,0.1
		c0,0.3,0,0.7,0,1c-0.4,0-0.6,0-1,0c0,0.6,0,1.3,0,1.9c-0.3,0-0.6,0-0.9,0.1c0,0.3,0,0.6-0.1,0.9c-0.4,0-0.6,0-0.9,0
		c0,0.3,0,0.7,0,1c4.5,0,9,0,13.5,0c0-0.3,0-0.6,0-0.9c-0.3,0-0.6,0-0.9-0.1c0-0.3,0-0.6,0-0.9c-0.4,0-0.6,0-1,0c0-0.6,0-1.3,0-1.9
		c-0.4,0-0.7,0-1,0c0-0.4,0-0.6,0-1c-0.3,0-0.6,0-0.9-0.1c0-0.6,0-1.3,0-1.9c-0.4,0-0.7,0-1,0c0-0.3,0-0.7,0-1c-0.3,0-0.6,0-0.9-0.1
		c0-0.6,0-1.2,0-1.9c-0.7,0-1.3,0-1.9,0c0,0.6,0,1.3,0,1.9C309.6,142.8,309.3,142.8,309,142.8z"/>
	<path class="st1" d="M385.5,220.4c0,0.4,0,0.6,0,0.9c-0.3,0-0.6,0-1,0c0,0.3,0,0.7,0,1c-0.7,0-1.3,0-1.9,0c0,0.3,0,0.6,0,0.9
		c-0.3,0-0.6,0-1,0c0,0.3,0,0.7,0,1c-0.7,0-1.3,0-1.9,0c0,0.3,0,0.6,0,0.9c-0.3,0-0.6,0-0.9,0c0-4.5,0-9,0-13.5c0.3,0,0.5,0,0.8,0
		c0,0.3,0,0.6,0,1c0.4,0,0.7,0,1,0c0,0.4,0,0.6,0,1c0.6,0,1.3,0,1.9,0c0,0.3,0,0.6,0.1,0.9c0.3,0,0.5,0,0.8,0c0,0.3,0,0.6,0,1
		c0.7,0,1.4,0,2,0c0,0.3,0,0.6,0,0.9c0.3,0,0.5,0,0.9,0.1c0,0.3,0,0.6,0,1c0.7,0,1.3,0,1.9,0c0,0.6,0,1.3,0,1.9
		c-0.3,0-0.5,0-0.8,0.1c0,0.3,0,0.6,0,1C386.8,220.4,386.2,220.4,385.5,220.4z"/>
	<path class="st1" d="M240.2,219.4c-0.4,0-0.7,0-1,0c0-0.3,0-0.7,0-1c-0.7,0-1.3,0-1.9,0c0-0.3,0-0.6,0-0.9c-0.3,0-0.6,0-0.9,0
		c0-0.4,0-0.7,0-1c-0.6,0-1.2,0-1.9,0c0-0.3,0-0.6,0-0.9c0.3,0,0.5,0,0.8-0.1c0-0.3,0-0.6,0-1c0.3,0,0.7,0,1,0c0-0.3,0-0.6,0.1-0.9
		c0.6,0,1.2,0,1.9,0c0-0.4,0-0.6,0-1c0.3,0,0.6,0,0.9-0.1c0-0.3,0-0.6,0.1-1c0.7,0,1.3,0,2,0c0-0.3,0-0.6,0.1-0.9
		c0.3,0,0.6,0,0.9-0.1c0-0.3,0-0.6,0-1c0.6,0,1.3,0,1.9,0c0-0.3,0-0.6,0.1-0.9c0.3,0,0.6,0,0.9,0c0,4.5,0,9,0,13.5
		c-0.6,0-1.2,0-1.9,0c0-0.3,0-0.6,0-1c-0.4,0-0.6,0-1,0c0-0.3,0-0.6-0.1-0.9c-0.6,0-1.2,0-1.9,0
		C240.2,220.1,240.2,219.8,240.2,219.4z"/>
	<path class="st1" d="M307.1,214.5c-0.4,0-0.7,0-1,0c0-0.3,0-0.6,0-0.9c4.8,0,9.7,0,14.5,0c0,0.3,0,0.5,0,0.9c-0.3,0-0.6,0-1,0
		c0,0.7,0,1.3,0,1.9c-0.3,0-0.6,0-0.9,0c0,0.3,0,0.7,0,1c-0.4,0-0.7,0-1,0.1c0,0.6,0,1.2,0,1.9c-0.3,0-0.6,0-0.9,0.1
		c0,0.3,0,0.6,0,1c-0.3,0-0.6,0-1,0c0,0.6,0,1.3,0,1.9c-0.4,0-0.7,0-1,0c0,0.3,0,0.5,0,0.9c-0.3,0-0.6,0-0.9,0.1c0,0.6,0,1.2,0,1.9
		c-0.4,0-0.6,0-1,0c0-0.6,0-1.2,0-1.9c-0.3,0-0.6,0-0.9-0.1c0-0.3,0-0.5,0-0.8c-0.3,0-0.6,0-1,0c0-0.7,0-1.3,0-1.9
		c-0.3,0-0.6,0-0.9,0c0-0.3,0-0.6,0-1c-0.3,0-0.7,0-1,0c0-0.7,0-1.3,0-1.9c-0.4,0-0.6,0-1,0c0-0.3,0-0.7,0-1c-0.3,0-0.6,0-0.9-0.1
		C307.1,215.8,307.1,215.2,307.1,214.5z"/>
	<path class="st1" d="M309,142.8c0.3,0,0.6,0,1,0c0-0.6,0-1.3,0-1.9c0.7,0,1.3,0,1.9,0c0,0.6,0,1.2,0,1.9c0.3,0,0.6,0,0.9,0.1
		c0,0.3,0,0.6,0,1c0.3,0,0.6,0,1,0c0,0.6,0,1.3,0,1.9c0.3,0,0.6,0,0.9,0.1c0,0.3,0,0.6,0,1c0.3,0,0.7,0,1,0c0,0.7,0,1.3,0,1.9
		c0.4,0,0.6,0,1,0c0,0.3,0,0.6,0,0.9c0.3,0,0.6,0,0.9,0.1c0,0.3,0,0.6,0,0.9c-4.5,0-9,0-13.5,0c0-0.3,0-0.6,0-1c0.3,0,0.6,0,0.9,0
		c0-0.3,0-0.6,0.1-0.9c0.3,0,0.5,0,0.9-0.1c0-0.6,0-1.2,0-1.9c0.4,0,0.6,0,1,0c0-0.3,0-0.7,0-1c0.3,0,0.6,0,0.9-0.1
		c0-0.6,0-1.2,0-1.9c0.3,0,0.7,0,1,0C309,143.5,309,143.2,309,142.8z"/>
</g>
</svg>
