<?xml version="1.0" encoding="utf-8"?>
<!-- Generator: Adobe Illustrator 21.1.0, SVG Export Plug-In . SVG Version: 6.00 Build 0)  -->
<svg version="1.1" id="Layer_1" xmlns="http://www.w3.org/2000/svg" xmlns:xlink="http://www.w3.org/1999/xlink" x="0px" y="0px"
	 viewBox="0 0 624 388" style="enable-background:new 0 0 624 388;" xml:space="preserve">
<style type="text/css">
	.st0{fill:#FFFFFF;}
	.st1{fill:none;stroke:#000000;stroke-width:3;stroke-miterlimit:10;}
	.st2{enable-background:new    ;}
</style>
<g>
	<g>
		<path d="M341.5,101.5c-0.5,0-1,0-1.6,0c0-1.1,0-2.1,0-3.2c-0.5,0-1,0-1.6,0c0-1.1,0-2.1,0-3.2c-0.6,0-1,0-1.6,0c0-0.5,0-1,0-1.6
			c-0.6,0-1.1,0-1.6,0c0-0.6,0-1,0-1.6c-0.5,0-1,0-1.6,0c0-0.6,0-1.1,0-1.6c-0.6,0-1,0-1.6,0c0-0.5,0-1,0-1.6c-0.6,0-1.1,0-1.6,0
			c0-0.6,0-1,0-1.6c-0.5,0-1,0-1.6,0c0-0.6,0-1.1,0-1.6c-1.1,0-2.1,0-3.2,0c0-0.5,0-1,0-1.6c-1.6,0-3.2,0-4.8,0c0-0.6,0-1,0-1.5
			c-6.4,0-12.7,0-19.1,0c0,0.5,0,1,0,1.6c-1.6,0-3.2,0-4.8,0c0,0.5,0,1,0,1.6c-0.6,0-1,0-1.6,0c0,0.5,0,1,0,1.6c-1.1,0-2.1,0-3.2,0
			c0,0.6,0,1,0,1.6c-0.5,0-1,0-1.6,0c0,0.6,0,1.1,0,1.6c-0.6,0-1,0-1.6,0c0,0.5,0,1,0,1.6c-0.6,0-1.1,0-1.6,0c0,0.6,0,1,0,1.6
			c-0.5,0-1,0-1.6,0c0,0.6,0,1.1,0,1.6c-0.5,0-1,0-1.6,0c0,1.1,0,2.1,0,3.2c-0.6,0-1.1,0-1.6,0c0,1.1,0,2.1,0,3.2c-0.5,0-1,0-1.6,0
			c0,2.2,0,4.2,0,6.4c-0.6,0-1,0-1.5,0c0,3.2,0,6.4,0,9.6c0.5,0,1,0,1.6,0c0,2.1,0,4.2,0,6.4c0.5,0,1,0,1.6,0c0,1.6,0,3.2,0,4.8
			c0.5,0,1,0,1.6,0c0,0.6,0,1.1,0,1.6c0.6,0,1,0,1.6,0c0,1.1,0,2.1,0,3.2c0.6,0,1.1,0,1.6,0c0,0.6,0,1,0,1.6c0.5,0,1,0,1.6,0
			c0,0.6,0,1.1,0,1.6c0.6,0,1,0,1.6,0c0,0.5,0,1,0,1.6c0.6,0,1.1,0,1.6,0c0,0.6,0,1,0,1.6c1.1,0,2.1,0,3.2,0c0,0.6,0,1.1,0,1.6
			c1.1,0,2.1,0,3.2,0c0,0.5,0,1,0,1.6c1.1,0,2.1,0,3.2,0c0,0.6,0,1,0,1.5c6.4,0,12.7,0,19.1,0c0-0.5,0-1,0-1.6c1.6,0,3.2,0,4.8,0
			c0-0.5,0-1,0-1.6c0.6,0,1,0,1.6,0c0-0.5,0-1,0-1.6c1.1,0,2.1,0,3.2,0c0-0.6,0-1,0-1.6c0.5,0,1,0,1.6,0c0-0.6,0-1.1,0-1.6
			c0.6,0,1,0,1.6,0c0-0.5,0-1,0-1.6c0.6,0,1.1,0,1.6,0c0-0.6,0-1,0-1.6c0.5,0,1,0,1.6,0c0-0.6,0-1.1,0-1.6c0.6,0,1,0,1.6,0
			c0-1.1,0-2.1,0-3.2c0.6,0,1.1,0,1.6,0c0-1.1,0-2.1,0-3.2c0.5,0,1,0,1.6,0c0-1.6,0-3.2,0-4.8c0.6,0,1,0,1.5,0c0-4.8,0-9.5,0-14.4
			c-0.5,0-1,0-1.6,0C341.5,104.7,341.5,103.1,341.5,101.5z M329.1,123.6c-12,0-23.9,0-35.9,0c0-0.8,0-1.9,0-2.7c0.8,0,1.3,0,2.4,0
			c0.3-0.8,0.3-1.6,0.3-2.4c0.8-0.3,1.6-0.3,2.4-0.3c0-1.6,0-3.5,0-5.1c1.1,0,1.6,0,2.7,0c0-0.8,0-1.9,0-2.7
			c0.8-0.3,1.6-0.3,2.4-0.3c0-1.6,0-3.2,0-5.1c0.8,0,1.9,0,2.7,0c0.3-0.8,0.3-1.9,0.3-2.7c0.8,0,1.6,0,2.7,0c0-1.6,0-3.5,0-5.1
			c1.6,0,3.2,0,5.1,0c0,1.9,0,3.5,0,5.1c0.8,0.3,1.6,0.3,2.4,0.3c0,0.8,0,1.9,0,2.7c0.8,0,1.6,0,2.7,0c0,1.6,0,3.5,0,5.1
			c0.8,0.3,1.6,0.3,2.4,0.3c0,1.1,0,1.6,0,2.7c0.8,0,1.6,0,2.7,0c0,1.6,0,3.5,0,5.1c1.1,0,1.6,0,2.7,0c0,0.8,0,1.6,0,2.4
			c0.8,0.3,1.6,0.3,2.4,0.3C329.1,122,329.1,122.8,329.1,123.6z"/>
		<path d="M341.5,177.4c-0.5,0-1,0-1.6,0c0-1.6,0-3.2,0-4.8c-0.5,0-1,0-1.6,0c0-0.6,0-1.1,0-1.6c-0.6,0-1,0-1.6,0c0-1.1,0-2.1,0-3.2
			c-0.6,0-1.1,0-1.6,0c0-0.6,0-1,0-1.6c-0.5,0-1,0-1.6,0c0-0.6,0-1.1,0-1.6c-0.6,0-1,0-1.6,0c0-0.5,0-1,0-1.6c-0.6,0-1.1,0-1.6,0
			c0-0.6,0-1,0-1.6c-1.1,0-2.1,0-3.2,0c0-0.6,0-1.1,0-1.6c-1.1,0-2.1,0-3.2,0c0-0.5,0-1,0-1.6c-1.1,0-2.1,0-3.2,0c0-0.6,0-1,0-1.5
			c-6.4,0-12.7,0-19.1,0c0,0.5,0,1,0,1.6c-1.6,0-3.2,0-4.8,0c0,0.5,0,1,0,1.6c-0.6,0-1,0-1.6,0c0,0.5,0,1,0,1.6c-1.1,0-2.1,0-3.2,0
			c0,0.6,0,1,0,1.6c-0.5,0-1,0-1.6,0c0,0.6,0,1.1,0,1.6c-0.6,0-1,0-1.6,0c0,0.5,0,1,0,1.6c-0.6,0-1.1,0-1.6,0c0,0.6,0,1,0,1.6
			c-0.5,0-1,0-1.6,0c0,0.6,0,1.1,0,1.6c-0.6,0-1,0-1.6,0c0,1.1,0,2.1,0,3.2c-0.6,0-1.1,0-1.6,0c0,1.1,0,2.1,0,3.2c-0.5,0-1,0-1.6,0
			c0,1.6,0,3.2,0,4.8c-0.6,0-1,0-1.5,0c0,4.8,0,9.5,0,14.4c0.5,0,1,0,1.6,0c0,1.6,0,3.2,0,4.8c0.5,0,1,0,1.6,0c0,1.1,0,2.1,0,3.2
			c0.5,0,1,0,1.6,0c0,1.1,0,2.1,0,3.2c0.6,0,1,0,1.6,0c0,0.5,0,1,0,1.6c0.6,0,1.1,0,1.6,0c0,0.6,0,1,0,1.6c0.5,0,1,0,1.6,0
			c0,0.6,0,1.1,0,1.6c0.6,0,1,0,1.6,0c0,0.5,0,1,0,1.6c0.6,0,1.1,0,1.6,0c0,0.6,0,1,0,1.6c0.5,0,1,0,1.6,0c0,0.6,0,1.1,0,1.6
			c1.1,0,2.1,0,3.2,0c0,0.5,0,1,0,1.6c1.6,0,3.2,0,4.8,0c0,0.6,0,1,0,1.5c6.4,0,12.7,0,19.1,0c0-0.5,0-1,0-1.6c1.6,0,3.2,0,4.8,0
			c0-0.5,0-1,0-1.6c0.6,0,1,0,1.6,0c0-0.5,0-1,0-1.6c1.1,0,2.1,0,3.2,0c0-0.6,0-1,0-1.6c0.5,0,1,0,1.6,0c0-0.6,0-1.1,0-1.6
			c0.6,0,1,0,1.6,0c0-0.5,0-1,0-1.6c0.6,0,1.1,0,1.6,0c0-0.6,0-1,0-1.6c0.5,0,1,0,1.6,0c0-0.6,0-1.1,0-1.6c0.5,0,1,0,1.6,0
			c0-1.1,0-2.1,0-3.2c0.6,0,1.1,0,1.6,0c0-1.1,0-2.1,0-3.2c0.5,0,1,0,1.6,0c0-2.2,0-4.2,0-6.4c0.6,0,1,0,1.5,0c0-3.2,0-6.4,0-9.6
			c-0.5,0-1,0-1.6,0C341.5,181.6,341.5,179.5,341.5,177.4z M329.1,180.3c-0.8,0-1.3,0-2.4,0c-0.3,0.8-0.3,1.6-0.3,2.4
			c-0.8,0.3-1.6,0.3-2.4,0.3c0,1.6,0,3.5,0,5.1c-1.1,0-1.6,0-2.7,0c0,0.8,0,1.9,0,2.7c-0.8,0.3-1.6,0.3-2.4,0.3c0,1.6,0,3.2,0,5.1
			c-0.8,0-1.9,0-2.7,0c-0.3,0.8-0.3,1.9-0.3,2.7c-0.8,0-1.6,0-2.7,0c0,1.6,0,3.5,0,5.1c-1.6,0-3.2,0-5.1,0c0-1.9,0-3.5,0-5.1
			c-0.8-0.3-1.6-0.3-2.4-0.3c0-0.8,0-1.9,0-2.7c-0.8,0-1.6,0-2.7,0c0-1.6,0-3.5,0-5.1c-0.8-0.3-1.6-0.3-2.4-0.3c0-1.1,0-1.6,0-2.7
			c-0.8,0-1.6,0-2.7,0c0-1.6,0-3.5,0-5.1c-1.1,0-1.6,0-2.7,0c0-0.8,0-1.6,0-2.4c-0.8-0.3-1.6-0.3-2.4-0.3c0-0.8,0-1.6,0-2.4
			c12,0,23.9,0,35.9,0C329.1,178.5,329.1,179.5,329.1,180.3z"/>
		<path d="M264.3,173.4c-0.5,0-1,0-1.6,0c0-0.6,0-1,0-1.6c-0.5,0-1,0-1.6,0c0-1.1,0-2.1,0-3.2c-0.6,0-1,0-1.6,0c0-0.5,0-1,0-1.6
			c-0.6,0-1.1,0-1.6,0c0-0.6,0-1,0-1.6c-0.5,0-1,0-1.6,0c0-0.6,0-1.1,0-1.6c-0.6,0-1,0-1.6,0c0-0.5,0-1,0-1.6c-0.6,0-1.1,0-1.6,0
			c0-0.6,0-1,0-1.6c-1.1,0-2.1,0-3.2,0c0-0.6,0-1.1,0-1.6c-1.1,0-2.1,0-3.2,0c0-0.5,0-1,0-1.6c-1.6,0-3.2,0-4.8,0c0-0.6,0-1,0-1.5
			c-4.8,0-9.5,0-14.4,0c0,0.5,0,1,0,1.6c-1.6,0-3.2,0-4.8,0c0,0.5,0,1,0,1.6c-1.1,0-2.1,0-3.2,0c0,0.5,0,1,0,1.6c-1.1,0-2.1,0-3.2,0
			c0,0.6,0,1,0,1.6c-0.5,0-1,0-1.6,0c0,0.6,0,1.1,0,1.6c-0.6,0-1,0-1.6,0c0,0.5,0,1,0,1.6c-0.6,0-1.1,0-1.6,0c0,0.6,0,1,0,1.6
			c-0.5,0-1,0-1.6,0c0,0.6,0,1.1,0,1.6c-0.6,0-1,0-1.6,0c0,0.5,0,1,0,1.6c-0.6,0-1.1,0-1.6,0c0,1.1,0,2.1,0,3.2c-0.5,0-1,0-1.6,0
			c0,1.6,0,3.2,0,4.8c-0.6,0-1,0-1.5,0c0,6.4,0,12.7,0,19.1c0.5,0,1,0,1.6,0c0,1.6,0,3.2,0,4.8c0.5,0,1,0,1.6,0c0,0.6,0,1,0,1.6
			c0.5,0,1,0,1.6,0c0,1.1,0,2.1,0,3.2c0.6,0,1,0,1.6,0c0,0.5,0,1,0,1.6c0.6,0,1.1,0,1.6,0c0,0.6,0,1,0,1.6c0.5,0,1,0,1.6,0
			c0,0.6,0,1.1,0,1.6c0.6,0,1,0,1.6,0c0,0.5,0,1,0,1.6c0.6,0,1.1,0,1.6,0c0,0.5,0,1,0,1.6c1.1,0,2.1,0,3.2,0c0,0.6,0,1.1,0,1.6
			c1.1,0,2.1,0,3.2,0c0,0.5,0,1,0,1.6c2.2,0,4.2,0,6.4,0c0,0.6,0,1,0,1.5c3.2,0,6.4,0,9.6,0c0-0.5,0-1,0-1.6c2.1,0,4.2,0,6.4,0
			c0-0.5,0-1,0-1.6c1.6,0,3.2,0,4.8,0c0-0.5,0-1,0-1.6c0.6,0,1.1,0,1.6,0c0-0.6,0-1,0-1.6c1.1,0,2.1,0,3.2,0c0-0.6,0-1.1,0-1.6
			c0.6,0,1,0,1.6,0c0-0.5,0-1,0-1.6c0.6,0,1.1,0,1.6,0c0-0.6,0-1,0-1.6c0.5,0,1,0,1.6,0c0-0.6,0-1.1,0-1.6c0.6,0,1,0,1.6,0
			c0-1.1,0-2.1,0-3.2c0.6,0,1.1,0,1.6,0c0-1.1,0-2.1,0-3.2c0.5,0,1,0,1.6,0c0-1.1,0-2.1,0-3.2c0.6,0,1,0,1.5,0c0-6.4,0-12.7,0-19.1
			c-0.5,0-1,0-1.6,0C264.3,176.5,264.3,175,264.3,173.4z M244.9,205.7c-0.8,0-1.9,0-2.7,0c0-0.8,0-1.3,0-2.4
			c-0.8-0.3-1.6-0.3-2.4-0.3c-0.3-0.8-0.3-1.6-0.3-2.4c-1.6,0-3.5,0-5.1,0c0-1.1,0-1.6,0-2.7c-0.8,0-1.9,0-2.7,0
			c-0.3-0.8-0.3-1.6-0.3-2.4c-1.6,0-3.2,0-5.1,0c0-0.8,0-1.9,0-2.7c-0.8-0.3-1.9-0.3-2.7-0.3c0-0.8,0-1.6,0-2.7c-1.6,0-3.5,0-5.1,0
			c0-1.6,0-3.2,0-5.1c1.9,0,3.5,0,5.1,0c0.3-0.8,0.3-1.6,0.3-2.4c0.8,0,1.9,0,2.7,0c0-0.8,0-1.6,0-2.7c1.6,0,3.5,0,5.1,0
			c0.3-0.8,0.3-1.6,0.3-2.4c1.1,0,1.6,0,2.7,0c0-0.8,0-1.6,0-2.7c1.6,0,3.5,0,5.1,0c0-1.1,0-1.6,0-2.7c0.8,0,1.6,0,2.4,0
			c0.3-0.8,0.3-1.6,0.3-2.4c0.8,0,1.6,0,2.4,0C244.9,181.8,244.9,193.7,244.9,205.7z"/>
		<path d="M417,178.1c0-1.6,0-3.2,0-4.8c-0.5,0-1,0-1.6,0c0-0.6,0-1,0-1.6c-0.5,0-1,0-1.6,0c0-1.1,0-2.1,0-3.2c-0.6,0-1,0-1.6,0
			c0-0.5,0-1,0-1.6c-0.6,0-1.1,0-1.6,0c0-0.6,0-1,0-1.6c-0.5,0-1,0-1.6,0c0-0.6,0-1.1,0-1.6c-0.6,0-1,0-1.6,0c0-0.5,0-1,0-1.6
			c-0.6,0-1.1,0-1.6,0c0-0.5,0-1,0-1.6c-1.1,0-2.1,0-3.2,0c0-0.6,0-1.1,0-1.6c-1.1,0-2.1,0-3.2,0c0-0.5,0-1,0-1.6
			c-2.2,0-4.2,0-6.4,0c0-0.6,0-1,0-1.5c-3.2,0-6.4,0-9.6,0c0,0.5,0,1,0,1.6c-2.1,0-4.2,0-6.4,0c0,0.5,0,1,0,1.6c-1.6,0-3.2,0-4.8,0
			c0,0.5,0,1,0,1.6c-0.6,0-1.1,0-1.6,0c0,0.6,0,1,0,1.6c-1.1,0-2.1,0-3.2,0c0,0.6,0,1.1,0,1.6c-0.6,0-1,0-1.6,0c0,0.5,0,1,0,1.6
			c-0.6,0-1.1,0-1.6,0c0,0.6,0,1,0,1.6c-0.5,0-1,0-1.6,0c0,0.6,0,1.1,0,1.6c-0.6,0-1,0-1.6,0c0,1.1,0,2.1,0,3.2c-0.6,0-1.1,0-1.6,0
			c0,1.1,0,2.1,0,3.2c-0.5,0-1,0-1.6,0c0,1.1,0,2.1,0,3.2c-0.6,0-1,0-1.5,0c0,6.4,0,12.7,0,19.1c0.5,0,1,0,1.6,0c0,1.6,0,3.2,0,4.8
			c0.5,0,1,0,1.6,0c0,0.6,0,1,0,1.6c0.5,0,1,0,1.6,0c0,1.1,0,2.1,0,3.2c0.6,0,1,0,1.6,0c0,0.5,0,1,0,1.6c0.6,0,1.1,0,1.6,0
			c0,0.6,0,1,0,1.6c0.5,0,1,0,1.6,0c0,0.6,0,1.1,0,1.6c0.6,0,1,0,1.6,0c0,0.5,0,1,0,1.6c0.6,0,1.1,0,1.6,0c0,0.6,0,1,0,1.6
			c1.1,0,2.1,0,3.2,0c0,0.6,0,1.1,0,1.6c1.1,0,2.1,0,3.2,0c0,0.5,0,1,0,1.6c1.6,0,3.2,0,4.8,0c0,0.6,0,1,0,1.5c4.8,0,9.5,0,14.4,0
			c0-0.5,0-1,0-1.6c1.6,0,3.2,0,4.8,0c0-0.5,0-1,0-1.6c1.1,0,2.1,0,3.2,0c0-0.5,0-1,0-1.6c1.1,0,2.1,0,3.2,0c0-0.6,0-1,0-1.6
			c0.5,0,1,0,1.6,0c0-0.6,0-1.1,0-1.6c0.6,0,1,0,1.6,0c0-0.5,0-1,0-1.6c0.6,0,1.1,0,1.6,0c0-0.6,0-1,0-1.6c0.5,0,1,0,1.6,0
			c0-0.6,0-1.1,0-1.6c0.6,0,1,0,1.6,0c0-0.5,0-1,0-1.6c0.6,0,1.1,0,1.6,0c0-1.1,0-2.1,0-3.2c0.5,0,1,0,1.6,0c0-1.6,0-3.2,0-4.8
			c0.6,0,1,0,1.5,0c0-6.4,0-12.7,0-19.1C418.1,178.1,417.6,178.1,417,178.1z M403.5,190.5c-1.9,0-3.5,0-5.1,0
			c-0.3,0.8-0.3,1.6-0.3,2.4c-0.8,0-1.9,0-2.7,0c0,0.8,0,1.6,0,2.7c-1.6,0-3.5,0-5.1,0c-0.3,0.8-0.3,1.6-0.3,2.4c-1.1,0-1.6,0-2.7,0
			c0,0.8,0,1.6,0,2.7c-1.6,0-3.5,0-5.1,0c0,1.1,0,1.6,0,2.7c-0.8,0-1.6,0-2.4,0c-0.3,0.8-0.3,1.6-0.3,2.4c-0.8,0-1.6,0-2.4,0
			c0-12,0-23.9,0-35.9c0.8,0,1.9,0,2.7,0c0,0.8,0,1.3,0,2.4c0.8,0.3,1.6,0.3,2.4,0.3c0.3,0.8,0.3,1.6,0.3,2.4c1.6,0,3.5,0,5.1,0
			c0,1.1,0,1.6,0,2.7c0.8,0,1.9,0,2.7,0c0.3,0.8,0.3,1.6,0.3,2.4c1.6,0,3.2,0,5.1,0c0,0.8,0,1.9,0,2.7c0.8,0.3,1.9,0.3,2.7,0.3
			c0,0.8,0,1.6,0,2.7c1.6,0,3.5,0,5.1,0C403.5,187.1,403.5,188.7,403.5,190.5z"/>
	</g>
	<g>
		<path class="st0" d="M345.5,97.5c-0.5,0-1,0-1.6,0c0-1.1,0-2.1,0-3.2c-0.5,0-1,0-1.6,0c0-1.1,0-2.1,0-3.2c-0.6,0-1,0-1.6,0
			c0-0.5,0-1,0-1.6c-0.6,0-1.1,0-1.6,0c0-0.6,0-1,0-1.6c-0.5,0-1,0-1.6,0c0-0.6,0-1.1,0-1.6c-0.6,0-1,0-1.6,0c0-0.5,0-1,0-1.6
			c-0.6,0-1.1,0-1.6,0c0-0.6,0-1,0-1.6c-0.5,0-1,0-1.6,0c0-0.6,0-1.1,0-1.6c-1.1,0-2.1,0-3.2,0c0-0.5,0-1,0-1.6c-1.6,0-3.2,0-4.8,0
			c0-0.6,0-1,0-1.5c-6.4,0-12.7,0-19.1,0c0,0.5,0,1,0,1.6c-1.6,0-3.2,0-4.8,0c0,0.5,0,1,0,1.6c-0.6,0-1,0-1.6,0c0,0.5,0,1,0,1.6
			c-1.1,0-2.1,0-3.2,0c0,0.6,0,1,0,1.6c-0.5,0-1,0-1.6,0c0,0.6,0,1.1,0,1.6c-0.6,0-1,0-1.6,0c0,0.5,0,1,0,1.6c-0.6,0-1.1,0-1.6,0
			c0,0.6,0,1,0,1.6c-0.5,0-1,0-1.6,0c0,0.6,0,1.1,0,1.6c-0.5,0-1,0-1.6,0c0,1.1,0,2.1,0,3.2c-0.6,0-1.1,0-1.6,0c0,1.1,0,2.1,0,3.2
			c-0.5,0-1,0-1.6,0c0,2.2,0,4.2,0,6.4c-0.6,0-1,0-1.5,0c0,3.2,0,6.4,0,9.6c0.5,0,1,0,1.6,0c0,2.1,0,4.2,0,6.4c0.5,0,1,0,1.6,0
			c0,1.6,0,3.2,0,4.8c0.5,0,1,0,1.6,0c0,0.6,0,1.1,0,1.6c0.6,0,1,0,1.6,0c0,1.1,0,2.1,0,3.2c0.6,0,1.1,0,1.6,0c0,0.6,0,1,0,1.6
			c0.5,0,1,0,1.6,0c0,0.6,0,1.1,0,1.6c0.6,0,1,0,1.6,0c0,0.5,0,1,0,1.6c0.6,0,1.1,0,1.6,0c0,0.6,0,1,0,1.6c1.1,0,2.1,0,3.2,0
			c0,0.6,0,1.1,0,1.6c1.1,0,2.1,0,3.2,0c0,0.5,0,1,0,1.6c1.1,0,2.1,0,3.2,0c0,0.6,0,1,0,1.5c6.4,0,12.7,0,19.1,0c0-0.5,0-1,0-1.6
			c1.6,0,3.2,0,4.8,0c0-0.5,0-1,0-1.6c0.6,0,1,0,1.6,0c0-0.5,0-1,0-1.6c1.1,0,2.1,0,3.2,0c0-0.6,0-1,0-1.6c0.5,0,1,0,1.6,0
			c0-0.6,0-1.1,0-1.6c0.6,0,1,0,1.6,0c0-0.5,0-1,0-1.6c0.6,0,1.1,0,1.6,0c0-0.6,0-1,0-1.6c0.5,0,1,0,1.6,0c0-0.6,0-1.1,0-1.6
			c0.6,0,1,0,1.6,0c0-1.1,0-2.1,0-3.2c0.6,0,1.1,0,1.6,0c0-1.1,0-2.1,0-3.2c0.5,0,1,0,1.6,0c0-1.6,0-3.2,0-4.8c0.6,0,1,0,1.5,0
			c0-4.8,0-9.5,0-14.4c-0.5,0-1,0-1.6,0C345.5,100.7,345.5,99.1,345.5,97.5z M333.1,119.6c-12,0-23.9,0-35.9,0c0-0.8,0-1.9,0-2.7
			c0.8,0,1.3,0,2.4,0c0.3-0.8,0.3-1.6,0.3-2.4c0.8-0.3,1.6-0.3,2.4-0.3c0-1.6,0-3.5,0-5.1c1.1,0,1.6,0,2.7,0c0-0.8,0-1.9,0-2.7
			c0.8-0.3,1.6-0.3,2.4-0.3c0-1.6,0-3.2,0-5.1c0.8,0,1.9,0,2.7,0c0.3-0.8,0.3-1.9,0.3-2.7c0.8,0,1.6,0,2.7,0c0-1.6,0-3.5,0-5.1
			c1.6,0,3.2,0,5.1,0c0,1.9,0,3.5,0,5.1c0.8,0.3,1.6,0.3,2.4,0.3c0,0.8,0,1.9,0,2.7c0.8,0,1.6,0,2.7,0c0,1.6,0,3.5,0,5.1
			c0.8,0.3,1.6,0.3,2.4,0.3c0,1.1,0,1.6,0,2.7c0.8,0,1.6,0,2.7,0c0,1.6,0,3.5,0,5.1c1.1,0,1.6,0,2.7,0c0,0.8,0,1.6,0,2.4
			c0.8,0.3,1.6,0.3,2.4,0.3C333.1,118,333.1,118.8,333.1,119.6z"/>
		<path class="st0" d="M345.5,173.4c-0.5,0-1,0-1.6,0c0-1.6,0-3.2,0-4.8c-0.5,0-1,0-1.6,0c0-0.6,0-1.1,0-1.6c-0.6,0-1,0-1.6,0
			c0-1.1,0-2.1,0-3.2c-0.6,0-1.1,0-1.6,0c0-0.6,0-1,0-1.6c-0.5,0-1,0-1.6,0c0-0.6,0-1.1,0-1.6c-0.6,0-1,0-1.6,0c0-0.5,0-1,0-1.6
			c-0.6,0-1.1,0-1.6,0c0-0.6,0-1,0-1.6c-1.1,0-2.1,0-3.2,0c0-0.6,0-1.1,0-1.6c-1.1,0-2.1,0-3.2,0c0-0.5,0-1,0-1.6
			c-1.1,0-2.1,0-3.2,0c0-0.6,0-1,0-1.5c-6.4,0-12.7,0-19.1,0c0,0.5,0,1,0,1.6c-1.6,0-3.2,0-4.8,0c0,0.5,0,1,0,1.6c-0.6,0-1,0-1.6,0
			c0,0.5,0,1,0,1.6c-1.1,0-2.1,0-3.2,0c0,0.6,0,1,0,1.6c-0.5,0-1,0-1.6,0c0,0.6,0,1.1,0,1.6c-0.6,0-1,0-1.6,0c0,0.5,0,1,0,1.6
			c-0.6,0-1.1,0-1.6,0c0,0.6,0,1,0,1.6c-0.5,0-1,0-1.6,0c0,0.6,0,1.1,0,1.6c-0.6,0-1,0-1.6,0c0,1.1,0,2.1,0,3.2c-0.6,0-1.1,0-1.6,0
			c0,1.1,0,2.1,0,3.2c-0.5,0-1,0-1.6,0c0,1.6,0,3.2,0,4.8c-0.6,0-1,0-1.5,0c0,4.8,0,9.5,0,14.4c0.5,0,1,0,1.6,0c0,1.6,0,3.2,0,4.8
			c0.5,0,1,0,1.6,0c0,1.1,0,2.1,0,3.2c0.5,0,1,0,1.6,0c0,1.1,0,2.1,0,3.2c0.6,0,1,0,1.6,0c0,0.5,0,1,0,1.6c0.6,0,1.1,0,1.6,0
			c0,0.6,0,1,0,1.6c0.5,0,1,0,1.6,0c0,0.6,0,1.1,0,1.6c0.6,0,1,0,1.6,0c0,0.5,0,1,0,1.6c0.6,0,1.1,0,1.6,0c0,0.6,0,1,0,1.6
			c0.5,0,1,0,1.6,0c0,0.6,0,1.1,0,1.6c1.1,0,2.1,0,3.2,0c0,0.5,0,1,0,1.6c1.6,0,3.2,0,4.8,0c0,0.6,0,1,0,1.5c6.4,0,12.7,0,19.1,0
			c0-0.5,0-1,0-1.6c1.6,0,3.2,0,4.8,0c0-0.5,0-1,0-1.6c0.6,0,1,0,1.6,0c0-0.5,0-1,0-1.6c1.1,0,2.1,0,3.2,0c0-0.6,0-1,0-1.6
			c0.5,0,1,0,1.6,0c0-0.6,0-1.1,0-1.6c0.6,0,1,0,1.6,0c0-0.5,0-1,0-1.6c0.6,0,1.1,0,1.6,0c0-0.6,0-1,0-1.6c0.5,0,1,0,1.6,0
			c0-0.6,0-1.1,0-1.6c0.5,0,1,0,1.6,0c0-1.1,0-2.1,0-3.2c0.6,0,1.1,0,1.6,0c0-1.1,0-2.1,0-3.2c0.5,0,1,0,1.6,0c0-2.2,0-4.2,0-6.4
			c0.6,0,1,0,1.5,0c0-3.2,0-6.4,0-9.6c-0.5,0-1,0-1.6,0C345.5,177.6,345.5,175.5,345.5,173.4z M333.1,176.3c-0.8,0-1.3,0-2.4,0
			c-0.3,0.8-0.3,1.6-0.3,2.4c-0.8,0.3-1.6,0.3-2.4,0.3c0,1.6,0,3.5,0,5.1c-1.1,0-1.6,0-2.7,0c0,0.8,0,1.9,0,2.7
			c-0.8,0.3-1.6,0.3-2.4,0.3c0,1.6,0,3.2,0,5.1c-0.8,0-1.9,0-2.7,0c-0.3,0.8-0.3,1.9-0.3,2.7c-0.8,0-1.6,0-2.7,0c0,1.6,0,3.5,0,5.1
			c-1.6,0-3.2,0-5.1,0c0-1.9,0-3.5,0-5.1c-0.8-0.3-1.6-0.3-2.4-0.3c0-0.8,0-1.9,0-2.7c-0.8,0-1.6,0-2.7,0c0-1.6,0-3.5,0-5.1
			c-0.8-0.3-1.6-0.3-2.4-0.3c0-1.1,0-1.6,0-2.7c-0.8,0-1.6,0-2.7,0c0-1.6,0-3.5,0-5.1c-1.1,0-1.6,0-2.7,0c0-0.8,0-1.6,0-2.4
			c-0.8-0.3-1.6-0.3-2.4-0.3c0-0.8,0-1.6,0-2.4c12,0,23.9,0,35.9,0C333.1,174.5,333.1,175.5,333.1,176.3z"/>
		<path class="st0" d="M268.3,169.4c-0.5,0-1,0-1.6,0c0-0.6,0-1,0-1.6c-0.5,0-1,0-1.6,0c0-1.1,0-2.1,0-3.2c-0.6,0-1,0-1.6,0
			c0-0.5,0-1,0-1.6c-0.6,0-1.1,0-1.6,0c0-0.6,0-1,0-1.6c-0.5,0-1,0-1.6,0c0-0.6,0-1.1,0-1.6c-0.6,0-1,0-1.6,0c0-0.5,0-1,0-1.6
			c-0.6,0-1.1,0-1.6,0c0-0.6,0-1,0-1.6c-1.1,0-2.1,0-3.2,0c0-0.6,0-1.1,0-1.6c-1.1,0-2.1,0-3.2,0c0-0.5,0-1,0-1.6
			c-1.6,0-3.2,0-4.8,0c0-0.6,0-1,0-1.5c-4.8,0-9.5,0-14.4,0c0,0.5,0,1,0,1.6c-1.6,0-3.2,0-4.8,0c0,0.5,0,1,0,1.6c-1.1,0-2.1,0-3.2,0
			c0,0.5,0,1,0,1.6c-1.1,0-2.1,0-3.2,0c0,0.6,0,1,0,1.6c-0.5,0-1,0-1.6,0c0,0.6,0,1.1,0,1.6c-0.6,0-1,0-1.6,0c0,0.5,0,1,0,1.6
			c-0.6,0-1.1,0-1.6,0c0,0.6,0,1,0,1.6c-0.5,0-1,0-1.6,0c0,0.6,0,1.1,0,1.6c-0.6,0-1,0-1.6,0c0,0.5,0,1,0,1.6c-0.6,0-1.1,0-1.6,0
			c0,1.1,0,2.1,0,3.2c-0.5,0-1,0-1.6,0c0,1.6,0,3.2,0,4.8c-0.6,0-1,0-1.5,0c0,6.4,0,12.7,0,19.1c0.5,0,1,0,1.6,0c0,1.6,0,3.2,0,4.8
			c0.5,0,1,0,1.6,0c0,0.6,0,1,0,1.6c0.5,0,1,0,1.6,0c0,1.1,0,2.1,0,3.2c0.6,0,1,0,1.6,0c0,0.5,0,1,0,1.6c0.6,0,1.1,0,1.6,0
			c0,0.6,0,1,0,1.6c0.5,0,1,0,1.6,0c0,0.6,0,1.1,0,1.6c0.6,0,1,0,1.6,0c0,0.5,0,1,0,1.6c0.6,0,1.1,0,1.6,0c0,0.5,0,1,0,1.6
			c1.1,0,2.1,0,3.2,0c0,0.6,0,1.1,0,1.6c1.1,0,2.1,0,3.2,0c0,0.5,0,1,0,1.6c2.2,0,4.2,0,6.4,0c0,0.6,0,1,0,1.5c3.2,0,6.4,0,9.6,0
			c0-0.5,0-1,0-1.6c2.1,0,4.2,0,6.4,0c0-0.5,0-1,0-1.6c1.6,0,3.2,0,4.8,0c0-0.5,0-1,0-1.6c0.6,0,1.1,0,1.6,0c0-0.6,0-1,0-1.6
			c1.1,0,2.1,0,3.2,0c0-0.6,0-1.1,0-1.6c0.6,0,1,0,1.6,0c0-0.5,0-1,0-1.6c0.6,0,1.1,0,1.6,0c0-0.6,0-1,0-1.6c0.5,0,1,0,1.6,0
			c0-0.6,0-1.1,0-1.6c0.6,0,1,0,1.6,0c0-1.1,0-2.1,0-3.2c0.6,0,1.1,0,1.6,0c0-1.1,0-2.1,0-3.2c0.5,0,1,0,1.6,0c0-1.1,0-2.1,0-3.2
			c0.6,0,1,0,1.5,0c0-6.4,0-12.7,0-19.1c-0.5,0-1,0-1.6,0C268.3,172.5,268.3,171,268.3,169.4z M248.9,201.7c-0.8,0-1.9,0-2.7,0
			c0-0.8,0-1.3,0-2.4c-0.8-0.3-1.6-0.3-2.4-0.3c-0.3-0.8-0.3-1.6-0.3-2.4c-1.6,0-3.5,0-5.1,0c0-1.1,0-1.6,0-2.7c-0.8,0-1.9,0-2.7,0
			c-0.3-0.8-0.3-1.6-0.3-2.4c-1.6,0-3.2,0-5.1,0c0-0.8,0-1.9,0-2.7c-0.8-0.3-1.9-0.3-2.7-0.3c0-0.8,0-1.6,0-2.7c-1.6,0-3.5,0-5.1,0
			c0-1.6,0-3.2,0-5.1c1.9,0,3.5,0,5.1,0c0.3-0.8,0.3-1.6,0.3-2.4c0.8,0,1.9,0,2.7,0c0-0.8,0-1.6,0-2.7c1.6,0,3.5,0,5.1,0
			c0.3-0.8,0.3-1.6,0.3-2.4c1.1,0,1.6,0,2.7,0c0-0.8,0-1.6,0-2.7c1.6,0,3.5,0,5.1,0c0-1.1,0-1.6,0-2.7c0.8,0,1.6,0,2.4,0
			c0.3-0.8,0.3-1.6,0.3-2.4c0.8,0,1.6,0,2.4,0C248.9,177.8,248.9,189.7,248.9,201.7z"/>
		<path class="st0" d="M421,174.1c0-1.6,0-3.2,0-4.8c-0.5,0-1,0-1.6,0c0-0.6,0-1,0-1.6c-0.5,0-1,0-1.6,0c0-1.1,0-2.1,0-3.2
			c-0.6,0-1,0-1.6,0c0-0.5,0-1,0-1.6c-0.6,0-1.1,0-1.6,0c0-0.6,0-1,0-1.6c-0.5,0-1,0-1.6,0c0-0.6,0-1.1,0-1.6c-0.6,0-1,0-1.6,0
			c0-0.5,0-1,0-1.6c-0.6,0-1.1,0-1.6,0c0-0.5,0-1,0-1.6c-1.1,0-2.1,0-3.2,0c0-0.6,0-1.1,0-1.6c-1.1,0-2.1,0-3.2,0c0-0.5,0-1,0-1.6
			c-2.2,0-4.2,0-6.4,0c0-0.6,0-1,0-1.5c-3.2,0-6.4,0-9.6,0c0,0.5,0,1,0,1.6c-2.1,0-4.2,0-6.4,0c0,0.5,0,1,0,1.6c-1.6,0-3.2,0-4.8,0
			c0,0.5,0,1,0,1.6c-0.6,0-1.1,0-1.6,0c0,0.6,0,1,0,1.6c-1.1,0-2.1,0-3.2,0c0,0.6,0,1.1,0,1.6c-0.6,0-1,0-1.6,0c0,0.5,0,1,0,1.6
			c-0.6,0-1.1,0-1.6,0c0,0.6,0,1,0,1.6c-0.5,0-1,0-1.6,0c0,0.6,0,1.1,0,1.6c-0.6,0-1,0-1.6,0c0,1.1,0,2.1,0,3.2c-0.6,0-1.1,0-1.6,0
			c0,1.1,0,2.1,0,3.2c-0.5,0-1,0-1.6,0c0,1.1,0,2.1,0,3.2c-0.6,0-1,0-1.5,0c0,6.4,0,12.7,0,19.1c0.5,0,1,0,1.6,0c0,1.6,0,3.2,0,4.8
			c0.5,0,1,0,1.6,0c0,0.6,0,1,0,1.6c0.5,0,1,0,1.6,0c0,1.1,0,2.1,0,3.2c0.6,0,1,0,1.6,0c0,0.5,0,1,0,1.6c0.6,0,1.1,0,1.6,0
			c0,0.6,0,1,0,1.6c0.5,0,1,0,1.6,0c0,0.6,0,1.1,0,1.6c0.6,0,1,0,1.6,0c0,0.5,0,1,0,1.6c0.6,0,1.1,0,1.6,0c0,0.6,0,1,0,1.6
			c1.1,0,2.1,0,3.2,0c0,0.6,0,1.1,0,1.6c1.1,0,2.1,0,3.2,0c0,0.5,0,1,0,1.6c1.6,0,3.2,0,4.8,0c0,0.6,0,1,0,1.5c4.8,0,9.5,0,14.4,0
			c0-0.5,0-1,0-1.6c1.6,0,3.2,0,4.8,0c0-0.5,0-1,0-1.6c1.1,0,2.1,0,3.2,0c0-0.5,0-1,0-1.6c1.1,0,2.1,0,3.2,0c0-0.6,0-1,0-1.6
			c0.5,0,1,0,1.6,0c0-0.6,0-1.1,0-1.6c0.6,0,1,0,1.6,0c0-0.5,0-1,0-1.6c0.6,0,1.1,0,1.6,0c0-0.6,0-1,0-1.6c0.5,0,1,0,1.6,0
			c0-0.6,0-1.1,0-1.6c0.6,0,1,0,1.6,0c0-0.5,0-1,0-1.6c0.6,0,1.1,0,1.6,0c0-1.1,0-2.1,0-3.2c0.5,0,1,0,1.6,0c0-1.6,0-3.2,0-4.8
			c0.6,0,1,0,1.5,0c0-6.4,0-12.7,0-19.1C422.1,174.1,421.6,174.1,421,174.1z M407.5,186.5c-1.9,0-3.5,0-5.1,0
			c-0.3,0.8-0.3,1.6-0.3,2.4c-0.8,0-1.9,0-2.7,0c0,0.8,0,1.6,0,2.7c-1.6,0-3.5,0-5.1,0c-0.3,0.8-0.3,1.6-0.3,2.4c-1.1,0-1.6,0-2.7,0
			c0,0.8,0,1.6,0,2.7c-1.6,0-3.5,0-5.1,0c0,1.1,0,1.6,0,2.7c-0.8,0-1.6,0-2.4,0c-0.3,0.8-0.3,1.6-0.3,2.4c-0.8,0-1.6,0-2.4,0
			c0-12,0-23.9,0-35.9c0.8,0,1.9,0,2.7,0c0,0.8,0,1.3,0,2.4c0.8,0.3,1.6,0.3,2.4,0.3c0.3,0.8,0.3,1.6,0.3,2.4c1.6,0,3.5,0,5.1,0
			c0,1.1,0,1.6,0,2.7c0.8,0,1.9,0,2.7,0c0.3,0.8,0.3,1.6,0.3,2.4c1.6,0,3.2,0,5.1,0c0,0.8,0,1.9,0,2.7c0.8,0.3,1.9,0.3,2.7,0.3
			c0,0.8,0,1.6,0,2.7c1.6,0,3.5,0,5.1,0C407.5,183.1,407.5,184.7,407.5,186.5z"/>
	</g>
	<g>
		<path class="st1" d="M345.5,97.5c-0.5,0-1,0-1.6,0c0-1.1,0-2.1,0-3.2c-0.5,0-1,0-1.6,0c0-1.1,0-2.1,0-3.2c-0.6,0-1,0-1.6,0
			c0-0.5,0-1,0-1.6c-0.6,0-1.1,0-1.6,0c0-0.6,0-1,0-1.6c-0.5,0-1,0-1.6,0c0-0.6,0-1.1,0-1.6c-0.6,0-1,0-1.6,0c0-0.5,0-1,0-1.6
			c-0.6,0-1.1,0-1.6,0c0-0.6,0-1,0-1.6c-0.5,0-1,0-1.6,0c0-0.6,0-1.1,0-1.6c-1.1,0-2.1,0-3.2,0c0-0.5,0-1,0-1.6c-1.6,0-3.2,0-4.8,0
			c0-0.6,0-1,0-1.5c-6.4,0-12.7,0-19.1,0c0,0.5,0,1,0,1.6c-1.6,0-3.2,0-4.8,0c0,0.5,0,1,0,1.6c-0.6,0-1,0-1.6,0c0,0.5,0,1,0,1.6
			c-1.1,0-2.1,0-3.2,0c0,0.6,0,1,0,1.6c-0.5,0-1,0-1.6,0c0,0.6,0,1.1,0,1.6c-0.6,0-1,0-1.6,0c0,0.5,0,1,0,1.6c-0.6,0-1.1,0-1.6,0
			c0,0.6,0,1,0,1.6c-0.5,0-1,0-1.6,0c0,0.6,0,1.1,0,1.6c-0.5,0-1,0-1.6,0c0,1.1,0,2.1,0,3.2c-0.6,0-1.1,0-1.6,0c0,1.1,0,2.1,0,3.2
			c-0.5,0-1,0-1.6,0c0,2.2,0,4.2,0,6.4c-0.6,0-1,0-1.5,0c0,3.2,0,6.4,0,9.6c0.5,0,1,0,1.6,0c0,2.1,0,4.2,0,6.4c0.5,0,1,0,1.6,0
			c0,1.6,0,3.2,0,4.8c0.5,0,1,0,1.6,0c0,0.6,0,1.1,0,1.6c0.6,0,1,0,1.6,0c0,1.1,0,2.1,0,3.2c0.6,0,1.1,0,1.6,0c0,0.6,0,1,0,1.6
			c0.5,0,1,0,1.6,0c0,0.6,0,1.1,0,1.6c0.6,0,1,0,1.6,0c0,0.5,0,1,0,1.6c0.6,0,1.1,0,1.6,0c0,0.6,0,1,0,1.6c1.1,0,2.1,0,3.2,0
			c0,0.6,0,1.1,0,1.6c1.1,0,2.1,0,3.2,0c0,0.5,0,1,0,1.6c1.1,0,2.1,0,3.2,0c0,0.6,0,1,0,1.5c6.4,0,12.7,0,19.1,0c0-0.5,0-1,0-1.6
			c1.6,0,3.2,0,4.8,0c0-0.5,0-1,0-1.6c0.6,0,1,0,1.6,0c0-0.5,0-1,0-1.6c1.1,0,2.1,0,3.2,0c0-0.6,0-1,0-1.6c0.5,0,1,0,1.6,0
			c0-0.6,0-1.1,0-1.6c0.6,0,1,0,1.6,0c0-0.5,0-1,0-1.6c0.6,0,1.1,0,1.6,0c0-0.6,0-1,0-1.6c0.5,0,1,0,1.6,0c0-0.6,0-1.1,0-1.6
			c0.6,0,1,0,1.6,0c0-1.1,0-2.1,0-3.2c0.6,0,1.1,0,1.6,0c0-1.1,0-2.1,0-3.2c0.5,0,1,0,1.6,0c0-1.6,0-3.2,0-4.8c0.6,0,1,0,1.5,0
			c0-4.8,0-9.5,0-14.4c-0.5,0-1,0-1.6,0C345.5,100.7,345.5,99.1,345.5,97.5z M333.1,119.6c-12,0-23.9,0-35.9,0c0-0.8,0-1.9,0-2.7
			c0.8,0,1.3,0,2.4,0c0.3-0.8,0.3-1.6,0.3-2.4c0.8-0.3,1.6-0.3,2.4-0.3c0-1.6,0-3.5,0-5.1c1.1,0,1.6,0,2.7,0c0-0.8,0-1.9,0-2.7
			c0.8-0.3,1.6-0.3,2.4-0.3c0-1.6,0-3.2,0-5.1c0.8,0,1.9,0,2.7,0c0.3-0.8,0.3-1.9,0.3-2.7c0.8,0,1.6,0,2.7,0c0-1.6,0-3.5,0-5.1
			c1.6,0,3.2,0,5.1,0c0,1.9,0,3.5,0,5.1c0.8,0.3,1.6,0.3,2.4,0.3c0,0.8,0,1.9,0,2.7c0.8,0,1.6,0,2.7,0c0,1.6,0,3.5,0,5.1
			c0.8,0.3,1.6,0.3,2.4,0.3c0,1.1,0,1.6,0,2.7c0.8,0,1.6,0,2.7,0c0,1.6,0,3.5,0,5.1c1.1,0,1.6,0,2.7,0c0,0.8,0,1.6,0,2.4
			c0.8,0.3,1.6,0.3,2.4,0.3C333.1,118,333.1,118.8,333.1,119.6z"/>
		<path class="st1" d="M345.5,173.4c-0.5,0-1,0-1.6,0c0-1.6,0-3.2,0-4.8c-0.5,0-1,0-1.6,0c0-0.6,0-1.1,0-1.6c-0.6,0-1,0-1.6,0
			c0-1.1,0-2.1,0-3.2c-0.6,0-1.1,0-1.6,0c0-0.6,0-1,0-1.6c-0.5,0-1,0-1.6,0c0-0.6,0-1.1,0-1.6c-0.6,0-1,0-1.6,0c0-0.5,0-1,0-1.6
			c-0.6,0-1.1,0-1.6,0c0-0.6,0-1,0-1.6c-1.1,0-2.1,0-3.2,0c0-0.6,0-1.1,0-1.6c-1.1,0-2.1,0-3.2,0c0-0.5,0-1,0-1.6
			c-1.1,0-2.1,0-3.2,0c0-0.6,0-1,0-1.5c-6.4,0-12.7,0-19.1,0c0,0.5,0,1,0,1.6c-1.6,0-3.2,0-4.8,0c0,0.5,0,1,0,1.6c-0.6,0-1,0-1.6,0
			c0,0.5,0,1,0,1.6c-1.1,0-2.1,0-3.2,0c0,0.6,0,1,0,1.6c-0.5,0-1,0-1.6,0c0,0.6,0,1.1,0,1.6c-0.6,0-1,0-1.6,0c0,0.5,0,1,0,1.6
			c-0.6,0-1.1,0-1.6,0c0,0.6,0,1,0,1.6c-0.5,0-1,0-1.6,0c0,0.6,0,1.1,0,1.6c-0.6,0-1,0-1.6,0c0,1.1,0,2.1,0,3.2c-0.6,0-1.1,0-1.6,0
			c0,1.1,0,2.1,0,3.2c-0.5,0-1,0-1.6,0c0,1.6,0,3.2,0,4.8c-0.6,0-1,0-1.5,0c0,4.8,0,9.5,0,14.4c0.5,0,1,0,1.6,0c0,1.6,0,3.2,0,4.8
			c0.5,0,1,0,1.6,0c0,1.1,0,2.1,0,3.2c0.5,0,1,0,1.6,0c0,1.1,0,2.1,0,3.2c0.6,0,1,0,1.6,0c0,0.5,0,1,0,1.6c0.6,0,1.1,0,1.6,0
			c0,0.6,0,1,0,1.6c0.5,0,1,0,1.6,0c0,0.6,0,1.1,0,1.6c0.6,0,1,0,1.6,0c0,0.5,0,1,0,1.6c0.6,0,1.1,0,1.6,0c0,0.6,0,1,0,1.6
			c0.5,0,1,0,1.6,0c0,0.6,0,1.1,0,1.6c1.1,0,2.1,0,3.2,0c0,0.5,0,1,0,1.6c1.6,0,3.2,0,4.8,0c0,0.6,0,1,0,1.5c6.4,0,12.7,0,19.1,0
			c0-0.5,0-1,0-1.6c1.6,0,3.2,0,4.8,0c0-0.5,0-1,0-1.6c0.6,0,1,0,1.6,0c0-0.5,0-1,0-1.6c1.1,0,2.1,0,3.2,0c0-0.6,0-1,0-1.6
			c0.5,0,1,0,1.6,0c0-0.6,0-1.1,0-1.6c0.6,0,1,0,1.6,0c0-0.5,0-1,0-1.6c0.6,0,1.1,0,1.6,0c0-0.6,0-1,0-1.6c0.5,0,1,0,1.6,0
			c0-0.6,0-1.1,0-1.6c0.5,0,1,0,1.6,0c0-1.1,0-2.1,0-3.2c0.6,0,1.1,0,1.6,0c0-1.1,0-2.1,0-3.2c0.5,0,1,0,1.6,0c0-2.2,0-4.2,0-6.4
			c0.6,0,1,0,1.5,0c0-3.2,0-6.4,0-9.6c-0.5,0-1,0-1.6,0C345.5,177.6,345.5,175.5,345.5,173.4z M333.1,176.3c-0.8,0-1.3,0-2.4,0
			c-0.3,0.8-0.3,1.6-0.3,2.4c-0.8,0.3-1.6,0.3-2.4,0.3c0,1.6,0,3.5,0,5.1c-1.1,0-1.6,0-2.7,0c0,0.8,0,1.9,0,2.7
			c-0.8,0.3-1.6,0.3-2.4,0.3c0,1.6,0,3.2,0,5.1c-0.8,0-1.9,0-2.7,0c-0.3,0.8-0.3,1.9-0.3,2.7c-0.8,0-1.6,0-2.7,0c0,1.6,0,3.5,0,5.1
			c-1.6,0-3.2,0-5.1,0c0-1.9,0-3.5,0-5.1c-0.8-0.3-1.6-0.3-2.4-0.3c0-0.8,0-1.9,0-2.7c-0.8,0-1.6,0-2.7,0c0-1.6,0-3.5,0-5.1
			c-0.8-0.3-1.6-0.3-2.4-0.3c0-1.1,0-1.6,0-2.7c-0.8,0-1.6,0-2.7,0c0-1.6,0-3.5,0-5.1c-1.1,0-1.6,0-2.7,0c0-0.8,0-1.6,0-2.4
			c-0.8-0.3-1.6-0.3-2.4-0.3c0-0.8,0-1.6,0-2.4c12,0,23.9,0,35.9,0C333.1,174.5,333.1,175.5,333.1,176.3z"/>
		<path class="st1" d="M268.3,169.4c-0.5,0-1,0-1.6,0c0-0.6,0-1,0-1.6c-0.5,0-1,0-1.6,0c0-1.1,0-2.1,0-3.2c-0.6,0-1,0-1.6,0
			c0-0.5,0-1,0-1.6c-0.6,0-1.1,0-1.6,0c0-0.6,0-1,0-1.6c-0.5,0-1,0-1.6,0c0-0.6,0-1.1,0-1.6c-0.6,0-1,0-1.6,0c0-0.5,0-1,0-1.6
			c-0.6,0-1.1,0-1.6,0c0-0.6,0-1,0-1.6c-1.1,0-2.1,0-3.2,0c0-0.6,0-1.1,0-1.6c-1.1,0-2.1,0-3.2,0c0-0.5,0-1,0-1.6
			c-1.6,0-3.2,0-4.8,0c0-0.6,0-1,0-1.5c-4.8,0-9.5,0-14.4,0c0,0.5,0,1,0,1.6c-1.6,0-3.2,0-4.8,0c0,0.5,0,1,0,1.6c-1.1,0-2.1,0-3.2,0
			c0,0.5,0,1,0,1.6c-1.1,0-2.1,0-3.2,0c0,0.6,0,1,0,1.6c-0.5,0-1,0-1.6,0c0,0.6,0,1.1,0,1.6c-0.6,0-1,0-1.6,0c0,0.5,0,1,0,1.6
			c-0.6,0-1.1,0-1.6,0c0,0.6,0,1,0,1.6c-0.5,0-1,0-1.6,0c0,0.6,0,1.1,0,1.6c-0.6,0-1,0-1.6,0c0,0.5,0,1,0,1.6c-0.6,0-1.1,0-1.6,0
			c0,1.1,0,2.1,0,3.2c-0.5,0-1,0-1.6,0c0,1.6,0,3.2,0,4.8c-0.6,0-1,0-1.5,0c0,6.4,0,12.7,0,19.1c0.5,0,1,0,1.6,0c0,1.6,0,3.2,0,4.8
			c0.5,0,1,0,1.6,0c0,0.6,0,1,0,1.6c0.5,0,1,0,1.6,0c0,1.1,0,2.1,0,3.2c0.6,0,1,0,1.6,0c0,0.5,0,1,0,1.6c0.6,0,1.1,0,1.6,0
			c0,0.6,0,1,0,1.6c0.5,0,1,0,1.6,0c0,0.6,0,1.1,0,1.6c0.6,0,1,0,1.6,0c0,0.5,0,1,0,1.6c0.6,0,1.1,0,1.6,0c0,0.5,0,1,0,1.6
			c1.1,0,2.1,0,3.2,0c0,0.6,0,1.1,0,1.6c1.1,0,2.1,0,3.2,0c0,0.5,0,1,0,1.6c2.2,0,4.2,0,6.4,0c0,0.6,0,1,0,1.5c3.2,0,6.4,0,9.6,0
			c0-0.5,0-1,0-1.6c2.1,0,4.2,0,6.4,0c0-0.5,0-1,0-1.6c1.6,0,3.2,0,4.8,0c0-0.5,0-1,0-1.6c0.6,0,1.1,0,1.6,0c0-0.6,0-1,0-1.6
			c1.1,0,2.1,0,3.2,0c0-0.6,0-1.1,0-1.6c0.6,0,1,0,1.6,0c0-0.5,0-1,0-1.6c0.6,0,1.1,0,1.6,0c0-0.6,0-1,0-1.6c0.5,0,1,0,1.6,0
			c0-0.6,0-1.1,0-1.6c0.6,0,1,0,1.6,0c0-1.1,0-2.1,0-3.2c0.6,0,1.1,0,1.6,0c0-1.1,0-2.1,0-3.2c0.5,0,1,0,1.6,0c0-1.1,0-2.1,0-3.2
			c0.6,0,1,0,1.5,0c0-6.4,0-12.7,0-19.1c-0.5,0-1,0-1.6,0C268.3,172.5,268.3,171,268.3,169.4z M248.9,201.7c-0.8,0-1.9,0-2.7,0
			c0-0.8,0-1.3,0-2.4c-0.8-0.3-1.6-0.3-2.4-0.3c-0.3-0.8-0.3-1.6-0.3-2.4c-1.6,0-3.5,0-5.1,0c0-1.1,0-1.6,0-2.7c-0.8,0-1.9,0-2.7,0
			c-0.3-0.8-0.3-1.6-0.3-2.4c-1.6,0-3.2,0-5.1,0c0-0.8,0-1.9,0-2.7c-0.8-0.3-1.9-0.3-2.7-0.3c0-0.8,0-1.6,0-2.7c-1.6,0-3.5,0-5.1,0
			c0-1.6,0-3.2,0-5.1c1.9,0,3.5,0,5.1,0c0.3-0.8,0.3-1.6,0.3-2.4c0.8,0,1.9,0,2.7,0c0-0.8,0-1.6,0-2.7c1.6,0,3.5,0,5.1,0
			c0.3-0.8,0.3-1.6,0.3-2.4c1.1,0,1.6,0,2.7,0c0-0.8,0-1.6,0-2.7c1.6,0,3.5,0,5.1,0c0-1.1,0-1.6,0-2.7c0.8,0,1.6,0,2.4,0
			c0.3-0.8,0.3-1.6,0.3-2.4c0.8,0,1.6,0,2.4,0C248.9,177.8,248.9,189.7,248.9,201.7z"/>
		<path class="st1" d="M421,174.1c0-1.6,0-3.2,0-4.8c-0.5,0-1,0-1.6,0c0-0.6,0-1,0-1.6c-0.5,0-1,0-1.6,0c0-1.1,0-2.1,0-3.2
			c-0.6,0-1,0-1.6,0c0-0.5,0-1,0-1.6c-0.6,0-1.1,0-1.6,0c0-0.6,0-1,0-1.6c-0.5,0-1,0-1.6,0c0-0.6,0-1.1,0-1.6c-0.6,0-1,0-1.6,0
			c0-0.5,0-1,0-1.6c-0.6,0-1.1,0-1.6,0c0-0.5,0-1,0-1.6c-1.1,0-2.1,0-3.2,0c0-0.6,0-1.1,0-1.6c-1.1,0-2.1,0-3.2,0c0-0.5,0-1,0-1.6
			c-2.2,0-4.2,0-6.4,0c0-0.6,0-1,0-1.5c-3.2,0-6.4,0-9.6,0c0,0.5,0,1,0,1.6c-2.1,0-4.2,0-6.4,0c0,0.5,0,1,0,1.6c-1.6,0-3.2,0-4.8,0
			c0,0.5,0,1,0,1.6c-0.6,0-1.1,0-1.6,0c0,0.6,0,1,0,1.6c-1.1,0-2.1,0-3.2,0c0,0.6,0,1.1,0,1.6c-0.6,0-1,0-1.6,0c0,0.5,0,1,0,1.6
			c-0.6,0-1.1,0-1.6,0c0,0.6,0,1,0,1.6c-0.5,0-1,0-1.6,0c0,0.6,0,1.1,0,1.6c-0.6,0-1,0-1.6,0c0,1.1,0,2.1,0,3.2c-0.6,0-1.1,0-1.6,0
			c0,1.1,0,2.1,0,3.2c-0.5,0-1,0-1.6,0c0,1.1,0,2.1,0,3.2c-0.6,0-1,0-1.5,0c0,6.4,0,12.7,0,19.1c0.5,0,1,0,1.6,0c0,1.6,0,3.2,0,4.8
			c0.5,0,1,0,1.6,0c0,0.6,0,1,0,1.6c0.5,0,1,0,1.6,0c0,1.1,0,2.1,0,3.2c0.6,0,1,0,1.6,0c0,0.5,0,1,0,1.6c0.6,0,1.1,0,1.6,0
			c0,0.6,0,1,0,1.6c0.5,0,1,0,1.6,0c0,0.6,0,1.1,0,1.6c0.6,0,1,0,1.6,0c0,0.5,0,1,0,1.6c0.6,0,1.1,0,1.6,0c0,0.6,0,1,0,1.6
			c1.1,0,2.1,0,3.2,0c0,0.6,0,1.1,0,1.6c1.1,0,2.1,0,3.2,0c0,0.5,0,1,0,1.6c1.6,0,3.2,0,4.8,0c0,0.6,0,1,0,1.5c4.8,0,9.5,0,14.4,0
			c0-0.5,0-1,0-1.6c1.6,0,3.2,0,4.8,0c0-0.5,0-1,0-1.6c1.1,0,2.1,0,3.2,0c0-0.5,0-1,0-1.6c1.1,0,2.1,0,3.2,0c0-0.6,0-1,0-1.6
			c0.5,0,1,0,1.6,0c0-0.6,0-1.1,0-1.6c0.6,0,1,0,1.6,0c0-0.5,0-1,0-1.6c0.6,0,1.1,0,1.6,0c0-0.6,0-1,0-1.6c0.5,0,1,0,1.6,0
			c0-0.6,0-1.1,0-1.6c0.6,0,1,0,1.6,0c0-0.5,0-1,0-1.6c0.6,0,1.1,0,1.6,0c0-1.1,0-2.1,0-3.2c0.5,0,1,0,1.6,0c0-1.6,0-3.2,0-4.8
			c0.6,0,1,0,1.5,0c0-6.4,0-12.7,0-19.1C422.1,174.1,421.6,174.1,421,174.1z M407.5,186.5c-1.9,0-3.5,0-5.1,0
			c-0.3,0.8-0.3,1.6-0.3,2.4c-0.8,0-1.9,0-2.7,0c0,0.8,0,1.6,0,2.7c-1.6,0-3.5,0-5.1,0c-0.3,0.8-0.3,1.6-0.3,2.4c-1.1,0-1.6,0-2.7,0
			c0,0.8,0,1.6,0,2.7c-1.6,0-3.5,0-5.1,0c0,1.1,0,1.6,0,2.7c-0.8,0-1.6,0-2.4,0c-0.3,0.8-0.3,1.6-0.3,2.4c-0.8,0-1.6,0-2.4,0
			c0-12,0-23.9,0-35.9c0.8,0,1.9,0,2.7,0c0,0.8,0,1.3,0,2.4c0.8,0.3,1.6,0.3,2.4,0.3c0.3,0.8,0.3,1.6,0.3,2.4c1.6,0,3.5,0,5.1,0
			c0,1.1,0,1.6,0,2.7c0.8,0,1.9,0,2.7,0c0.3,0.8,0.3,1.6,0.3,2.4c1.6,0,3.2,0,5.1,0c0,0.8,0,1.9,0,2.7c0.8,0.3,1.9,0.3,2.7,0.3
			c0,0.8,0,1.6,0,2.7c1.6,0,3.5,0,5.1,0C407.5,183.1,407.5,184.7,407.5,186.5z"/>
	</g>
</g>
<g class="st2">
	<path d="M263,52.6c0,0.2,0,0.4-0.1,0.5h-1c0-0.1-0.1-0.3-0.1-0.5c0-0.2,0-0.4,0.1-0.5h-0.5c0-0.1-0.1-0.3-0.1-0.5
		c0-0.2,0-0.4,0.1-0.5h-1.6c0,0.1,0.1,0.3,0.1,0.5c0,0.2,0,0.4-0.1,0.5h1.6c0,0.1,0.1,0.3,0.1,0.5c0,0.2,0,0.4-0.1,0.5h-2.1
		c0-0.1-0.1-0.3-0.1-0.5c0-0.2,0-0.4,0.1-0.5h-0.5c0-0.1-0.1-0.3-0.1-0.5c0-0.2,0-0.4,0.1-0.5h0.5c0-0.1-0.1-0.3-0.1-0.5
		c0-0.2,0-0.4,0.1-0.5h2.1c0-0.1-0.1-0.3-0.1-0.5c0-0.2,0-0.4,0.1-0.5h-1.8c0-0.1-0.1-0.3-0.1-0.5c0-0.2,0-0.4,0.1-0.5h2.3
		c0,0.1,0.1,0.3,0.1,0.5c0,0.2,0,0.4-0.1,0.5h0.5c0,0.1,0.1,0.3,0.1,0.5c0,0.2,0,0.4-0.1,0.5c0,0.1,0.1,0.3,0.1,0.5
		c0,0.2,0,0.4-0.1,0.5c0,0.1,0.1,0.3,0.1,0.5c0,0.2,0,0.4-0.1,0.5h0.5C263,52.2,263,52.4,263,52.6z"/>
	<path d="M268.2,49.5c0,0.2,0,0.4-0.1,0.5h-1c0-0.1-0.1-0.3-0.1-0.5c0-0.2,0-0.4,0.1-0.5h-0.9c0,0.1,0.1,0.3,0.1,0.5
		c0,0.2,0,0.4-0.1,0.5h-0.4c0,0.1,0.1,0.3,0.1,0.5c0,0.2,0,0.4-0.1,0.5c0,0.1,0.1,0.3,0.1,0.5c0,0.2,0,0.4-0.1,0.5h0.8
		c0,0.1,0.1,0.3,0.1,0.5c0,0.2,0,0.4-0.1,0.5H264c0-0.1-0.1-0.3-0.1-0.5c0-0.2,0-0.4,0.1-0.5h0.8c0-0.1-0.1-0.3-0.1-0.5
		c0-0.2,0-0.4,0.1-0.5c0-0.1-0.1-0.3-0.1-0.5c0-0.2,0-0.4,0.1-0.5c0-0.1-0.1-0.3-0.1-0.5c0-0.2,0-0.4,0.1-0.5H264
		c0-0.1-0.1-0.3-0.1-0.5c0-0.2,0-0.4,0.1-0.5h1.3c0,0.1,0.1,0.3,0.1,0.5c0,0.2,0,0.4-0.1,0.5h0.5c0-0.1-0.1-0.3-0.1-0.5
		c0-0.2,0-0.4,0.1-0.5h1.9c0,0.1,0.1,0.3,0.1,0.5c0,0.2,0,0.4-0.1,0.5h0.4C268.2,49.1,268.2,49.3,268.2,49.5z"/>
	<path d="M273.3,49.5c0,0.2,0,0.4-0.1,0.5h-1c0-0.1-0.1-0.3-0.1-0.5c0-0.2,0-0.4,0.1-0.5h-0.9c0,0.1,0.1,0.3,0.1,0.5
		c0,0.2,0,0.4-0.1,0.5H271c0,0.1,0.1,0.3,0.1,0.5c0,0.2,0,0.4-0.1,0.5c0,0.1,0.1,0.3,0.1,0.5c0,0.2,0,0.4-0.1,0.5h0.8
		c0,0.1,0.1,0.3,0.1,0.5c0,0.2,0,0.4-0.1,0.5h-2.6c0-0.1-0.1-0.3-0.1-0.5c0-0.2,0-0.4,0.1-0.5h0.8c0-0.1-0.1-0.3-0.1-0.5
		c0-0.2,0-0.4,0.1-0.5c0-0.1-0.1-0.3-0.1-0.5c0-0.2,0-0.4,0.1-0.5c0-0.1-0.1-0.3-0.1-0.5c0-0.2,0-0.4,0.1-0.5h-0.8
		c0-0.1-0.1-0.3-0.1-0.5c0-0.2,0-0.4,0.1-0.5h1.3c0,0.1,0.1,0.3,0.1,0.5c0,0.2,0,0.4-0.1,0.5h0.5c0-0.1-0.1-0.3-0.1-0.5
		c0-0.2,0-0.4,0.1-0.5h1.9c0,0.1,0.1,0.3,0.1,0.5c0,0.2,0,0.4-0.1,0.5h0.4C273.3,49.1,273.3,49.3,273.3,49.5z"/>
	<path d="M278.5,51.1h-0.4c0,0.1,0.1,0.3,0.1,0.5c0,0.2,0,0.4-0.1,0.5h-0.6c0,0.1,0.1,0.3,0.1,0.5c0,0.2,0,0.4-0.1,0.5h-2.1
		c0-0.1-0.1-0.3-0.1-0.5c0-0.2,0-0.4,0.1-0.5h-0.6c0-0.1-0.1-0.3-0.1-0.5c0-0.2,0-0.4,0.1-0.5h-0.4c0-0.1-0.1-0.3-0.1-0.5
		c0-0.2,0-0.4,0.1-0.5h0.4c0-0.1-0.1-0.3-0.1-0.5c0-0.2,0-0.4,0.1-0.5h0.6c0-0.1-0.1-0.3-0.1-0.5c0-0.2,0-0.4,0.1-0.5h2.1
		c0,0.1,0.1,0.3,0.1,0.5c0,0.2,0,0.4-0.1,0.5h0.6c0,0.1,0.1,0.3,0.1,0.5c0,0.2,0,0.4-0.1,0.5h0.4c0,0.1,0.1,0.3,0.1,0.5
		C278.5,50.7,278.5,50.9,278.5,51.1z M277.4,51.1c0-0.1-0.1-0.3-0.1-0.5c0-0.2,0-0.4,0.1-0.5H277c0-0.1-0.1-0.3-0.1-0.5
		c0-0.2,0-0.4,0.1-0.5h-1.3c0,0.1,0.1,0.3,0.1,0.5c0,0.2,0,0.4-0.1,0.5h-0.4c0,0.1,0.1,0.3,0.1,0.5c0,0.2,0,0.4-0.1,0.5h0.4
		c0,0.1,0.1,0.3,0.1,0.5c0,0.2,0,0.4-0.1,0.5h1.3c0-0.1-0.1-0.3-0.1-0.5c0-0.2,0-0.4,0.1-0.5H277.4z"/>
	<path d="M283.6,49c0,0.1,0.1,0.3,0.1,0.5c0,0.2,0,0.4-0.1,0.5h-0.4c0,0.1,0.1,0.3,0.1,0.5c0,0.2,0,0.4-0.1,0.5
		c0,0.1,0.1,0.3,0.1,0.5c0,0.2,0,0.4-0.1,0.5H283c0,0.1,0.1,0.3,0.1,0.5c0,0.2,0,0.4-0.1,0.5h-0.8c0-0.1-0.1-0.3-0.1-0.5
		c0-0.2,0-0.4,0.1-0.5H282c0-0.1-0.1-0.3-0.1-0.5c0-0.2,0-0.4,0.1-0.5h-0.8c0,0.1,0.1,0.3,0.1,0.5c0,0.2,0,0.4-0.1,0.5h-0.3
		c0,0.1,0.1,0.3,0.1,0.5c0,0.2,0,0.4-0.1,0.5h-0.8c0-0.1-0.1-0.3-0.1-0.5c0-0.2,0-0.4,0.1-0.5h-0.3c0-0.1-0.1-0.3-0.1-0.5
		c0-0.2,0-0.4,0.1-0.5c0-0.1-0.1-0.3-0.1-0.5c0-0.2,0-0.4,0.1-0.5h-0.4c0-0.1-0.1-0.3-0.1-0.5c0-0.2,0-0.4,0.1-0.5
		c0-0.1-0.1-0.3-0.1-0.5c0-0.2,0-0.4,0.1-0.5h1c0,0.1,0.1,0.3,0.1,0.5c0,0.2,0,0.4-0.1,0.5c0,0.1,0.1,0.3,0.1,0.5
		c0,0.2,0,0.4-0.1,0.5c0,0.1,0.1,0.3,0.1,0.5c0,0.2,0,0.4-0.1,0.5h0.4c0-0.1-0.1-0.3-0.1-0.5c0-0.2,0-0.4,0.1-0.5h0.3
		c0-0.1-0.1-0.3-0.1-0.5c0-0.2,0-0.4,0.1-0.5c0-0.1-0.1-0.3-0.1-0.5c0-0.2,0-0.4,0.1-0.5h0.8c0,0.1,0.1,0.3,0.1,0.5
		c0,0.2,0,0.4-0.1,0.5c0,0.1,0.1,0.3,0.1,0.5c0,0.2,0,0.4-0.1,0.5h0.3c0,0.1,0.1,0.3,0.1,0.5c0,0.2,0,0.4-0.1,0.5h0.4
		c0-0.1-0.1-0.3-0.1-0.5c0-0.2,0-0.4,0.1-0.5c0-0.1-0.1-0.3-0.1-0.5c0-0.2,0-0.4,0.1-0.5c0-0.1-0.1-0.3-0.1-0.5c0-0.2,0-0.4,0.1-0.5
		h1c0,0.1,0.1,0.3,0.1,0.5C283.7,48.7,283.7,48.8,283.6,49z"/>
	<path d="M294,52.6c0,0.2,0,0.4-0.1,0.5h-1.8c0-0.1-0.1-0.3-0.1-0.5c0-0.2,0-0.4,0.1-0.5h-0.5c0-0.1-0.1-0.3-0.1-0.5
		c0-0.2,0-0.4,0.1-0.5h-0.8c0,0.1,0.1,0.3,0.1,0.5c0,0.2,0,0.4-0.1,0.5c0,0.1,0.1,0.3,0.1,0.5c0,0.2,0,0.4-0.1,0.5h-1
		c0-0.1-0.1-0.3-0.1-0.5c0-0.2,0-0.4,0.1-0.5c0-0.1-0.1-0.3-0.1-0.5c0-0.2,0-0.4,0.1-0.5c0-0.1-0.1-0.3-0.1-0.5c0-0.2,0-0.4,0.1-0.5
		c0-0.1-0.1-0.3-0.1-0.5c0-0.2,0-0.4,0.1-0.5c0-0.1-0.1-0.3-0.1-0.5c0-0.2,0-0.4,0.1-0.5c0-0.1-0.1-0.3-0.1-0.5c0-0.2,0-0.4,0.1-0.5
		c0-0.1-0.1-0.3-0.1-0.5c0-0.2,0-0.4,0.1-0.5h1c0,0.1,0.1,0.3,0.1,0.5c0,0.2,0,0.4-0.1,0.5c0,0.1,0.1,0.3,0.1,0.5
		c0,0.2,0,0.4-0.1,0.5c0,0.1,0.1,0.3,0.1,0.5c0,0.2,0,0.4-0.1,0.5c0,0.1,0.1,0.3,0.1,0.5c0,0.2,0,0.4-0.1,0.5h0.8
		c0-0.1-0.1-0.3-0.1-0.5c0-0.2,0-0.4,0.1-0.5h0.5c0-0.1-0.1-0.3-0.1-0.5c0-0.2,0-0.4,0.1-0.5h1.6c0,0.1,0.1,0.3,0.1,0.5
		c0,0.2,0,0.4-0.1,0.5h-1c0,0.1,0.1,0.3,0.1,0.5c0,0.2,0,0.4-0.1,0.5h-0.5c0,0.1,0.1,0.3,0.1,0.5c0,0.2,0,0.4-0.1,0.5h0.5
		c0,0.1,0.1,0.3,0.1,0.5c0,0.2,0,0.4-0.1,0.5h1.3C294,52.2,294,52.4,294,52.6z"/>
	<path d="M299.2,50c0,0.1,0.1,0.3,0.1,0.5c0,0.2,0,0.4-0.1,0.5h-2.7c0,0.1,0.1,0.3,0.1,0.5c0,0.2,0,0.4-0.1,0.5h2.2
		c0,0.1,0.1,0.3,0.1,0.5c0,0.2,0,0.4-0.1,0.5h-2.6c0-0.1-0.1-0.3-0.1-0.5c0-0.2,0-0.4,0.1-0.5h-0.6c0-0.1-0.1-0.3-0.1-0.5
		c0-0.2,0-0.4,0.1-0.5H295c0-0.1-0.1-0.3-0.1-0.5c0-0.2,0-0.4,0.1-0.5h0.4c0-0.1-0.1-0.3-0.1-0.5c0-0.2,0-0.4,0.1-0.5h0.6
		c0-0.1-0.1-0.3-0.1-0.5c0-0.2,0-0.4,0.1-0.5h2.6c0,0.1,0.1,0.3,0.1,0.5c0,0.2,0,0.4-0.1,0.5h0.5c0,0.1,0.1,0.3,0.1,0.5
		C299.2,49.7,299.2,49.9,299.2,50z M298.1,49.5c0-0.2,0-0.4,0.1-0.5h-1.7c0,0.1,0.1,0.3,0.1,0.5c0,0.2,0,0.4-0.1,0.5h1.7
		C298.1,49.9,298.1,49.7,298.1,49.5z"/>
	<path d="M304.3,49h-0.4c0,0.1,0.1,0.3,0.1,0.5c0,0.2,0,0.4-0.1,0.5h-0.4c0,0.1,0.1,0.3,0.1,0.5c0,0.2,0,0.4-0.1,0.5h-0.3
		c0,0.1,0.1,0.3,0.1,0.5c0,0.2,0,0.4-0.1,0.5h-0.4c0,0.1,0.1,0.3,0.1,0.5c0,0.2,0,0.4-0.1,0.5h-0.3c0,0.1,0.1,0.3,0.1,0.5
		c0,0.2,0,0.4-0.1,0.5h-0.5c0,0.1,0.1,0.3,0.1,0.5c0,0.2,0,0.4-0.1,0.5h-1.6c0-0.1-0.1-0.3-0.1-0.5c0-0.2,0-0.4,0.1-0.5h1
		c0-0.1-0.1-0.3-0.1-0.5c0-0.2,0-0.4,0.1-0.5c0-0.1-0.1-0.3-0.1-0.5c0-0.2,0-0.4,0.1-0.5h-0.5c0-0.1-0.1-0.3-0.1-0.5
		c0-0.2,0-0.4,0.1-0.5h-0.3c0-0.1-0.1-0.3-0.1-0.5c0-0.2,0-0.4,0.1-0.5h-0.4c0-0.1-0.1-0.3-0.1-0.5c0-0.2,0-0.4,0.1-0.5h-0.4
		c0-0.1-0.1-0.3-0.1-0.5c0-0.2,0-0.4,0.1-0.5h1c0,0.1,0.1,0.3,0.1,0.5c0,0.2,0,0.4-0.1,0.5h0.4c0,0.1,0.1,0.3,0.1,0.5
		c0,0.2,0,0.4-0.1,0.5h0.4c0,0.1,0.1,0.3,0.1,0.5c0,0.2,0,0.4-0.1,0.5c0,0.1,0.1,0.3,0.1,0.5c0,0.2,0,0.4-0.1,0.5h0.4
		c0-0.1-0.1-0.3-0.1-0.5c0-0.2,0-0.4,0.1-0.5h0.3c0-0.1-0.1-0.3-0.1-0.5c0-0.2,0-0.4,0.1-0.5h0.4c0-0.1-0.1-0.3-0.1-0.5
		c0-0.2,0-0.4,0.1-0.5h0.4c0-0.1-0.1-0.3-0.1-0.5c0-0.2,0-0.4,0.1-0.5h1c0,0.1,0.1,0.3,0.1,0.5C304.4,48.7,304.4,48.8,304.3,49z"/>
	<path d="M309.2,52.1h-0.5c0,0.1,0.1,0.3,0.1,0.5c0,0.2,0,0.4-0.1,0.5h-2.8c0-0.1-0.1-0.3-0.1-0.5c0-0.2,0-0.4,0.1-0.5h2.3
		c0-0.1-0.1-0.3-0.1-0.5c0-0.2,0-0.4,0.1-0.5h-2.1c0-0.1-0.1-0.3-0.1-0.5c0-0.2,0-0.4,0.1-0.5h-0.5c0-0.1-0.1-0.3-0.1-0.5
		c0-0.2,0-0.4,0.1-0.5h0.5c0-0.1-0.1-0.3-0.1-0.5c0-0.2,0-0.4,0.1-0.5h2.8c0,0.1,0.1,0.3,0.1,0.5c0,0.2,0,0.4-0.1,0.5h-2.3
		c0,0.1,0.1,0.3,0.1,0.5c0,0.2,0,0.4-0.1,0.5h2.1c0,0.1,0.1,0.3,0.1,0.5c0,0.2,0,0.4-0.1,0.5h0.5c0,0.1,0.1,0.3,0.1,0.5
		C309.3,51.8,309.3,52,309.2,52.1z"/>
	<path d="M319.3,52.1c0,0.1,0.1,0.3,0.1,0.5c0,0.2,0,0.4-0.1,0.5h-2.1c0-0.1-0.1-0.3-0.1-0.5c0-0.2,0-0.4,0.1-0.5h-0.5
		c0-0.1-0.1-0.3-0.1-0.5c0-0.2,0-0.4,0.1-0.5c0-0.1-0.1-0.3-0.1-0.5c0-0.2,0-0.4,0.1-0.5c0-0.1-0.1-0.3-0.1-0.5c0-0.2,0-0.4,0.1-0.5
		h-1c0-0.1-0.1-0.3-0.1-0.5c0-0.2,0-0.4,0.1-0.5h1c0-0.1-0.1-0.3-0.1-0.5c0-0.2,0-0.4,0.1-0.5c0-0.1-0.1-0.3-0.1-0.5
		c0-0.2,0-0.4,0.1-0.5h1c0,0.1,0.1,0.3,0.1,0.5c0,0.2,0,0.4-0.1,0.5c0,0.1,0.1,0.3,0.1,0.5c0,0.2,0,0.4-0.1,0.5h1.6
		c0,0.1,0.1,0.3,0.1,0.5c0,0.2,0,0.4-0.1,0.5h-1.6c0,0.1,0.1,0.3,0.1,0.5c0,0.2,0,0.4-0.1,0.5c0,0.1,0.1,0.3,0.1,0.5
		c0,0.2,0,0.4-0.1,0.5c0,0.1,0.1,0.3,0.1,0.5c0,0.2,0,0.4-0.1,0.5H319.3z"/>
	<path d="M325,51.1h-0.4c0,0.1,0.1,0.3,0.1,0.5c0,0.2,0,0.4-0.1,0.5H324c0,0.1,0.1,0.3,0.1,0.5c0,0.2,0,0.4-0.1,0.5h-2.1
		c0-0.1-0.1-0.3-0.1-0.5c0-0.2,0-0.4,0.1-0.5h-0.6c0-0.1-0.1-0.3-0.1-0.5c0-0.2,0-0.4,0.1-0.5h-0.4c0-0.1-0.1-0.3-0.1-0.5
		c0-0.2,0-0.4,0.1-0.5h0.4c0-0.1-0.1-0.3-0.1-0.5c0-0.2,0-0.4,0.1-0.5h0.6c0-0.1-0.1-0.3-0.1-0.5c0-0.2,0-0.4,0.1-0.5h2.1
		c0,0.1,0.1,0.3,0.1,0.5c0,0.2,0,0.4-0.1,0.5h0.6c0,0.1,0.1,0.3,0.1,0.5c0,0.2,0,0.4-0.1,0.5h0.4c0,0.1,0.1,0.3,0.1,0.5
		C325.1,50.7,325.1,50.9,325,51.1z M324,51.1c0-0.1-0.1-0.3-0.1-0.5c0-0.2,0-0.4,0.1-0.5h-0.4c0-0.1-0.1-0.3-0.1-0.5
		c0-0.2,0-0.4,0.1-0.5h-1.3c0,0.1,0.1,0.3,0.1,0.5c0,0.2,0,0.4-0.1,0.5h-0.4c0,0.1,0.1,0.3,0.1,0.5c0,0.2,0,0.4-0.1,0.5h0.4
		c0,0.1,0.1,0.3,0.1,0.5c0,0.2,0,0.4-0.1,0.5h1.3c0-0.1-0.1-0.3-0.1-0.5c0-0.2,0-0.4,0.1-0.5H324z"/>
	<path d="M332.1,49h0.5c0,0.1,0.1,0.3,0.1,0.5c0,0.2,0,0.4-0.1,0.5h-0.4c0,0.1,0.1,0.3,0.1,0.5c0,0.2,0,0.4-0.1,0.5
		c0,0.1,0.1,0.3,0.1,0.5c0,0.2,0,0.4-0.1,0.5c0,0.1,0.1,0.3,0.1,0.5c0,0.2,0,0.4-0.1,0.5h-1c0-0.1-0.1-0.3-0.1-0.5
		c0-0.2,0-0.4,0.1-0.5c0-0.1-0.1-0.3-0.1-0.5c0-0.2,0-0.4,0.1-0.5c0-0.1-0.1-0.3-0.1-0.5c0-0.2,0-0.4,0.1-0.5c0-0.1-0.1-0.3-0.1-0.5
		c0-0.2,0-0.4,0.1-0.5c0-0.1-0.1-0.3-0.1-0.5c0-0.2,0-0.4,0.1-0.5h0.9c0,0.1,0.1,0.3,0.1,0.5C332.2,48.7,332.2,48.8,332.1,49z
		 M335.4,50.5c0,0.2,0,0.4-0.1,0.5c0,0.1,0.1,0.3,0.1,0.5c0,0.2,0,0.4-0.1,0.5c0,0.1,0.1,0.3,0.1,0.5c0,0.2,0,0.4-0.1,0.5h-1
		c0-0.1-0.1-0.3-0.1-0.5c0-0.2,0-0.4,0.1-0.5c0-0.1-0.1-0.3-0.1-0.5c0-0.2,0-0.4,0.1-0.5c0-0.1-0.1-0.3-0.1-0.5c0-0.2,0-0.4,0.1-0.5
		c0-0.1-0.1-0.3-0.1-0.5c0-0.2,0-0.4,0.1-0.5h-1.7c0-0.1-0.1-0.3-0.1-0.5c0-0.2,0-0.4,0.1-0.5h2.1c0,0.1,0.1,0.3,0.1,0.5
		c0,0.2,0,0.4-0.1,0.5h0.6c0,0.1,0.1,0.3,0.1,0.5c0,0.2,0,0.4-0.1,0.5C335.4,50.2,335.4,50.3,335.4,50.5z"/>
	<path d="M340.6,52.6c0,0.2,0,0.4-0.1,0.5h-1c0-0.1-0.1-0.3-0.1-0.5c0-0.2,0-0.4,0.1-0.5H339c0-0.1-0.1-0.3-0.1-0.5
		c0-0.2,0-0.4,0.1-0.5h-1.6c0,0.1,0.1,0.3,0.1,0.5c0,0.2,0,0.4-0.1,0.5h1.6c0,0.1,0.1,0.3,0.1,0.5c0,0.2,0,0.4-0.1,0.5h-2.1
		c0-0.1-0.1-0.3-0.1-0.5c0-0.2,0-0.4,0.1-0.5h-0.5c0-0.1-0.1-0.3-0.1-0.5c0-0.2,0-0.4,0.1-0.5h0.5c0-0.1-0.1-0.3-0.1-0.5
		c0-0.2,0-0.4,0.1-0.5h2.1c0-0.1-0.1-0.3-0.1-0.5c0-0.2,0-0.4,0.1-0.5h-1.8c0-0.1-0.1-0.3-0.1-0.5c0-0.2,0-0.4,0.1-0.5h2.3
		c0,0.1,0.1,0.3,0.1,0.5c0,0.2,0,0.4-0.1,0.5h0.5c0,0.1,0.1,0.3,0.1,0.5c0,0.2,0,0.4-0.1,0.5c0,0.1,0.1,0.3,0.1,0.5
		c0,0.2,0,0.4-0.1,0.5c0,0.1,0.1,0.3,0.1,0.5c0,0.2,0,0.4-0.1,0.5h0.5C340.6,52.2,340.6,52.4,340.6,52.6z"/>
	<path d="M345.7,49h-0.4c0,0.1,0.1,0.3,0.1,0.5c0,0.2,0,0.4-0.1,0.5h-0.4c0,0.1,0.1,0.3,0.1,0.5c0,0.2,0,0.4-0.1,0.5h-0.3
		c0,0.1,0.1,0.3,0.1,0.5c0,0.2,0,0.4-0.1,0.5h-0.5c0,0.1,0.1,0.3,0.1,0.5c0,0.2,0,0.4-0.1,0.5h-1c0-0.1-0.1-0.3-0.1-0.5
		c0-0.2,0-0.4,0.1-0.5h-0.5c0-0.1-0.1-0.3-0.1-0.5c0-0.2,0-0.4,0.1-0.5h-0.3c0-0.1-0.1-0.3-0.1-0.5c0-0.2,0-0.4,0.1-0.5H342
		c0-0.1-0.1-0.3-0.1-0.5c0-0.2,0-0.4,0.1-0.5h-0.4c0-0.1-0.1-0.3-0.1-0.5c0-0.2,0-0.4,0.1-0.5h1c0,0.1,0.1,0.3,0.1,0.5
		c0,0.2,0,0.4-0.1,0.5h0.4c0,0.1,0.1,0.3,0.1,0.5c0,0.2,0,0.4-0.1,0.5h0.4c0,0.1,0.1,0.3,0.1,0.5c0,0.2,0,0.4-0.1,0.5h0.5
		c0-0.1-0.1-0.3-0.1-0.5c0-0.2,0-0.4,0.1-0.5h0.4c0-0.1-0.1-0.3-0.1-0.5c0-0.2,0-0.4,0.1-0.5h0.4c0-0.1-0.1-0.3-0.1-0.5
		c0-0.2,0-0.4,0.1-0.5h1c0,0.1,0.1,0.3,0.1,0.5C345.8,48.7,345.8,48.8,345.7,49z"/>
	<path d="M350.4,52.6c0,0.2,0,0.4-0.1,0.5h-3.1c0-0.1-0.1-0.3-0.1-0.5c0-0.2,0-0.4,0.1-0.5h1c0-0.1-0.1-0.3-0.1-0.5
		c0-0.2,0-0.4,0.1-0.5c0-0.1-0.1-0.3-0.1-0.5c0-0.2,0-0.4,0.1-0.5c0-0.1-0.1-0.3-0.1-0.5c0-0.2,0-0.4,0.1-0.5h-0.8
		c0-0.1-0.1-0.3-0.1-0.5c0-0.2,0-0.4,0.1-0.5h1.8c0,0.1,0.1,0.3,0.1,0.5c0,0.2,0,0.4-0.1,0.5c0,0.1,0.1,0.3,0.1,0.5
		c0,0.2,0,0.4-0.1,0.5c0,0.1,0.1,0.3,0.1,0.5c0,0.2,0,0.4-0.1,0.5c0,0.1,0.1,0.3,0.1,0.5c0,0.2,0,0.4-0.1,0.5h1
		C350.4,52.2,350.4,52.4,350.4,52.6z M348.3,46.9c0-0.1-0.1-0.3-0.1-0.5c0-0.2,0-0.4,0.1-0.5h1c0,0.1,0.1,0.3,0.1,0.5
		c0,0.2,0,0.4-0.1,0.5H348.3z"/>
	<path d="M356.1,49.5c0,0.2,0,0.4-0.1,0.5c0,0.1,0.1,0.3,0.1,0.5c0,0.2,0,0.4-0.1,0.5c0,0.1,0.1,0.3,0.1,0.5c0,0.2,0,0.4-0.1,0.5
		c0,0.1,0.1,0.3,0.1,0.5c0,0.2,0,0.4-0.1,0.5h-0.5c0,0.1,0.1,0.3,0.1,0.5c0,0.2,0,0.4-0.1,0.5H355c0,0.1,0.1,0.3,0.1,0.5
		c0,0.2,0,0.4-0.1,0.5H353c0-0.1-0.1-0.3-0.1-0.5c0-0.2,0-0.4,0.1-0.5h1.6c0-0.1-0.1-0.3-0.1-0.5c0-0.2,0-0.4,0.1-0.5h0.5
		c0-0.1-0.1-0.3-0.1-0.5c0-0.2,0-0.4,0.1-0.5h-0.5c0-0.1-0.1-0.3-0.1-0.5c0-0.2,0-0.4,0.1-0.5h0.5c0-0.1-0.1-0.3-0.1-0.5
		c0-0.2,0-0.4,0.1-0.5c0-0.1-0.1-0.3-0.1-0.5c0-0.2,0-0.4,0.1-0.5h-1.7c0,0.1,0.1,0.3,0.1,0.5c0,0.2,0,0.4-0.1,0.5H353
		c0,0.1,0.1,0.3,0.1,0.5c0,0.2,0,0.4-0.1,0.5h0.4c0,0.1,0.1,0.3,0.1,0.5c0,0.2,0,0.4-0.1,0.5h1.2c0,0.1,0.1,0.3,0.1,0.5
		c0,0.2,0,0.4-0.1,0.5H353c0-0.1-0.1-0.3-0.1-0.5c0-0.2,0-0.4,0.1-0.5h-0.6c0-0.1-0.1-0.3-0.1-0.5c0-0.2,0-0.4,0.1-0.5h-0.4
		c0-0.1-0.1-0.3-0.1-0.5c0-0.2,0-0.4,0.1-0.5h0.4c0-0.1-0.1-0.3-0.1-0.5c0-0.2,0-0.4,0.1-0.5h0.6c0-0.1-0.1-0.3-0.1-0.5
		c0-0.2,0-0.4,0.1-0.5h3.1c0,0.1,0.1,0.3,0.1,0.5c0,0.2,0,0.4-0.1,0.5C356.1,49.1,356.1,49.3,356.1,49.5z"/>
	<path d="M361.3,52.6c0,0.2,0,0.4-0.1,0.5h-1c0-0.1-0.1-0.3-0.1-0.5c0-0.2,0-0.4,0.1-0.5h-0.5c0-0.1-0.1-0.3-0.1-0.5
		c0-0.2,0-0.4,0.1-0.5h-1.6c0,0.1,0.1,0.3,0.1,0.5c0,0.2,0,0.4-0.1,0.5h1.6c0,0.1,0.1,0.3,0.1,0.5c0,0.2,0,0.4-0.1,0.5h-2.1
		c0-0.1-0.1-0.3-0.1-0.5c0-0.2,0-0.4,0.1-0.5h-0.5c0-0.1-0.1-0.3-0.1-0.5c0-0.2,0-0.4,0.1-0.5h0.5c0-0.1-0.1-0.3-0.1-0.5
		c0-0.2,0-0.4,0.1-0.5h2.1c0-0.1-0.1-0.3-0.1-0.5c0-0.2,0-0.4,0.1-0.5h-1.8c0-0.1-0.1-0.3-0.1-0.5c0-0.2,0-0.4,0.1-0.5h2.3
		c0,0.1,0.1,0.3,0.1,0.5c0,0.2,0,0.4-0.1,0.5h0.5c0,0.1,0.1,0.3,0.1,0.5c0,0.2,0,0.4-0.1,0.5c0,0.1,0.1,0.3,0.1,0.5
		c0,0.2,0,0.4-0.1,0.5c0,0.1,0.1,0.3,0.1,0.5c0,0.2,0,0.4-0.1,0.5h0.5C361.3,52.2,361.3,52.4,361.3,52.6z"/>
	<path d="M365.9,52.1c0,0.1,0.1,0.3,0.1,0.5c0,0.2,0,0.4-0.1,0.5h-2.1c0-0.1-0.1-0.3-0.1-0.5c0-0.2,0-0.4,0.1-0.5h-0.5
		c0-0.1-0.1-0.3-0.1-0.5c0-0.2,0-0.4,0.1-0.5c0-0.1-0.1-0.3-0.1-0.5c0-0.2,0-0.4,0.1-0.5c0-0.1-0.1-0.3-0.1-0.5c0-0.2,0-0.4,0.1-0.5
		h-1c0-0.1-0.1-0.3-0.1-0.5c0-0.2,0-0.4,0.1-0.5h1c0-0.1-0.1-0.3-0.1-0.5c0-0.2,0-0.4,0.1-0.5c0-0.1-0.1-0.3-0.1-0.5
		c0-0.2,0-0.4,0.1-0.5h1c0,0.1,0.1,0.3,0.1,0.5c0,0.2,0,0.4-0.1,0.5c0,0.1,0.1,0.3,0.1,0.5c0,0.2,0,0.4-0.1,0.5h1.6
		c0,0.1,0.1,0.3,0.1,0.5c0,0.2,0,0.4-0.1,0.5h-1.6c0,0.1,0.1,0.3,0.1,0.5c0,0.2,0,0.4-0.1,0.5c0,0.1,0.1,0.3,0.1,0.5
		c0,0.2,0,0.4-0.1,0.5c0,0.1,0.1,0.3,0.1,0.5c0,0.2,0,0.4-0.1,0.5H365.9z"/>
	<path d="M371.6,50c0,0.1,0.1,0.3,0.1,0.5c0,0.2,0,0.4-0.1,0.5h-2.7c0,0.1,0.1,0.3,0.1,0.5c0,0.2,0,0.4-0.1,0.5h2.2
		c0,0.1,0.1,0.3,0.1,0.5c0,0.2,0,0.4-0.1,0.5h-2.6c0-0.1-0.1-0.3-0.1-0.5c0-0.2,0-0.4,0.1-0.5h-0.6c0-0.1-0.1-0.3-0.1-0.5
		c0-0.2,0-0.4,0.1-0.5h-0.4c0-0.1-0.1-0.3-0.1-0.5c0-0.2,0-0.4,0.1-0.5h0.4c0-0.1-0.1-0.3-0.1-0.5c0-0.2,0-0.4,0.1-0.5h0.6
		c0-0.1-0.1-0.3-0.1-0.5c0-0.2,0-0.4,0.1-0.5h2.6c0,0.1,0.1,0.3,0.1,0.5c0,0.2,0,0.4-0.1,0.5h0.5c0,0.1,0.1,0.3,0.1,0.5
		C371.6,49.7,371.6,49.9,371.6,50z M370.5,49.5c0-0.2,0-0.4,0.1-0.5h-1.7c0,0.1,0.1,0.3,0.1,0.5c0,0.2,0,0.4-0.1,0.5h1.7
		C370.5,49.9,370.5,49.7,370.5,49.5z"/>
</g>
<g class="st2">
	<path d="M241.7,245h-0.5c0,0.1,0.1,0.3,0.1,0.5c0,0.2,0,0.4-0.1,0.5h-0.5c0,0.1,0.1,0.3,0.1,0.5c0,0.2,0,0.4-0.1,0.5h-2.1
		c0,0.1,0.1,0.3,0.1,0.5c0,0.2,0,0.4-0.1,0.5c0,0.1,0.1,0.3,0.1,0.5c0,0.2,0,0.4-0.1,0.5h-1c0-0.1-0.1-0.3-0.1-0.5
		c0-0.2,0-0.4,0.1-0.5c0-0.1-0.1-0.3-0.1-0.5c0-0.2,0-0.4,0.1-0.5c0-0.1-0.1-0.3-0.1-0.5c0-0.2,0-0.4,0.1-0.5c0-0.1-0.1-0.3-0.1-0.5
		c0-0.2,0-0.4,0.1-0.5c0-0.1-0.1-0.3-0.1-0.5c0-0.2,0-0.4,0.1-0.5c0-0.1-0.1-0.3-0.1-0.5c0-0.2,0-0.4,0.1-0.5c0-0.1-0.1-0.3-0.1-0.5
		c0-0.2,0-0.4,0.1-0.5h1c0,0.1,0.1,0.3,0.1,0.5c0,0.2,0,0.4-0.1,0.5h0.5c0,0.1,0.1,0.3,0.1,0.5c0,0.2,0,0.4-0.1,0.5h-0.5
		c0,0.1,0.1,0.3,0.1,0.5c0,0.2,0,0.4-0.1,0.5c0,0.1,0.1,0.3,0.1,0.5c0,0.2,0,0.4-0.1,0.5h1.6c0-0.1-0.1-0.3-0.1-0.5
		c0-0.2,0-0.4,0.1-0.5h0.5c0-0.1-0.1-0.3-0.1-0.5c0-0.2,0-0.4,0.1-0.5h-0.5c0-0.1-0.1-0.3-0.1-0.5c0-0.2,0-0.4,0.1-0.5h-1
		c0-0.1-0.1-0.3-0.1-0.5c0-0.2,0-0.4,0.1-0.5h1.6c0,0.1,0.1,0.3,0.1,0.5c0,0.2,0,0.4-0.1,0.5h0.5c0,0.1,0.1,0.3,0.1,0.5
		c0,0.2,0,0.4-0.1,0.5h0.5c0,0.1,0.1,0.3,0.1,0.5C241.8,244.7,241.8,244.8,241.7,245z"/>
	<path d="M246.9,243.4c0,0.2,0,0.4-0.1,0.5h-1c0-0.1-0.1-0.3-0.1-0.5c0-0.2,0-0.4,0.1-0.5H245c0,0.1,0.1,0.3,0.1,0.5
		c0,0.2,0,0.4-0.1,0.5h-0.4c0,0.1,0.1,0.3,0.1,0.5c0,0.2,0,0.4-0.1,0.5c0,0.1,0.1,0.3,0.1,0.5c0,0.2,0,0.4-0.1,0.5h0.8
		c0,0.1,0.1,0.3,0.1,0.5c0,0.2,0,0.4-0.1,0.5h-2.6c0-0.1-0.1-0.3-0.1-0.5c0-0.2,0-0.4,0.1-0.5h0.8c0-0.1-0.1-0.3-0.1-0.5
		c0-0.2,0-0.4,0.1-0.5c0-0.1-0.1-0.3-0.1-0.5c0-0.2,0-0.4,0.1-0.5c0-0.1-0.1-0.3-0.1-0.5c0-0.2,0-0.4,0.1-0.5h-0.8
		c0-0.1-0.1-0.3-0.1-0.5c0-0.2,0-0.4,0.1-0.5h1.3c0,0.1,0.1,0.3,0.1,0.5c0,0.2,0,0.4-0.1,0.5h0.5c0-0.1-0.1-0.3-0.1-0.5
		c0-0.2,0-0.4,0.1-0.5h1.9c0,0.1,0.1,0.3,0.1,0.5c0,0.2,0,0.4-0.1,0.5h0.4C246.9,243,246.9,243.2,246.9,243.4z"/>
	<path d="M252.1,245h-0.4c0,0.1,0.1,0.3,0.1,0.5c0,0.2,0,0.4-0.1,0.5H251c0,0.1,0.1,0.3,0.1,0.5c0,0.2,0,0.4-0.1,0.5H249
		c0-0.1-0.1-0.3-0.1-0.5c0-0.2,0-0.4,0.1-0.5h-0.6c0-0.1-0.1-0.3-0.1-0.5c0-0.2,0-0.4,0.1-0.5h-0.4c0-0.1-0.1-0.3-0.1-0.5
		c0-0.2,0-0.4,0.1-0.5h0.4c0-0.1-0.1-0.3-0.1-0.5c0-0.2,0-0.4,0.1-0.5h0.6c0-0.1-0.1-0.3-0.1-0.5c0-0.2,0-0.4,0.1-0.5h2.1
		c0,0.1,0.1,0.3,0.1,0.5c0,0.2,0,0.4-0.1,0.5h0.6c0,0.1,0.1,0.3,0.1,0.5c0,0.2,0,0.4-0.1,0.5h0.4c0,0.1,0.1,0.3,0.1,0.5
		C252.1,244.7,252.1,244.8,252.1,245z M251,245c0-0.1-0.1-0.3-0.1-0.5c0-0.2,0-0.4,0.1-0.5h-0.4c0-0.1-0.1-0.3-0.1-0.5
		c0-0.2,0-0.4,0.1-0.5h-1.3c0,0.1,0.1,0.3,0.1,0.5c0,0.2,0,0.4-0.1,0.5H249c0,0.1,0.1,0.3,0.1,0.5c0,0.2,0,0.4-0.1,0.5h0.4
		c0,0.1,0.1,0.3,0.1,0.5c0,0.2,0,0.4-0.1,0.5h1.3c0-0.1-0.1-0.3-0.1-0.5c0-0.2,0-0.4,0.1-0.5H251z"/>
	<path d="M256.3,242.4c0,0.2,0,0.4-0.1,0.5c0,0.1,0.1,0.3,0.1,0.5c0,0.2,0,0.4-0.1,0.5c0,0.1,0.1,0.3,0.1,0.5c0,0.2,0,0.4-0.1,0.5
		c0,0.1,0.1,0.3,0.1,0.5c0,0.2,0,0.4-0.1,0.5c0,0.1,0.1,0.3,0.1,0.5c0,0.2,0,0.4-0.1,0.5h-0.5c0,0.1,0.1,0.3,0.1,0.5
		c0,0.2,0,0.4-0.1,0.5h-0.5c0,0.1,0.1,0.3,0.1,0.5c0,0.2,0,0.4-0.1,0.5h-1.6c0-0.1-0.1-0.3-0.1-0.5c0-0.2,0-0.4,0.1-0.5h1
		c0-0.1-0.1-0.3-0.1-0.5c0-0.2,0-0.4,0.1-0.5h0.5c0-0.1-0.1-0.3-0.1-0.5c0-0.2,0-0.4,0.1-0.5c0-0.1-0.1-0.3-0.1-0.5
		c0-0.2,0-0.4,0.1-0.5c0-0.1-0.1-0.3-0.1-0.5c0-0.2,0-0.4,0.1-0.5c0-0.1-0.1-0.3-0.1-0.5c0-0.2,0-0.4,0.1-0.5h-1
		c0-0.1-0.1-0.3-0.1-0.5c0-0.2,0-0.4,0.1-0.5h2.1C256.2,242,256.3,242.2,256.3,242.4z M255.2,240.8c0-0.1-0.1-0.3-0.1-0.5
		c0-0.2,0-0.4,0.1-0.5h1c0,0.1,0.1,0.3,0.1,0.5c0,0.2,0,0.4-0.1,0.5H255.2z"/>
	<path d="M262.4,243.9c0,0.1,0.1,0.3,0.1,0.5c0,0.2,0,0.4-0.1,0.5h-2.7c0,0.1,0.1,0.3,0.1,0.5c0,0.2,0,0.4-0.1,0.5h2.2
		c0,0.1,0.1,0.3,0.1,0.5c0,0.2,0,0.4-0.1,0.5h-2.6c0-0.1-0.1-0.3-0.1-0.5c0-0.2,0-0.4,0.1-0.5h-0.6c0-0.1-0.1-0.3-0.1-0.5
		c0-0.2,0-0.4,0.1-0.5h-0.4c0-0.1-0.1-0.3-0.1-0.5c0-0.2,0-0.4,0.1-0.5h0.4c0-0.1-0.1-0.3-0.1-0.5c0-0.2,0-0.4,0.1-0.5h0.6
		c0-0.1-0.1-0.3-0.1-0.5c0-0.2,0-0.4,0.1-0.5h2.6c0,0.1,0.1,0.3,0.1,0.5c0,0.2,0,0.4-0.1,0.5h0.5c0,0.1,0.1,0.3,0.1,0.5
		C262.5,243.6,262.5,243.8,262.4,243.9z M261.3,243.4c0-0.2,0-0.4,0.1-0.5h-1.7c0,0.1,0.1,0.3,0.1,0.5c0,0.2,0,0.4-0.1,0.5h1.7
		C261.3,243.8,261.3,243.6,261.3,243.4z"/>
	<path d="M267.6,245c0,0.1,0.1,0.3,0.1,0.5c0,0.2,0,0.4-0.1,0.5h-0.5c0,0.1,0.1,0.3,0.1,0.5c0,0.2,0,0.4-0.1,0.5h-2.6
		c0-0.1-0.1-0.3-0.1-0.5c0-0.2,0-0.4,0.1-0.5H264c0-0.1-0.1-0.3-0.1-0.5c0-0.2,0-0.4,0.1-0.5h-0.5c0-0.1-0.1-0.3-0.1-0.5
		c0-0.2,0-0.4,0.1-0.5h0.5c0-0.1-0.1-0.3-0.1-0.5c0-0.2,0-0.4,0.1-0.5h0.5c0-0.1-0.1-0.3-0.1-0.5c0-0.2,0-0.4,0.1-0.5h2.6
		c0,0.1,0.1,0.3,0.1,0.5c0,0.2,0,0.4-0.1,0.5h0.5c0,0.1,0.1,0.3,0.1,0.5c0,0.2,0,0.4-0.1,0.5h-1c0-0.1-0.1-0.3-0.1-0.5
		c0-0.2,0-0.4,0.1-0.5H265c0,0.1,0.1,0.3,0.1,0.5c0,0.2,0,0.4-0.1,0.5h-0.5c0,0.1,0.1,0.3,0.1,0.5c0,0.2,0,0.4-0.1,0.5h0.5
		c0,0.1,0.1,0.3,0.1,0.5c0,0.2,0,0.4-0.1,0.5h1.6c0-0.1-0.1-0.3-0.1-0.5c0-0.2,0-0.4,0.1-0.5H267.6z"/>
	<path d="M272.2,246c0,0.1,0.1,0.3,0.1,0.5c0,0.2,0,0.4-0.1,0.5h-2.1c0-0.1-0.1-0.3-0.1-0.5c0-0.2,0-0.4,0.1-0.5h-0.5
		c0-0.1-0.1-0.3-0.1-0.5c0-0.2,0-0.4,0.1-0.5c0-0.1-0.1-0.3-0.1-0.5c0-0.2,0-0.4,0.1-0.5c0-0.1-0.1-0.3-0.1-0.5c0-0.2,0-0.4,0.1-0.5
		h-1c0-0.1-0.1-0.3-0.1-0.5c0-0.2,0-0.4,0.1-0.5h1c0-0.1-0.1-0.3-0.1-0.5c0-0.2,0-0.4,0.1-0.5c0-0.1-0.1-0.3-0.1-0.5
		c0-0.2,0-0.4,0.1-0.5h1c0,0.1,0.1,0.3,0.1,0.5c0,0.2,0,0.4-0.1,0.5c0,0.1,0.1,0.3,0.1,0.5c0,0.2,0,0.4-0.1,0.5h1.6
		c0,0.1,0.1,0.3,0.1,0.5c0,0.2,0,0.4-0.1,0.5h-1.6c0,0.1,0.1,0.3,0.1,0.5c0,0.2,0,0.4-0.1,0.5c0,0.1,0.1,0.3,0.1,0.5
		c0,0.2,0,0.4-0.1,0.5c0,0.1,0.1,0.3,0.1,0.5c0,0.2,0,0.4-0.1,0.5H272.2z"/>
	<path d="M283.1,245h-0.5c0,0.1,0.1,0.3,0.1,0.5c0,0.2,0,0.4-0.1,0.5h-0.5c0,0.1,0.1,0.3,0.1,0.5c0,0.2,0,0.4-0.1,0.5H280
		c0,0.1,0.1,0.3,0.1,0.5c0,0.2,0,0.4-0.1,0.5c0,0.1,0.1,0.3,0.1,0.5c0,0.2,0,0.4-0.1,0.5h-1c0-0.1-0.1-0.3-0.1-0.5
		c0-0.2,0-0.4,0.1-0.5c0-0.1-0.1-0.3-0.1-0.5c0-0.2,0-0.4,0.1-0.5c0-0.1-0.1-0.3-0.1-0.5c0-0.2,0-0.4,0.1-0.5c0-0.1-0.1-0.3-0.1-0.5
		c0-0.2,0-0.4,0.1-0.5c0-0.1-0.1-0.3-0.1-0.5c0-0.2,0-0.4,0.1-0.5c0-0.1-0.1-0.3-0.1-0.5c0-0.2,0-0.4,0.1-0.5c0-0.1-0.1-0.3-0.1-0.5
		c0-0.2,0-0.4,0.1-0.5h1c0,0.1,0.1,0.3,0.1,0.5c0,0.2,0,0.4-0.1,0.5h0.5c0,0.1,0.1,0.3,0.1,0.5c0,0.2,0,0.4-0.1,0.5H280
		c0,0.1,0.1,0.3,0.1,0.5c0,0.2,0,0.4-0.1,0.5c0,0.1,0.1,0.3,0.1,0.5c0,0.2,0,0.4-0.1,0.5h1.6c0-0.1-0.1-0.3-0.1-0.5
		c0-0.2,0-0.4,0.1-0.5h0.5c0-0.1-0.1-0.3-0.1-0.5c0-0.2,0-0.4,0.1-0.5h-0.5c0-0.1-0.1-0.3-0.1-0.5c0-0.2,0-0.4,0.1-0.5h-1
		c0-0.1-0.1-0.3-0.1-0.5c0-0.2,0-0.4,0.1-0.5h1.6c0,0.1,0.1,0.3,0.1,0.5c0,0.2,0,0.4-0.1,0.5h0.5c0,0.1,0.1,0.3,0.1,0.5
		c0,0.2,0,0.4-0.1,0.5h0.5c0,0.1,0.1,0.3,0.1,0.5C283.2,244.7,283.1,244.8,283.1,245z"/>
	<path d="M288.3,243.4c0,0.2,0,0.4-0.1,0.5h-1c0-0.1-0.1-0.3-0.1-0.5c0-0.2,0-0.4,0.1-0.5h-0.9c0,0.1,0.1,0.3,0.1,0.5
		c0,0.2,0,0.4-0.1,0.5H286c0,0.1,0.1,0.3,0.1,0.5c0,0.2,0,0.4-0.1,0.5c0,0.1,0.1,0.3,0.1,0.5c0,0.2,0,0.4-0.1,0.5h0.8
		c0,0.1,0.1,0.3,0.1,0.5c0,0.2,0,0.4-0.1,0.5h-2.6c0-0.1-0.1-0.3-0.1-0.5c0-0.2,0-0.4,0.1-0.5h0.8c0-0.1-0.1-0.3-0.1-0.5
		c0-0.2,0-0.4,0.1-0.5c0-0.1-0.1-0.3-0.1-0.5c0-0.2,0-0.4,0.1-0.5c0-0.1-0.1-0.3-0.1-0.5c0-0.2,0-0.4,0.1-0.5h-0.8
		c0-0.1-0.1-0.3-0.1-0.5c0-0.2,0-0.4,0.1-0.5h1.3c0,0.1,0.1,0.3,0.1,0.5c0,0.2,0,0.4-0.1,0.5h0.5c0-0.1-0.1-0.3-0.1-0.5
		c0-0.2,0-0.4,0.1-0.5h1.9c0,0.1,0.1,0.3,0.1,0.5c0,0.2,0,0.4-0.1,0.5h0.4C288.3,243,288.3,243.2,288.3,243.4z"/>
	<path d="M293.5,243.9c0,0.1,0.1,0.3,0.1,0.5c0,0.2,0,0.4-0.1,0.5h-2.7c0,0.1,0.1,0.3,0.1,0.5c0,0.2,0,0.4-0.1,0.5h2.2
		c0,0.1,0.1,0.3,0.1,0.5c0,0.2,0,0.4-0.1,0.5h-2.6c0-0.1-0.1-0.3-0.1-0.5c0-0.2,0-0.4,0.1-0.5h-0.6c0-0.1-0.1-0.3-0.1-0.5
		c0-0.2,0-0.4,0.1-0.5h-0.4c0-0.1-0.1-0.3-0.1-0.5c0-0.2,0-0.4,0.1-0.5h0.4c0-0.1-0.1-0.3-0.1-0.5c0-0.2,0-0.4,0.1-0.5h0.6
		c0-0.1-0.1-0.3-0.1-0.5c0-0.2,0-0.4,0.1-0.5h2.6c0,0.1,0.1,0.3,0.1,0.5c0,0.2,0,0.4-0.1,0.5h0.5c0,0.1,0.1,0.3,0.1,0.5
		C293.5,243.6,293.5,243.8,293.5,243.9z M292.4,243.4c0-0.2,0-0.4,0.1-0.5h-1.7c0,0.1,0.1,0.3,0.1,0.5c0,0.2,0,0.4-0.1,0.5h1.7
		C292.4,243.8,292.4,243.6,292.4,243.4z"/>
	<path d="M298.6,242.9h-0.4c0,0.1,0.1,0.3,0.1,0.5c0,0.2,0,0.4-0.1,0.5h-0.4c0,0.1,0.1,0.3,0.1,0.5c0,0.2,0,0.4-0.1,0.5h-0.3
		c0,0.1,0.1,0.3,0.1,0.5c0,0.2,0,0.4-0.1,0.5h-0.5c0,0.1,0.1,0.3,0.1,0.5c0,0.2,0,0.4-0.1,0.5h-1c0-0.1-0.1-0.3-0.1-0.5
		c0-0.2,0-0.4,0.1-0.5h-0.5c0-0.1-0.1-0.3-0.1-0.5c0-0.2,0-0.4,0.1-0.5h-0.3c0-0.1-0.1-0.3-0.1-0.5c0-0.2,0-0.4,0.1-0.5h-0.4
		c0-0.1-0.1-0.3-0.1-0.5c0-0.2,0-0.4,0.1-0.5h-0.4c0-0.1-0.1-0.3-0.1-0.5c0-0.2,0-0.4,0.1-0.5h1c0,0.1,0.1,0.3,0.1,0.5
		c0,0.2,0,0.4-0.1,0.5h0.4c0,0.1,0.1,0.3,0.1,0.5c0,0.2,0,0.4-0.1,0.5h0.4c0,0.1,0.1,0.3,0.1,0.5c0,0.2,0,0.4-0.1,0.5h0.5
		c0-0.1-0.1-0.3-0.1-0.5c0-0.2,0-0.4,0.1-0.5h0.4c0-0.1-0.1-0.3-0.1-0.5c0-0.2,0-0.4,0.1-0.5h0.4c0-0.1-0.1-0.3-0.1-0.5
		c0-0.2,0-0.4,0.1-0.5h1c0,0.1,0.1,0.3,0.1,0.5C298.7,242.6,298.7,242.8,298.6,242.9z"/>
	<path d="M303.3,246.5c0,0.2,0,0.4-0.1,0.5h-3.1c0-0.1-0.1-0.3-0.1-0.5c0-0.2,0-0.4,0.1-0.5h1c0-0.1-0.1-0.3-0.1-0.5
		c0-0.2,0-0.4,0.1-0.5c0-0.1-0.1-0.3-0.1-0.5c0-0.2,0-0.4,0.1-0.5c0-0.1-0.1-0.3-0.1-0.5c0-0.2,0-0.4,0.1-0.5h-0.8
		c0-0.1-0.1-0.3-0.1-0.5c0-0.2,0-0.4,0.1-0.5h1.8c0,0.1,0.1,0.3,0.1,0.5c0,0.2,0,0.4-0.1,0.5c0,0.1,0.1,0.3,0.1,0.5
		c0,0.2,0,0.4-0.1,0.5c0,0.1,0.1,0.3,0.1,0.5c0,0.2,0,0.4-0.1,0.5c0,0.1,0.1,0.3,0.1,0.5c0,0.2,0,0.4-0.1,0.5h1
		C303.3,246.1,303.3,246.3,303.3,246.5z M301.2,240.8c0-0.1-0.1-0.3-0.1-0.5c0-0.2,0-0.4,0.1-0.5h1c0,0.1,0.1,0.3,0.1,0.5
		c0,0.2,0,0.4-0.1,0.5H301.2z"/>
	<path d="M309,243.9c0,0.1,0.1,0.3,0.1,0.5c0,0.2,0,0.4-0.1,0.5h-2.7c0,0.1,0.1,0.3,0.1,0.5c0,0.2,0,0.4-0.1,0.5h2.2
		c0,0.1,0.1,0.3,0.1,0.5c0,0.2,0,0.4-0.1,0.5h-2.6c0-0.1-0.1-0.3-0.1-0.5c0-0.2,0-0.4,0.1-0.5h-0.6c0-0.1-0.1-0.3-0.1-0.5
		c0-0.2,0-0.4,0.1-0.5h-0.4c0-0.1-0.1-0.3-0.1-0.5c0-0.2,0-0.4,0.1-0.5h0.4c0-0.1-0.1-0.3-0.1-0.5c0-0.2,0-0.4,0.1-0.5h0.6
		c0-0.1-0.1-0.3-0.1-0.5c0-0.2,0-0.4,0.1-0.5h2.6c0,0.1,0.1,0.3,0.1,0.5c0,0.2,0,0.4-0.1,0.5h0.5c0,0.1,0.1,0.3,0.1,0.5
		C309,243.6,309,243.8,309,243.9z M307.9,243.4c0-0.2,0-0.4,0.1-0.5h-1.7c0,0.1,0.1,0.3,0.1,0.5c0,0.2,0,0.4-0.1,0.5h1.7
		C307.9,243.8,307.9,243.6,307.9,243.4z"/>
	<path d="M314.1,242.9c0,0.1,0.1,0.3,0.1,0.5c0,0.2,0,0.4-0.1,0.5h-0.4c0,0.1,0.1,0.3,0.1,0.5c0,0.2,0,0.4-0.1,0.5
		c0,0.1,0.1,0.3,0.1,0.5c0,0.2,0,0.4-0.1,0.5h-0.3c0,0.1,0.1,0.3,0.1,0.5c0,0.2,0,0.4-0.1,0.5h-0.8c0-0.1-0.1-0.3-0.1-0.5
		c0-0.2,0-0.4,0.1-0.5h-0.3c0-0.1-0.1-0.3-0.1-0.5c0-0.2,0-0.4,0.1-0.5h-0.8c0,0.1,0.1,0.3,0.1,0.5c0,0.2,0,0.4-0.1,0.5h-0.3
		c0,0.1,0.1,0.3,0.1,0.5c0,0.2,0,0.4-0.1,0.5h-0.8c0-0.1-0.1-0.3-0.1-0.5c0-0.2,0-0.4,0.1-0.5h-0.3c0-0.1-0.1-0.3-0.1-0.5
		c0-0.2,0-0.4,0.1-0.5c0-0.1-0.1-0.3-0.1-0.5c0-0.2,0-0.4,0.1-0.5H310c0-0.1-0.1-0.3-0.1-0.5c0-0.2,0-0.4,0.1-0.5
		c0-0.1-0.1-0.3-0.1-0.5c0-0.2,0-0.4,0.1-0.5h1c0,0.1,0.1,0.3,0.1,0.5c0,0.2,0,0.4-0.1,0.5c0,0.1,0.1,0.3,0.1,0.5
		c0,0.2,0,0.4-0.1,0.5c0,0.1,0.1,0.3,0.1,0.5c0,0.2,0,0.4-0.1,0.5h0.4c0-0.1-0.1-0.3-0.1-0.5c0-0.2,0-0.4,0.1-0.5h0.3
		c0-0.1-0.1-0.3-0.1-0.5c0-0.2,0-0.4,0.1-0.5c0-0.1-0.1-0.3-0.1-0.5c0-0.2,0-0.4,0.1-0.5h0.8c0,0.1,0.1,0.3,0.1,0.5
		c0,0.2,0,0.4-0.1,0.5c0,0.1,0.1,0.3,0.1,0.5c0,0.2,0,0.4-0.1,0.5h0.3c0,0.1,0.1,0.3,0.1,0.5c0,0.2,0,0.4-0.1,0.5h0.4
		c0-0.1-0.1-0.3-0.1-0.5c0-0.2,0-0.4,0.1-0.5c0-0.1-0.1-0.3-0.1-0.5c0-0.2,0-0.4,0.1-0.5c0-0.1-0.1-0.3-0.1-0.5c0-0.2,0-0.4,0.1-0.5
		h1c0,0.1,0.1,0.3,0.1,0.5C314.2,242.6,314.2,242.8,314.1,242.9z"/>
	<path d="M324.5,242.9c0,0.1,0.1,0.3,0.1,0.5c0,0.2,0,0.4-0.1,0.5h-0.4c0,0.1,0.1,0.3,0.1,0.5c0,0.2,0,0.4-0.1,0.5
		c0,0.1,0.1,0.3,0.1,0.5c0,0.2,0,0.4-0.1,0.5h-0.3c0,0.1,0.1,0.3,0.1,0.5c0,0.2,0,0.4-0.1,0.5h-0.8c0-0.1-0.1-0.3-0.1-0.5
		c0-0.2,0-0.4,0.1-0.5h-0.3c0-0.1-0.1-0.3-0.1-0.5c0-0.2,0-0.4,0.1-0.5H322c0,0.1,0.1,0.3,0.1,0.5c0,0.2,0,0.4-0.1,0.5h-0.3
		c0,0.1,0.1,0.3,0.1,0.5c0,0.2,0,0.4-0.1,0.5H321c0-0.1-0.1-0.3-0.1-0.5c0-0.2,0-0.4,0.1-0.5h-0.3c0-0.1-0.1-0.3-0.1-0.5
		c0-0.2,0-0.4,0.1-0.5c0-0.1-0.1-0.3-0.1-0.5c0-0.2,0-0.4,0.1-0.5h-0.4c0-0.1-0.1-0.3-0.1-0.5c0-0.2,0-0.4,0.1-0.5
		c0-0.1-0.1-0.3-0.1-0.5c0-0.2,0-0.4,0.1-0.5h1c0,0.1,0.1,0.3,0.1,0.5c0,0.2,0,0.4-0.1,0.5c0,0.1,0.1,0.3,0.1,0.5
		c0,0.2,0,0.4-0.1,0.5c0,0.1,0.1,0.3,0.1,0.5c0,0.2,0,0.4-0.1,0.5h0.4c0-0.1-0.1-0.3-0.1-0.5c0-0.2,0-0.4,0.1-0.5h0.3
		c0-0.1-0.1-0.3-0.1-0.5c0-0.2,0-0.4,0.1-0.5c0-0.1-0.1-0.3-0.1-0.5c0-0.2,0-0.4,0.1-0.5h0.8c0,0.1,0.1,0.3,0.1,0.5
		c0,0.2,0,0.4-0.1,0.5c0,0.1,0.1,0.3,0.1,0.5c0,0.2,0,0.4-0.1,0.5h0.3c0,0.1,0.1,0.3,0.1,0.5c0,0.2,0,0.4-0.1,0.5h0.4
		c0-0.1-0.1-0.3-0.1-0.5c0-0.2,0-0.4,0.1-0.5c0-0.1-0.1-0.3-0.1-0.5c0-0.2,0-0.4,0.1-0.5c0-0.1-0.1-0.3-0.1-0.5c0-0.2,0-0.4,0.1-0.5
		h1c0,0.1,0.1,0.3,0.1,0.5C324.5,242.6,324.5,242.8,324.5,242.9z"/>
	<path d="M329.2,246.5c0,0.2,0,0.4-0.1,0.5H326c0-0.1-0.1-0.3-0.1-0.5c0-0.2,0-0.4,0.1-0.5h1c0-0.1-0.1-0.3-0.1-0.5
		c0-0.2,0-0.4,0.1-0.5c0-0.1-0.1-0.3-0.1-0.5c0-0.2,0-0.4,0.1-0.5c0-0.1-0.1-0.3-0.1-0.5c0-0.2,0-0.4,0.1-0.5h-0.8
		c0-0.1-0.1-0.3-0.1-0.5c0-0.2,0-0.4,0.1-0.5h1.8c0,0.1,0.1,0.3,0.1,0.5c0,0.2,0,0.4-0.1,0.5c0,0.1,0.1,0.3,0.1,0.5
		c0,0.2,0,0.4-0.1,0.5c0,0.1,0.1,0.3,0.1,0.5c0,0.2,0,0.4-0.1,0.5c0,0.1,0.1,0.3,0.1,0.5c0,0.2,0,0.4-0.1,0.5h1
		C329.2,246.1,329.2,246.3,329.2,246.5z M327.1,240.8c0-0.1-0.1-0.3-0.1-0.5c0-0.2,0-0.4,0.1-0.5h1c0,0.1,0.1,0.3,0.1,0.5
		c0,0.2,0,0.4-0.1,0.5H327.1z"/>
	<path d="M334.4,246.5c0,0.2,0,0.4-0.1,0.5h-3.1c0-0.1-0.1-0.3-0.1-0.5c0-0.2,0-0.4,0.1-0.5h1c0-0.1-0.1-0.3-0.1-0.5
		c0-0.2,0-0.4,0.1-0.5c0-0.1-0.1-0.3-0.1-0.5c0-0.2,0-0.4,0.1-0.5c0-0.1-0.1-0.3-0.1-0.5c0-0.2,0-0.4,0.1-0.5c0-0.1-0.1-0.3-0.1-0.5
		c0-0.2,0-0.4,0.1-0.5c0-0.1-0.1-0.3-0.1-0.5c0-0.2,0-0.4,0.1-0.5h-0.8c0-0.1-0.1-0.3-0.1-0.5c0-0.2,0-0.4,0.1-0.5h1.8
		c0,0.1,0.1,0.3,0.1,0.5c0,0.2,0,0.4-0.1,0.5c0,0.1,0.1,0.3,0.1,0.5c0,0.2,0,0.4-0.1,0.5c0,0.1,0.1,0.3,0.1,0.5c0,0.2,0,0.4-0.1,0.5
		c0,0.1,0.1,0.3,0.1,0.5c0,0.2,0,0.4-0.1,0.5c0,0.1,0.1,0.3,0.1,0.5c0,0.2,0,0.4-0.1,0.5c0,0.1,0.1,0.3,0.1,0.5c0,0.2,0,0.4-0.1,0.5
		h1C334.4,246.1,334.4,246.3,334.4,246.5z"/>
	<path d="M339.6,246.5c0,0.2,0,0.4-0.1,0.5h-3.1c0-0.1-0.1-0.3-0.1-0.5c0-0.2,0-0.4,0.1-0.5h1c0-0.1-0.1-0.3-0.1-0.5
		c0-0.2,0-0.4,0.1-0.5c0-0.1-0.1-0.3-0.1-0.5c0-0.2,0-0.4,0.1-0.5c0-0.1-0.1-0.3-0.1-0.5c0-0.2,0-0.4,0.1-0.5c0-0.1-0.1-0.3-0.1-0.5
		c0-0.2,0-0.4,0.1-0.5c0-0.1-0.1-0.3-0.1-0.5c0-0.2,0-0.4,0.1-0.5h-0.8c0-0.1-0.1-0.3-0.1-0.5c0-0.2,0-0.4,0.1-0.5h1.8
		c0,0.1,0.1,0.3,0.1,0.5c0,0.2,0,0.4-0.1,0.5c0,0.1,0.1,0.3,0.1,0.5c0,0.2,0,0.4-0.1,0.5c0,0.1,0.1,0.3,0.1,0.5c0,0.2,0,0.4-0.1,0.5
		c0,0.1,0.1,0.3,0.1,0.5c0,0.2,0,0.4-0.1,0.5c0,0.1,0.1,0.3,0.1,0.5c0,0.2,0,0.4-0.1,0.5c0,0.1,0.1,0.3,0.1,0.5c0,0.2,0,0.4-0.1,0.5
		h1C339.5,246.1,339.6,246.3,339.6,246.5z"/>
	<path d="M350.4,246.5c0,0.2,0,0.4-0.1,0.5h-1c0-0.1-0.1-0.3-0.1-0.5c0-0.2,0-0.4,0.1-0.5h-0.5c0-0.1-0.1-0.3-0.1-0.5
		c0-0.2,0-0.4,0.1-0.5h-1.6c0,0.1,0.1,0.3,0.1,0.5c0,0.2,0,0.4-0.1,0.5h1.6c0,0.1,0.1,0.3,0.1,0.5c0,0.2,0,0.4-0.1,0.5h-2.1
		c0-0.1-0.1-0.3-0.1-0.5c0-0.2,0-0.4,0.1-0.5h-0.5c0-0.1-0.1-0.3-0.1-0.5c0-0.2,0-0.4,0.1-0.5h0.5c0-0.1-0.1-0.3-0.1-0.5
		c0-0.2,0-0.4,0.1-0.5h2.1c0-0.1-0.1-0.3-0.1-0.5c0-0.2,0-0.4,0.1-0.5H347c0-0.1-0.1-0.3-0.1-0.5c0-0.2,0-0.4,0.1-0.5h2.3
		c0,0.1,0.1,0.3,0.1,0.5c0,0.2,0,0.4-0.1,0.5h0.5c0,0.1,0.1,0.3,0.1,0.5c0,0.2,0,0.4-0.1,0.5c0,0.1,0.1,0.3,0.1,0.5
		c0,0.2,0,0.4-0.1,0.5c0,0.1,0.1,0.3,0.1,0.5c0,0.2,0,0.4-0.1,0.5h0.5C350.4,246.1,350.4,246.3,350.4,246.5z"/>
	<path d="M355.5,245H355c0,0.1,0.1,0.3,0.1,0.5c0,0.2,0,0.4-0.1,0.5h-0.5c0,0.1,0.1,0.3,0.1,0.5c0,0.2,0,0.4-0.1,0.5h-2.1
		c0,0.1,0.1,0.3,0.1,0.5c0,0.2,0,0.4-0.1,0.5c0,0.1,0.1,0.3,0.1,0.5c0,0.2,0,0.4-0.1,0.5h-1c0-0.1-0.1-0.3-0.1-0.5
		c0-0.2,0-0.4,0.1-0.5c0-0.1-0.1-0.3-0.1-0.5c0-0.2,0-0.4,0.1-0.5c0-0.1-0.1-0.3-0.1-0.5c0-0.2,0-0.4,0.1-0.5c0-0.1-0.1-0.3-0.1-0.5
		c0-0.2,0-0.4,0.1-0.5c0-0.1-0.1-0.3-0.1-0.5c0-0.2,0-0.4,0.1-0.5c0-0.1-0.1-0.3-0.1-0.5c0-0.2,0-0.4,0.1-0.5c0-0.1-0.1-0.3-0.1-0.5
		c0-0.2,0-0.4,0.1-0.5h1c0,0.1,0.1,0.3,0.1,0.5c0,0.2,0,0.4-0.1,0.5h0.5c0,0.1,0.1,0.3,0.1,0.5c0,0.2,0,0.4-0.1,0.5h-0.5
		c0,0.1,0.1,0.3,0.1,0.5c0,0.2,0,0.4-0.1,0.5c0,0.1,0.1,0.3,0.1,0.5c0,0.2,0,0.4-0.1,0.5h1.6c0-0.1-0.1-0.3-0.1-0.5
		c0-0.2,0-0.4,0.1-0.5h0.5c0-0.1-0.1-0.3-0.1-0.5c0-0.2,0-0.4,0.1-0.5H354c0-0.1-0.1-0.3-0.1-0.5c0-0.2,0-0.4,0.1-0.5h-1
		c0-0.1-0.1-0.3-0.1-0.5c0-0.2,0-0.4,0.1-0.5h1.6c0,0.1,0.1,0.3,0.1,0.5c0,0.2,0,0.4-0.1,0.5h0.5c0,0.1,0.1,0.3,0.1,0.5
		c0,0.2,0,0.4-0.1,0.5h0.5c0,0.1,0.1,0.3,0.1,0.5C355.6,244.7,355.6,244.8,355.5,245z"/>
	<path d="M360.7,245h-0.5c0,0.1,0.1,0.3,0.1,0.5c0,0.2,0,0.4-0.1,0.5h-0.5c0,0.1,0.1,0.3,0.1,0.5c0,0.2,0,0.4-0.1,0.5h-2.1
		c0,0.1,0.1,0.3,0.1,0.5c0,0.2,0,0.4-0.1,0.5c0,0.1,0.1,0.3,0.1,0.5c0,0.2,0,0.4-0.1,0.5h-1c0-0.1-0.1-0.3-0.1-0.5
		c0-0.2,0-0.4,0.1-0.5c0-0.1-0.1-0.3-0.1-0.5c0-0.2,0-0.4,0.1-0.5c0-0.1-0.1-0.3-0.1-0.5c0-0.2,0-0.4,0.1-0.5c0-0.1-0.1-0.3-0.1-0.5
		c0-0.2,0-0.4,0.1-0.5c0-0.1-0.1-0.3-0.1-0.5c0-0.2,0-0.4,0.1-0.5c0-0.1-0.1-0.3-0.1-0.5c0-0.2,0-0.4,0.1-0.5c0-0.1-0.1-0.3-0.1-0.5
		c0-0.2,0-0.4,0.1-0.5h1c0,0.1,0.1,0.3,0.1,0.5c0,0.2,0,0.4-0.1,0.5h0.5c0,0.1,0.1,0.3,0.1,0.5c0,0.2,0,0.4-0.1,0.5h-0.5
		c0,0.1,0.1,0.3,0.1,0.5c0,0.2,0,0.4-0.1,0.5c0,0.1,0.1,0.3,0.1,0.5c0,0.2,0,0.4-0.1,0.5h1.6c0-0.1-0.1-0.3-0.1-0.5
		c0-0.2,0-0.4,0.1-0.5h0.5c0-0.1-0.1-0.3-0.1-0.5c0-0.2,0-0.4,0.1-0.5h-0.5c0-0.1-0.1-0.3-0.1-0.5c0-0.2,0-0.4,0.1-0.5h-1
		c0-0.1-0.1-0.3-0.1-0.5c0-0.2,0-0.4,0.1-0.5h1.6c0,0.1,0.1,0.3,0.1,0.5c0,0.2,0,0.4-0.1,0.5h0.5c0,0.1,0.1,0.3,0.1,0.5
		c0,0.2,0,0.4-0.1,0.5h0.5c0,0.1,0.1,0.3,0.1,0.5C360.8,244.7,360.7,244.8,360.7,245z"/>
	<path d="M365.9,243.9c0,0.1,0.1,0.3,0.1,0.5c0,0.2,0,0.4-0.1,0.5h-2.7c0,0.1,0.1,0.3,0.1,0.5c0,0.2,0,0.4-0.1,0.5h2.2
		c0,0.1,0.1,0.3,0.1,0.5c0,0.2,0,0.4-0.1,0.5h-2.6c0-0.1-0.1-0.3-0.1-0.5c0-0.2,0-0.4,0.1-0.5h-0.6c0-0.1-0.1-0.3-0.1-0.5
		c0-0.2,0-0.4,0.1-0.5h-0.4c0-0.1-0.1-0.3-0.1-0.5c0-0.2,0-0.4,0.1-0.5h0.4c0-0.1-0.1-0.3-0.1-0.5c0-0.2,0-0.4,0.1-0.5h0.6
		c0-0.1-0.1-0.3-0.1-0.5c0-0.2,0-0.4,0.1-0.5h2.6c0,0.1,0.1,0.3,0.1,0.5c0,0.2,0,0.4-0.1,0.5h0.5c0,0.1,0.1,0.3,0.1,0.5
		C365.9,243.6,365.9,243.8,365.9,243.9z M364.8,243.4c0-0.2,0-0.4,0.1-0.5h-1.7c0,0.1,0.1,0.3,0.1,0.5c0,0.2,0,0.4-0.1,0.5h1.7
		C364.8,243.8,364.8,243.6,364.8,243.4z"/>
	<path d="M371.1,246.5c0,0.2,0,0.4-0.1,0.5h-1c0-0.1-0.1-0.3-0.1-0.5c0-0.2,0-0.4,0.1-0.5h-0.5c0-0.1-0.1-0.3-0.1-0.5
		c0-0.2,0-0.4,0.1-0.5H368c0,0.1,0.1,0.3,0.1,0.5c0,0.2,0,0.4-0.1,0.5h1.6c0,0.1,0.1,0.3,0.1,0.5c0,0.2,0,0.4-0.1,0.5h-2.1
		c0-0.1-0.1-0.3-0.1-0.5c0-0.2,0-0.4,0.1-0.5h-0.5c0-0.1-0.1-0.3-0.1-0.5c0-0.2,0-0.4,0.1-0.5h0.5c0-0.1-0.1-0.3-0.1-0.5
		c0-0.2,0-0.4,0.1-0.5h2.1c0-0.1-0.1-0.3-0.1-0.5c0-0.2,0-0.4,0.1-0.5h-1.8c0-0.1-0.1-0.3-0.1-0.5c0-0.2,0-0.4,0.1-0.5h2.3
		c0,0.1,0.1,0.3,0.1,0.5c0,0.2,0,0.4-0.1,0.5h0.5c0,0.1,0.1,0.3,0.1,0.5c0,0.2,0,0.4-0.1,0.5c0,0.1,0.1,0.3,0.1,0.5
		c0,0.2,0,0.4-0.1,0.5c0,0.1,0.1,0.3,0.1,0.5c0,0.2,0,0.4-0.1,0.5h0.5C371.1,246.1,371.1,246.3,371.1,246.5z"/>
	<path d="M376.3,243.4c0,0.2,0,0.4-0.1,0.5h-1c0-0.1-0.1-0.3-0.1-0.5c0-0.2,0-0.4,0.1-0.5h-0.9c0,0.1,0.1,0.3,0.1,0.5
		c0,0.2,0,0.4-0.1,0.5h-0.4c0,0.1,0.1,0.3,0.1,0.5c0,0.2,0,0.4-0.1,0.5c0,0.1,0.1,0.3,0.1,0.5c0,0.2,0,0.4-0.1,0.5h0.8
		c0,0.1,0.1,0.3,0.1,0.5c0,0.2,0,0.4-0.1,0.5h-2.6c0-0.1-0.1-0.3-0.1-0.5c0-0.2,0-0.4,0.1-0.5h0.8c0-0.1-0.1-0.3-0.1-0.5
		c0-0.2,0-0.4,0.1-0.5c0-0.1-0.1-0.3-0.1-0.5c0-0.2,0-0.4,0.1-0.5c0-0.1-0.1-0.3-0.1-0.5c0-0.2,0-0.4,0.1-0.5h-0.8
		c0-0.1-0.1-0.3-0.1-0.5c0-0.2,0-0.4,0.1-0.5h1.3c0,0.1,0.1,0.3,0.1,0.5c0,0.2,0,0.4-0.1,0.5h0.5c0-0.1-0.1-0.3-0.1-0.5
		c0-0.2,0-0.4,0.1-0.5h1.9c0,0.1,0.1,0.3,0.1,0.5c0,0.2,0,0.4-0.1,0.5h0.4C376.3,243,376.3,243.2,376.3,243.4z"/>
	<path d="M383.5,242.9h0.4c0,0.1,0.1,0.3,0.1,0.5c0,0.2,0,0.4-0.1,0.5h-0.4c0,0.1,0.1,0.3,0.1,0.5c0,0.2,0,0.4-0.1,0.5
		c0,0.1,0.1,0.3,0.1,0.5c0,0.2,0,0.4-0.1,0.5c0,0.1,0.1,0.3,0.1,0.5c0,0.2,0,0.4-0.1,0.5h-1c0-0.1-0.1-0.3-0.1-0.5
		c0-0.2,0-0.4,0.1-0.5c0-0.1-0.1-0.3-0.1-0.5c0-0.2,0-0.4,0.1-0.5c0-0.1-0.1-0.3-0.1-0.5c0-0.2,0-0.4,0.1-0.5c0-0.1-0.1-0.3-0.1-0.5
		c0-0.2,0-0.4,0.1-0.5c0-0.1-0.1-0.3-0.1-0.5c0-0.2,0-0.4,0.1-0.5c0-0.1-0.1-0.3-0.1-0.5c0-0.2,0-0.4,0.1-0.5c0-0.1-0.1-0.3-0.1-0.5
		c0-0.2,0-0.4,0.1-0.5h1c0,0.1,0.1,0.3,0.1,0.5c0,0.2,0,0.4-0.1,0.5c0,0.1,0.1,0.3,0.1,0.5c0,0.2,0,0.4-0.1,0.5
		c0,0.1,0.1,0.3,0.1,0.5C383.5,242.6,383.5,242.8,383.5,242.9z M386.6,244.5c0,0.2,0,0.4-0.1,0.5c0,0.1,0.1,0.3,0.1,0.5
		c0,0.2,0,0.4-0.1,0.5c0,0.1,0.1,0.3,0.1,0.5c0,0.2,0,0.4-0.1,0.5h-1c0-0.1-0.1-0.3-0.1-0.5c0-0.2,0-0.4,0.1-0.5
		c0-0.1-0.1-0.3-0.1-0.5c0-0.2,0-0.4,0.1-0.5c0-0.1-0.1-0.3-0.1-0.5c0-0.2,0-0.4,0.1-0.5c0-0.1-0.1-0.3-0.1-0.5c0-0.2,0-0.4,0.1-0.5
		h-1.7c0-0.1-0.1-0.3-0.1-0.5c0-0.2,0-0.4,0.1-0.5h2.1c0,0.1,0.1,0.3,0.1,0.5c0,0.2,0,0.4-0.1,0.5h0.6c0,0.1,0.1,0.3,0.1,0.5
		c0,0.2,0,0.4-0.1,0.5C386.6,244.1,386.6,244.2,386.6,244.5z"/>
	<path d="M391.8,243.9c0,0.1,0.1,0.3,0.1,0.5c0,0.2,0,0.4-0.1,0.5H389c0,0.1,0.1,0.3,0.1,0.5c0,0.2,0,0.4-0.1,0.5h2.2
		c0,0.1,0.1,0.3,0.1,0.5c0,0.2,0,0.4-0.1,0.5h-2.6c0-0.1-0.1-0.3-0.1-0.5c0-0.2,0-0.4,0.1-0.5H388c0-0.1-0.1-0.3-0.1-0.5
		c0-0.2,0-0.4,0.1-0.5h-0.4c0-0.1-0.1-0.3-0.1-0.5c0-0.2,0-0.4,0.1-0.5h0.4c0-0.1-0.1-0.3-0.1-0.5c0-0.2,0-0.4,0.1-0.5h0.6
		c0-0.1-0.1-0.3-0.1-0.5c0-0.2,0-0.4,0.1-0.5h2.6c0,0.1,0.1,0.3,0.1,0.5c0,0.2,0,0.4-0.1,0.5h0.5c0,0.1,0.1,0.3,0.1,0.5
		C391.8,243.6,391.8,243.8,391.8,243.9z M390.7,243.4c0-0.2,0-0.4,0.1-0.5H389c0,0.1,0.1,0.3,0.1,0.5c0,0.2,0,0.4-0.1,0.5h1.7
		C390.7,243.8,390.7,243.6,390.7,243.4z"/>
	<path d="M397,243.4c0,0.2,0,0.4-0.1,0.5h-1c0-0.1-0.1-0.3-0.1-0.5c0-0.2,0-0.4,0.1-0.5H395c0,0.1,0.1,0.3,0.1,0.5
		c0,0.2,0,0.4-0.1,0.5h-0.4c0,0.1,0.1,0.3,0.1,0.5c0,0.2,0,0.4-0.1,0.5c0,0.1,0.1,0.3,0.1,0.5c0,0.2,0,0.4-0.1,0.5h0.8
		c0,0.1,0.1,0.3,0.1,0.5c0,0.2,0,0.4-0.1,0.5h-2.6c0-0.1-0.1-0.3-0.1-0.5c0-0.2,0-0.4,0.1-0.5h0.8c0-0.1-0.1-0.3-0.1-0.5
		c0-0.2,0-0.4,0.1-0.5c0-0.1-0.1-0.3-0.1-0.5c0-0.2,0-0.4,0.1-0.5c0-0.1-0.1-0.3-0.1-0.5c0-0.2,0-0.4,0.1-0.5h-0.8
		c0-0.1-0.1-0.3-0.1-0.5c0-0.2,0-0.4,0.1-0.5h1.3c0,0.1,0.1,0.3,0.1,0.5c0,0.2,0,0.4-0.1,0.5h0.5c0-0.1-0.1-0.3-0.1-0.5
		c0-0.2,0-0.4,0.1-0.5h1.9c0,0.1,0.1,0.3,0.1,0.5c0,0.2,0,0.4-0.1,0.5h0.4C397,243,397,243.2,397,243.4z"/>
	<path d="M402.1,243.9c0,0.1,0.1,0.3,0.1,0.5c0,0.2,0,0.4-0.1,0.5h-2.7c0,0.1,0.1,0.3,0.1,0.5c0,0.2,0,0.4-0.1,0.5h2.2
		c0,0.1,0.1,0.3,0.1,0.5c0,0.2,0,0.4-0.1,0.5H399c0-0.1-0.1-0.3-0.1-0.5c0-0.2,0-0.4,0.1-0.5h-0.6c0-0.1-0.1-0.3-0.1-0.5
		c0-0.2,0-0.4,0.1-0.5H398c0-0.1-0.1-0.3-0.1-0.5c0-0.2,0-0.4,0.1-0.5h0.4c0-0.1-0.1-0.3-0.1-0.5c0-0.2,0-0.4,0.1-0.5h0.6
		c0-0.1-0.1-0.3-0.1-0.5c0-0.2,0-0.4,0.1-0.5h2.6c0,0.1,0.1,0.3,0.1,0.5c0,0.2,0,0.4-0.1,0.5h0.5c0,0.1,0.1,0.3,0.1,0.5
		C402.1,243.6,402.1,243.8,402.1,243.9z M401,243.4c0-0.2,0-0.4,0.1-0.5h-1.7c0,0.1,0.1,0.3,0.1,0.5c0,0.2,0,0.4-0.1,0.5h1.7
		C401,243.8,401,243.6,401,243.4z"/>
</g>
</svg>
