<?xml version="1.0" encoding="utf-8"?>
<!-- Generator: Adobe Illustrator 21.1.0, SVG Export Plug-In . SVG Version: 6.00 Build 0)  -->
<svg version="1.1" id="Layer_1" xmlns="http://www.w3.org/2000/svg" xmlns:xlink="http://www.w3.org/1999/xlink" x="0px" y="0px"
	 viewBox="0 0 1820 1820" style="enable-background:new 0 0 1820 1820;" xml:space="preserve">
<style type="text/css">
	.st0{clip-path:url(#SVGID_2_);}
	.st1{clip-path:url(#SVGID_4_);}
</style>
<image style="overflow:visible;" width="2056" height="966" xlink:href="proj2background.png"  transform="matrix(0.7121 0 0 0.7121 178 438.0739)">
</image>
<g>
	<defs>
		<polygon id="SVGID_1_" points="178,894.6 208,919.8 246,907.2 298,885.6 354,894.6 400,919.8 438,894.6 456,840.5 490,824.3 
			540,815.3 614,806.3 668,806.3 718,840.5 774,863.1 774,806.3 808,779.2 864,754 932,779.2 976,822.5 1026,809.9 1138,824.3 
			1168,853.1 1250,860.4 1286,894.6 1348,864 1422,858.6 1478,876.6 1528,907.2 1614,919.8 1642,988.3 1642,1265.1 178,1265.1 		"/>
	</defs>
	<clipPath id="SVGID_2_">
		<use xlink:href="#SVGID_1_"  style="overflow:visible;"/>
	</clipPath>
	<g id="YuSAhK.tif" class="st0">
		
			<image style="overflow:visible;" width="3499" height="2333" id="Layer_0_1_" xlink:href="83B7F6372F63F395.png"  transform="matrix(1 0 0 0.9013 -758 312.3415)">
		</image>
	</g>
</g>
<title>preview_proj2</title>
<g>
	<defs>
		<path id="SVGID_3_" d="M178,934.4l26,14.3h24l30-14.3l30-10.8h28l36,25.1l42,10.8l34,21.5l30-28.7v-43l30-48.4l26,12.5l18-37.6h58
			v34.1l38-34.1h52l14,35.8l44,9l38,16.1v25.1l26-25.4v-35.6l42-78.9l54,21.5l30,41.2l28,66.3l18,30.5l18-32.3l20-27.8l-10-35l42-9
			c0,0,34,12.5,36,17.9s24,41,24,41l28,36.1l24,3.6v-32.3l60-22.4l36,15.2l14,55.6l38,5.4l28-23.3l10-52.9l52-9.9l38,24.8l42,43.3
			l40,3.6l82,1.8l46,44.8v275.2H178V934.4z"/>
	</defs>
	<clipPath id="SVGID_4_">
		<use xlink:href="#SVGID_3_"  style="overflow:visible;"/>
	</clipPath>
	<g id="ziJOC1.tif" class="st1">
		
			<image style="overflow:visible;" width="2001" height="1049" xlink:href="83B7F6372F63F39B.png"  transform="matrix(0.732 0 0 0.732 177.876 497.2759)">
		</image>
	</g>
</g>
</svg>
