<?xml version="1.0" encoding="utf-8"?>
<!-- Generator: Adobe Illustrator 21.1.0, SVG Export Plug-In . SVG Version: 6.00 Build 0)  -->
<svg version="1.1" id="Layer_1" xmlns="http://www.w3.org/2000/svg" xmlns:xlink="http://www.w3.org/1999/xlink" x="0px" y="0px"
	 viewBox="0 0 1820 1820" style="enable-background:new 0 0 1820 1820;" xml:space="preserve">
<style type="text/css">
	.st0{clip-path:url(#SVGID_2_);}
	.st1{clip-path:url(#SVGID_4_);}
</style>
<g>
	<defs>
		<rect id="SVGID_1_" x="178" y="459.2" width="1400" height="862.2"/>
	</defs>
	<clipPath id="SVGID_2_">
		<use xlink:href="#SVGID_1_"  style="overflow:visible;"/>
	</clipPath>
	<g id="r90XVt.tif" class="st0">
		
			<image style="overflow:visible;" width="2000" height="1293" id="Layer_0_1_" xlink:href="93DF05B9D11648B2.png"  transform="matrix(1 0 0 1 52 92)">
		</image>
	</g>
</g>
<title>preview_proj3</title>
<g>
	<defs>
		<polygon id="SVGID_3_" points="1441.8,1321.4 1463.9,1268.9 1441.8,1142.8 1424.9,910 1340.9,794.8 1259.9,770.8 1157.8,770.8 
			974.8,722.8 878,626.8 773.8,609.5 623.8,587.8 479.8,527.8 374.8,563.8 323.8,609.5 221.8,641.8 134.7,731.8 155.7,910.5 
			179.7,1097.8 149.7,1298.9 178,1321.4 		"/>
	</defs>
	<clipPath id="SVGID_4_">
		<use xlink:href="#SVGID_3_"  style="overflow:visible;"/>
	</clipPath>
	<g id="ihRWii.tif" class="st1">
		
			<image style="overflow:visible;" width="3000" height="2281" id="Layer_0_2_" xlink:href="93DF05B9D11648B6.png"  transform="matrix(0.5664 0 0 0.5664 61.3604 264.4907)">
		</image>
	</g>
</g>
<g>
	<defs>
		<polygon id="SVGID_5_" points="1441.8,1321.4 1404,1158.6 1381,942.7 1318.1,823.2 1217.5,804.4 1121.1,837.9 1001.7,770.8 
			905.2,747.8 890.6,684.9 800.5,657.7 702,632.5 599.3,632.5 521.7,609.5 396,624.1 377.1,691.2 289.1,684.9 222,743.6 199,821.1 
			199,949 224.1,1108.3 178,1215.1 178,1321.4 		"/>
	</defs>
	<clipPath id="SVGID_6_">
		<use xlink:href="#SVGID_5_"  style="overflow:visible;"/>
	</clipPath>
	<g style="clip-path:url(#SVGID_6_);enable-background:new    ;">
		
			<image style="overflow:visible;" width="997" height="561" xlink:href="93DF05B9D11648B6.png"  transform="matrix(1.5387 0 0 1.5369 178 459.202)">
		</image>
	</g>
</g>
</svg>
