<svg id="Layer_1" data-name="Layer 1" xmlns="http://www.w3.org/2000/svg" viewBox="0 0 112.74 382.55">
  <defs>
    <style>
      .cls-1 {
        fill: none;
        stroke: #000;
        stroke-linecap: round;
        stroke-linejoin: round;
        stroke-width: 2px;
      }
    </style>
  </defs>
  <title>TopSketch</title>
  <g>
    <path class="cls-1" d="M180.23,44.89a13.68,13.68,0,0,1-4.13.59,9.46,9.46,0,0,0-3.59.86A56.35,56.35,0,0,1,165.57,49a37.14,37.14,0,0,0-6.33,2.93c-1.3.7-2.69,1-4,1.58A52.21,52.21,0,0,0,147.88,58c-3.44,2.21-5.91,5.39-8.94,8-2.37,2-3.35,5.07-4.84,7.71-0.43.77-1,1.45-1.37,2.22-1.88,3.73-4.15,7.32-4.51,11.64-0.1,1.24,0,2.5,0,3.76,0,3.15-.17,6.3.72,9.4a12.53,12.53,0,0,1,.21,3,6.79,6.79,0,0,0,.86,3.24,31.47,31.47,0,0,1,2.3,6.16c0.29,1,.52,1.9,1.55,2.22S134,116.82,135,117" transform="translate(-121.46 -26)"/>
    <path class="cls-1" d="M126.33,312.93a9.88,9.88,0,0,0,4.13.77q11.17-.06,22.35,0c10.14,0,20.29,0,30.43.24,5.13,0.13,10.27,0,15.41.22,3.17,0.16,6.38.12,9.57,0a20.61,20.61,0,0,1,3.19-.28c4.82,0.61,9.66-.88,14.46.18,0.66,0.15,1.09-.44,1.77-0.39-0.85-4.41-2.16-8.55-5.9-11.46a10.09,10.09,0,0,0-7.33-2.49c-1.48.13-3-.3-4.5-0.31-5.88,0-11.78.21-17.65-.07-11-.51-22-0.11-33.06-0.38-4.51-.11-9,0-13.52,0-1.38,0-2.76-.19-4.19-0.29L140.23,300" transform="translate(-121.46 -26)"/>
    <path class="cls-1" d="M209.16,119.45c-2.9.8-4.65,3.23-6.94,4.9a19.27,19.27,0,0,1-10,3.37c-1.38.12-2.77,0.16-4.13,0.39-3,.51-6,0.07-9,0.54-1,.16-1.94-0.61-2.81-0.51-6.72.77-11.64-3.38-17.11-6-1.78-.87-2.45-2.69-3.71-4-4.13-4.29-6.44-9.75-9-15-1.52-3.07-1.72-6.55-2.83-9.76" transform="translate(-121.46 -26)"/>
    <path class="cls-1" d="M160.14,380.32c-3.56-.43-7.14,0-10.71-0.29-2-.14-4,0.34-6,0.3a84.86,84.86,0,0,0-13.52.74" transform="translate(-121.46 -26)"/>
    <path class="cls-1" d="M175.91,157.21c-0.07,5.67-1.08,11.33-1,17,0,3.19-.34,6.36-0.24,9.56a63.14,63.14,0,0,1-.4,10.55c-0.27,2-.14,4-0.23,6-0.17,3.43-.42,6.86-0.54,10.3s-0.11,7-.21,10.54c-0.06,1.9-.32,3.8-0.34,5.71,0,1.45.22,2.89,0.35,4.34" transform="translate(-121.46 -26)"/>
    <path class="cls-1" d="M183.42,96.16c1.31-1.3,2.53-2.54,1.73-4.71-0.69-1.87-2.62-3.08-5.86-3a3.91,3.91,0,0,0-3.9,3.92,4.78,4.78,0,0,0,2.24,4.45c1.62,0.94,3.48,1.41,5.23.05" transform="translate(-121.46 -26)"/>
    <path class="cls-1" d="M201.55,50.15c1.53,1.9,3.67,3,5.74,4.11a37.12,37.12,0,0,1,10.39,8.22,22.3,22.3,0,0,1,3.91,5.68c1,2.23,3,3.72,4.46,5.66a7.52,7.52,0,0,1,.57,1.12" transform="translate(-121.46 -26)"/>
    <path class="cls-1" d="M183.42,209.25a11.61,11.61,0,0,0-.14,4.13c0.18,7.83-.27,15.65-0.24,23.48,0,1.44-.44,2.88,0,4.32" transform="translate(-121.46 -26)"/>
    <path class="cls-1" d="M186.81,242.87c3.5,0.33,7,.06,10.52.21,2.57,0.11,5.14.46,7.7,0.73a5.88,5.88,0,0,1,2.82,1.5,15,15,0,0,1,5.25,7.51c0.39,1.19.33,1.21-.74,1.5" transform="translate(-121.46 -26)"/>
    <path class="cls-1" d="M180.42,59.73a21,21,0,0,1,7.52.14,22.45,22.45,0,0,0,4.12.06,16.26,16.26,0,0,1,8.23,3,33,33,0,0,0,3.59,1.66c3.16,1.55,4.44,4.66,6,7.5a41.3,41.3,0,0,1,4.32,12.39c0.15,0.83,1.32,1.41.58,2.44" transform="translate(-121.46 -26)"/>
    <path class="cls-1" d="M157.88,402.29l-17.09.94" transform="translate(-121.46 -26)"/>
    <path class="cls-1" d="M213.1,254.7c0.72,4.74.44,9.52,0.31,14.27-0.11,4.2-.4,8.38-0.16,12.59,0.12,2-.14,4-0.15,6a32.61,32.61,0,0,0,.19,6,2.76,2.76,0,0,1-.39,1.13" transform="translate(-121.46 -26)"/>
    <path class="cls-1" d="M129,106.31c-1.12,1.25-.52,2.79-0.49,4.13,0.06,2.32-.08,4.63-0.08,7,0,5.13,0,10.27,0,15.4q0,4.41,0,8.83c0,0.46.16,1-.56,1.13" transform="translate(-121.46 -26)"/>
    <path class="cls-1" d="M151.5,244.37a61.86,61.86,0,0,0-7.87,5.66,6.16,6.16,0,0,0-2.4,4.85C141,258,141.07,261,141,264.09s0.16,6-.06,9c-0.31,4.26-.19,8.52-0.39,12.78a49.62,49.62,0,0,0,.26,9.94c0.14,0.88-.72,1.82.17,2.63" transform="translate(-121.46 -26)"/>
    <path class="cls-1" d="M181.92,403a23.09,23.09,0,0,1,5.45-.43,51.9,51.9,0,0,0,5.82-.13c3.83-.09,7.65.65,11.45,0.48,3.5-.16,7,0.24,10.54-0.6,2.16-.51,4.49,0,6.76-0.34a4.68,4.68,0,0,1,2.24-.31,0.79,0.79,0,0,0,.37-0.18c0,0.06,0,.13,0,0.19a1.87,1.87,0,0,1-.19,2.07" transform="translate(-121.46 -26)"/>
    <path class="cls-1" d="M185.12,160.43a2.75,2.75,0,0,0-.75,2.11c0,6.62-.58,13.23-0.39,19.85,0.1,3.31.07,6.62,0,9.92s-0.36,6.87-.32,10.3c0,2-.34,4-0.15,6.08a54.66,54.66,0,0,1-.09,5.58" transform="translate(-121.46 -26)"/>
    <path class="cls-1" d="M142.48,130.16c0.7,2.19,3,2.16,4.54,3.14,2,1.26,4.11,2.29,6.2,3.37a45.57,45.57,0,0,0,6.18,2.29,1.28,1.28,0,0,0,.56-0.35" transform="translate(-121.46 -26)"/>
    <path class="cls-1" d="M167.65,242.87c-3.31-.31-6.64-0.14-10-0.19-2,0-3.71.81-5.54,1.32" transform="translate(-121.46 -26)"/>
    <path class="cls-1" d="M129,400c0.13,1-.66,1.71-0.8,2.85a120.69,120.69,0,0,0,12.26.34" transform="translate(-121.46 -26)"/>
    <path class="cls-1" d="M157.13,364.35c-0.13.88-1,1-1.54,1.47a5.3,5.3,0,0,0-1.23,3.61c-0.11,1.24,1.53,2.17,2.76,1.66a7.74,7.74,0,0,0,1.51-1.1" transform="translate(-121.46 -26)"/>
    <path class="cls-1" d="M136.09,341.66H125.58" transform="translate(-121.46 -26)"/>
    <path class="cls-1" d="M185.87,162.28c-1.12-1.08-.37-2.52-0.7-3.77-0.25-1-.07-1.41-1.54-1.62-3.36-.49-6.66.11-10-0.05" transform="translate(-121.46 -26)"/>
    <path class="cls-1" d="M178,137.86a28.26,28.26,0,0,1,.53,3.57c0,1.48.76,1.88,2.1,1.89,4.51,0,9,.1,13.52.18,0.81,0,1.63.12,2.44,0.18" transform="translate(-121.46 -26)"/>
    <path class="cls-1" d="M172.39,376.33l-1.56,2.42c0.39,0.91,1.29.86,1.94,0.92,1.07,0.1,2.09.22,2.41,1.37s-0.52,1.68-1.28,2.25a0.79,0.79,0,0,1-.77.36,3.87,3.87,0,0,1-.35-5c0.24-.37.74-0.59,0.36-1.14" transform="translate(-121.46 -26)"/>
    <path class="cls-1" d="M128.58,27q-0.09,23.77-.18,47.53c0,2.71-.18,5.64.37,7.92" transform="translate(-121.46 -26)"/>
    <path class="cls-1" d="M201.83,50.71a3.28,3.28,0,0,1-3.23-.52,14.15,14.15,0,0,0-6-2.49" transform="translate(-121.46 -26)"/>
    <path class="cls-1" d="M127.08,356.46c-1,3.12-.24,6.13.31,9.22,0.28,1.53.35,3.13,0.63,4.68" transform="translate(-121.46 -26)"/>
    <path class="cls-1" d="M186.81,148.57a15.05,15.05,0,0,1-2.31,6.07c-1.22-.54-1.66-1.86-2.57-2.69" transform="translate(-121.46 -26)"/>
    <path class="cls-1" d="M160.14,343.73l-1.88-2.64c-1.13.55-2.26-.17-3.38,0-3,.49-6.2-0.29-9.21.72a3.26,3.26,0,0,1-1.31-.16" transform="translate(-121.46 -26)"/>
    <path class="cls-1" d="M162,397.5a38.65,38.65,0,0,1,1.69,8.83" transform="translate(-121.46 -26)"/>
    <path class="cls-1" d="M164.39,376.75c-0.83-.4-1.18.34-1.48,0.77-1.33,1.92.27,5.63,2.6,6.18,1.56,0.37,3.46-1.43,3.38-3.19-0.06-1.22-1.28-3.12-2.07-3.19-0.44,0-.86,0-0.94.56" transform="translate(-121.46 -26)"/>
    <path class="cls-1" d="M172,150.07a3.23,3.23,0,0,1-1.09,1.54c-1.3,1.17-1,2,.51,3a4.12,4.12,0,0,0,3.4.35" transform="translate(-121.46 -26)"/>
    <path class="cls-1" d="M140.6,319.5a45.56,45.56,0,0,0,.23,4.69,16.32,16.32,0,0,1,0,3.76" transform="translate(-121.46 -26)"/>
    <path class="cls-1" d="M180,376.56c-1.44-.07-1.85.46-1.89,2.25,0,1.47,1,.94,1.7.94,1,0,2.07-.26,2.58,1-0.68,1.78-2.27,1.84-3.9,1.79" transform="translate(-121.46 -26)"/>
    <path class="cls-1" d="M207.84,132.41c-2,2.59-5.07,3.23-7.89,4.32" transform="translate(-121.46 -26)"/>
    <path class="cls-1" d="M173.28,232.54c-0.06,1.38-.56,2.94-0.08,4.09,0.63,1.51,0,2.8.08,4.18" transform="translate(-121.46 -26)"/>
    <path class="cls-1" d="M133.09,115.32a3.89,3.89,0,0,0,.53,2.65,21.85,21.85,0,0,0,3.66,5.18,60.66,60.66,0,0,1,4.82,5.13" transform="translate(-121.46 -26)"/>
    <path class="cls-1" d="M199,262.22a8.75,8.75,0,0,1-.18-3c0-2.05-.27-2.36-2.26-2.62a8.73,8.73,0,0,0-1.13,0" transform="translate(-121.46 -26)"/>
    <path class="cls-1" d="M126.89,381.44c-1,1.57-.52,3.4-0.65,5.08-0.08,1-.26,2-0.29,3" transform="translate(-121.46 -26)"/>
    <path class="cls-1" d="M126,335.09c0,2.11.25,4.26-.84,6.17,1.76,2.93.13,6.2,0.84,9.23" transform="translate(-121.46 -26)"/>
    <path class="cls-1" d="M230.76,115.13c0,2.57,0,5.13,0,7.7,0,3.88.2,7.76-.08,11.65a9.62,9.62,0,0,0-.29,2.43" transform="translate(-121.46 -26)"/>
    <path class="cls-1" d="M184.18,379.75a38.74,38.74,0,0,0,9,.12c3.21-.46,6.25.6,9.4,0.51,0.84,0,1.75.07,2.63,0.11,1.44,0.06,2.94-.17,4.13,1" transform="translate(-121.46 -26)"/>
    <path class="cls-1" d="M140.23,347.3a2.58,2.58,0,0,0,3.4-1.12c0.45-1-.12-1.32-0.77-1.7a4.63,4.63,0,0,0-2.44-.38c-0.74-4-.68-4.11,1.69-4.13" transform="translate(-121.46 -26)"/>
    <path class="cls-1" d="M180,59.54c-2.71-1-5.51-.46-8.26-0.34-2.51.1-5,.47-7.51,0.72" transform="translate(-121.46 -26)"/>
    <path class="cls-1" d="M134.22,301.28c-3.64,2.41-5.52,6.21-7.7,9.77a1.46,1.46,0,0,0-.09.19c-1.09,2.54-1.09,2.54-3.85,2.25" transform="translate(-121.46 -26)"/>
    <path class="cls-1" d="M214.23,87a3.72,3.72,0,0,1,1.26,3.75,26.35,26.35,0,0,0,.05,3.2" transform="translate(-121.46 -26)"/>
    <path class="cls-1" d="M165,151.57a8.9,8.9,0,0,1-1.79,4c-1.35-.65-1.69-2.15-2.56-3.22s-1.49-2.45-3.17-2.46" transform="translate(-121.46 -26)"/>
    <path class="cls-1" d="M155.82,334.34a29.2,29.2,0,0,0,.38,6.76" transform="translate(-121.46 -26)"/>
    <path class="cls-1" d="M126.14,320.06c0.13,2,.89,5.2-0.72,6.74" transform="translate(-121.46 -26)"/>
    <path class="cls-1" d="M173.28,269l-0.19,6.76" transform="translate(-121.46 -26)"/>
    <path class="cls-1" d="M148,367.17c-0.18-.91-0.95-0.92-1.6-0.92-5,0-9.92-.45-14.84.55" transform="translate(-121.46 -26)"/>
    <path class="cls-1" d="M195.4,367.17c-0.21-.91-1.09-0.92-1.84-0.92-5.69,0-11.41-.45-17.06.55" transform="translate(-121.46 -26)"/>
    <path class="cls-1" d="M171.78,141.8a2.45,2.45,0,0,0,0,.54c2.29,0.46,4.56,1.24,6.94.59" transform="translate(-121.46 -26)"/>
    <path class="cls-1" d="M198.26,359.09c0.38,2.19,1.2,4.38,0,6.57" transform="translate(-121.46 -26)"/>
    <path class="cls-1" d="M169,367.23c3.49-.73,4.75,4.17,1.71,3.32" transform="translate(-121.46 -26)"/>
    <path class="cls-1" d="M176.29,29.86a1.9,1.9,0,0,1-1.51,1.28c-1.78.18-2,1.68-2.4,2.86a1.84,1.84,0,0,0,1.84,2.25c0.56,0,1.13-.46,1.69,0" transform="translate(-121.46 -26)"/>
    <path class="cls-1" d="M145.86,84.71c-1.91,2.45-1.92,5.37-2.07,8.26" transform="translate(-121.46 -26)"/>
    <path class="cls-1" d="M213.1,100.86l1.74-.6a5.48,5.48,0,0,1,.5,3.41,15.22,15.22,0,0,1-1.08,6.21,9.29,9.29,0,0,1-2,2.72c-0.55.54,0.08,2.09-.48,3.09a13.75,13.75,0,0,1-2.25,3.39" transform="translate(-121.46 -26)"/>
    <path class="cls-1" d="M164.64,31.37c-0.82,1.87-.4,4.09-1.77,5.92-2.1-1.39-3-3.76-4.62-5.55" transform="translate(-121.46 -26)"/>
    <path class="cls-1" d="M162.76,61c-2.54.37-4.39,1.93-6.2,3.57" transform="translate(-121.46 -26)"/>
    <path class="cls-1" d="M154.12,284.75a1.33,1.33,0,0,1,1.39,1.49,23.87,23.87,0,0,1-.26,4.89" transform="translate(-121.46 -26)"/>
    <path class="cls-1" d="M154.12,246.63a1.33,1.33,0,0,1,1.39,1.49,23.87,23.87,0,0,1-.26,4.89" transform="translate(-121.46 -26)"/>
    <path class="cls-1" d="M148.11,33.62a1.29,1.29,0,0,1-1.31-.38c-0.95-1.59-2.64-.91-4-1.24a1.27,1.27,0,0,0-1.52,1.24c-0.11,1.38,1,1.37,1.74,1.65a4.09,4.09,0,0,0,1.67-.14" transform="translate(-121.46 -26)"/>
    <path class="cls-1" d="M148.3,147.44c0.14,2.69,1.33,5.11,1.92,7.69,0.28,1.21,1.57,1.38,2.77.57" transform="translate(-121.46 -26)"/>
    <path class="cls-1" d="M191.88,47c-1.31.92-2.81,0.38-3.9-.09C186.06,46,184,46,182.09,45.53c-1-.27-1.83-0.27-1.89-1.58a4.25,4.25,0,0,0-.54-1.32" transform="translate(-121.46 -26)"/>
    <path class="cls-1" d="M125.58,397a12,12,0,0,0,.42,5.46c0.25,1.13-.49,2.35-0.06,3.56,0.19,0.54.06,1.22,0.76,1.5" transform="translate(-121.46 -26)"/>
    <path class="cls-1" d="M230,89.59a2.19,2.19,0,0,1,.63.19c0,1.89.86,3.64,0.56,5.64-0.5,3.34-.57,6.75-0.82,10.13,0,0.44-.12.88-0.18,1.32" transform="translate(-121.46 -26)"/>
    <path class="cls-1" d="M214.6,96.35c-0.27-1.69-.27-1.69,1.33-2.34-0.07,2.12.19,4.16-.77,6.09" transform="translate(-121.46 -26)"/>
    <path class="cls-1" d="M129,34a35.34,35.34,0,0,0,.19,5.63" transform="translate(-121.46 -26)"/>
    <path class="cls-1" d="M171.59,142.74c-1.73,1-3.65.34-5.45,0.45-1.47.09-3,0-4.5,0.11" transform="translate(-121.46 -26)"/>
    <path class="cls-1" d="M154.5,257.15c1.18,0.45,2.31,2,1.83,3-0.85,1.75-.33,3.53-0.51,5.28" transform="translate(-121.46 -26)"/>
    <path class="cls-1" d="M181.73,30.24a14.28,14.28,0,0,0,2.66,5.12c1.05-.32,1.17-1.44,2.06-1.75,0.82,0.2,1,1.16,1.67,1.51" transform="translate(-121.46 -26)"/>
    <path class="cls-1" d="M140.23,300.53c-0.26-1.57-1.7-1-2.45-1s-2.05-.27-2.81.64" transform="translate(-121.46 -26)"/>
    <path class="cls-1" d="M149.05,34.93c-0.1,1.87.9,3.41,1.5,5.07" transform="translate(-121.46 -26)"/>
    <path class="cls-1" d="M130.08,145.94a3.2,3.2,0,0,0-3.73,2.82,3.38,3.38,0,0,0,.17,2.06" transform="translate(-121.46 -26)"/>
    <path class="cls-1" d="M126.14,327.77l0.38,5.82" transform="translate(-121.46 -26)"/>
    <path class="cls-1" d="M174,244.94l-0.19,4.88" transform="translate(-121.46 -26)"/>
    <path class="cls-1" d="M166.52,32.12L169.15,37" transform="translate(-121.46 -26)"/>
    <path class="cls-1" d="M126.7,151.19a1.91,1.91,0,0,1,1.18,1.69,12.1,12.1,0,0,0,2.2,5.45" transform="translate(-121.46 -26)"/>
    <path class="cls-1" d="M199.2,98.23c0.27,2-.93,3.38-1.88,4.88" transform="translate(-121.46 -26)"/>
    <path class="cls-1" d="M230.76,108.37l-0.19,4.88" transform="translate(-121.46 -26)"/>
    <path class="cls-1" d="M140.56,327.94c1.44,0.43-.25,7-0.14,8.65" transform="translate(-121.46 -26)"/>
    <path class="cls-1" d="M151.5,33.24a3.87,3.87,0,0,0-1-1.27,1,1,0,0,0-1.5.12,1.76,1.76,0,0,0-.54,1.9,0.89,0.89,0,0,0,1.33.62c0.7-.24,1.61,0,1.48-1.18" transform="translate(-121.46 -26)"/>
    <path class="cls-1" d="M167.46,107.06c1.56,1.2,3.4,2,4.7,3.57" transform="translate(-121.46 -26)"/>
    <path class="cls-1" d="M178.92,72.31a11.8,11.8,0,0,0-4.12.61,2.35,2.35,0,0,1-1.52-.24" transform="translate(-121.46 -26)"/>
    <path class="cls-1" d="M141.54,128.84a2.09,2.09,0,0,1,.36-0.36c1.6,1,3.36,1.89,4,3.93" transform="translate(-121.46 -26)"/>
    <path class="cls-1" d="M173.66,257.33l-0.38,4.51" transform="translate(-121.46 -26)"/>
    <path class="cls-1" d="M183.42,74.19c1.13,0.32,2.35.23,3.39,0.92a0.9,0.9,0,0,1,.36,1" transform="translate(-121.46 -26)"/>
    <path class="cls-1" d="M226.62,394.78c1,1.84.75,3.85,0.74,5.82s-1.7.73-2.43,1.31" transform="translate(-121.46 -26)"/>
    <path class="cls-1" d="M162.76,256.58a17.3,17.3,0,0,0-4.51.19" transform="translate(-121.46 -26)"/>
    <path class="cls-1" d="M135.85,328.33c-0.83,1.75-1.2,1.85-3.76.94" transform="translate(-121.46 -26)"/>
    <path class="cls-1" d="M212,112.69a4.37,4.37,0,0,0-2.08,2.06,27.58,27.58,0,0,0-2.62,5.27" transform="translate(-121.46 -26)"/>
    <path class="cls-1" d="M152.62,366.42c-1.41.48-2.9-.16-4.32,0.28" transform="translate(-121.46 -26)"/>
    <path class="cls-1" d="M218.73,124.15a16.09,16.09,0,0,0-3.38,3.38" transform="translate(-121.46 -26)"/>
    <path class="cls-1" d="M181.36,45.83c-0.58,1.5.4,2.87,0.38,4.32" transform="translate(-121.46 -26)"/>
    <path class="cls-1" d="M191.31,31.93c-0.38-.2-1-0.3-1.09,0-0.47,1.4-1.79,2.38-1.92,3.93" transform="translate(-121.46 -26)"/>
    <path class="cls-1" d="M136.28,28.74l0.38,4.13" transform="translate(-121.46 -26)"/>
    <path class="cls-1" d="M173.66,112.32c1.31,0.6,2.79.29,4.13,0.75" transform="translate(-121.46 -26)"/>
    <path class="cls-1" d="M213.1,376.75c-0.42,1.41.87,3-.56,4.31l-1.88.19" transform="translate(-121.46 -26)"/>
    <path class="cls-1" d="M139.1,32.68a8.56,8.56,0,0,0-2.85.45c1.15,3.81,2.41,4,5.1,3.12" transform="translate(-121.46 -26)"/>
    <path class="cls-1" d="M135.72,118.51c0.41,1.44,1.93,2.43,1.69,4.13" transform="translate(-121.46 -26)"/>
    <path class="cls-1" d="M227.19,401.91c1.11,1.25.33,2.76,0.56,4.13" transform="translate(-121.46 -26)"/>
    <path class="cls-1" d="M212.91,381.63c1.11,1.25.33,2.76,0.56,4.13" transform="translate(-121.46 -26)"/>
    <path class="cls-1" d="M196.38,365.85c2.37,0,2.41,0,2.61,2.44,0.07,0.86.77,1.54,0.58,2.44" transform="translate(-121.46 -26)"/>
    <path class="cls-1" d="M130.21,362.1L129.46,366" transform="translate(-121.46 -26)"/>
    <path class="cls-1" d="M126.14,375.62c-0.06.75-.08,1.51-0.2,2.25-0.55,3.61.73,3.71,3.58,3.19" transform="translate(-121.46 -26)"/>
    <path class="cls-1" d="M125.53,327.18c0.46,0.92,1,.32,1.46.39l1.44,0.21" transform="translate(-121.46 -26)"/>
    <path class="cls-1" d="M124.27,327.2c-0.13,1.36-1.43,2.31-1.31,3.76" transform="translate(-121.46 -26)"/>
    <path class="cls-1" d="M177.41,151.38c1.52,0.36,1.24,2.51,2.82,2.82,1-.16.65-1.69,1.78-1.69" transform="translate(-121.46 -26)"/>
    <path class="cls-1" d="M206,70.81c0.49,1.2,1.56,2.08,1.88,3.38" transform="translate(-121.46 -26)"/>
    <path class="cls-1" d="M150.93,70.24c-0.65,1.21-1.72,2.18-2.07,3.57" transform="translate(-121.46 -26)"/>
    <path class="cls-1" d="M143.8,323.82c-0.9,1.25-.77,3.84-2.23,4.45" transform="translate(-121.46 -26)"/>
    <path class="cls-1" d="M130.84,92.41c-2.07,1.11-4.26.16-6.39,0.38" transform="translate(-121.46 -26)"/>
    <path class="cls-1" d="M166.52,150.82c0.39,1.18,1.34,2.1,1.5,3.38" transform="translate(-121.46 -26)"/>
    <path class="cls-1" d="M189.06,255.45l3.38,0.56" transform="translate(-121.46 -26)"/>
    <path class="cls-1" d="M198.64,267.85c0.47,1.61-.05,3.26.19,4.88" transform="translate(-121.46 -26)"/>
    <path class="cls-1" d="M133.4,326.08c-0.56-1.24-1.38-1.95-2.82-1.31" transform="translate(-121.46 -26)"/>
    <path class="cls-1" d="M208.87,378.53a5.84,5.84,0,0,1,1.63,2.61c-1,.94-1.15,2.31-1.72,3.5" transform="translate(-121.46 -26)"/>
    <path class="cls-1" d="M222.12,399.66c1.07,0.25,2.16.47,2.25,1.88" transform="translate(-121.46 -26)"/>
    <path class="cls-1" d="M195.07,79.45a6.17,6.17,0,0,0-3-1.31" transform="translate(-121.46 -26)"/>
    <path class="cls-1" d="M200.33,88.46l1.13,3.19" transform="translate(-121.46 -26)"/>
    <path class="cls-1" d="M155.25,295.65a5.09,5.09,0,0,1,.19,3.29" transform="translate(-121.46 -26)"/>
    <path class="cls-1" d="M156.38,341.48c-0.77,1-.55,2.23-0.56,3.38a4.44,4.44,0,0,1-.57,2.63" transform="translate(-121.46 -26)"/>
    <path class="cls-1" d="M198.64,281a10.45,10.45,0,0,1,.19,3" transform="translate(-121.46 -26)"/>
    <path class="cls-1" d="M198.64,293.21a10.45,10.45,0,0,1,.19,3" transform="translate(-121.46 -26)"/>
    <path class="cls-1" d="M198.64,307.45a10.45,10.45,0,0,1,.19,3" transform="translate(-121.46 -26)"/>
    <path class="cls-1" d="M154.5,271.23c1.08,0.2,1.13,1,1.14,1.88a29.39,29.39,0,0,0,.17,5.26" transform="translate(-121.46 -26)"/>
    <path class="cls-1" d="M159.55,367.68c0.79-1.65-1-1.75-1.55-2.58" transform="translate(-121.46 -26)"/>
    <path class="cls-1" d="M187,108.37v0.94a5.06,5.06,0,0,0,2.07-.75" transform="translate(-121.46 -26)"/>
    <path class="cls-1" d="M136.66,152.13c-0.28.46-1,.6-0.94,1.31s-0.81,1.56.18,2.26,1.69,0.14,2.45-.38" transform="translate(-121.46 -26)"/>
    <path class="cls-1" d="M165.67,364.08l-0.19,6.52" transform="translate(-121.46 -26)"/>
    <path class="cls-1" d="M160.32,98.42l1.88,2.82" transform="translate(-121.46 -26)"/>
    <path class="cls-1" d="M228.13,95.41a7.15,7.15,0,0,0,4.12.14c0.62-.18.79-0.08,1,0.42" transform="translate(-121.46 -26)"/>
    <path class="cls-1" d="M225.5,115.13c-1,0-2.11-.19-2.14,1.5,0,0.63-.81,1.25-1.25,1.88" transform="translate(-121.46 -26)"/>
    <path class="cls-1" d="M172.91,285.32l0.38,4.32" transform="translate(-121.46 -26)"/>
    <path class="cls-1" d="M171,364.16l-1.72.22a3.4,3.4,0,0,0-.54,2.41" transform="translate(-121.46 -26)"/>
    <path class="cls-1" d="M123.89,341.66l-1.13,2.44" transform="translate(-121.46 -26)"/>
    <path class="cls-1" d="M131.34,368.86a2.34,2.34,0,0,1-.37-0.57c-0.5-1.73-1.44-2.7-3.39-2.08a0.59,0.59,0,0,1-.75-0.17" transform="translate(-121.46 -26)"/>
    <path class="cls-1" d="M218.55,94.1a6.89,6.89,0,0,1-2.44.19" transform="translate(-121.46 -26)"/>
    <path class="cls-1" d="M201.46,366.6c-0.75-.48-1.5.09-2.25,0" transform="translate(-121.46 -26)"/>
    <path class="cls-1" d="M145.49,92.78l-4.13.56" transform="translate(-121.46 -26)"/>
    <path class="cls-1" d="M136.09,33.24c-0.75,0-1.5.35-2.25,0" transform="translate(-121.46 -26)"/>
    <path class="cls-1" d="M133.22,327c-0.95.54-.83,1.74-1.5,2.44" transform="translate(-121.46 -26)"/>
    <path class="cls-1" d="M131.59,153.45c0.12,0.93.08,1.94,1.13,2.44" transform="translate(-121.46 -26)"/>
    <path class="cls-1" d="M143.61,151.38c-2,.88-2.25,2.44-1.69,4.32" transform="translate(-121.46 -26)"/>
    <path class="cls-1" d="M130.08,152.32a5.23,5.23,0,0,1-2.07.19" transform="translate(-121.46 -26)"/>
    <path class="cls-1" d="M199.2,243.62c-0.52.69,0.06,1.38,0,2.07" transform="translate(-121.46 -26)"/>
    <path class="cls-1" d="M140.6,151.19a4.61,4.61,0,0,0,1.13,1.69" transform="translate(-121.46 -26)"/>
    <path class="cls-1" d="M140.6,316.31v2.82" transform="translate(-121.46 -26)"/>
    <path class="cls-1" d="M169.15,77.38c-0.87.92-2.41,0.2-3.19,1.31" transform="translate(-121.46 -26)"/>
    <path class="cls-1" d="M232.26,100.86c-0.24.87-1.16,0-1.5,0.56" transform="translate(-121.46 -26)"/>
    <path class="cls-1" d="M230.38,142.18v1.5" transform="translate(-121.46 -26)"/>
    <path class="cls-1" d="M157.51,90.34l0.19,3" transform="translate(-121.46 -26)"/>
    <path class="cls-1" d="M180,58l0.75,3.38" transform="translate(-121.46 -26)"/>
    <path class="cls-1" d="M228.88,85.83c0.43,0.63-.09,1.93,1.31,1.88" transform="translate(-121.46 -26)"/>
    <path class="cls-1" d="M128.77,43.76a3.11,3.11,0,0,1,0,2.25" transform="translate(-121.46 -26)"/>
    <path class="cls-1" d="M227,111.38c-0.72-.27-0.51.87-1.13,0.75" transform="translate(-121.46 -26)"/>
    <path class="cls-1" d="M231.88,143.68a4.62,4.62,0,0,1-2.63,0" transform="translate(-121.46 -26)"/>
    <path class="cls-1" d="M155.25,303.91l0.19,2.63" transform="translate(-121.46 -26)"/>
    <path class="cls-1" d="M211.22,79.45c0.49,0.06.69,0.81,1.31,0.56" transform="translate(-121.46 -26)"/>
    <path class="cls-1" d="M223.43,71.37l-0.19,1.31" transform="translate(-121.46 -26)"/>
    <path class="cls-1" d="M172.34,398.47c-0.83-.4-1.18.34-1.48,0.77-1.33,1.92.27,5.63,2.6,6.18,1.56,0.37,3.46-1.43,3.38-3.19-0.06-1.22-1.28-3.12-2.07-3.19-0.44,0-.86,0-0.94.56" transform="translate(-121.46 -26)"/>
    <path class="cls-1" d="M129.65,384.12a5.84,5.84,0,0,1-1.63-2.61c1-.94,1.15-2.31,1.72-3.5" transform="translate(-121.46 -26)"/>
    <path class="cls-1" d="M194.63,363.09a5.84,5.84,0,0,1,1.63,2.61c-1,.94-1.15,2.31-1.72,3.5" transform="translate(-121.46 -26)"/>
    <path class="cls-1" d="M182.57,287.76l-0.19,6.76" transform="translate(-121.46 -26)"/>
    <path class="cls-1" d="M182.85,244.94l-0.19,4.88" transform="translate(-121.46 -26)"/>
    <path class="cls-1" d="M183,273.49L182.66,278" transform="translate(-121.46 -26)"/>
    <path class="cls-1" d="M182.47,260.06l0.38,4.32" transform="translate(-121.46 -26)"/>
    <path class="cls-1" d="M162.16,370.36c-0.07.19,0.18,0.39-.19,0.58" transform="translate(-121.46 -26)"/>
    <path class="cls-1" d="M137.73,347.76c-0.08-.19-0.4-0.16-0.26-0.55" transform="translate(-121.46 -26)"/>
    <path class="cls-1" d="M129.57,329.62c0,0.1.09,0.2-.1,0.3" transform="translate(-121.46 -26)"/>
    <path class="cls-1" d="M170,383.83c-0.07.19,0.18,0.39-.19,0.58" transform="translate(-121.46 -26)"/>
    <path class="cls-1" d="M168.08,404.76c-0.07.19,0.18,0.39-.19,0.58" transform="translate(-121.46 -26)"/>
    <path class="cls-1" d="M165.75,364.25l-3.57.15" transform="translate(-121.46 -26)"/>
    <path class="cls-1" d="M122.55,338.61a5.84,5.84,0,0,1,1.63,2.61c-1,.94-1.15,2.31-1.72,3.5" transform="translate(-121.46 -26)"/>
    <path class="cls-1" d="M159.37,343a5.84,5.84,0,0,1-1.63-2.61c1-.94,1.15-2.31,1.72-3.5" transform="translate(-121.46 -26)"/>
    <path class="cls-1" d="M144.08,332.66c-0.24-1.52-2.17-3.26-1.57-4.72" transform="translate(-121.46 -26)"/>
    <path class="cls-1" d="M124.75,326.32c-0.87-1.05-.62-2.65-1.73-3.59" transform="translate(-121.46 -26)"/>
    <path class="cls-1" d="M136.47,329.6a1.75,1.75,0,0,0,2.3-.76c0.3-.66-0.08-0.89-0.52-1.15a3.13,3.13,0,0,0-1.65-.26c-0.5-2.67-.46-2.78,1.14-2.8" transform="translate(-121.46 -26)"/>
  </g>
</svg>
