<svg id="Layer_1" data-name="Layer 1" xmlns="http://www.w3.org/2000/svg" viewBox="0 0 593.73 266.15">
  <title>Hey</title>
  <g>
    <path d="M169.21,205.76H127.12V119.82H48.26v85.95H6V6.63H48.26v78h78.86v-78h42.09V205.76Z" transform="translate(-6.04 -6.63)"/>
    <path d="M285.13,208.49q-36.78,0-57.48-20.3t-20.7-57.48q0-38.27,19.14-59.18T279,50.62q32.28,0,50.26,18.39t18,50.81V140H249q0.68,17.71,10.49,27.65T287,177.57a114.2,114.2,0,0,0,26-2.86,130.15,130.15,0,0,0,25.61-9.13v32.15a97.56,97.56,0,0,1-23.29,8.1Q303,208.49,285.13,208.49ZM279.27,80.18q-13.21,0-20.7,8.38T250,112.33h58.3q-0.27-15.39-8-23.77T279.27,80.18Z" transform="translate(-6.04 -6.63)"/>
    <path d="M356.5,53.48H402l28.74,85.67a118.94,118.94,0,0,1,5,26.42h0.82a116.67,116.67,0,0,1,5.86-26.42l28.2-85.67h44.54L450.75,225.24q-8.85,23.83-25.27,35.69t-38.34,11.85A96.45,96.45,0,0,1,366,270.46v-33a71,71,0,0,0,16.35,1.77,29.52,29.52,0,0,0,19.27-6.74q8.24-6.74,12.87-20.36l2.45-7.49Z" transform="translate(-6.04 -6.63)"/>
    <path d="M552.09,186.29a28.26,28.26,0,0,1,1.84-10.83,18.21,18.21,0,0,1,5.11-7.15,20.36,20.36,0,0,1,7.63-4,34.58,34.58,0,0,1,9.4-1.23,32.82,32.82,0,0,1,9.06,1.23,20.43,20.43,0,0,1,7.56,4,18.83,18.83,0,0,1,5.18,7.15,27.37,27.37,0,0,1,1.91,10.83,26.09,26.09,0,0,1-1.91,10.49,19.78,19.78,0,0,1-12.74,11.37,31.26,31.26,0,0,1-9.06,1.29,32.93,32.93,0,0,1-9.4-1.29A20.13,20.13,0,0,1,559,204a19.48,19.48,0,0,1-5.11-7.22A26.93,26.93,0,0,1,552.09,186.29Zm40.73-46.58H559.59L552.64,6.63h47.13Z" transform="translate(-6.04 -6.63)"/>
  </g>
</svg>
