<?xml version="1.0" encoding="utf-8"?>
<!-- Generator: Adobe Illustrator 21.1.0, SVG Export Plug-In . SVG Version: 6.00 Build 0)  -->
<svg version="1.1" id="Layer_1" xmlns="http://www.w3.org/2000/svg" xmlns:xlink="http://www.w3.org/1999/xlink" x="0px" y="0px"
	 viewBox="0 0 212.5 140.6" style="enable-background:new 0 0 212.5 140.6;" xml:space="preserve">
<style type="text/css">
	.st0{fill:#FFFFFF;}
	.st1{fill:none;stroke:#000000;stroke-width:3;stroke-miterlimit:10;}
</style>
<title>arrowkeys</title>
<path d="M133.9-128.6h-1.6v-3.2h-1.6v-3.2h-1.6v-1.6h-1.6v-1.6h-1.6v-1.6h-1.6v-1.6h-1.6v-1.6h-1.6v-1.6h-3.2v-1.6h-4.8v-1.5H94v1.6
	h-4.8v1.6h-1.6v1.6h-3.2v1.6h-1.6v1.6h-1.6v1.6h-1.6v1.6H78v1.6h-1.6v3.2h-1.6v3.2h-1.6v6.4h-1.5v9.6h1.6v6.4h1.6v4.8h1.6v1.6h1.6
	v3.2h1.6v1.6h1.6v1.6h1.6v1.6h1.6v1.6h3.2v1.6h3.2v1.6h3.2v1.5h19.1V-87h4.8v-1.6h1.6v-1.6h3.2v-1.6h1.6v-1.6h1.6V-95h1.6v-1.6h1.6
	v-1.6h1.6v-3.2h1.6v-3.2h1.6v-4.8h1.5v-14.4h-1.6C133.9-125.4,133.9-127,133.9-128.6z M121.5-106.5H85.6v-2.7H88
	c0.2-0.8,0.3-1.6,0.3-2.4c0.8-0.2,1.6-0.3,2.4-0.3v-5.1h2.7v-2.7c0.8-0.2,1.6-0.3,2.4-0.3v-5.1h2.7c0.2-0.9,0.3-1.8,0.3-2.7h2.7
	v-5.1h5.1v5.1c0.8,0.2,1.6,0.3,2.4,0.3v2.7h2.7v5.1c0.8,0.2,1.6,0.3,2.4,0.3v2.7h2.7v5.1h2.7v2.4c0.8,0.2,1.6,0.3,2.4,0.3
	C121.6-108.1,121.4-107.3,121.5-106.5z"/>
<path d="M133.9-52.7h-1.6v-4.8h-1.6v-1.6h-1.6v-3.2h-1.6v-1.6h-1.6v-1.6h-1.6v-1.6h-1.6v-1.6h-3.2v-1.6h-3.2v-1.6h-3.2v-1.5H94v1.6
	h-4.8v1.6h-1.6v1.6h-3.2v1.6h-1.6v1.6h-1.6v1.6h-1.6v1.6H78v1.6h-1.6v3.2h-1.6v3.2h-1.6v4.8h-1.5V-35h1.6v4.8h1.6v3.2h1.6v3.2h1.6
	v1.6h1.6v1.6h1.6v1.6h1.6v1.6h1.6v1.6h1.6v1.6h3.2v1.6h4.8v1.5h19.1v-1.6h4.8v-1.6h1.6v-1.6h3.2v-1.6h1.6v-1.6h1.6v-1.6h1.6v-1.6
	h1.6v-1.6h1.6v-3.2h1.6v-3.2h1.6v-6.4h1.5v-9.6h-1.6C133.9-48.5,133.9-50.6,133.9-52.7z M121.5-49.8h-2.4c-0.2,0.8-0.3,1.6-0.3,2.4
	c-0.8,0.2-1.6,0.3-2.4,0.3v5.1h-2.7v2.7c-0.8,0.2-1.6,0.3-2.4,0.3v5.1h-2.7c-0.2,0.9-0.3,1.8-0.3,2.7h-2.7v5.1h-5.1v-5.1
	c-0.8-0.2-1.6-0.3-2.4-0.3v-2.7h-2.7v-5.1c-0.8-0.2-1.6-0.3-2.4-0.3v-2.7h-2.7v-5.1h-2.7v-2.4c-0.8-0.2-1.6-0.3-2.4-0.3v-2.4h35.9
	C121.4-51.6,121.6-50.7,121.5-49.8L121.5-49.8z"/>
<path d="M56.7-56.7h-1.6v-1.6h-1.6v-3.2h-1.6v-1.6h-1.6v-1.6h-1.6v-1.6h-1.6v-1.6h-1.6v-1.6h-3.2v-1.6h-3.2v-1.6h-4.8v-1.5H19.9v1.6
	h-4.8v1.6h-3.2v1.6H8.7v1.6H7.1v1.6H5.5v1.6H3.9v1.6H2.3v1.6H0.7v1.6h-1.6v3.2h-1.6v4.8H-4v19.1h1.6v4.8h1.6v1.6h1.6v3.2h1.6v1.6H4
	v1.6h1.6v1.6h1.6v1.6h1.6v1.6H12v1.6h3.2v1.6h6.4v1.5h9.6V-12h6.4v-1.6h4.8v-1.6H44v-1.6h3.2v-1.6h1.6V-20h1.6v-1.6H52v-1.6h1.6
	v-3.2h1.6v-3.2h1.6v-3.2h1.5v-19.1h-1.6L56.7-56.7z M37.3-24.4h-2.7v-2.4c-0.8-0.2-1.6-0.3-2.4-0.3c-0.2-0.8-0.3-1.6-0.3-2.4h-5.1
	v-2.7h-2.7c-0.2-0.8-0.3-1.6-0.3-2.4h-5.1v-2.7c-0.9-0.2-1.8-0.3-2.7-0.3v-2.7h-5.1v-5.1H16c0.2-0.8,0.3-1.6,0.3-2.4H19v-2.7h5.1
	c0.2-0.8,0.3-1.6,0.3-2.4h2.7v-2.7h5.1v-2.7h2.4c0.2-0.8,0.3-1.6,0.3-2.4h2.4V-24.4z"/>
<path d="M209.4-52v-4.8h-1.6v-1.6h-1.6v-3.2h-1.6v-1.6H203v-1.6h-1.6v-1.6h-1.6V-68h-1.6v-1.6H195v-1.6h-3.2v-1.6h-6.4v-1.5h-9.6
	v1.6h-6.4v1.6h-4.8v1.6H163v1.6h-3.2v1.6h-1.6v1.6h-1.6v1.6H155v1.6h-1.6v3.2h-1.6v3.2h-1.6v3.2h-1.5v19.1h1.6v4.8h1.6v1.6h1.6v3.2
	h1.6v1.6h1.6v1.6h1.6v1.6h1.6v1.6h1.6v1.6h3.2v1.6h3.2v1.6h4.8v1.5h14.4v-1.6h4.8v-1.6h3.2v-1.6h3.2v-1.6h1.6v-1.6h1.6v-1.6h1.6
	v-1.6h1.6v-1.6h1.6v-1.6h1.6v-3.2h1.6v-4.8h1.5V-52H209.4z M195.9-39.6h-5.1c-0.2,0.8-0.3,1.6-0.3,2.4h-2.7v2.7h-5.1
	c-0.2,0.8-0.3,1.6-0.3,2.4h-2.7v2.7h-5.1v2.7h-2.4c-0.2,0.8-0.3,1.6-0.3,2.4h-2.4v-35.9h2.7v2.4c0.8,0.2,1.6,0.3,2.4,0.3
	c0.2,0.8,0.3,1.6,0.3,2.4h5.1v2.7h2.7c0.2,0.8,0.3,1.6,0.3,2.4h5.1v2.7c0.9,0.2,1.8,0.3,2.7,0.3v2.7h5.1
	C195.9-43,195.9-41.4,195.9-39.6z"/>
<path class="st0" d="M137.9-132.6h-1.6v-3.2h-1.6v-3.2h-1.6v-1.6h-1.6v-1.6h-1.6v-1.6h-1.6v-1.6h-1.6v-1.6h-1.6v-1.6h-3.2v-1.6h-4.8
	v-1.5H98v1.6h-4.8v1.6h-1.6v1.6h-3.2v1.6h-1.6v1.6h-1.6v1.6h-1.6v1.6H82v1.6h-1.6v3.2h-1.6v3.2h-1.6v6.4h-1.5v9.6h1.6v6.4h1.6v4.8
	h1.6v1.6h1.6v3.2h1.6v1.6h1.6v1.6h1.6v1.6h1.6v1.6h3.2v1.6h3.2v1.6h3.2v1.5h19.1V-91h4.8v-1.6h1.6v-1.6h3.2v-1.6h1.6v-1.6h1.6V-99
	h1.6v-1.6h1.6v-1.6h1.6v-3.2h1.6v-3.2h1.6v-4.8h1.5v-14.4h-1.6C137.9-129.4,137.9-131,137.9-132.6z M125.5-110.5H89.6v-2.7H92
	c0.2-0.8,0.3-1.6,0.3-2.4c0.8-0.2,1.6-0.3,2.4-0.3v-5.1h2.7v-2.7c0.8-0.2,1.6-0.3,2.4-0.3v-5.1h2.7c0.2-0.9,0.3-1.8,0.3-2.7h2.7
	v-5.1h5.1v5.1c0.8,0.2,1.6,0.3,2.4,0.3v2.7h2.7v5.1c0.8,0.2,1.6,0.3,2.4,0.3v2.7h2.7v5.1h2.7v2.4c0.8,0.2,1.6,0.3,2.4,0.3
	C125.6-112.1,125.4-111.3,125.5-110.5z"/>
<path class="st0" d="M137.9-56.7h-1.6v-4.8h-1.6v-1.6h-1.6v-3.2h-1.6v-1.6h-1.6v-1.6h-1.6v-1.6h-1.6v-1.6h-3.2v-1.6h-3.2v-1.6h-3.2
	v-1.5H98v1.6h-4.8v1.6h-1.6v1.6h-3.2v1.6h-1.6v1.6h-1.6v1.6h-1.6v1.6H82v1.6h-1.6v3.2h-1.6v3.2h-1.6v4.8h-1.5V-39h1.6v4.8h1.6v3.2
	h1.6v3.2h1.6v1.6h1.6v1.6h1.6v1.6h1.6v1.6h1.6v1.6h1.6v1.6h3.2v1.6h4.8v1.5h19.1v-1.6h4.8v-1.6h1.6v-1.6h3.2v-1.6h1.6v-1.6h1.6v-1.6
	h1.6v-1.6h1.6v-1.6h1.6v-3.2h1.6v-3.2h1.6v-6.4h1.5v-9.6h-1.6C137.9-52.5,137.9-54.6,137.9-56.7z M125.5-53.8h-2.4
	c-0.2,0.8-0.3,1.6-0.3,2.4c-0.8,0.2-1.6,0.3-2.4,0.3v5.1h-2.7v2.7c-0.8,0.2-1.6,0.3-2.4,0.3v5.1h-2.7c-0.2,0.9-0.3,1.8-0.3,2.7h-2.7
	v5.1h-5.1v-5.1c-0.8-0.2-1.6-0.3-2.4-0.3v-2.7h-2.7v-5.1c-0.8-0.2-1.6-0.3-2.4-0.3v-2.7h-2.7v-5.1h-2.7v-2.4
	c-0.8-0.2-1.6-0.3-2.4-0.3v-2.4h35.9C125.4-55.6,125.6-54.7,125.5-53.8L125.5-53.8z"/>
<path class="st0" d="M60.7-60.7h-1.6v-1.6h-1.6v-3.2h-1.6v-1.6h-1.6v-1.6h-1.6v-1.6h-1.6v-1.6h-1.6v-1.6h-3.2v-1.6h-3.2v-1.6h-4.8
	v-1.5H23.9v1.6h-4.8v1.6h-3.2v1.6h-3.2v1.6h-1.6v1.6H9.5v1.6H7.9v1.6H6.3v1.6H4.7v1.6H3.1v3.2H1.5v4.8H0v19.1h1.6v4.8h1.6v1.6h1.6
	v3.2h1.6v1.6H8v1.6h1.6v1.6h1.6v1.6h1.6v1.6H16v1.6h3.2v1.6h6.4v1.5h9.6V-16h6.4v-1.6h4.8v-1.6H48v-1.6h3.2v-1.6h1.6V-24h1.6v-1.6
	H56v-1.6h1.6v-3.2h1.6v-3.2h1.6v-3.2h1.5v-19.1h-1.6L60.7-60.7z M41.3-28.4h-2.7v-2.4c-0.8-0.2-1.6-0.3-2.4-0.3
	c-0.2-0.8-0.3-1.6-0.3-2.4h-5.1v-2.7h-2.7c-0.2-0.8-0.3-1.6-0.3-2.4h-5.1v-2.7c-0.9-0.2-1.8-0.3-2.7-0.3v-2.7h-5.1v-5.1H20
	c0.2-0.8,0.3-1.6,0.3-2.4H23v-2.7h5.1c0.2-0.8,0.3-1.6,0.3-2.4h2.7v-2.7h5.1v-2.7h2.4c0.2-0.8,0.3-1.6,0.3-2.4h2.4V-28.4z"/>
<path class="st0" d="M213.4-56v-4.8h-1.6v-1.6h-1.6v-3.2h-1.6v-1.6H207v-1.6h-1.6v-1.6h-1.6V-72h-1.6v-1.6H199v-1.6h-3.2v-1.6h-6.4
	v-1.5h-9.6v1.6h-6.4v1.6h-4.8v1.6H167v1.6h-3.2v1.6h-1.6v1.6h-1.6v1.6H159v1.6h-1.6v3.2h-1.6v3.2h-1.6v3.2h-1.5v19.1h1.6v4.8h1.6
	v1.6h1.6v3.2h1.6v1.6h1.6v1.6h1.6v1.6h1.6v1.6h1.6v1.6h3.2v1.6h3.2v1.6h4.8v1.5h14.4v-1.6h4.8v-1.6h3.2v-1.6h3.2v-1.6h1.6v-1.6h1.6
	v-1.6h1.6v-1.6h1.6v-1.6h1.6v-1.6h1.6v-3.2h1.6v-4.8h1.5V-56H213.4z M199.9-43.6h-5.1c-0.2,0.8-0.3,1.6-0.3,2.4h-2.7v2.7h-5.1
	c-0.2,0.8-0.3,1.6-0.3,2.4h-2.7v2.7h-5.1v2.7h-2.4c-0.2,0.8-0.3,1.6-0.3,2.4h-2.4v-35.9h2.7v2.4c0.8,0.2,1.6,0.3,2.4,0.3
	c0.2,0.8,0.3,1.6,0.3,2.4h5.1v2.7h2.7c0.2,0.8,0.3,1.6,0.3,2.4h5.1v2.7c0.9,0.2,1.8,0.3,2.7,0.3v2.7h5.1
	C199.9-47,199.9-45.4,199.9-43.6z"/>
<path class="st1" d="M137.9-132.6h-1.6v-3.2h-1.6v-3.2h-1.6v-1.6h-1.6v-1.6h-1.6v-1.6h-1.6v-1.6h-1.6v-1.6h-1.6v-1.6h-3.2v-1.6h-4.8
	v-1.5H98v1.6h-4.8v1.6h-1.6v1.6h-3.2v1.6h-1.6v1.6h-1.6v1.6h-1.6v1.6H82v1.6h-1.6v3.2h-1.6v3.2h-1.6v6.4h-1.5v9.6h1.6v6.4h1.6v4.8
	h1.6v1.6h1.6v3.2h1.6v1.6h1.6v1.6h1.6v1.6h1.6v1.6h3.2v1.6h3.2v1.6h3.2v1.5h19.1V-91h4.8v-1.6h1.6v-1.6h3.2v-1.6h1.6v-1.6h1.6V-99
	h1.6v-1.6h1.6v-1.6h1.6v-3.2h1.6v-3.2h1.6v-4.8h1.5v-14.4h-1.6C137.9-129.4,137.9-131,137.9-132.6z M125.5-110.5H89.6v-2.7H92
	c0.2-0.8,0.3-1.6,0.3-2.4c0.8-0.2,1.6-0.3,2.4-0.3v-5.1h2.7v-2.7c0.8-0.2,1.6-0.3,2.4-0.3v-5.1h2.7c0.2-0.9,0.3-1.8,0.3-2.7h2.7
	v-5.1h5.1v5.1c0.8,0.2,1.6,0.3,2.4,0.3v2.7h2.7v5.1c0.8,0.2,1.6,0.3,2.4,0.3v2.7h2.7v5.1h2.7v2.4c0.8,0.2,1.6,0.3,2.4,0.3
	C125.6-112.1,125.4-111.3,125.5-110.5z"/>
<path class="st1" d="M137.9-56.7h-1.6v-4.8h-1.6v-1.6h-1.6v-3.2h-1.6v-1.6h-1.6v-1.6h-1.6v-1.6h-1.6v-1.6h-3.2v-1.6h-3.2v-1.6h-3.2
	v-1.5H98v1.6h-4.8v1.6h-1.6v1.6h-3.2v1.6h-1.6v1.6h-1.6v1.6h-1.6v1.6H82v1.6h-1.6v3.2h-1.6v3.2h-1.6v4.8h-1.5V-39h1.6v4.8h1.6v3.2
	h1.6v3.2h1.6v1.6h1.6v1.6h1.6v1.6h1.6v1.6h1.6v1.6h1.6v1.6h3.2v1.6h4.8v1.5h19.1v-1.6h4.8v-1.6h1.6v-1.6h3.2v-1.6h1.6v-1.6h1.6v-1.6
	h1.6v-1.6h1.6v-1.6h1.6v-3.2h1.6v-3.2h1.6v-6.4h1.5v-9.6h-1.6C137.9-52.5,137.9-54.6,137.9-56.7z M125.5-53.8h-2.4
	c-0.2,0.8-0.3,1.6-0.3,2.4c-0.8,0.2-1.6,0.3-2.4,0.3v5.1h-2.7v2.7c-0.8,0.2-1.6,0.3-2.4,0.3v5.1h-2.7c-0.2,0.9-0.3,1.8-0.3,2.7h-2.7
	v5.1h-5.1v-5.1c-0.8-0.2-1.6-0.3-2.4-0.3v-2.7h-2.7v-5.1c-0.8-0.2-1.6-0.3-2.4-0.3v-2.7h-2.7v-5.1h-2.7v-2.4
	c-0.8-0.2-1.6-0.3-2.4-0.3v-2.4h35.9C125.4-55.6,125.6-54.7,125.5-53.8L125.5-53.8z"/>
<path class="st1" d="M60.7-60.7h-1.6v-1.6h-1.6v-3.2h-1.6v-1.6h-1.6v-1.6h-1.6v-1.6h-1.6v-1.6h-1.6v-1.6h-3.2v-1.6h-3.2v-1.6h-4.8
	v-1.5H23.9v1.6h-4.8v1.6h-3.2v1.6h-3.2v1.6h-1.6v1.6H9.5v1.6H7.9v1.6H6.3v1.6H4.7v1.6H3.1v3.2H1.5v4.8H0v19.1h1.6v4.8h1.6v1.6h1.6
	v3.2h1.6v1.6H8v1.6h1.6v1.6h1.6v1.6h1.6v1.6H16v1.6h3.2v1.6h6.4v1.5h9.6V-16h6.4v-1.6h4.8v-1.6H48v-1.6h3.2v-1.6h1.6V-24h1.6v-1.6
	H56v-1.6h1.6v-3.2h1.6v-3.2h1.6v-3.2h1.5v-19.1h-1.6L60.7-60.7z M41.3-28.4h-2.7v-2.4c-0.8-0.2-1.6-0.3-2.4-0.3
	c-0.2-0.8-0.3-1.6-0.3-2.4h-5.1v-2.7h-2.7c-0.2-0.8-0.3-1.6-0.3-2.4h-5.1v-2.7c-0.9-0.2-1.8-0.3-2.7-0.3v-2.7h-5.1v-5.1H20
	c0.2-0.8,0.3-1.6,0.3-2.4H23v-2.7h5.1c0.2-0.8,0.3-1.6,0.3-2.4h2.7v-2.7h5.1v-2.7h2.4c0.2-0.8,0.3-1.6,0.3-2.4h2.4V-28.4z"/>
<path class="st1" d="M213.4-56v-4.8h-1.6v-1.6h-1.6v-3.2h-1.6v-1.6H207v-1.6h-1.6v-1.6h-1.6V-72h-1.6v-1.6H199v-1.6h-3.2v-1.6h-6.4
	v-1.5h-9.6v1.6h-6.4v1.6h-4.8v1.6H167v1.6h-3.2v1.6h-1.6v1.6h-1.6v1.6H159v1.6h-1.6v3.2h-1.6v3.2h-1.6v3.2h-1.5v19.1h1.6v4.8h1.6
	v1.6h1.6v3.2h1.6v1.6h1.6v1.6h1.6v1.6h1.6v1.6h1.6v1.6h3.2v1.6h3.2v1.6h4.8v1.5h14.4v-1.6h4.8v-1.6h3.2v-1.6h3.2v-1.6h1.6v-1.6h1.6
	v-1.6h1.6v-1.6h1.6v-1.6h1.6v-1.6h1.6v-3.2h1.6v-4.8h1.5V-56H213.4z M199.9-43.6h-5.1c-0.2,0.8-0.3,1.6-0.3,2.4h-2.7v2.7h-5.1
	c-0.2,0.8-0.3,1.6-0.3,2.4h-2.7v2.7h-5.1v2.7h-2.4c-0.2,0.8-0.3,1.6-0.3,2.4h-2.4v-35.9h2.7v2.4c0.8,0.2,1.6,0.3,2.4,0.3
	c0.2,0.8,0.3,1.6,0.3,2.4h5.1v2.7h2.7c0.2,0.8,0.3,1.6,0.3,2.4h5.1v2.7c0.9,0.2,1.8,0.3,2.7,0.3v2.7h5.1
	C199.9-47,199.9-45.4,199.9-43.6z"/>
<g>
	<path d="M3.8,82.6c-0.7,0-1.3,0-1.9,0c0,0.7,0,1.3,0,2c-0.7,0-1.3,0-1.9,0c0,16.5,0,32.9,0,49.3c0.6,0,1.2,0,1.9,0
		c0,1.3,0,2.5,0,3.9c0.7,0,1.3,0,1.9,0c0,0.7,0,1.3,0,2c17.8,0,35.5,0,53.3,0c0-0.7,0-1.3,0-2c0.7,0,1.3,0,1.9,0c0-1.3,0-2.6,0-3.9
		c0.7,0,1.3,0,1.9,0c0-16.4,0-32.8,0-49.3c-0.6,0-1.3,0-1.9,0c0-0.7,0-1.3,0-2c-0.7,0-1.3,0-1.9,0c0-0.7,0-1.3,0-1.9
		c-17.8,0-35.5,0-53.3,0C3.8,81.3,3.8,81.9,3.8,82.6z M39.3,96.4v27.8h-2.1v-1.9c-0.6-0.2-1.2-0.3-1.9-0.2c-0.2-0.6-0.3-1.2-0.2-1.9
		h-4v-2.1H29c-0.2-0.6-0.3-1.2-0.2-1.9h-4v-2.1c-0.7-0.2-1.4-0.3-2.1-0.2v-2.1h-4v-4h4c0.2-0.6,0.3-1.2,0.2-1.9h2.1V104h4
		c0.2-0.6,0.3-1.2,0.2-1.9h2.1v-2.1h4V98h1.9c0.2-0.6,0.3-1.2,0.2-1.9C38,96.4,38.6,96.5,39.3,96.4z"/>
	<path d="M202.5,137.8c0.7,0,1.3,0,1.9,0c0-0.7,0-1.3,0-2c0.7,0,1.3,0,1.9,0c0-16.5,0-32.9,0-49.3c-0.6,0-1.2,0-1.9,0
		c0-1.3,0-2.5,0-3.9c-0.7,0-1.3,0-1.9,0c0-0.7,0-1.3,0-2c-17.8,0-35.5,0-53.3,0c0,0.7,0,1.3,0,2c-0.7,0-1.3,0-1.9,0
		c0,1.3,0,2.6,0,3.9c-0.7,0-1.3,0-1.9,0c0,16.4,0,32.8,0,49.3c0.6,0,1.3,0,1.9,0c0,0.7,0,1.3,0,2c0.7,0,1.3,0,1.9,0
		c0,0.7,0,1.3,0,1.9c17.8,0,35.5,0,53.3,0C202.5,139.1,202.5,138.5,202.5,137.8z M167,123.9V96.1h2.1V98c0.6,0.2,1.2,0.3,1.9,0.2
		c0.2,0.6,0.3,1.2,0.2,1.9h4v2.1h2.1c0.2,0.6,0.3,1.2,0.2,1.9h4v2.1c0.7,0.2,1.4,0.3,2.1,0.2v2.1h4v4h-4c-0.2,0.6-0.3,1.2-0.2,1.9
		h-2.1v2.1h-4c-0.2,0.6-0.3,1.2-0.2,1.9h-2.1v2.1h-4v2.1h-1.9c-0.2,0.6-0.3,1.2-0.2,1.9C168.3,124,167.7,123.9,167,123.9z"/>
	<path d="M75.5,136.8c0,0.7,0,1.3,0,1.9c0.7,0,1.3,0,2,0c0,0.7,0,1.3,0,1.9c16.5,0,32.9,0,49.3,0c0-0.6,0-1.2,0-1.9
		c1.3,0,2.5,0,3.9,0c0-0.7,0-1.3,0-1.9c0.7,0,1.3,0,2,0c0-17.8,0-35.5,0-53.3c-0.7,0-1.3,0-2,0c0-0.7,0-1.3,0-1.9
		c-1.3,0-2.6,0-3.9,0c0-0.7,0-1.3,0-1.9c-16.4,0-32.8,0-49.3,0c0,0.6,0,1.3,0,1.9c-0.7,0-1.3,0-2,0c0,0.7,0,1.3,0,1.9
		c-0.7,0-1.3,0-1.9,0c0,17.8,0,35.5,0,53.3C74.2,136.8,74.8,136.8,75.5,136.8z M89.4,101.4h27.8v2.1h-1.9c-0.2,0.6-0.3,1.2-0.2,1.9
		c-0.6,0.2-1.2,0.3-1.9,0.2v4h-2.1v2.1c-0.6,0.2-1.2,0.3-1.9,0.2v4h-2.1c-0.2,0.7-0.3,1.4-0.2,2.1h-2.1v4h-4v-4
		c-0.6-0.2-1.2-0.3-1.9-0.2v-2.1h-2.1v-4c-0.6-0.2-1.2-0.3-1.9-0.2v-2.1H93v-4h-2.1v-1.9c-0.6-0.2-1.2-0.3-1.9-0.2
		C89.3,102.6,89.4,102,89.4,101.4z"/>
	<path d="M130.7,10c0-0.7,0-1.3,0-1.9c-0.7,0-1.3,0-2,0c0-0.7,0-1.3,0-1.9c-16.5,0-32.9,0-49.3,0c0,0.6,0,1.2,0,1.9
		c-1.3,0-2.5,0-3.9,0c0,0.7,0,1.3,0,1.9c-0.7,0-1.3,0-2,0c0,17.8,0,35.5,0,53.3c0.7,0,1.3,0,2,0c0,0.7,0,1.3,0,1.9
		c1.3,0,2.6,0,3.9,0c0,0.7,0,1.3,0,1.9c16.4,0,32.8,0,49.3,0c0-0.6,0-1.3,0-1.9c0.7,0,1.3,0,2,0c0-0.7,0-1.3,0-1.9
		c0.7,0,1.3,0,1.9,0c0-17.8,0-35.5,0-53.3C132,10,131.4,10,130.7,10z M116.9,45.5H89v-2.1h1.9c0.2-0.6,0.3-1.2,0.2-1.9
		c0.6-0.2,1.2-0.3,1.9-0.2v-4h2.1v-2.1c0.6-0.2,1.2-0.3,1.9-0.2v-4H99c0.2-0.7,0.3-1.4,0.2-2.1h2.1v-4h4v4c0.6,0.2,1.2,0.3,1.9,0.2
		v2.1h2.1v4c0.6,0.2,1.2,0.3,1.9,0.2v2.1h2.1v4h2.1v1.9c0.6,0.2,1.2,0.3,1.9,0.2C116.9,44.2,116.8,44.8,116.9,45.5z"/>
	<g>
		<path class="st0" d="M135.4,5.4c0-0.7,0-1.3,0-1.9c-0.7,0-1.3,0-2,0c0-0.7,0-1.3,0-1.9c-16.5,0-32.9,0-49.3,0c0,0.6,0,1.2,0,1.9
			c-1.3,0-2.5,0-3.9,0c0,0.7,0,1.3,0,1.9c-0.7,0-1.3,0-2,0c0,17.8,0,35.5,0,53.3c0.7,0,1.3,0,2,0c0,0.7,0,1.3,0,1.9
			c1.3,0,2.6,0,3.9,0c0,0.7,0,1.3,0,1.9c16.4,0,32.8,0,49.3,0c0-0.6,0-1.3,0-1.9c0.7,0,1.3,0,2,0c0-0.7,0-1.3,0-1.9
			c0.7,0,1.3,0,1.9,0c0-17.8,0-35.5,0-53.3C136.7,5.4,136.1,5.4,135.4,5.4z M121.5,40.8H93.7v-2.1h1.9c0.2-0.6,0.3-1.2,0.2-1.9
			c0.6-0.2,1.2-0.3,1.9-0.2v-4h2.1v-2.1c0.6-0.2,1.2-0.3,1.9-0.2v-4h2.1c0.2-0.7,0.3-1.4,0.2-2.1h2.1v-4h4v4
			c0.6,0.2,1.2,0.3,1.9,0.2v2.1h2.1v4c0.6,0.2,1.2,0.3,1.9,0.2v2.1h2.1v4h2.1v1.9c0.6,0.2,1.2,0.3,1.9,0.2
			C121.6,39.6,121.5,40.2,121.5,40.8z"/>
		<path d="M134.9,64H82.5v-1.9h-3.9v-1.9h-2V3.8h2V1.9h3.9V0h52.4v1.9h2v1.9h1.9v56.4H137v1.9h-2V64z M85.6,60.9h46.2V59h2v-1.9h1.9
			V6.9h-1.9V5h-2V3.1H85.6V5h-3.9v1.9h-2v50.2h2V59h3.9V60.9z M123.2,42.4H92.1v-5.2h2.1c0-0.1,0-0.1,0-0.2l-0.1-1.2l1.1-0.4
			c0.3-0.1,0.5-0.1,0.8-0.2v-4.1h2.1v-1.7l1.1-0.3c0.3-0.1,0.5-0.1,0.8-0.2v-4.1h2.3c0-0.2,0-0.3,0-0.5l-0.1-1.6h2.2v-4h7.1V23
			c0.1,0,0.1,0,0.2,0l1.6-0.1v2.2h2.1v4.2c0.1,0,0.1,0,0.2,0l1.6-0.1v2.2h2.1v4h2.1v2.1c0,0,0.1,0,0.2,0l2.5-0.1l-1,2.3
			c-0.2,0.4-0.2,0.7-0.2,1.1L123.2,42.4z M97,39.3h21.4v-0.9h-2.1v-4h-2.1v-2.2c-0.3,0-0.5-0.1-0.8-0.2l-1.1-0.3v-3.5h-2.1V26
			c-0.3,0-0.5-0.1-0.8-0.2l-1.1-0.3v-3.5h-0.9v4h-2.2c0,0.3-0.1,0.6-0.2,1l-0.3,1.1h-1.7v4l-1.6-0.1c-0.1,0-0.2,0-0.2,0v2.3h-2.1v4
			l-1.6-0.1c-0.1,0-0.2,0-0.3,0C97.2,38.5,97.1,38.9,97,39.3L97,39.3z"/>
	</g>
	<g>
		<path class="st0" d="M80.1,132.2c0,0.7,0,1.3,0,1.9c0.7,0,1.3,0,2,0c0,0.7,0,1.3,0,1.9c16.5,0,32.9,0,49.3,0c0-0.6,0-1.2,0-1.9
			c1.3,0,2.5,0,3.9,0c0-0.7,0-1.3,0-1.9c0.7,0,1.3,0,2,0c0-17.8,0-35.5,0-53.3c-0.7,0-1.3,0-2,0c0-0.7,0-1.3,0-1.9
			c-1.3,0-2.6,0-3.9,0c0-0.7,0-1.3,0-1.9c-16.4,0-32.8,0-49.3,0c0,0.6,0,1.3,0,1.9c-0.7,0-1.3,0-2,0c0,0.7,0,1.3,0,1.9
			c-0.7,0-1.3,0-1.9,0c0,17.8,0,35.5,0,53.3C78.8,132.2,79.5,132.2,80.1,132.2z M94,96.7h27.8v2.1H120c-0.2,0.6-0.3,1.2-0.2,1.9
			c-0.6,0.2-1.2,0.3-1.9,0.2v4h-2.1v2.1c-0.6,0.2-1.2,0.3-1.9,0.2v4h-2.1c-0.2,0.7-0.3,1.4-0.2,2.1h-2.1v4h-4v-4
			c-0.6-0.2-1.2-0.3-1.9-0.2v-2.1h-2.1v-4c-0.6-0.2-1.2-0.3-1.9-0.2v-2.1h-2.1v-4h-2.1v-1.9c-0.6-0.2-1.2-0.3-1.9-0.2
			C93.9,98,94.1,97.4,94,96.7z"/>
		<path d="M133,137.5H80.6v-1.9h-2v-1.9h-1.9V77.4h1.9v-1.9h2v-1.9H133v1.9h3.9v1.9h2v56.4h-2v1.9H133V137.5z M83.7,134.4h46.2v-1.9
			h3.9v-1.9h2V80.4h-2v-1.9h-3.9v-1.9H83.7v1.9h-2v1.9h-1.9v50.2h1.9v1.9h2V134.4z M111.1,118.7H104v-4.2h0c-0.1,0-0.1,0-0.2,0
			l-1.6,0.1v-2.2H100v-4.2c-0.1,0-0.1,0-0.2,0l-1.6,0.1v-2.2h-2.1v-4H94v-2.1c0,0-0.1,0-0.2,0l-2.5,0.2l1-2.3
			c0.2-0.4,0.2-0.7,0.2-1.1l-0.1-1.7h31.1v5.2h-2.1c0,0.1,0,0.1,0,0.2l0.1,1.2l-1.1,0.4c-0.3,0.1-0.5,0.1-0.8,0.2v4.1h-2.1v1.7
			l-1.1,0.3c-0.3,0.1-0.5,0.1-0.8,0.2v4.1h-2.3c0,0.2,0,0.3,0,0.5l0.1,1.6h-2.2V118.7z M107.1,115.6h0.9v-4h2.2c0-0.3,0.1-0.6,0.2-1
			l0.3-1.1h1.7v-4l1.6,0.1c0.1,0,0.1,0,0.2,0v-2.3h2.1v-4l1.6,0.1c0.1,0,0.2,0,0.3,0c0.1-0.3,0.1-0.7,0.2-1l0-0.1H97.1v0.9h2.1v4
			h2.1v2.2c0.3,0,0.5,0.1,0.8,0.2l1.1,0.3v3.5h2.1v2.2c0.3,0,0.5,0.1,0.8,0.2l1.1,0.3V115.6z"/>
	</g>
	<g>
		<path class="st0" d="M207.1,133.2c0.7,0,1.3,0,1.9,0c0-0.7,0-1.3,0-2c0.7,0,1.3,0,1.9,0c0-16.5,0-32.9,0-49.3c-0.6,0-1.2,0-1.9,0
			c0-1.3,0-2.5,0-3.9c-0.7,0-1.3,0-1.9,0c0-0.7,0-1.3,0-2c-17.8,0-35.5,0-53.3,0c0,0.7,0,1.3,0,2c-0.7,0-1.3,0-1.9,0
			c0,1.3,0,2.6,0,3.9c-0.7,0-1.3,0-1.9,0c0,16.4,0,32.8,0,49.3c0.6,0,1.3,0,1.9,0c0,0.7,0,1.3,0,2c0.7,0,1.3,0,1.9,0
			c0,0.7,0,1.3,0,1.9c17.8,0,35.5,0,53.3,0C207.1,134.5,207.1,133.8,207.1,133.2z M171.7,119.3V91.5h2.1v1.9
			c0.6,0.2,1.2,0.3,1.9,0.2c0.2,0.6,0.3,1.2,0.2,1.9h4v2.1h2.1c0.2,0.6,0.3,1.2,0.2,1.9h4v2.1c0.7,0.2,1.4,0.3,2.1,0.2v2.1h4v4h-4
			c-0.2,0.6-0.3,1.2-0.2,1.9h-2.1v2.1h-4c-0.2,0.6-0.3,1.2-0.2,1.9h-2.1v2.1h-4v2.1h-1.9c-0.2,0.6-0.3,1.2-0.2,1.9
			C172.9,119.4,172.3,119.2,171.7,119.3z"/>
		<path d="M208.7,136.6h-56.4v-1.9h-1.9v-2h-1.9V80.3h1.9v-3.9h1.9v-2h56.4v2h1.9v3.9h1.9v52.4h-1.9v2h-1.9V136.6z M155.4,133.5
			h50.2v-1.9h1.9v-2h1.9V83.4h-1.9v-3.9h-1.9v-2h-50.2v2h-1.9v3.9h-1.9v46.2h1.9v2h1.9V133.5z M175.2,122l-2.3-1
			c-0.4-0.2-0.7-0.2-1.1-0.2l-1.7,0.1V89.9h5.2V92h0c0.1,0,0.1,0,0.2,0l1.2-0.1l0.4,1.1c0.1,0.3,0.1,0.5,0.2,0.8h4.1V96h1.7l0.3,1.1
			c0.1,0.3,0.1,0.5,0.2,0.8h4.1v2.3c0.2,0,0.3,0,0.5,0l1.6-0.1v2.2h4v7.1h-4.2c0,0.1,0,0.1,0,0.2l0.1,1.6h-2.2v2.1h-4.2
			c0,0.1,0,0.1,0,0.2l0.1,1.6h-2.2v2.1h-4v2.1h-2.1c0,0.1,0,0.1,0,0.2L175.2,122z M173.2,116.2h0.9v-2.1h4V112h2.2
			c0-0.3,0.1-0.5,0.2-0.8l0.3-1.1h3.5v-2.1h2.2c0-0.3,0.1-0.5,0.2-0.8l0.3-1.1h3.5v-0.9h-4v-2.2c-0.3,0-0.6-0.1-1-0.2l-1.1-0.3v-1.7
			h-4l0.1-1.6c0-0.1,0-0.1,0-0.2h-2.3V97h-4l0.1-1.6c0-0.1,0-0.2,0-0.3c-0.3-0.1-0.7-0.1-1-0.2l-0.1,0V116.2z"/>
	</g>
	<g>
		<path class="st0" d="M8.5,77.9c-0.7,0-1.3,0-1.9,0c0,0.7,0,1.3,0,2c-0.7,0-1.3,0-1.9,0c0,16.5,0,32.9,0,49.3c0.6,0,1.2,0,1.9,0
			c0,1.3,0,2.5,0,3.9c0.7,0,1.3,0,1.9,0c0,0.7,0,1.3,0,2c17.8,0,35.5,0,53.3,0c0-0.7,0-1.3,0-2c0.7,0,1.3,0,1.9,0c0-1.3,0-2.6,0-3.9
			c0.7,0,1.3,0,1.9,0c0-16.4,0-32.8,0-49.3c-0.6,0-1.3,0-1.9,0c0-0.7,0-1.3,0-2c-0.7,0-1.3,0-1.9,0c0-0.7,0-1.3,0-1.9
			c-17.8,0-35.5,0-53.3,0C8.5,76.6,8.5,77.2,8.5,77.9z M43.9,91.8v27.8h-2.1v-1.9c-0.6-0.2-1.2-0.3-1.9-0.2
			c-0.2-0.6-0.3-1.2-0.2-1.9h-4v-2.1h-2.1c-0.2-0.6-0.3-1.2-0.2-1.9h-4v-2.1c-0.7-0.2-1.4-0.3-2.1-0.2v-2.1h-4v-4h4
			c0.2-0.6,0.3-1.2,0.2-1.9h2.1v-2.1h4c0.2-0.6,0.3-1.2,0.2-1.9H36v-2.1h4v-2.1h1.9c0.2-0.6,0.3-1.2,0.2-1.9
			C42.7,91.7,43.3,91.8,43.9,91.8z"/>
		<path d="M63.3,136.6H6.9v-2H5v-3.9H3.1V78.4H5v-2h1.9v-1.9h56.4v1.9h1.9v2h1.9v52.4h-1.9v3.9h-1.9V136.6z M10,133.5h50.2v-2h1.9
			v-3.9H64V81.5h-1.9v-2h-1.9v-1.9H10v1.9H8.1v2H6.2v46.2h1.9v3.9H10V133.5z M45.5,121.2h-5.2v-2.1c0,0,0,0,0,0c-0.1,0-0.1,0-0.2,0
			l-1.2,0.1l-0.4-1.1c-0.1-0.3-0.1-0.5-0.2-0.8h-4.1v-2.1h-1.7l-0.3-1.1c-0.1-0.3-0.1-0.5-0.2-0.8H28v-2.3c-0.2,0-0.3,0-0.5,0
			l-1.6,0.1v-2.2h-4v-7.1h4.2c0-0.1,0-0.1,0-0.2L26,99.9h2.2v-2.1h4.2c0-0.1,0-0.1,0-0.2L32.3,96h2.2v-2.1h4v-2.1h2.1
			c0-0.1,0-0.1,0-0.2L40.4,89l2.3,1c0.4,0.2,0.7,0.2,1.1,0.2l1.7-0.1V121.2z M41.3,116c0.3,0.1,0.7,0.1,1,0.2l0.1,0V94.9h-0.9V97h-4
			v2.1h-2.2c0,0.3-0.1,0.5-0.2,0.8l-0.3,1.1h-3.5v2.1h-2.2c0,0.3-0.1,0.5-0.2,0.8l-0.3,1.1H25v0.9h4v2.2c0.3,0,0.6,0.1,1,0.2
			l1.1,0.3v1.7h4l-0.1,1.6c0,0.1,0,0.1,0,0.2h2.3v2.1h4l-0.1,1.6C41.3,115.8,41.3,115.9,41.3,116z"/>
	</g>
</g>
</svg>
