<svg id="Layer_1" data-name="Layer 1" xmlns="http://www.w3.org/2000/svg" viewBox="0 0 212.5 140.645"><defs><style>.cls-1{fill:#fff;}</style></defs><title>arrowkeys</title><path d="M3.8,82.561H1.862V84.6H0v49.29H1.881v3.853H3.823v2H57.1v-2.018h1.942v-3.875h1.873V84.562H59V82.52H57.059V80.632H3.8ZM39.275,96.43v27.825H37.183V122.4a5.121,5.121,0,0,0-1.86-.233,5.119,5.119,0,0,1-.233-1.86H31.137V118.21H29.044a5.12,5.12,0,0,1-.233-1.86H24.859v-2.093a6.438,6.438,0,0,0-2.093-.233v-2.093H18.813v-3.953h3.953a5.119,5.119,0,0,0,.233-1.86h2.093v-2.093h3.953a5.12,5.12,0,0,0,.233-1.86H31.37v-2.093h3.953V97.981h1.86a5.12,5.12,0,0,0,.233-1.86A3.932,3.932,0,0,0,39.275,96.43Z"/><path d="M202.5,137.816h1.942v-2.042H206.3V86.484h-1.881V82.63h-1.942v-2H149.2v2.018h-1.942v3.875h-1.873v49.29H147.3v2.042h1.942v1.889H202.5Zm-35.471-13.87V96.12h2.093v1.86a5.121,5.121,0,0,0,1.86.233,5.119,5.119,0,0,1,.233,1.86h3.953v2.093h2.093a5.12,5.12,0,0,1,.233,1.86h3.953v2.093a6.438,6.438,0,0,0,2.093.233v2.093h3.953V112.4h-3.953a5.119,5.119,0,0,0-.233,1.86h-2.093v2.093h-3.953a5.12,5.12,0,0,0-.233,1.86H174.93V120.3h-3.953V122.4h-1.86a5.12,5.12,0,0,0-.233,1.86A3.932,3.932,0,0,0,167.024,123.946Z"/><path d="M75.482,136.841v1.942h2.042v1.862h49.29v-1.881h3.853v-1.942h2V83.546h-2.018V81.6h-3.875V79.731H77.483v1.913H75.441v1.942H73.553v53.255Zm13.87-35.471h27.825v2.093h-1.86a5.121,5.121,0,0,0-.233,1.86,5.119,5.119,0,0,1-1.86.233v3.953h-2.093V111.6a5.12,5.12,0,0,1-1.86.233v3.953h-2.093a6.438,6.438,0,0,0-.233,2.093h-2.093v3.953H100.9v-3.953a5.119,5.119,0,0,0-1.86-.233v-2.093H96.947V111.6a5.12,5.12,0,0,0-1.86-.233v-2.093H92.994v-3.953H90.9v-1.86a5.12,5.12,0,0,0-1.86-.233A3.932,3.932,0,0,0,89.352,101.37Z"/><path d="M130.737,10.005V8.063h-2.042V6.2H79.4V8.082H75.552v1.942h-2V63.3h2.018v1.942h3.875v1.873h49.29V65.2h2.042V63.26h1.889V10.005Zm-13.87,35.471H89.041V43.384H90.9a5.121,5.121,0,0,0,.233-1.86,5.119,5.119,0,0,1,1.86-.233V37.338h2.093V35.245a5.12,5.12,0,0,1,1.86-.233V31.06H99.04a6.438,6.438,0,0,0,.233-2.093h2.093V25.014h3.953v3.953a5.119,5.119,0,0,0,1.86.233v2.093h2.093v3.953a5.12,5.12,0,0,0,1.86.233V37.57h2.093v3.953h2.093v1.86a5.12,5.12,0,0,0,1.86.233A3.932,3.932,0,0,0,116.867,45.476Z"/><path class="cls-1" d="M135.387,5.355V3.412h-2.042V1.55H84.055V3.431H80.2V5.374h-2V58.65h2.018v1.942H84.1v1.873h49.29V60.551h2.042V58.609h1.889V5.355Zm-13.87,35.471H93.692V38.733h1.86a5.121,5.121,0,0,0,.233-1.86,5.119,5.119,0,0,1,1.86-.233V32.687h2.093V30.595a5.12,5.12,0,0,1,1.86-.233V26.409h2.093a6.438,6.438,0,0,0,.233-2.093h2.093V20.364h3.953v3.953a5.119,5.119,0,0,0,1.86.233v2.093h2.093v3.953a5.12,5.12,0,0,0,1.86.233V32.92h2.093v3.953h2.093v1.86a5.12,5.12,0,0,0,1.86.233A3.932,3.932,0,0,0,121.517,40.826Z"/><path d="M134.936,64.015H82.546V62.142H78.67V60.2H76.653V3.824h2V1.881H82.5V0H134.9V1.862h2.041V3.8h1.929V60.16h-1.889V62.1h-2.041Zm-49.29-3.1h46.19V59h2.041V57.059h1.889V6.9h-1.929V4.963H131.8V3.1H85.605V4.982H81.752V6.924h-2V57.1h2.017v1.942h3.875Zm37.546-18.538H92.142V37.183h2.1c0-.072,0-.145-.006-.217l-.073-1.2,1.15-.366a6.657,6.657,0,0,1,.78-.2v-4.06h2.093V29.462l1.079-.344a6.621,6.621,0,0,1,.78-.2V24.859h2.331q.009-.229,0-.459l-.088-1.633h2.178V18.813h7.054v4.195a1.551,1.551,0,0,1,.216-.007l1.643-.1v2.189h2.093v4.194a.853.853,0,0,0,.218-.006l1.643-.1V31.37h2.092v3.953h2.093v2.1c.049,0,.145,0,.218-.006l2.513-.149-1,2.311a2.4,2.4,0,0,0-.188,1.126Zm-26.186-3.1h21.411v-.853h-2.093V34.47h-2.092v-2.2a6.694,6.694,0,0,1-.78-.2l-1.08-.344V28.192h-2.093v-2.2a6.682,6.682,0,0,1-.78-.2l-1.08-.344V21.914h-.853v3.953h-2.175a7.969,7.969,0,0,1-.209.964l-.319,1.129h-1.715v4.048l-1.643-.1a1.552,1.552,0,0,0-.217-.006v2.334H99.195v4.049l-1.643-.1c-.095-.006-.19-.008-.283-.006a6.666,6.666,0,0,1-.24,1.022Z"/><path class="cls-1" d="M80.132,132.191v1.942h2.042v1.862h49.29v-1.881h3.853v-1.942h2V78.9H135.3V76.953h-3.875V75.081H82.133v1.913H80.092v1.942H78.2v53.255ZM94,96.719h27.825v2.093h-1.86a5.121,5.121,0,0,0-.233,1.86,5.119,5.119,0,0,1-1.86.233v3.953h-2.093v2.093a5.12,5.12,0,0,1-1.86.233v3.953h-2.093a6.438,6.438,0,0,0-.233,2.093H109.5v3.953h-3.953v-3.953a5.119,5.119,0,0,0-1.86-.233V110.9H101.6V106.95a5.12,5.12,0,0,0-1.86-.233v-2.093H97.645v-3.953H95.552v-1.86a5.12,5.12,0,0,0-1.86-.233A3.932,3.932,0,0,0,94,96.719Z"/><path d="M133.014,137.545H80.624v-1.862H78.582v-1.941H76.653V77.386h1.889V75.443h2.041V73.53h52.391V75.4h3.875v1.941h2.018v56.377h-2v1.942h-3.853Zm-49.29-3.1h46.189v-1.881h3.853v-1.942h2V80.445h-2.018V78.5h-3.875V76.63H83.683v1.913H81.642v1.942H79.754v50.155h1.929v1.941h2.042Zm27.329-15.713H104v-4.194h0c-.072,0-.145,0-.216.006l-1.643.1v-2.189h-2.093v-4.195c-.051-.028-.144,0-.216.006l-1.643.1v-2.189H96.095v-3.953H94v-2.1a.856.856,0,0,0-.216.006l-2.514.151,1-2.312a2.394,2.394,0,0,0,.187-1.126l-.129-1.67h31.051v5.192h-2.1c0,.073,0,.145.006.217l.073,1.2-1.149.366a6.548,6.548,0,0,1-.78.2v4.061h-2.093v1.675l-1.079.344a6.559,6.559,0,0,1-.781.2v4.061h-2.331c-.006.153-.005.307,0,.459l.088,1.633h-2.178Zm-3.953-3.1h.852v-3.953h2.175a8.147,8.147,0,0,1,.209-.963l.318-1.13h1.717v-4.046l1.642.1c.073,0,.142.006.219.006v-2.334h2.093V99.258l1.643.1c.095.005.188.009.283.005a6.69,6.69,0,0,1,.238-1.02l.023-.073H97.1v.852h2.093v3.953h2.093v2.2a6.707,6.707,0,0,1,.779.2l1.081.344v3.537h2.093v2.2a6.56,6.56,0,0,1,.781.2l1.079.344Z"/><path class="cls-1" d="M207.146,133.165h1.942v-2.042h1.862V81.833h-1.881V77.98h-1.942v-2H153.85V78h-1.942v3.875h-1.873v49.29h1.913v2.042h1.942v1.889h53.255ZM171.674,119.3V91.47h2.093v1.86a5.121,5.121,0,0,0,1.86.233,5.119,5.119,0,0,1,.233,1.86h3.953v2.093h2.093a5.12,5.12,0,0,1,.233,1.86h3.953v2.093a6.438,6.438,0,0,0,2.093.233v2.093h3.953v3.953h-3.953a5.119,5.119,0,0,0-.233,1.86h-2.093V111.7h-3.953a5.12,5.12,0,0,0-.233,1.86H179.58v2.093h-3.953v2.093h-1.86a5.12,5.12,0,0,0-.233,1.86A3.932,3.932,0,0,0,171.674,119.3Z"/><path d="M208.7,136.645H152.34v-1.889H150.4v-2.041h-1.913V80.323h1.873V76.449H152.3V74.431h56.377v2h1.942v3.853H212.5v52.391h-1.862v2.041H208.7Zm-53.255-3.1H205.6v-1.929h1.942v-2.041H209.4V83.384h-1.881V79.53h-1.942v-2H155.4v2.018h-1.942v3.875h-1.873v46.19H153.5v2.041h1.942Zm19.793-11.517-2.312-1a2.408,2.408,0,0,0-1.127-.188l-1.67.129V89.919h5.193v2.1h0c.072,0,.144,0,.216-.006l1.2-.073.366,1.149a6.559,6.559,0,0,1,.2.781h4.061v2.093h1.675l.344,1.079a6.548,6.548,0,0,1,.2.78h4.06v2.331c.154.007.307,0,.459,0l1.633-.088v2.178h3.953V109.3h-4.195c0,.073,0,.145.006.217l.1,1.643h-2.189v2.093h-4.194c0,.072,0,.144.006.216l.1,1.643H181.13V117.2h-3.953V119.3h-2.1c0,.073,0,.145.006.217Zm-2.009-5.832h.852V114.1h3.953v-2.093h2.2a6.548,6.548,0,0,1,.2-.78l.344-1.079h3.535v-2.093h2.2a6.6,6.6,0,0,1,.2-.781l.344-1.079h3.536v-.852h-3.953v-2.175a8.147,8.147,0,0,1-.963-.209l-1.13-.318v-1.717h-4.049l.1-1.643c0-.073.006-.145.006-.216h-2.334V96.973h-4.046l.1-1.642c.005-.1.007-.19.005-.285a6.651,6.651,0,0,1-1.022-.24l-.072-.023Z"/><path class="cls-1" d="M8.455,77.91H6.513v2.042H4.65v49.29H6.532V133.1H8.474v2H61.75v-2.018h1.942V129.2h1.873V79.911H63.652V77.87H61.709V75.981H8.455ZM43.926,91.78v27.825H41.833v-1.86a5.121,5.121,0,0,0-1.86-.233,5.119,5.119,0,0,1-.233-1.86H35.788V113.56H33.695a5.12,5.12,0,0,1-.233-1.86H29.509v-2.093a6.438,6.438,0,0,0-2.093-.233v-2.093H23.464v-3.953h3.953a5.119,5.119,0,0,0,.233-1.86h2.093V99.376h3.953a5.12,5.12,0,0,0,.233-1.86H36.02V95.423h3.953V93.33h1.86a5.12,5.12,0,0,0,.233-1.86A3.932,3.932,0,0,0,43.926,91.78Z"/><path d="M63.3,136.645H6.924v-2H4.981v-3.853H3.1V78.4H4.963V76.36H6.9V74.431H63.259V76.32H65.2v2.041h1.913v52.391H65.242v3.875H63.3Zm-53.276-3.1H60.2v-2.018h1.941v-3.875h1.873V81.462H62.1V79.42H60.159V77.531H10.005V79.46H8.063V81.5H6.2v46.19H8.082v3.853h1.942Zm35.452-12.388H40.283v-2.1h0c-.072,0-.144,0-.216.006l-1.2.073-.366-1.149a6.56,6.56,0,0,1-.2-.781H34.237V115.11H32.563l-.344-1.079a6.511,6.511,0,0,1-.2-.78H27.959v-2.331a4.429,4.429,0,0,0-.459,0l-1.633.088v-2.178H21.914v-7.053h4.194c0-.073,0-.145-.006-.217L26,99.918h2.189V97.825h4.195c0-.072,0-.145-.006-.216l-.1-1.643H34.47V93.873h3.953V91.78h2.1c0-.073,0-.145-.006-.217l-.151-2.514,2.312,1a2.409,2.409,0,0,0,1.126.188l1.67-.129Zm-4.193-5.127a6.692,6.692,0,0,1,1.022.24l.071.023V94.88h-.852v2.093H37.57v2.093h-2.2a6.707,6.707,0,0,1-.2.779l-.344,1.081H31.292v2.093h-2.2a6.6,6.6,0,0,1-.2.781l-.344,1.079H25.014v.852h3.953v2.175a8.114,8.114,0,0,1,.963.209l1.13.318v1.717h4.046l-.1,1.642c0,.073-.006.145-.006.218h2.334V114.1h4.049l-.1,1.643C41.282,115.84,41.28,115.935,41.282,116.028Z"/></svg>