<svg id="Main_Menu" data-name="Main Menu" xmlns="http://www.w3.org/2000/svg" viewBox="0 0 181 179.63">
  <title>icon-about</title>
  <g>
    <path d="M102.81,23.63l-0.26-2.42h-0.12A7,7,0,0,1,99.71,23a7.69,7.69,0,0,1-3.18.19,5.49,5.49,0,0,1-3.7-1.73,4.73,4.73,0,0,1-1-3.8q0.58-5.06,8.59-4.38l2.83,0.22,0.11-1a4.09,4.09,0,0,0-.5-2.89,3.4,3.4,0,0,0-2.52-1.2,7.84,7.84,0,0,0-2.54.11,20.63,20.63,0,0,0-2.31.63L94.94,7a12.43,12.43,0,0,1,2.86-.73,11.94,11.94,0,0,1,3,0,6.54,6.54,0,0,1,4.33,1.85,5.5,5.5,0,0,1,1,4.41l-1.3,11.33Zm-5.4-2.54a5.07,5.07,0,0,0,3.74-.82,4.62,4.62,0,0,0,1.71-3.36l0.17-1.5-2.47-.18a9,9,0,0,0-4.28.43A2.77,2.77,0,0,0,94.69,18a2.53,2.53,0,0,0,.57,2.09A3.3,3.3,0,0,0,97.41,21.09Z"/>
    <path d="M122,11.55a6.13,6.13,0,0,1,4,3.93,10,10,0,0,1-.55,6.59,10,10,0,0,1-4,5.36,6.17,6.17,0,0,1-5.55.34,7.15,7.15,0,0,1-2.61-1.63,5.28,5.28,0,0,1-1.39-2.46l-0.2-.08-1.27,1.79-1.84-.69L117,2.48l2.57,1-2,5.4q-0.6,1.61-1.35,3.17l0.14,0.05A5.83,5.83,0,0,1,122,11.55Zm-1.23,2a4.29,4.29,0,0,0-3.9.07,8.43,8.43,0,0,0-2.73,4.15v0.11q-1.21,3.21-.67,5a4.32,4.32,0,0,0,2.92,2.67,3.77,3.77,0,0,0,3.73-.37A8.6,8.6,0,0,0,122.81,21a8.3,8.3,0,0,0,.63-4.84,3.89,3.89,0,0,0-2.64-2.65Z"/>
    <path d="M141.91,33a9.23,9.23,0,0,1-5.38,4,7.32,7.32,0,0,1-6-1.41,7.63,7.63,0,0,1-2.69-3.18,6.94,6.94,0,0,1-.46-4,10.58,10.58,0,0,1,1.87-4.31,9.2,9.2,0,0,1,5.33-4,7.3,7.3,0,0,1,6,1.43,7.16,7.16,0,0,1,3.26,5.13A9.13,9.13,0,0,1,141.91,33Zm-10.35-7.26a7.84,7.84,0,0,0-1.74,4.64,4.31,4.31,0,0,0,2.06,3.45,4.3,4.3,0,0,0,3.92.75,7.81,7.81,0,0,0,3.78-3.21,7.56,7.56,0,0,0,1.7-4.61,4.41,4.41,0,0,0-2.1-3.42q-4-2.84-7.62,2.35v0Z"/>
    <path d="M153.68,33l-8.2,7a4.32,4.32,0,0,0-1.7,2.65,3.65,3.65,0,0,0,1.08,2.78,4.58,4.58,0,0,0,3.53,1.92,7.29,7.29,0,0,0,4.27-2.11l6.63-5.67,1.79,2.1L148.36,52.59l-1.47-1.72,1.42-1.74-0.09-.1a4.92,4.92,0,0,1-2.79-.4,7.31,7.31,0,0,1-2.57-2,6.4,6.4,0,0,1-1.86-4.4q0.11-2.11,2.53-4.18l8.33-7.12Z"/>
    <path d="M154.85,60.26a8.63,8.63,0,0,0,.7,1,5.66,5.66,0,0,0,.74.83l-1.84,1a6.14,6.14,0,0,1-.86-0.88,8.3,8.3,0,0,1-.93-1.34q-2.38-4.3,2.15-6.8l8.53-4.72-1.14-2.07,1.15-.63,2.12,1.56,3.65-.77,0.79,1.43-3.36,1.86L168.87,55,167,56l-2.34-4.23-8.46,4.68a3.24,3.24,0,0,0-1.61,1.68A2.45,2.45,0,0,0,154.85,60.26Z"/>
    <path d="M160,82.56l2.22-1V81.44a7,7,0,0,1-2.59-2,7.68,7.68,0,0,1-1.18-3,5.49,5.49,0,0,1,.48-4.06,4.73,4.73,0,0,1,3.3-2.12q5-1,6.86,6.78l0.68,2.75,1-.2a4.09,4.09,0,0,0,2.59-1.38,3.4,3.4,0,0,0,.35-2.77,7.84,7.84,0,0,0-.9-2.37,20.67,20.67,0,0,0-1.32-2l1.84-1.24a12.4,12.4,0,0,1,1.59,2.49,11.94,11.94,0,0,1,1,2.82,6.54,6.54,0,0,1-.39,4.69,5.51,5.51,0,0,1-3.88,2.32L160.4,84.52Zm0.71-5.93a5.07,5.07,0,0,0,2,3.29,4.61,4.61,0,0,0,3.72.57l1.48-.31-0.61-2.4a9,9,0,0,0-1.75-3.93,2.77,2.77,0,0,0-2.76-.77A2.53,2.53,0,0,0,161,74.27a3.3,3.3,0,0,0-.28,2.36h0Z"/>
    <path d="M177.52,97a6.13,6.13,0,0,1-2.46,5,12.15,12.15,0,0,1-12.77-.5,6.17,6.17,0,0,1-2.08-5.16,7.15,7.15,0,0,1,.72-3,5.28,5.28,0,0,1,1.89-2.1V91l-2.1-.64,0.07-2,23.71,0.86L184.42,92l-5.76-.21q-1.72-.06-3.44-0.28v0.15A5.83,5.83,0,0,1,177.52,97Zm-2.25-.54a4.29,4.29,0,0,0-1.3-3.68q-1.39-1.15-4.81-1.27H169q-3.43-.13-4.94.94A4.32,4.32,0,0,0,162.5,96a3.77,3.77,0,0,0,1.5,3.46,8.6,8.6,0,0,0,4.74,1.28,8.3,8.3,0,0,0,4.79-.94,3.89,3.89,0,0,0,1.74-3.36v0Z"/>
    <path d="M163.55,122.61A9.23,9.23,0,0,1,158,118.8a7.32,7.32,0,0,1-.57-6.15,7.62,7.62,0,0,1,2.16-3.56,6.94,6.94,0,0,1,3.68-1.72,10.58,10.58,0,0,1,4.68.4,9.2,9.2,0,0,1,5.52,3.77,7.3,7.3,0,0,1,.55,6.14,7.16,7.16,0,0,1-3.83,4.72A9.13,9.13,0,0,1,163.55,122.61Zm3.6-12.12a7.84,7.84,0,0,0-5-.17,4.9,4.9,0,0,0-2.08,7,7.81,7.81,0,0,0,4.24,2.56,7.56,7.56,0,0,0,4.91.15,4.41,4.41,0,0,0,2.58-3.08q1.43-4.65-4.65-6.46h0Z"/>
    <path d="M167.17,133.83l-9.23-5.57a4.32,4.32,0,0,0-3-.78,3.65,3.65,0,0,0-2.3,1.9,4.57,4.57,0,0,0-.71,4,7.28,7.28,0,0,0,3.35,3.39l7.47,4.51-1.43,2.36L147,135l1.17-1.93,2.1,0.8,0.07-.12a4.92,4.92,0,0,1-.5-2.78,7.32,7.32,0,0,1,1.09-3.07,6.39,6.39,0,0,1,3.59-3.15q2-.56,4.76,1.08l9.39,5.66Z"/>
    <path d="M141.7,143.53a8.56,8.56,0,0,0-.77,1,5.64,5.64,0,0,0-.55,1l-1.55-1.43a6.14,6.14,0,0,1,.56-1.09,8.24,8.24,0,0,1,1-1.3q3.33-3.61,7.13-.11l7.16,6.6,1.6-1.74,1,0.89-0.82,2.5L158.3,153l-1.11,1.2-2.83-2.6-3.28,3.55-1.57-1.45,3.28-3.55-7.11-6.55a3.23,3.23,0,0,0-2.11-1A2.45,2.45,0,0,0,141.7,143.53Z"/>
    <path d="M122.18,155.49l1.66,1.78,0.1-.06a7,7,0,0,1,1.08-3.09,7.69,7.69,0,0,1,2.42-2.06,5.49,5.49,0,0,1,4-.84,4.73,4.73,0,0,1,3.06,2.45q2.57,4.4-4.24,8.66l-2.39,1.52,0.5,0.86a4.09,4.09,0,0,0,2.13,2,3.41,3.41,0,0,0,2.73-.55,7.83,7.83,0,0,0,2-1.61,20.54,20.54,0,0,0,1.47-1.88l1.76,1.35a12.44,12.44,0,0,1-1.85,2.3,12,12,0,0,1-2.36,1.82,6.55,6.55,0,0,1-4.57,1.12,5.5,5.5,0,0,1-3.43-2.94l-5.76-9.85Zm5.85-1.21a5.07,5.07,0,0,0-2.5,2.9,4.62,4.62,0,0,0,.64,3.71l0.76,1.3,2.08-1.34a9,9,0,0,0,3.16-2.91,2.77,2.77,0,0,0-.15-2.86,2.53,2.53,0,0,0-1.71-1.33,3.3,3.3,0,0,0-2.31.53h0Z"/>
    <path d="M114,176.69a6.13,6.13,0,0,1-5.54-.75,12.15,12.15,0,0,1-3.56-12.27,6.17,6.17,0,0,1,4.24-3.6,7.15,7.15,0,0,1,3.07-.26,5.27,5.27,0,0,1,2.59,1.13l0.21-.06q0-1.88,0-2.2l1.89-.55,6.66,22.77-2.63.77-1.62-5.53q-0.48-1.65-.82-3.35h-0.15A5.83,5.83,0,0,1,114,176.69Zm-0.2-2.31a4.29,4.29,0,0,0,3.08-2.39q0.65-1.68-.31-5v-0.12q-1-3.29-2.45-4.39a4.32,4.32,0,0,0-3.93-.38,3.77,3.77,0,0,0-2.76,2.53,8.6,8.6,0,0,0,.28,4.9,8.3,8.3,0,0,0,2.4,4.25,3.89,3.89,0,0,0,3.74.6h0Z"/>
    <path d="M85.31,171.5a9.23,9.23,0,0,1,1.87-6.5,7.32,7.32,0,0,1,5.66-2.48,7.63,7.63,0,0,1,4.06.93,6.94,6.94,0,0,1,2.79,3,10.58,10.58,0,0,1,1.09,4.57,9.21,9.21,0,0,1-1.84,6.43,7.3,7.3,0,0,1-5.66,2.46,7.16,7.16,0,0,1-5.69-2.14A9.13,9.13,0,0,1,85.31,171.5Zm12.63-.41a7.84,7.84,0,0,0-1.4-4.75,4.9,4.9,0,0,0-7.31.23,7.81,7.81,0,0,0-1.1,4.83,7.57,7.57,0,0,0,1.41,4.71,4.41,4.41,0,0,0,3.73,1.47Q98.14,177.43,97.94,171.09Z"/>
    <path d="M75.83,178.51L78.18,168a4.32,4.32,0,0,0-.23-3.14,3.65,3.65,0,0,0-2.53-1.57,4.57,4.57,0,0,0-4,.58,7.29,7.29,0,0,0-2.15,4.25l-1.9,8.51L64.7,176l3.64-16.34,2.2,0.49-0.09,2.24h0.13A4.92,4.92,0,0,1,73,161a7.31,7.31,0,0,1,3.25.05,6.4,6.4,0,0,1,4.13,2.4q1.18,1.75.49,4.86l-2.39,10.7Z"/>
    <path d="M58.57,157.43a8.67,8.67,0,0,0-1.18-.42,5.63,5.63,0,0,0-1.09-.22l0.86-1.92a6.12,6.12,0,0,1,1.21.19,8.27,8.27,0,0,1,1.55.52q4.48,2,2.35,6.73l-4,8.88,2.15,1-0.54,1.2H57.25l-2.47,2.8-1.49-.67,1.58-3.5-4.41-2,0.88-1.95,4.41,2,4-8.81A3.24,3.24,0,0,0,60,159,2.45,2.45,0,0,0,58.57,157.43Z"/>
    <path d="M41,142.65l-1.17,2.14L40,144.87a7,7,0,0,1,3.28,0,7.69,7.69,0,0,1,2.72,1.7,5.49,5.49,0,0,1,2,3.53,4.73,4.73,0,0,1-1.36,3.67q-3.36,3.82-9.56-1.3l-2.2-1.79-0.65.74A4.09,4.09,0,0,0,33,154.09a3.41,3.41,0,0,0,1.38,2.42,7.84,7.84,0,0,0,2.15,1.36,20.72,20.72,0,0,0,2.25.8l-0.73,2.1a12.41,12.41,0,0,1-2.77-1,11.93,11.93,0,0,1-2.47-1.67,6.54,6.54,0,0,1-2.5-4A5.51,5.51,0,0,1,32,149.9l7.53-8.56Zm3,5.17a5.07,5.07,0,0,0-3.54-1.46,4.62,4.62,0,0,0-3.32,1.78l-1,1.13,1.93,1.55a9,9,0,0,0,3.76,2.09,2.77,2.77,0,0,0,2.67-1,2.53,2.53,0,0,0,.73-2A3.3,3.3,0,0,0,44,147.82h0Z"/>
    <path d="M18.38,141.68a6.13,6.13,0,0,1-1-5.5,10,10,0,0,1,4.2-5.11,10,10,0,0,1,6.31-2.16,6.17,6.17,0,0,1,4.76,2.88,7.15,7.15,0,0,1,1.22,2.83,5.28,5.28,0,0,1-.25,2.81l0.12,0.18q1.77-.66,2.06-0.75l1.12,1.61L17.4,152l-1.57-2.25,4.73-3.29a33.48,33.48,0,0,1,2.92-1.84l-0.09-.13A5.83,5.83,0,0,1,18.38,141.68Zm2.13-.92a4.29,4.29,0,0,0,3.25,2.16q1.8,0.08,4.61-1.87l0.1-.07q2.82-2,3.38-3.72a4.32,4.32,0,0,0-.89-3.85,3.77,3.77,0,0,0-3.28-1.82,8.6,8.6,0,0,0-4.56,1.82A8.31,8.31,0,0,0,19.86,137,3.89,3.89,0,0,0,20.51,140.76Z"/>
    <path d="M14.17,112.79a9.23,9.23,0,0,1,6.73-.28A7.32,7.32,0,0,1,25,117.09a7.63,7.63,0,0,1,.41,4.14,6.94,6.94,0,0,1-1.92,3.59,10.58,10.58,0,0,1-4,2.49,9.2,9.2,0,0,1-6.68.3A7.3,7.3,0,0,1,8.74,123,7.16,7.16,0,0,1,9,116.94,9.13,9.13,0,0,1,14.17,112.79Zm4.39,11.85a7.84,7.84,0,0,0,4.06-2.83,4.9,4.9,0,0,0-2.09-6.61l-0.44-.2a7.81,7.81,0,0,0-4.93.49,7.57,7.57,0,0,0-4,2.83,4.41,4.41,0,0,0-.21,4q1.67,4.53,7.62,2.32h0Z"/>
    <path d="M4.54,106l10.73-1.08a4.32,4.32,0,0,0,2.91-1.2,3.65,3.65,0,0,0,.7-2.9,4.57,4.57,0,0,0-1.8-3.59,7.29,7.29,0,0,0-4.71-.71l-8.68.87L3.4,94.62l16.66-1.68,0.23,2.25-2.16.62V96a4.92,4.92,0,0,1,2.06,1.92,7.32,7.32,0,0,1,1,3.1,6.4,6.4,0,0,1-1,4.67q-1.29,1.67-4.46,2l-10.91,1.1Z"/>
    <path d="M19.08,82.94a8.58,8.58,0,0,0,0-1.25,5.62,5.62,0,0,0-.13-1.1L21,80.8a6.15,6.15,0,0,1,.23,1.2,8.28,8.28,0,0,1,0,1.63Q20.78,88.52,15.63,88L5.94,87,5.71,89.38,4.4,89.25,3.55,86.76,0.1,85.31l0.16-1.62,3.82,0.38,0.48-4.81L6.7,79.48,6.21,84.29l9.62,1a3.24,3.24,0,0,0,2.28-.47A2.45,2.45,0,0,0,19.08,82.94Z"/>
    <path d="M27.53,61.65l-2.4-.43v0.11a7,7,0,0,1,1,3.12,7.68,7.68,0,0,1-.71,3.1,5.49,5.49,0,0,1-2.7,3.06,4.73,4.73,0,0,1-3.92-.13q-4.74-2-1.8-9.48l1-2.65L17,58a4.09,4.09,0,0,0-2.91-.34,3.4,3.4,0,0,0-1.86,2.08,7.83,7.83,0,0,0-.61,2.47,20.69,20.69,0,0,0,0,2.39H9.45a12.42,12.42,0,0,1,.1-3,11.92,11.92,0,0,1,.8-2.87,6.54,6.54,0,0,1,3-3.64,5.51,5.51,0,0,1,4.51.3l10.51,4.44Zm-4,4.47a5.07,5.07,0,0,0,.26-3.82,4.62,4.62,0,0,0-2.74-2.59l-1.39-.59L18.8,61.44A9,9,0,0,0,18,65.67a2.77,2.77,0,0,0,1.83,2.21,2.53,2.53,0,0,0,2.17,0,3.3,3.3,0,0,0,1.57-1.76h0Z"/>
    <path d="M21.32,39.82a6.13,6.13,0,0,1,4.89-2.72,10,10,0,0,1,6.17,2.38,10,10,0,0,1,4,5.31,6.17,6.17,0,0,1-1.23,5.42,7.16,7.16,0,0,1-2.3,2,5.28,5.28,0,0,1-2.75.65l-0.1.16,1.36,1.72-1.18,1.57-19-14.22,1.65-2.2,4.61,3.46a29.25,29.25,0,0,1,2.67,2.19l0.09-.12A5.83,5.83,0,0,1,21.32,39.82Zm1.54,1.73a4.29,4.29,0,0,0-1,3.76q0.49,1.74,3.22,3.79l0.1,0.07q2.75,2.06,4.6,2a4.32,4.32,0,0,0,3.38-2,3.77,3.77,0,0,0,.69-3.68,8.6,8.6,0,0,0-3.16-3.75,8.3,8.3,0,0,0-4.48-2,3.89,3.89,0,0,0-3.34,1.86h0Z"/>
    <path d="M47.41,26.71A9.23,9.23,0,0,1,49.8,33a7.32,7.32,0,0,1-3,5.39,7.62,7.62,0,0,1-3.8,1.7,6.94,6.94,0,0,1-4-.68,10.58,10.58,0,0,1-3.62-3A9.21,9.21,0,0,1,33,30.17a7.3,7.3,0,0,1,3-5.37,7.16,7.16,0,0,1,5.84-1.71A9.13,9.13,0,0,1,47.41,26.71Zm-9.85,7.92a7.85,7.85,0,0,0,4,3A4.9,4.9,0,0,0,47.22,33a7.81,7.81,0,0,0-2-4.52,7.57,7.57,0,0,0-4-2.91,4.41,4.41,0,0,0-3.87,1.06q-3.77,3,.2,8h0Z"/>
    <path d="M50.8,15.41l4.43,9.83a4.32,4.32,0,0,0,2.07,2.37,3.65,3.65,0,0,0,3-.26,4.57,4.57,0,0,0,2.83-2.85,7.28,7.28,0,0,0-.83-4.69l-3.59-7.95,2.52-1.13L68.08,26,66,26.91l-1.27-1.85-0.12.06a4.92,4.92,0,0,1-1.17,2.57A7.31,7.31,0,0,1,60.8,29.6a6.39,6.39,0,0,1-4.74.55q-2-.69-3.3-3.59l-4.51-10Z"/>
    <path d="M77.25,21.92a8.61,8.61,0,0,0,1.2-.38,5.66,5.66,0,0,0,1-.47l0.46,2a6.11,6.11,0,0,1-1.08.58,8.24,8.24,0,0,1-1.55.51q-4.79,1.07-5.92-4L69.23,10.7l-2.31.52L66.64,10l2.1-1.59L69,4.65l1.59-.36L71.45,8l4.72-1,0.47,2.08-4.72,1.06L74,19.56a3.23,3.23,0,0,0,1.16,2A2.45,2.45,0,0,0,77.25,21.92Z"/>
  </g>
</svg>
