<svg id="Main_Menu" data-name="Main Menu" xmlns="http://www.w3.org/2000/svg" viewBox="0 0 181 179.63">
  <title>icon-contact</title>
  <g>
    <path d="M99.31,23.52a7.25,7.25,0,0,1-5.41-2.78,9.2,9.2,0,0,1-1.38-6.57A9.47,9.47,0,0,1,95.2,7.88a7.41,7.41,0,0,1,6-1.71,11.76,11.76,0,0,1,2.39.49,8,8,0,0,1,1.91.84l-1.06,2.21a10.72,10.72,0,0,0-3.54-1.15A4.4,4.4,0,0,0,97,9.79a7.86,7.86,0,0,0-1.67,4.63,7.69,7.69,0,0,0,.75,4.76,4.2,4.2,0,0,0,3.41,2A10.42,10.42,0,0,0,104,20.6L103.72,23A9.38,9.38,0,0,1,99.31,23.52Z"/>
    <path d="M123,20.82a9.29,9.29,0,0,1-4,5.44,7.36,7.36,0,0,1-6.2.35,7.67,7.67,0,0,1-3.5-2.3,7,7,0,0,1-1.6-3.77,10.65,10.65,0,0,1,.58-4.69,9.26,9.26,0,0,1,4-5.41,7.34,7.34,0,0,1,6.2-.33,7.2,7.2,0,0,1,4.61,4A9.18,9.18,0,0,1,123,20.82Zm-12-4.06a7.89,7.89,0,0,0-.35,5,4.92,4.92,0,0,0,7,2.35,7.86,7.86,0,0,0,2.73-4.17A7.61,7.61,0,0,0,120.7,15a4.43,4.43,0,0,0-3-2.7q-4.7-1.59-6.78,4.45H111Z"/>
    <path d="M132.59,36.55l5.9-9a4.42,4.42,0,0,0,.91-3.06,3.68,3.68,0,0,0-1.84-2.41,4.59,4.59,0,0,0-3.93-.86,7.39,7.39,0,0,0-3.54,3.26l-4.78,7.3L123,30.26l9.23-14.08,1.86,1.22-0.92,2.15,0.13,0.08a5.19,5.19,0,0,1,2.89-.41,7.06,7.06,0,0,1,3,1.14,6.26,6.26,0,0,1,3,3.78,6.37,6.37,0,0,1-1.31,4.73l-6,9.17Z"/>
    <path d="M143.18,43.56a8.73,8.73,0,0,0,1,.81,5.62,5.62,0,0,0,.95.59l-1.49,1.5a6.1,6.1,0,0,1-1.08-.6,8.33,8.33,0,0,1-1.27-1q-3.5-3.48.17-7.17l6.91-7L146.64,29l0.93-.94L150.05,29l3.31-1.77,1.16,1.16-2.72,2.74,3.45,3.43-1.51,1.52-3.45-3.43-6.86,6.89a3.27,3.27,0,0,0-1.08,2.08A2.47,2.47,0,0,0,143.18,43.56Z"/>
    <path d="M150.9,56.94l1.68-1.79-0.07-.1a7.07,7.07,0,0,1-3.18-.87,7.74,7.74,0,0,1-2.23-2.29,5.52,5.52,0,0,1-1.11-4,4.76,4.76,0,0,1,2.25-3.24q4.23-2.88,9,3.66l1.69,2.3,0.82-.56a4.11,4.11,0,0,0,1.87-2.27,3.43,3.43,0,0,0-.74-2.71,7.86,7.86,0,0,0-1.75-1.86,20.61,20.61,0,0,0-2-1.34L158.37,40a12.52,12.52,0,0,1,2.44,1.7,12,12,0,0,1,2,2.24,6.58,6.58,0,0,1,1.44,4.51,5.54,5.54,0,0,1-2.71,3.64L152,58.6Zm-1.61-5.78a5.1,5.1,0,0,0,3.08,2.31,4.64,4.64,0,0,0,3.68-.9l1.26-.85-1.49-2a9,9,0,0,0-3.14-3,2.78,2.78,0,0,0-2.86.34,2.55,2.55,0,0,0-1.22,1.8A3.32,3.32,0,0,0,149.29,51.16Z"/>
    <path d="M156,68.64a7.25,7.25,0,0,1,0-6.08,9.21,9.21,0,0,1,5.19-4.25,9.48,9.48,0,0,1,6.82-.52,7.41,7.41,0,0,1,4.29,4.57,11.86,11.86,0,0,1,.7,2.34,8.11,8.11,0,0,1,.13,2.09l-2.45.07a10.71,10.71,0,0,0-.61-3.67,4.4,4.4,0,0,0-2.88-2.89,7.86,7.86,0,0,0-4.88.65,7.7,7.7,0,0,0-3.89,2.86,4.2,4.2,0,0,0-.17,3.93,10.41,10.41,0,0,0,2.53,3.69l-2.28.91A9.37,9.37,0,0,1,156,68.64Z"/>
    <path d="M161.58,80.68a8.73,8.73,0,0,0,.36,1.21,5.67,5.67,0,0,0,.46,1l-2.07.43a6.13,6.13,0,0,1-.56-1.1,8.25,8.25,0,0,1-.49-1.57q-1-4.83,4.09-5.89l9.59-2-0.48-2.33,1.29-.27,1.57,2.13,3.74,0.35,0.33,1.61-3.78.78,1,4.76-2.1.44-1-4.76-9.52,2a3.25,3.25,0,0,0-2,1.15A2.46,2.46,0,0,0,161.58,80.68Z"/>
    <path d="M159.94,100.09a7.25,7.25,0,0,1,2.66-5.47,9.21,9.21,0,0,1,6.54-1.53,9.47,9.47,0,0,1,6.35,2.54,7.41,7.41,0,0,1,1.84,6,11.85,11.85,0,0,1-.44,2.4,8.1,8.1,0,0,1-.8,1.93l-2.23-1a10.72,10.72,0,0,0,1.07-3.56,4.41,4.41,0,0,0-1.31-3.87,7.85,7.85,0,0,0-4.62-1.6,7.69,7.69,0,0,0-4.75.85,4.2,4.2,0,0,0-1.89,3.45,10.41,10.41,0,0,0,.64,4.43l-2.45-.19A9.37,9.37,0,0,1,159.94,100.09Z"/>
    <path d="M163.15,123.7a9.28,9.28,0,0,1-5.52-3.91,7.36,7.36,0,0,1-.49-6.19,7.68,7.68,0,0,1,2.23-3.54,7,7,0,0,1,3.73-1.68,10.64,10.64,0,0,1,4.7.48,9.26,9.26,0,0,1,5.5,3.87,7.35,7.35,0,0,1,.47,6.19,7.2,7.2,0,0,1-3.92,4.69A9.18,9.18,0,0,1,163.15,123.7Zm3.79-12.13a7.88,7.88,0,0,0-5-.25,4.92,4.92,0,0,0-2.2,7A7.86,7.86,0,0,0,164,121a7.61,7.61,0,0,0,4.94.22,4.44,4.44,0,0,0,2.63-3.06q1.43-4.69-4.62-6.59h0Z"/>
    <path d="M147.63,133.66l9.13,5.71a4.44,4.44,0,0,0,3.08.85,3.69,3.69,0,0,0,2.37-1.89,4.58,4.58,0,0,0,.78-4q-0.59-1.75-3.34-3.47l-7.4-4.62,1.46-2.34,14.29,9-1.18,1.88-2.17-.87-0.08.13a5.19,5.19,0,0,1,.47,2.88,7,7,0,0,1-1.07,3,6.27,6.27,0,0,1-3.71,3.1,6.38,6.38,0,0,1-4.76-1.21L146.19,136Z"/>
    <path d="M140.84,144.4a8.56,8.56,0,0,0-.79,1,5.68,5.68,0,0,0-.57,1l-1.53-1.46a6.12,6.12,0,0,1,.58-1.09,8.32,8.32,0,0,1,1-1.29q3.41-3.57,7.17,0l7.09,6.76,1.64-1.72,1,0.91-0.86,2.5,1.83,3.27-1.13,1.19-2.8-2.67-3.35,3.52-1.55-1.48,3.35-3.52-7-6.71a3.25,3.25,0,0,0-2.1-1A2.46,2.46,0,0,0,140.84,144.4Z"/>
    <path d="M127.64,152.41l1.82,1.64,0.1-.07a7.07,7.07,0,0,1,.8-3.2,7.74,7.74,0,0,1,2.24-2.28,5.52,5.52,0,0,1,3.93-1.2,4.76,4.76,0,0,1,3.28,2.18q3,4.17-3.47,9.06l-2.26,1.74,0.58,0.81a4.12,4.12,0,0,0,2.32,1.82,3.43,3.43,0,0,0,2.69-.79,7.87,7.87,0,0,0,1.82-1.79,20.83,20.83,0,0,0,1.3-2l1.89,1.2A12.47,12.47,0,0,1,143,162a12,12,0,0,1-2.2,2,6.58,6.58,0,0,1-4.48,1.53,5.54,5.54,0,0,1-3.7-2.64L126,153.57Zm5.75-1.74a5.1,5.1,0,0,0-2.24,3.13,4.64,4.64,0,0,0,1,3.66L133,158.7l2-1.53a9,9,0,0,0,2.91-3.2,2.78,2.78,0,0,0-.4-2.85,2.55,2.55,0,0,0-1.83-1.18,3.32,3.32,0,0,0-2.3.73h0Z"/>
    <path d="M116,157.79a7.25,7.25,0,0,1,6.08-.16,9.2,9.2,0,0,1,4.37,5.1,9.47,9.47,0,0,1,.67,6.81,7.41,7.41,0,0,1-4.47,4.39,11.77,11.77,0,0,1-2.34.72,8.07,8.07,0,0,1-2.08.18l-0.12-2.45a10.71,10.71,0,0,0,3.66-.69,4.41,4.41,0,0,0,2.83-2.94,7.87,7.87,0,0,0-.75-4.87,7.69,7.69,0,0,0-2.94-3.82A4.2,4.2,0,0,0,117,160a10.41,10.41,0,0,0-3.64,2.61l-1-2.26A9.37,9.37,0,0,1,116,157.79Z"/>
    <path d="M104.13,163.6a8.62,8.62,0,0,0-1.2.39,5.62,5.62,0,0,0-1,.48l-0.47-2.06a6.19,6.19,0,0,1,1.08-.59,8.31,8.31,0,0,1,1.56-.52q4.81-1.11,6,4l2.19,9.55,2.32-.53,0.29,1.29-2.1,1.61L112.53,181l-1.6.37L110,177.52l-4.74,1.09-0.48-2.09,4.74-1.09L107.37,166a3.25,3.25,0,0,0-1.18-2A2.47,2.47,0,0,0,104.13,163.6Z"/>
    <path d="M84.7,162.37a7.25,7.25,0,0,1,5.53,2.54,9.21,9.21,0,0,1,1.67,6.5,9.47,9.47,0,0,1-2.4,6.4,7.41,7.41,0,0,1-6,2,11.79,11.79,0,0,1-2.41-.39,8.09,8.09,0,0,1-1.95-.76l1-2.25a10.72,10.72,0,0,0,3.58,1A4.41,4.41,0,0,0,87.57,176,7.86,7.86,0,0,0,89,171.3a7.69,7.69,0,0,0-1-4.73,4.2,4.2,0,0,0-3.49-1.81,10.42,10.42,0,0,0-4.42.74l0.19-2.5A9.38,9.38,0,0,1,84.7,162.37Z"/>
    <path d="M61.16,166.09A9.28,9.28,0,0,1,65,160.48a7.36,7.36,0,0,1,6.18-.62A7.67,7.67,0,0,1,74.73,162a7,7,0,0,1,1.76,3.69,10.64,10.64,0,0,1-.37,4.71,9.25,9.25,0,0,1-3.76,5.6,7.34,7.34,0,0,1-6.17.6,7.2,7.2,0,0,1-4.78-3.81A9.18,9.18,0,0,1,61.16,166.09Zm12.21,3.53a7.88,7.88,0,0,0,.14-5,4.92,4.92,0,0,0-7.06-2,7.85,7.85,0,0,0-2.55,4.28,7.61,7.61,0,0,0-.11,4.94,4.43,4.43,0,0,0,3.11,2.57Q71.6,175.75,73.37,169.62Z"/>
    <path d="M50.89,150.8L45.38,160a4.43,4.43,0,0,0-.78,3.09,3.68,3.68,0,0,0,1.94,2.33,4.59,4.59,0,0,0,4,.69q1.74-.63,3.4-3.41l4.46-7.5,2.37,1.41-8.61,14.47L50.22,170,51,167.81l-0.13-.08a5.19,5.19,0,0,1-2.87.53,7.05,7.05,0,0,1-3-1,6.26,6.26,0,0,1-3.18-3.64,6.38,6.38,0,0,1,1.1-4.79l5.61-9.42Z"/>
    <path d="M40,144.24a8.7,8.7,0,0,0-1-.77,5.69,5.69,0,0,0-1-.55l1.43-1.56a6.2,6.2,0,0,1,1.1.56,8.32,8.32,0,0,1,1.31,1q3.65,3.33.14,7.17L35.4,157.3l1.75,1.6-0.89,1-2.52-.81L30.51,161l-1.21-1.11L31.9,157l-3.59-3.28,1.45-1.59,3.59,3.28,6.55-7.18a3.26,3.26,0,0,0,1-2.12A2.47,2.47,0,0,0,40,144.24Z"/>
    <path d="M31.71,131.21l-1.6,1.86,0.07,0.1a7.07,7.07,0,0,1,3.21.73,7.73,7.73,0,0,1,2.33,2.19A5.52,5.52,0,0,1,37,140a4.76,4.76,0,0,1-2.11,3.33q-4.11,3.06-9.13-3.27L24,137.83l-0.8.6a4.11,4.11,0,0,0-1.77,2.35,3.42,3.42,0,0,0,.85,2.67,7.87,7.87,0,0,0,1.83,1.78,20.74,20.74,0,0,0,2,1.26L25,148.41a12.5,12.5,0,0,1-2.51-1.59,12,12,0,0,1-2.08-2.16,6.58,6.58,0,0,1-1.63-4.45,5.54,5.54,0,0,1,2.55-3.76l9.2-6.85Zm1.86,5.71a5.1,5.1,0,0,0-3.18-2.17,4.64,4.64,0,0,0-3.64,1.06l-1.22.91,1.57,1.93a9,9,0,0,0,3.26,2.84,2.78,2.78,0,0,0,2.85-.47,2.55,2.55,0,0,0,1.14-1.85,3.32,3.32,0,0,0-.78-2.25h0Z"/>
    <path d="M26.07,119.73a7.25,7.25,0,0,1,.29,6.07,9.2,9.2,0,0,1-5,4.48,9.47,9.47,0,0,1-6.79.81,7.41,7.41,0,0,1-4.49-4.38,11.77,11.77,0,0,1-.77-2.32,8.07,8.07,0,0,1-.22-2.08l2.44-.18a10.71,10.71,0,0,0,.77,3.64,4.41,4.41,0,0,0,3,2.77,7.86,7.86,0,0,0,4.85-.86,7.69,7.69,0,0,0,3.76-3,4.2,4.2,0,0,0,0-3.94,10.42,10.42,0,0,0-2.69-3.58l2.24-1A9.38,9.38,0,0,1,26.07,119.73Z"/>
    <path d="M20,107.95a8.58,8.58,0,0,0-.41-1.19,5.63,5.63,0,0,0-.5-1l2-.52a6.14,6.14,0,0,1,.61,1.07,8.32,8.32,0,0,1,.56,1.54q1.21,4.79-3.83,6.06L9,116.31l0.58,2.3-1.28.32-1.66-2.06-3.75-.19-0.4-1.59,3.75-.95L5,109.44l2.08-.53,1.19,4.71,9.42-2.38a3.25,3.25,0,0,0,2-1.22A2.46,2.46,0,0,0,20,107.95Z"/>
    <path d="M20.81,88.49a7.25,7.25,0,0,1-2.42,5.58,9.21,9.21,0,0,1-6.47,1.81,9.47,9.47,0,0,1-6.45-2.27A7.41,7.41,0,0,1,3.38,87.7a11.79,11.79,0,0,1,.34-2.42,8.07,8.07,0,0,1,.72-2l2.26,1a10.71,10.71,0,0,0-.92,3.6,4.41,4.41,0,0,0,1.47,3.81A7.86,7.86,0,0,0,12,93a7.69,7.69,0,0,0,4.7-1,4.2,4.2,0,0,0,1.74-3.53A10.42,10.42,0,0,0,17.6,84l2.45,0.08A9.38,9.38,0,0,1,20.81,88.49Z"/>
    <path d="M16.58,65a9.28,9.28,0,0,1,5.69,3.67A7.36,7.36,0,0,1,23,74.88a7.67,7.67,0,0,1-2,3.63,7,7,0,0,1-3.65,1.84,10.64,10.64,0,0,1-4.72-.27A9.26,9.26,0,0,1,7,76.45a7.34,7.34,0,0,1-.74-6.16A7.2,7.2,0,0,1,9.9,65.43,9.18,9.18,0,0,1,16.58,65ZM13.32,77.33a7.89,7.89,0,0,0,5,0,4.92,4.92,0,0,0,1.89-7.1,7.85,7.85,0,0,0-4.34-2.45,7.61,7.61,0,0,0-4.94,0A4.43,4.43,0,0,0,8.41,71Q7.15,75.69,13.32,77.33Z"/>
    <path d="M31.65,54.43l-9.36-5.31a4.43,4.43,0,0,0-3.11-.71,3.68,3.68,0,0,0-2.28,2,4.59,4.59,0,0,0-.61,4q0.67,1.73,3.48,3.32L27.36,62,26,64.41l-14.65-8.3,1.1-1.93L14.66,55l0.08-.13A5.19,5.19,0,0,1,14.13,52a7.05,7.05,0,0,1,.94-3,6.26,6.26,0,0,1,3.57-3.26,6.38,6.38,0,0,1,4.81,1L33,52Z"/>
    <path d="M38,43.41a8.67,8.67,0,0,0,.75-1,5.62,5.62,0,0,0,.53-1l1.59,1.39a6.19,6.19,0,0,1-.53,1.11,8.29,8.29,0,0,1-1,1.34q-3.25,3.72-7.16.3L24.81,39.1l-1.56,1.79-1-.87L23,37.48l-2-3.19L22.08,33,25,35.6l3.2-3.66,1.62,1.41L26.64,37,34,43.41a3.25,3.25,0,0,0,2.14,1A2.46,2.46,0,0,0,38,43.41Z"/>
    <path d="M50.83,34.83l-1.89-1.56-0.1.08a7.07,7.07,0,0,1-.66,3.23A7.73,7.73,0,0,1,46,39a5.52,5.52,0,0,1-3.87,1.36,4.76,4.76,0,0,1-3.37-2q-3.15-4,3.08-9.2L44,27.25l-0.61-.79A4.11,4.11,0,0,0,41,24.74a3.42,3.42,0,0,0-2.65.91,7.88,7.88,0,0,0-1.75,1.86,20.79,20.79,0,0,0-1.21,2.07l-1.94-1.12A12.49,12.49,0,0,1,35,25.93a12,12,0,0,1,2.11-2.13,6.58,6.58,0,0,1,4.41-1.72,5.54,5.54,0,0,1,3.81,2.47l7,9Zm-5.67,2a5.1,5.1,0,0,0,2.11-3.22A4.64,4.64,0,0,0,46.13,30L45.2,28.8l-1.89,1.61a9,9,0,0,0-2.77,3.32,2.78,2.78,0,0,0,.53,2.83A2.55,2.55,0,0,0,43,37.66a3.32,3.32,0,0,0,2.21-.85v0Z"/>
    <path d="M62.18,29a7.25,7.25,0,0,1-6.07.42,9.2,9.2,0,0,1-4.58-4.91,9.47,9.47,0,0,1-1-6.77,7.42,7.42,0,0,1,4.28-4.58,11.78,11.78,0,0,1,2.3-.82A8.08,8.08,0,0,1,59.22,12l0.23,2.44a10.72,10.72,0,0,0-3.62.85,4.41,4.41,0,0,0-2.7,3.06,7.86,7.86,0,0,0,1,4.83,7.69,7.69,0,0,0,3.1,3.69,4.2,4.2,0,0,0,3.93-.08A10.42,10.42,0,0,0,64.68,24l1.06,2.21A9.37,9.37,0,0,1,62.18,29Z"/>
    <path d="M73.85,22.63A8.77,8.77,0,0,0,75,22.19a5.72,5.72,0,0,0,1-.53l0.56,2a6.12,6.12,0,0,1-1.06.63,8.28,8.28,0,0,1-1.53.59q-4.76,1.31-6.14-3.7l-2.6-9.44L63,12.41l-0.4-1.27,2-1.7,0.11-3.75,1.58-.44,1,3.72L72,7.68l0.57,2.07L67.92,11l2.58,9.37a3.25,3.25,0,0,0,1.27,2A2.47,2.47,0,0,0,73.85,22.63Z"/>
  </g>
</svg>
