<svg id="Main_Menu" data-name="Main Menu" xmlns="http://www.w3.org/2000/svg" viewBox="0 0 181 179.63">
  <title>icon</title>
  <path d="M63.79,130.21a17.32,17.32,0,0,1-7.25-1.29v-7.4a25.94,25.94,0,0,0,7.06,1q4.77,0,7.16-2.89t2.39-8.33V41.9H82v68.65q0,9.45-4.7,14.55T63.79,130.21Z"/>
  <path d="M129.2,125.35H118.33l-10.44-17-10.44,17H87.24l14.9-23.16L88.2,80.45H98.7l9.68,16.16,9.49-16.16h10.26L114,102.71Z"/>
  <g>
    <path d="M89.79,28.24a5.32,5.32,0,0,1-2.2-.52l0.13-2.27a8,8,0,0,0,2.15.41,2.68,2.68,0,0,0,2.24-.76A3.92,3.92,0,0,0,93,22.6L94.16,1.35l2.7,0.15-1.17,21A6.36,6.36,0,0,1,94,26.91,5.34,5.34,0,0,1,89.79,28.24Z"/>
    <path d="M105.61,16l-3.68-8.89,2.93,0.66,2.71,6.82,5.33-5,2.9,0.65-7.14,6.45,3.91,9.3-2.93-.66-2.86-7.22L101,23.36l-2.9-.65Z"/>
    <path d="M117,28.11l-2.44-1,6.06-14.89,2.44,1Zm5.06-20a1.47,1.47,0,0,1,2.07-1,1.6,1.6,0,0,1,.85.77,1.59,1.59,0,0,1-.05,1.35,1.62,1.62,0,0,1-.91,1,1.66,1.66,0,0,1-2-.82A1.65,1.65,0,0,1,122.07,8.12Z"/>
    <path d="M126.57,33.53a7.41,7.41,0,0,1-3.66-4.86,8.45,8.45,0,0,1,1.44-6.2,9.28,9.28,0,0,1,4.88-4.21,6.41,6.41,0,0,1,5.61.79,6.25,6.25,0,0,1,3.07,4.21,7.51,7.51,0,0,1-1.27,5.44l-0.84,1.35-9.35-5.82a6.16,6.16,0,0,0-1,4.26,4.84,4.84,0,0,0,2.42,3.18,12.68,12.68,0,0,0,2.2,1.1,14,14,0,0,0,2.77.68l-1.22,2a12.72,12.72,0,0,1-2.55-.64A14.28,14.28,0,0,1,126.57,33.53Zm7.11-12.67a3.82,3.82,0,0,0-3.18-.55,5.7,5.7,0,0,0-2.89,2.18l6.95,4.33a5.22,5.22,0,0,0,.93-3.46A3.57,3.57,0,0,0,133.68,20.86Z"/>
    <path d="M133.31,45.55a5.32,5.32,0,0,1-1.2-1.92l1.69-1.52A8,8,0,0,0,135,43.92a2.69,2.69,0,0,0,2.13,1,3.92,3.92,0,0,0,2.39-1.17l15.81-14.26,1.81,2L141.53,45.66a6.36,6.36,0,0,1-4.28,1.92A5.34,5.34,0,0,1,133.31,45.55Z"/>
    <path d="M153.2,48l3.64-8.91,1.62,2.53-2.88,6.75,7.31,0.19,1.6,2.5-9.61-.45L151.11,60l-1.62-2.53,3-7.14L144.75,50l-1.6-2.51Z"/>
    <path d="M152.75,64.61l-1-2.42,14.78-6.33,1,2.42ZM170.41,54a1.47,1.47,0,0,1,2.15.77,1.77,1.77,0,0,1-2.28,2.15,1.66,1.66,0,0,1-.86-2A1.65,1.65,0,0,1,170.41,54Z"/>
    <path d="M155.75,75.22a7.41,7.41,0,0,1,.82-6A8.45,8.45,0,0,1,162,65.8a9.29,9.29,0,0,1,6.43.44,6.41,6.41,0,0,1,3.43,4.51,6.25,6.25,0,0,1-.79,5.15,7.51,7.51,0,0,1-4.73,3l-1.55.37L162.2,68.54a6.16,6.16,0,0,0-3.72,2.31,4.84,4.84,0,0,0-.52,4,12.64,12.64,0,0,0,.79,2.33,14.07,14.07,0,0,0,1.49,2.43l-2.25.53a12.73,12.73,0,0,1-1.36-2.25A14.25,14.25,0,0,1,155.75,75.22Zm14-4a3.82,3.82,0,0,0-1.87-2.62,5.7,5.7,0,0,0-3.59-.49l1.89,8a5.22,5.22,0,0,0,3.09-1.8A3.57,3.57,0,0,0,169.71,71.23Z"/>
    <path d="M152.06,88.53a5.31,5.31,0,0,1,.5-2.2l2.27,0.11a8,8,0,0,0-.39,2.15,2.69,2.69,0,0,0,.78,2.24,3.92,3.92,0,0,0,2.52.85l21.27,1-0.13,2.71-21-1a6.36,6.36,0,0,1-4.39-1.65A5.34,5.34,0,0,1,152.06,88.53Z"/>
    <path d="M164.48,104.22l8.86-3.77-0.63,2.93-6.8,2.77,5.06,5.29-0.63,2.91-6.52-7.08-9.26,4,0.63-2.93,7.19-2.93-5.33-5.69,0.63-2.91Z"/>
    <path d="M152.46,115.72l1-2.45,14.95,5.91-1,2.45Zm20,4.87a1.47,1.47,0,0,1,1,2.06,1.77,1.77,0,0,1-3.13-.08,1.66,1.66,0,0,1,.8-2A1.65,1.65,0,0,1,172.5,120.6Z"/>
    <path d="M147.13,125.35a7.41,7.41,0,0,1,4.82-3.7,8.44,8.44,0,0,1,6.21,1.38,9.28,9.28,0,0,1,4.26,4.84,6.41,6.41,0,0,1-.74,5.62,6.25,6.25,0,0,1-4.18,3.11,7.51,7.51,0,0,1-5.46-1.22l-1.36-.83,5.73-9.4a6.16,6.16,0,0,0-4.27-1,4.84,4.84,0,0,0-3.16,2.45,12.72,12.72,0,0,0-1.08,2.21,14.05,14.05,0,0,0-.65,2.77l-2-1.2a12.75,12.75,0,0,1,.62-2.56A14.27,14.27,0,0,1,147.13,125.35Zm12.73,7a3.82,3.82,0,0,0,.52-3.18,5.7,5.7,0,0,0-2.21-2.87l-4.26,7a5.22,5.22,0,0,0,3.47.9A3.57,3.57,0,0,0,159.86,132.34Z"/>
    <path d="M135.15,132.22a5.32,5.32,0,0,1,1.91-1.21l1.54,1.67a8,8,0,0,0-1.79,1.25,2.69,2.69,0,0,0-1,2.14,3.92,3.92,0,0,0,1.19,2.38l14.4,15.68-2,1.83-14.25-15.52a6.36,6.36,0,0,1-2-4.26A5.34,5.34,0,0,1,135.15,132.22Z"/>
    <path d="M132.91,152.11l8.94,3.56-2.51,1.64-6.78-2.82-0.12,7.32-2.49,1.62,0.36-9.62-9.39-3.68,2.51-1.64,7.17,3,0.21-7.79,2.49-1.62Z"/>
    <path d="M116.29,151.82l2.41-1.06,6.47,14.72-2.41,1.06Zm10.82,17.55a1.47,1.47,0,0,1-.75,2.15,1.77,1.77,0,0,1-2.17-2.26,1.66,1.66,0,0,1,2-.88A1.65,1.65,0,0,1,127.12,169.37Z"/>
    <path d="M105.7,154.92a7.41,7.41,0,0,1,6,.76,8.45,8.45,0,0,1,3.44,5.35,9.29,9.29,0,0,1-.38,6.44,6.41,6.41,0,0,1-4.48,3.47,6.25,6.25,0,0,1-5.16-.74,7.51,7.51,0,0,1-3-4.71l-0.38-1.55,10.69-2.64a6.16,6.16,0,0,0-2.35-3.7,4.84,4.84,0,0,0-4-.48,12.67,12.67,0,0,0-2.32.81,14.05,14.05,0,0,0-2.42,1.51l-0.56-2.25a12.76,12.76,0,0,1,2.24-1.38A14.3,14.3,0,0,1,105.7,154.92Zm4.12,13.93a3.82,3.82,0,0,0,2.61-1.9,5.7,5.7,0,0,0,.45-3.6l-7.95,2a5.22,5.22,0,0,0,1.83,3.08A3.57,3.57,0,0,0,109.83,168.84Z"/>
    <path d="M92.38,151.36a5.31,5.31,0,0,1,2.21.48l-0.08,2.27a8,8,0,0,0-2.15-.37,2.69,2.69,0,0,0-2.23.8,3.92,3.92,0,0,0-.83,2.53l-0.79,21.27-2.71-.1,0.78-21.05a6.36,6.36,0,0,1,1.61-4.41A5.34,5.34,0,0,1,92.38,151.36Z"/>
    <path d="M76.79,163.92l3.85,8.82-2.94-.6-2.84-6.77-5.24,5.11-2.91-.6,7-6.58-4.08-9.23,2.94,0.6,3,7.16,5.64-5.39,2.91,0.6Z"/>
    <path d="M60.51,172.1a1.47,1.47,0,0,1-2,1,1.48,1.48,0,0,1-.84-2.11,1.62,1.62,0,0,1,.89-1,1.66,1.66,0,0,1,2,.78A1.65,1.65,0,0,1,60.51,172.1ZM65.19,152L67.65,153l-5.77,15L59.42,167Z"/>
    <path d="M55.48,146.75a7.41,7.41,0,0,1,3.75,4.79,8.45,8.45,0,0,1-1.32,6.23,9.28,9.28,0,0,1-4.8,4.3,6.41,6.41,0,0,1-5.62-.69,6.25,6.25,0,0,1-3.15-4.16,7.51,7.51,0,0,1,1.17-5.47l0.82-1.37L55.77,156a6.16,6.16,0,0,0,.94-4.28,4.84,4.84,0,0,0-2.48-3.13A12.69,12.69,0,0,0,52,147.56a14,14,0,0,0-2.78-.63l1.19-2a12.75,12.75,0,0,1,2.56.59A14.3,14.3,0,0,1,55.48,146.75Zm-6.87,12.79a3.83,3.83,0,0,0,3.19.49,5.7,5.7,0,0,0,2.85-2.24l-7-4.2a5.22,5.22,0,0,0-.86,3.47A3.57,3.57,0,0,0,48.61,159.55Z"/>
    <path d="M48.53,134.87a5.32,5.32,0,0,1,1.23,1.89l-1.66,1.55a8,8,0,0,0-1.27-1.78,2.68,2.68,0,0,0-2.15-1,3.92,3.92,0,0,0-2.37,1.21L26.79,151.3l-1.85-2,15.38-14.4a6.36,6.36,0,0,1,4.25-2A5.34,5.34,0,0,1,48.53,134.87Z"/>
    <path d="M28.61,132.8l-3.47,9-1.66-2.5,2.75-6.81-7.32-.06-1.65-2.47,9.62,0.27,3.59-9.43,1.66,2.5-2.91,7.2,7.8,0.14,1.65,2.47Z"/>
    <path d="M11.28,127.15a1.62,1.62,0,0,1-1.34.12,1.56,1.56,0,0,1,.08-2.93,1.62,1.62,0,0,1,1.35-.1,1.66,1.66,0,0,1,.9,2A1.65,1.65,0,0,1,11.28,127.15Zm17.45-11,1.08,2.4-14.66,6.61-1.08-2.4Z"/>
    <path d="M25.55,105.64a7.41,7.41,0,0,1-.7,6,8.45,8.45,0,0,1-5.32,3.5,9.29,9.29,0,0,1-6.44-.32,6.41,6.41,0,0,1-3.51-4.45,6.25,6.25,0,0,1,.69-5.17,7.51,7.51,0,0,1,4.68-3.06l1.55-.4,2.75,10.66a6.16,6.16,0,0,0,3.68-2.38,4.84,4.84,0,0,0,.44-4,12.7,12.7,0,0,0-.83-2.31,14,14,0,0,0-1.53-2.4l2.24-.58a12.72,12.72,0,0,1,1.4,2.22A14.3,14.3,0,0,1,25.55,105.64ZM11.66,109.9a3.82,3.82,0,0,0,1.92,2.59,5.7,5.7,0,0,0,3.6.42l-2-7.93a5.22,5.22,0,0,0-3.06,1.86A3.57,3.57,0,0,0,11.66,109.9Z"/>
    <path d="M29,92.28a5.32,5.32,0,0,1-.46,2.21l-2.27-.06a7.94,7.94,0,0,0,.35-2.16,2.68,2.68,0,0,0-.82-2.22,3.92,3.92,0,0,0-2.53-.8L2,88.66,2,86l21.06,0.58a6.36,6.36,0,0,1,4.42,1.57A5.34,5.34,0,0,1,29,92.28Z"/>
    <path d="M16.27,76.79L7.49,80.72l0.58-2.95,6.75-2.9L9.65,69.69l0.57-2.92,6.65,7,9.19-4.17-0.58,2.95-7.14,3.06,5.44,5.59-0.57,2.92Z"/>
    <path d="M7.95,60.57a1.58,1.58,0,0,1-.27-2.91,1.59,1.59,0,0,1,1.35,0,1.62,1.62,0,0,1,1,.88,1.66,1.66,0,0,1-.76,2A1.65,1.65,0,0,1,7.95,60.57Zm20.13,4.5-0.92,2.47L12.09,61.9,13,59.43Z"/>
    <path d="M33.22,55.35a7.41,7.41,0,0,1-4.75,3.8,8.45,8.45,0,0,1-6.24-1.26,9.29,9.29,0,0,1-4.35-4.76,6.41,6.41,0,0,1,.64-5.63,6.25,6.25,0,0,1,4.13-3.19,7.51,7.51,0,0,1,5.48,1.11l1.38,0.81-5.55,9.51a6.16,6.16,0,0,0,4.29.9,4.84,4.84,0,0,0,3.11-2.51,12.69,12.69,0,0,0,1-2.23,14,14,0,0,0,.6-2.79l2,1.17a12.79,12.79,0,0,1-.57,2.57A14.3,14.3,0,0,1,33.22,55.35ZM20.36,48.6a3.83,3.83,0,0,0-.46,3.19,5.7,5.7,0,0,0,2.26,2.83l4.13-7.07a5.22,5.22,0,0,0-3.48-.83A3.57,3.57,0,0,0,20.36,48.6Z"/>
    <path d="M45.06,48.27a5.32,5.32,0,0,1-1.88,1.25l-1.57-1.64a8,8,0,0,0,1.77-1.28,2.68,2.68,0,0,0,1-2.16,3.92,3.92,0,0,0-1.23-2.35l-14.7-15.4,2-1.87L44.93,40.05a6.36,6.36,0,0,1,2,4.23A5.34,5.34,0,0,1,45.06,48.27Z"/>
    <path d="M46.93,28.32l-9-3.39,2.48-1.69,6.83,2.69V18.62l2.46-1.67-0.18,9.62L59,30.08l-2.48,1.69-7.22-2.85-0.07,7.8-2.46,1.67Z"/>
    <path d="M52.42,10.95a1.62,1.62,0,0,1-.13-1.34,1.7,1.7,0,0,1,2-.92,1.59,1.59,0,0,1,1,1A1.62,1.62,0,0,1,55.34,11a1.66,1.66,0,0,1-2,.92A1.65,1.65,0,0,1,52.42,10.95ZM63.57,28.3L61.17,29.4,54.43,14.81l2.39-1.11Z"/>
    <path d="M74.07,25a7.41,7.41,0,0,1-6-.65,8.45,8.45,0,0,1-3.55-5.29,9.28,9.28,0,0,1,.26-6.44,6.41,6.41,0,0,1,4.41-3.55,6.25,6.25,0,0,1,5.17.64,7.5,7.5,0,0,1,3.11,4.65l0.41,1.54L67.22,18.75a6.16,6.16,0,0,0,2.42,3.66,4.84,4.84,0,0,0,4,.41,12.69,12.69,0,0,0,2.3-.85A14,14,0,0,0,78.3,20.4l0.6,2.23a12.76,12.76,0,0,1-2.21,1.43A14.33,14.33,0,0,1,74.07,25ZM69.69,11.16a3.82,3.82,0,0,0-2.57,1.95,5.7,5.7,0,0,0-.38,3.6l7.91-2.12a5.22,5.22,0,0,0-1.89-3A3.57,3.57,0,0,0,69.69,11.16Z"/>
  </g>
</svg>
