<svg id="Layer_1" data-name="Layer 1" xmlns="http://www.w3.org/2000/svg" viewBox="0 0 194.68 88.79">
  <defs>
    <style>
      .cls-1 {
        fill: #010101;
      }

      .cls-2 {
        fill: #231f20;
      }
    </style>
  </defs>
  <title>icon-JX</title>
  <path class="cls-1" d="M15.27,96.7A17.32,17.32,0,0,1,8,95.41V88a25.94,25.94,0,0,0,7.06,1q4.77,0,7.16-2.89t2.39-8.33V8.39h8.83V77q0,9.45-4.7,14.55T15.27,96.7Z" transform="translate(-8.02 -7.91)"/>
  <path class="cls-1" d="M80.68,91.83H69.81l-10.44-17-10.44,17H38.72l14.9-23.16L39.68,46.93h10.5l9.68,16.16,9.49-16.16H79.61L65.51,69.2Z" transform="translate(-8.02 -7.91)"/>
  <g>
    <path class="cls-2" d="M135.36,17.9q0,4.73-2.58,7.24t-7.41,2.5H120V8.52h5.89A9.46,9.46,0,0,1,132.88,11,9.29,9.29,0,0,1,135.36,17.9Zm-2.54.08a7.69,7.69,0,0,0-1.8-5.53q-1.8-1.88-5.43-1.88h-3.14v15h2.6Q132.83,25.58,132.83,18Z" transform="translate(-8.02 -7.91)"/>
    <path class="cls-2" d="M145.38,27.91a6.62,6.62,0,0,1-5.07-2,7.55,7.55,0,0,1-1.84-5.38,8.29,8.29,0,0,1,1.71-5.5,5.72,5.72,0,0,1,4.63-2,5.58,5.58,0,0,1,4.32,1.75,6.71,6.71,0,0,1,1.61,4.73v1.43h-9.83a5.5,5.5,0,0,0,1.24,3.71,4.32,4.32,0,0,0,3.33,1.27,11.31,11.31,0,0,0,2.18-.2,12.52,12.52,0,0,0,2.42-.79V27a11.38,11.38,0,0,1-2.24.72A12.74,12.74,0,0,1,145.38,27.91Zm-0.59-13A3.42,3.42,0,0,0,142.12,16a5.09,5.09,0,0,0-1.16,3h7.31a4.66,4.66,0,0,0-.93-3.06A3.19,3.19,0,0,0,144.79,14.95Z" transform="translate(-8.02 -7.91)"/>
    <path class="cls-2" d="M163.73,23.68a3.64,3.64,0,0,1-1.5,3.12A7,7,0,0,1,158,27.91a9.55,9.55,0,0,1-4.51-.9V24.86A10.42,10.42,0,0,0,158.05,26a4.56,4.56,0,0,0,2.59-.58,1.8,1.8,0,0,0,.81-1.54,1.75,1.75,0,0,0-.78-1.44,12.17,12.17,0,0,0-2.77-1.35,15.73,15.73,0,0,1-2.85-1.34,3.72,3.72,0,0,1-1.21-1.25,3.42,3.42,0,0,1-.39-1.69A3.24,3.24,0,0,1,154.9,14a6.72,6.72,0,0,1,3.95-1,11,11,0,0,1,4.58,1l-0.8,1.87a10.33,10.33,0,0,0-3.94-.92,4.31,4.31,0,0,0-2.22.46,1.43,1.43,0,0,0-.76,1.27,1.59,1.59,0,0,0,.65,1.3,14,14,0,0,0,3,1.43,13.35,13.35,0,0,1,2.65,1.24A3.9,3.9,0,0,1,163.32,22,3.46,3.46,0,0,1,163.73,23.68Z" transform="translate(-8.02 -7.91)"/>
    <path class="cls-2" d="M167,9.4a1.31,1.31,0,0,1,1.39-1.49,1.32,1.32,0,0,1,1.37,1.49,1.45,1.45,0,0,1-.41,1.14,1.48,1.48,0,0,1-1.95,0A1.47,1.47,0,0,1,167,9.4Zm2.54,18.24h-2.35V13.28h2.35V27.64Z" transform="translate(-8.02 -7.91)"/>
    <path class="cls-2" d="M183.7,27.51l0.08-1.77h-0.1a5,5,0,0,1-4.45,2.16A5.27,5.27,0,0,1,174.88,26a8.52,8.52,0,0,1-1.56-5.47A8.61,8.61,0,0,1,174.89,15a5.69,5.69,0,0,1,8.81.17h0.14l0.31-1.91H186V27.88a6.29,6.29,0,0,1-1.56,4.64,6.64,6.64,0,0,1-4.86,1.56,12.61,12.61,0,0,1-5.17-.92V31a11.12,11.12,0,0,0,5.3,1.12,3.9,3.9,0,0,0,2.9-1.07,4,4,0,0,0,1.07-3V27.51ZM179.58,26a3.91,3.91,0,0,0,3.16-1.17,5.8,5.8,0,0,0,1-3.76V20.49a7,7,0,0,0-1-4.18,3.77,3.77,0,0,0-3.2-1.31,3.2,3.2,0,0,0-2.79,1.43,7.16,7.16,0,0,0-1,4.09,7.17,7.17,0,0,0,1,4.07A3.25,3.25,0,0,0,179.58,26Z" transform="translate(-8.02 -7.91)"/>
    <path class="cls-2" d="M200.37,27.64V18.46a3.78,3.78,0,0,0-.78-2.61,3.14,3.14,0,0,0-2.44-.86,3.91,3.91,0,0,0-3.21,1.22,6.3,6.3,0,0,0-1,4v7.44h-2.35V13.28h1.9l0.35,2H193a4.43,4.43,0,0,1,1.87-1.64A6,6,0,0,1,197.5,13a5.34,5.34,0,0,1,3.92,1.28,5.44,5.44,0,0,1,1.28,4v9.35h-2.33Z" transform="translate(-8.02 -7.91)"/>
    <path class="cls-2" d="M118.87,54.8a5.15,5.15,0,0,1,.88-3A9.84,9.84,0,0,1,123,49.18a16.27,16.27,0,0,1-1.43-1.8A6.11,6.11,0,0,1,120.9,46a4.57,4.57,0,0,1-.24-1.47A3.85,3.85,0,0,1,122,41.49a5.37,5.37,0,0,1,3.64-1.12,4.93,4.93,0,0,1,3.39,1.1,3.85,3.85,0,0,1,1.24,3,4.25,4.25,0,0,1-.9,2.62,10,10,0,0,1-2.94,2.39l5.17,5a10,10,0,0,0,1.88-4.25h2.38A13,13,0,0,1,133.09,56L137,59.78h-3.19l-2.33-2.25a9.69,9.69,0,0,1-3.08,1.92,10,10,0,0,1-3.51.59,6.57,6.57,0,0,1-4.41-1.37A4.82,4.82,0,0,1,118.87,54.8ZM125,58a7.06,7.06,0,0,0,5-1.91l-5.57-5.4a8.28,8.28,0,0,0-2.44,2,3.51,3.51,0,0,0-.63,2.09,3,3,0,0,0,1,2.36A3.84,3.84,0,0,0,125,58Zm-2-13.44a3.51,3.51,0,0,0,.46,1.7,8.5,8.5,0,0,0,1.51,1.88,7.92,7.92,0,0,0,2.29-1.73,2.91,2.91,0,0,0,.67-1.88,2,2,0,0,0-.67-1.6,2.48,2.48,0,0,0-1.73-.6,2.67,2.67,0,0,0-1.85.61A2.06,2.06,0,0,0,123,44.52Z" transform="translate(-8.02 -7.91)"/>
    <path class="cls-2" d="M128.24,74.65a6,6,0,0,0-4.85,2.07,8.41,8.41,0,0,0-1.77,5.65,8.54,8.54,0,0,0,1.71,5.71,6.06,6.06,0,0,0,4.88,2,16.28,16.28,0,0,0,4.59-.76v2.09a11.73,11.73,0,0,1-2.34.61,18.2,18.2,0,0,1-2.59.16,8.24,8.24,0,0,1-6.51-2.57q-2.28-2.57-2.28-7.28a11.61,11.61,0,0,1,1.09-5.18,7.86,7.86,0,0,1,3.18-3.43,9.66,9.66,0,0,1,4.91-1.2,11.69,11.69,0,0,1,5.28,1.12l-1,2A10.46,10.46,0,0,0,128.24,74.65Z" transform="translate(-8.02 -7.91)"/>
    <path class="cls-2" d="M149.12,84.72a7.91,7.91,0,0,1-1.78,5.49,6.28,6.28,0,0,1-4.92,2,6.54,6.54,0,0,1-3.45-.91,6,6,0,0,1-2.31-2.61,9.08,9.08,0,0,1-.81-3.95,7.89,7.89,0,0,1,1.75-5.46,6.26,6.26,0,0,1,4.92-2,6.15,6.15,0,0,1,4.82,2A7.83,7.83,0,0,1,149.12,84.72Zm-10.84,0a6.73,6.73,0,0,0,1.07,4.11,4.2,4.2,0,0,0,6.27,0,6.7,6.7,0,0,0,1.07-4.11,6.49,6.49,0,0,0-1.08-4.07,3.78,3.78,0,0,0-3.16-1.37Q138.28,79.28,138.28,84.72Z" transform="translate(-8.02 -7.91)"/>
    <path class="cls-2" d="M157.94,92.19a5.24,5.24,0,0,1-4.34-1.94,8.6,8.6,0,0,1-1.54-5.48,8.7,8.7,0,0,1,1.55-5.49,5.76,5.76,0,0,1,8.81.14h0.17q0-.26-0.1-1.05t-0.07-1.07V71.58h2.35V91.92h-1.9L162.51,90h-0.1A5.07,5.07,0,0,1,157.94,92.19Zm0.38-1.95a3.88,3.88,0,0,0,3.13-1.17,6,6,0,0,0,1-3.84V84.8a7,7,0,0,0-1-4.27,3.75,3.75,0,0,0-3.15-1.27,3.21,3.21,0,0,0-2.81,1.44,7.24,7.24,0,0,0-1,4.13,6.89,6.89,0,0,0,1,4A3.29,3.29,0,0,0,158.31,90.24Z" transform="translate(-8.02 -7.91)"/>
    <path class="cls-2" d="M175.43,92.19a6.62,6.62,0,0,1-5.07-2,7.55,7.55,0,0,1-1.84-5.38,8.29,8.29,0,0,1,1.71-5.5,5.72,5.72,0,0,1,4.63-2A5.58,5.58,0,0,1,179.19,79a6.71,6.71,0,0,1,1.61,4.73V85.2H171a5.5,5.5,0,0,0,1.24,3.71,4.32,4.32,0,0,0,3.33,1.27,11.31,11.31,0,0,0,2.18-.2,12.52,12.52,0,0,0,2.42-.79v2.07a11.38,11.38,0,0,1-2.24.72A12.74,12.74,0,0,1,175.43,92.19Zm-0.59-13a3.42,3.42,0,0,0-2.67,1.09,5.09,5.09,0,0,0-1.16,3h7.31a4.66,4.66,0,0,0-.93-3.06A3.19,3.19,0,0,0,174.85,79.23Z" transform="translate(-8.02 -7.91)"/>
  </g>
</svg>
